%TF.GenerationSoftware,KiCad,Pcbnew,(6.0.2)*%
%TF.CreationDate,2022-03-08T23:09:40-05:00*%
%TF.ProjectId,st_pat,73745f70-6174-42e6-9b69-6361645f7063,rev?*%
%TF.SameCoordinates,Original*%
%TF.FileFunction,Legend,Bot*%
%TF.FilePolarity,Positive*%
%FSLAX46Y46*%
G04 Gerber Fmt 4.6, Leading zero omitted, Abs format (unit mm)*
G04 Created by KiCad (PCBNEW (6.0.2)) date 2022-03-08 23:09:40*
%MOMM*%
%LPD*%
G01*
G04 APERTURE LIST*
G04 Aperture macros list*
%AMRoundRect*
0 Rectangle with rounded corners*
0 $1 Rounding radius*
0 $2 $3 $4 $5 $6 $7 $8 $9 X,Y pos of 4 corners*
0 Add a 4 corners polygon primitive as box body*
4,1,4,$2,$3,$4,$5,$6,$7,$8,$9,$2,$3,0*
0 Add four circle primitives for the rounded corners*
1,1,$1+$1,$2,$3*
1,1,$1+$1,$4,$5*
1,1,$1+$1,$6,$7*
1,1,$1+$1,$8,$9*
0 Add four rect primitives between the rounded corners*
20,1,$1+$1,$2,$3,$4,$5,0*
20,1,$1+$1,$4,$5,$6,$7,0*
20,1,$1+$1,$6,$7,$8,$9,0*
20,1,$1+$1,$8,$9,$2,$3,0*%
G04 Aperture macros list end*
%ADD10C,0.150000*%
%ADD11C,0.015000*%
%ADD12C,0.120000*%
%ADD13C,0.127000*%
%ADD14C,2.000000*%
%ADD15C,3.200000*%
%ADD16C,1.530000*%
%ADD17C,4.400000*%
%ADD18C,1.524000*%
%ADD19C,4.500000*%
%ADD20RoundRect,0.250000X0.350000X0.625000X-0.350000X0.625000X-0.350000X-0.625000X0.350000X-0.625000X0*%
%ADD21O,1.200000X1.750000*%
%ADD22R,1.530000X1.530000*%
G04 APERTURE END LIST*
D10*
X195851333Y-74004761D02*
X195708476Y-74052380D01*
X195470380Y-74052380D01*
X195375142Y-74004761D01*
X195327523Y-73957142D01*
X195279904Y-73861904D01*
X195279904Y-73766666D01*
X195327523Y-73671428D01*
X195375142Y-73623809D01*
X195470380Y-73576190D01*
X195660857Y-73528571D01*
X195756095Y-73480952D01*
X195803714Y-73433333D01*
X195851333Y-73338095D01*
X195851333Y-73242857D01*
X195803714Y-73147619D01*
X195756095Y-73100000D01*
X195660857Y-73052380D01*
X195422761Y-73052380D01*
X195279904Y-73100000D01*
X194946571Y-73052380D02*
X194708476Y-74052380D01*
X194518000Y-73338095D01*
X194327523Y-74052380D01*
X194089428Y-73052380D01*
X193184666Y-74052380D02*
X193756095Y-74052380D01*
X193470380Y-74052380D02*
X193470380Y-73052380D01*
X193565619Y-73195238D01*
X193660857Y-73290476D01*
X193756095Y-73338095D01*
X165141380Y-84141095D02*
X165950904Y-84141095D01*
X166046142Y-84188714D01*
X166093761Y-84236333D01*
X166141380Y-84331571D01*
X166141380Y-84522047D01*
X166093761Y-84617285D01*
X166046142Y-84664904D01*
X165950904Y-84712523D01*
X165141380Y-84712523D01*
X165141380Y-85664904D02*
X165141380Y-85188714D01*
X165617571Y-85141095D01*
X165569952Y-85188714D01*
X165522333Y-85283952D01*
X165522333Y-85522047D01*
X165569952Y-85617285D01*
X165617571Y-85664904D01*
X165712809Y-85712523D01*
X165950904Y-85712523D01*
X166046142Y-85664904D01*
X166093761Y-85617285D01*
X166141380Y-85522047D01*
X166141380Y-85283952D01*
X166093761Y-85188714D01*
X166046142Y-85141095D01*
X192168333Y-64252380D02*
X192168333Y-64966666D01*
X192215952Y-65109523D01*
X192311190Y-65204761D01*
X192454047Y-65252380D01*
X192549285Y-65252380D01*
X191263571Y-64585714D02*
X191263571Y-65252380D01*
X191501666Y-64204761D02*
X191739761Y-64919047D01*
X191120714Y-64919047D01*
D11*
X193462380Y-96968095D02*
X194271904Y-96968095D01*
X194367142Y-97015714D01*
X194414761Y-97063333D01*
X194462380Y-97158571D01*
X194462380Y-97349047D01*
X194414761Y-97444285D01*
X194367142Y-97491904D01*
X194271904Y-97539523D01*
X193462380Y-97539523D01*
X193557619Y-97968095D02*
X193510000Y-98015714D01*
X193462380Y-98110952D01*
X193462380Y-98349047D01*
X193510000Y-98444285D01*
X193557619Y-98491904D01*
X193652857Y-98539523D01*
X193748095Y-98539523D01*
X193890952Y-98491904D01*
X194462380Y-97920476D01*
X194462380Y-98539523D01*
D10*
X99616904Y-114962380D02*
X99616904Y-115771904D01*
X99569285Y-115867142D01*
X99521666Y-115914761D01*
X99426428Y-115962380D01*
X99235952Y-115962380D01*
X99140714Y-115914761D01*
X99093095Y-115867142D01*
X99045476Y-115771904D01*
X99045476Y-114962380D01*
X98664523Y-114962380D02*
X98045476Y-114962380D01*
X98378809Y-115343333D01*
X98235952Y-115343333D01*
X98140714Y-115390952D01*
X98093095Y-115438571D01*
X98045476Y-115533809D01*
X98045476Y-115771904D01*
X98093095Y-115867142D01*
X98140714Y-115914761D01*
X98235952Y-115962380D01*
X98521666Y-115962380D01*
X98616904Y-115914761D01*
X98664523Y-115867142D01*
D12*
X196570000Y-78310000D02*
X196570000Y-68560000D01*
X206710000Y-68560000D02*
X196570000Y-68560000D01*
X196570000Y-78310000D02*
X206710000Y-78310000D01*
X206710000Y-78310000D02*
X206710000Y-68560000D01*
X158922000Y-143161000D02*
X127299000Y-143161000D01*
X127299000Y-143161000D02*
X127299000Y-105569000D01*
X127299000Y-105569000D02*
X158922000Y-105569000D01*
X158922000Y-105569000D02*
X158922000Y-143161000D01*
X161374000Y-103357000D02*
X130124000Y-103357000D01*
X130124000Y-103357000D02*
X130124000Y-60357000D01*
X130124000Y-60357000D02*
X161374000Y-60357000D01*
X161374000Y-60357000D02*
X161374000Y-103357000D01*
X184250000Y-63670000D02*
X184530000Y-63670000D01*
X183330000Y-69890000D02*
X183330000Y-62070000D01*
X189450000Y-63670000D02*
X188530000Y-63670000D01*
X186890000Y-65530000D02*
X185890000Y-65530000D01*
X189450000Y-69890000D02*
X183330000Y-69890000D01*
X187690000Y-67630000D02*
X187690000Y-69890000D01*
X183330000Y-62070000D02*
X184250000Y-62070000D01*
X188690000Y-66030000D02*
X188690000Y-67630000D01*
X185890000Y-65530000D02*
X185890000Y-69890000D01*
X184250000Y-62070000D02*
X184250000Y-63670000D01*
X187690000Y-67630000D02*
X187690000Y-66030000D01*
X188250000Y-63670000D02*
X188250000Y-62455000D01*
X188530000Y-62070000D02*
X189450000Y-62070000D01*
X185090000Y-67630000D02*
X185090000Y-66030000D01*
X188530000Y-63670000D02*
X188530000Y-62070000D01*
X188250000Y-63670000D02*
X188530000Y-63670000D01*
X186890000Y-69890000D02*
X186890000Y-65530000D01*
X189450000Y-62070000D02*
X189450000Y-69890000D01*
X188190000Y-67630000D02*
X188190000Y-69890000D01*
X184090000Y-67630000D02*
X185090000Y-67630000D01*
X188690000Y-67630000D02*
X187690000Y-67630000D01*
X183330000Y-63670000D02*
X184250000Y-63670000D01*
X184090000Y-66030000D02*
X184090000Y-67630000D01*
X185090000Y-66030000D02*
X184090000Y-66030000D01*
X187690000Y-66030000D02*
X188690000Y-66030000D01*
D13*
X182580000Y-97730000D02*
X182580000Y-143450000D01*
X185120000Y-145990000D02*
X202900000Y-145990000D01*
X205440000Y-143450000D02*
X205440000Y-97730000D01*
X202900000Y-95190000D02*
X185120000Y-95190000D01*
X202900000Y-145990000D02*
G75*
G03*
X205440000Y-143450000I-1J2540001D01*
G01*
X185120000Y-95190000D02*
G75*
G03*
X182580000Y-97730000I1J-2540001D01*
G01*
X205440000Y-97730000D02*
G75*
G03*
X202900000Y-95190000I-2540001J-1D01*
G01*
X182580000Y-143450000D02*
G75*
G03*
X185120000Y-145990000I2540001J1D01*
G01*
D12*
X107745000Y-114240000D02*
X89965000Y-114240000D01*
X89965000Y-139640000D02*
X107745000Y-139640000D01*
X107745000Y-139640000D02*
X107745000Y-114240000D01*
X89965000Y-114240000D02*
X89965000Y-139640000D01*
%LPC*%
D14*
X143464000Y-131362000D03*
X143464000Y-137862000D03*
X147964000Y-131362000D03*
X147964000Y-137862000D03*
X111714000Y-137862000D03*
X111714000Y-131362000D03*
X116214000Y-137862000D03*
X116214000Y-131362000D03*
D15*
X174960000Y-115510000D03*
X116540000Y-115510000D03*
X174960000Y-64710000D03*
X116540000Y-64710000D03*
D16*
X155910000Y-115510000D03*
X153370000Y-115510000D03*
X150830000Y-115510000D03*
X148290000Y-115510000D03*
X145750000Y-115510000D03*
X143210000Y-115510000D03*
X140670000Y-115510000D03*
X138130000Y-115510000D03*
X135590000Y-115510000D03*
D14*
X189744000Y-85066000D03*
X196244000Y-85066000D03*
X196244000Y-89566000D03*
X189744000Y-89566000D03*
D16*
X88600000Y-69949000D03*
X91140000Y-69949000D03*
X93680000Y-69949000D03*
X96220000Y-69949000D03*
X98760000Y-69949000D03*
X101300000Y-69949000D03*
X103840000Y-69949000D03*
X106380000Y-69949000D03*
X108920000Y-69949000D03*
D14*
X175214000Y-137862000D03*
X175214000Y-131362000D03*
X179714000Y-131362000D03*
X179714000Y-137862000D03*
D17*
X202900000Y-63440000D03*
X88600000Y-143450000D03*
X88600000Y-63440000D03*
D18*
X205440000Y-71060000D03*
X205440000Y-76140000D03*
X197820000Y-71060000D03*
X197820000Y-73600000D03*
X197820000Y-76140000D03*
X200360000Y-71060000D03*
X200360000Y-73600000D03*
X200360000Y-76140000D03*
D19*
X145750000Y-63440000D03*
X155874000Y-123857000D03*
X130220000Y-108490000D03*
X130220000Y-140240000D03*
X158250000Y-100240000D03*
X133250000Y-100240000D03*
D18*
X150370000Y-141145000D03*
X147830000Y-141145000D03*
X145290000Y-141145000D03*
X142750000Y-141145000D03*
X140210000Y-141145000D03*
X137670000Y-141145000D03*
D20*
X187390000Y-63530000D03*
D21*
X185390000Y-63530000D03*
D15*
X185120000Y-97730000D03*
X202900000Y-97730000D03*
X202900000Y-143450000D03*
X185120000Y-143450000D03*
D22*
X204170000Y-139640000D03*
D16*
X204170000Y-137100000D03*
X204170000Y-134560000D03*
X204170000Y-132020000D03*
X204170000Y-129480000D03*
X204170000Y-126940000D03*
X204170000Y-124400000D03*
X204170000Y-121860000D03*
X204170000Y-119320000D03*
X204170000Y-116780000D03*
X204170000Y-114240000D03*
X204170000Y-111700000D03*
X204170000Y-109160000D03*
X204170000Y-106620000D03*
X204170000Y-104080000D03*
X204170000Y-101540000D03*
D22*
X183850000Y-111700000D03*
D16*
X183850000Y-114240000D03*
X183850000Y-116780000D03*
X183850000Y-119320000D03*
X183850000Y-121860000D03*
X183850000Y-124400000D03*
X183850000Y-126940000D03*
X183850000Y-129480000D03*
X183850000Y-132020000D03*
X183850000Y-134560000D03*
X183850000Y-137100000D03*
X183850000Y-139640000D03*
X105205000Y-119320000D03*
X105205000Y-121860000D03*
X105205000Y-124400000D03*
X105205000Y-126940000D03*
X105205000Y-129480000D03*
X105205000Y-132020000D03*
X105205000Y-134560000D03*
M02*
