%TF.GenerationSoftware,KiCad,Pcbnew,5.1.9+dfsg1-1*%
%TF.CreationDate,2021-10-03T17:17:10+00:00*%
%TF.ProjectId,st_pat,73745f70-6174-42e6-9b69-6361645f7063,rev?*%
%TF.SameCoordinates,Original*%
%TF.FileFunction,Soldermask,Top*%
%TF.FilePolarity,Negative*%
%FSLAX46Y46*%
G04 Gerber Fmt 4.6, Leading zero omitted, Abs format (unit mm)*
G04 Created by KiCad (PCBNEW 5.1.9+dfsg1-1) date 2021-10-03 17:17:10*
%MOMM*%
%LPD*%
G01*
G04 APERTURE LIST*
%ADD10C,5.000000*%
%ADD11C,3.200000*%
%ADD12C,1.530000*%
%ADD13C,2.000000*%
%ADD14R,1.530000X1.530000*%
%ADD15C,2.500000*%
%ADD16C,3.000000*%
%ADD17C,1.524000*%
%ADD18O,1.200000X1.750000*%
G04 APERTURE END LIST*
D10*
%TO.C, *%
X196850000Y-120650000D03*
%TD*%
D11*
%TO.C,U1*%
X175260000Y-91440000D03*
X195580000Y-91440000D03*
D12*
X177800000Y-61976000D03*
X175260000Y-61976000D03*
X187960000Y-61976000D03*
X182880000Y-61976000D03*
X193040000Y-61976000D03*
X180340000Y-61976000D03*
X195580000Y-61976000D03*
X185420000Y-61976000D03*
X190500000Y-61976000D03*
%TD*%
D13*
%TO.C,SW5*%
X169164000Y-108562000D03*
X173664000Y-108562000D03*
X169164000Y-115062000D03*
X173664000Y-115062000D03*
%TD*%
%TO.C,SW4*%
X137414000Y-108562000D03*
X141914000Y-108562000D03*
X137414000Y-115062000D03*
X141914000Y-115062000D03*
%TD*%
%TO.C,SW3*%
X105664000Y-108562000D03*
X110164000Y-108562000D03*
X105664000Y-115062000D03*
X110164000Y-115062000D03*
%TD*%
%TO.C,SW2*%
X90320000Y-67056000D03*
X90320000Y-71556000D03*
X83820000Y-67056000D03*
X83820000Y-71556000D03*
%TD*%
D10*
%TO.C, *%
X82550000Y-120650000D03*
%TD*%
%TO.C, *%
X82550000Y-40640000D03*
%TD*%
%TO.C, *%
X196850000Y-40640000D03*
%TD*%
D12*
%TO.C,U4*%
X149860000Y-97028000D03*
X147320000Y-97028000D03*
X144780000Y-97028000D03*
X142240000Y-97028000D03*
X139700000Y-97028000D03*
X137160000Y-97028000D03*
X134620000Y-97028000D03*
X132080000Y-97028000D03*
X129540000Y-97028000D03*
D11*
X110490000Y-97028000D03*
X110490000Y-46228000D03*
X168910000Y-46228000D03*
X168910000Y-97028000D03*
%TD*%
D14*
%TO.C,U2*%
X120142000Y-122428000D03*
X148082000Y-102108000D03*
D11*
X162052000Y-103378000D03*
X162052000Y-121158000D03*
D12*
X145542000Y-102108000D03*
X143002000Y-102108000D03*
X140462000Y-102108000D03*
X137922000Y-102108000D03*
X135382000Y-102108000D03*
X132842000Y-102108000D03*
X130302000Y-102108000D03*
X127762000Y-102108000D03*
X125222000Y-102108000D03*
X122682000Y-102108000D03*
X120142000Y-102108000D03*
X122682000Y-122428000D03*
X125222000Y-122428000D03*
X127762000Y-122428000D03*
X130302000Y-122428000D03*
X132842000Y-122428000D03*
X135382000Y-122428000D03*
X137922000Y-122428000D03*
X140462000Y-122428000D03*
X143002000Y-122428000D03*
X145542000Y-122428000D03*
X148082000Y-122428000D03*
X150622000Y-122428000D03*
X153162000Y-122428000D03*
X155702000Y-122428000D03*
X158242000Y-122428000D03*
D11*
X116332000Y-121158000D03*
X116332000Y-103378000D03*
%TD*%
D12*
%TO.C,U3*%
X96520000Y-100330000D03*
D15*
X96520000Y-102870000D03*
X96520000Y-82550000D03*
D11*
X83820000Y-82550000D03*
X83820000Y-102870000D03*
D12*
X96520000Y-97790000D03*
X96520000Y-95250000D03*
X96520000Y-92710000D03*
X96520000Y-90170000D03*
X96520000Y-87630000D03*
X96520000Y-85090000D03*
%TD*%
D16*
%TO.C,U6*%
X128905000Y-72390000D03*
X128905000Y-40640000D03*
X97155000Y-40640000D03*
X97155000Y-72390000D03*
D17*
X119253000Y-71755000D03*
X116713000Y-71755000D03*
X114173000Y-71755000D03*
X111633000Y-71755000D03*
X109093000Y-71755000D03*
X106553000Y-71755000D03*
X104013000Y-71755000D03*
%TD*%
D16*
%TO.C,U5*%
X168275000Y-72390000D03*
X168275000Y-40640000D03*
X136525000Y-40640000D03*
X136525000Y-72390000D03*
D17*
X158623000Y-71755000D03*
X156083000Y-71755000D03*
X153543000Y-71755000D03*
X151003000Y-71755000D03*
X148463000Y-71755000D03*
X145923000Y-71755000D03*
X143383000Y-71755000D03*
%TD*%
%TO.C,R3*%
G36*
G01*
X151000000Y-113849999D02*
X151000000Y-114750001D01*
G75*
G02*
X150750001Y-115000000I-249999J0D01*
G01*
X150049999Y-115000000D01*
G75*
G02*
X149800000Y-114750001I0J249999D01*
G01*
X149800000Y-113849999D01*
G75*
G02*
X150049999Y-113600000I249999J0D01*
G01*
X150750001Y-113600000D01*
G75*
G02*
X151000000Y-113849999I0J-249999D01*
G01*
G37*
G36*
G01*
X153000000Y-113849999D02*
X153000000Y-114750001D01*
G75*
G02*
X152750001Y-115000000I-249999J0D01*
G01*
X152049999Y-115000000D01*
G75*
G02*
X151800000Y-114750001I0J249999D01*
G01*
X151800000Y-113849999D01*
G75*
G02*
X152049999Y-113600000I249999J0D01*
G01*
X152750001Y-113600000D01*
G75*
G02*
X153000000Y-113849999I0J-249999D01*
G01*
G37*
%TD*%
%TO.C,D3*%
G36*
G01*
X156835000Y-110985000D02*
X155585000Y-110985000D01*
G75*
G02*
X155335000Y-110735000I0J250000D01*
G01*
X155335000Y-109810000D01*
G75*
G02*
X155585000Y-109560000I250000J0D01*
G01*
X156835000Y-109560000D01*
G75*
G02*
X157085000Y-109810000I0J-250000D01*
G01*
X157085000Y-110735000D01*
G75*
G02*
X156835000Y-110985000I-250000J0D01*
G01*
G37*
G36*
G01*
X156835000Y-113960000D02*
X155585000Y-113960000D01*
G75*
G02*
X155335000Y-113710000I0J250000D01*
G01*
X155335000Y-112785000D01*
G75*
G02*
X155585000Y-112535000I250000J0D01*
G01*
X156835000Y-112535000D01*
G75*
G02*
X157085000Y-112785000I0J-250000D01*
G01*
X157085000Y-113710000D01*
G75*
G02*
X156835000Y-113960000I-250000J0D01*
G01*
G37*
%TD*%
%TO.C,SW1*%
X199390000Y-53340000D03*
X199390000Y-48260000D03*
X194310000Y-53340000D03*
X194310000Y-50800000D03*
X194310000Y-48260000D03*
X191770000Y-53340000D03*
X191770000Y-50800000D03*
X191770000Y-48260000D03*
%TD*%
%TO.C,R2*%
G36*
G01*
X116710000Y-112579999D02*
X116710000Y-113480001D01*
G75*
G02*
X116460001Y-113730000I-249999J0D01*
G01*
X115759999Y-113730000D01*
G75*
G02*
X115510000Y-113480001I0J249999D01*
G01*
X115510000Y-112579999D01*
G75*
G02*
X115759999Y-112330000I249999J0D01*
G01*
X116460001Y-112330000D01*
G75*
G02*
X116710000Y-112579999I0J-249999D01*
G01*
G37*
G36*
G01*
X118710000Y-112579999D02*
X118710000Y-113480001D01*
G75*
G02*
X118460001Y-113730000I-249999J0D01*
G01*
X117759999Y-113730000D01*
G75*
G02*
X117510000Y-113480001I0J249999D01*
G01*
X117510000Y-112579999D01*
G75*
G02*
X117759999Y-112330000I249999J0D01*
G01*
X118460001Y-112330000D01*
G75*
G02*
X118710000Y-112579999I0J-249999D01*
G01*
G37*
%TD*%
%TO.C,D2*%
G36*
G01*
X123815000Y-110948500D02*
X122565000Y-110948500D01*
G75*
G02*
X122315000Y-110698500I0J250000D01*
G01*
X122315000Y-109773500D01*
G75*
G02*
X122565000Y-109523500I250000J0D01*
G01*
X123815000Y-109523500D01*
G75*
G02*
X124065000Y-109773500I0J-250000D01*
G01*
X124065000Y-110698500D01*
G75*
G02*
X123815000Y-110948500I-250000J0D01*
G01*
G37*
G36*
G01*
X123815000Y-113923500D02*
X122565000Y-113923500D01*
G75*
G02*
X122315000Y-113673500I0J250000D01*
G01*
X122315000Y-112748500D01*
G75*
G02*
X122565000Y-112498500I250000J0D01*
G01*
X123815000Y-112498500D01*
G75*
G02*
X124065000Y-112748500I0J-250000D01*
G01*
X124065000Y-113673500D01*
G75*
G02*
X123815000Y-113923500I-250000J0D01*
G01*
G37*
%TD*%
D18*
%TO.C,J4*%
X176435000Y-41275000D03*
G36*
G01*
X179035000Y-40649999D02*
X179035000Y-41900001D01*
G75*
G02*
X178785001Y-42150000I-249999J0D01*
G01*
X178084999Y-42150000D01*
G75*
G02*
X177835000Y-41900001I0J249999D01*
G01*
X177835000Y-40649999D01*
G75*
G02*
X178084999Y-40400000I249999J0D01*
G01*
X178785001Y-40400000D01*
G75*
G02*
X179035000Y-40649999I0J-249999D01*
G01*
G37*
%TD*%
M02*
