%FSLAX45Y45*%
G04 Gerber Fmt 4.5, Leading zero omitted, Abs format (unit mm)*
G04 Created by KiCad (PCBNEW (6.0.2)) date 2022-03-08 23:09:55*
%MOMM*%
%LPD*%
G01*
G04 APERTURE LIST*
%TA.AperFunction,Profile*%
%ADD10C,0.150000*%
%TD*%
%ADD11C,0.200000*%
G04 APERTURE END LIST*
D10*
X8479000Y-6026500D02*
X20671000Y-6026500D01*
X8479000Y-14726000D02*
X8479000Y-6026500D01*
X20671000Y-6026500D02*
X20671000Y-14726000D01*
X20671000Y-14726000D02*
X8479000Y-14726000D01*
D11*
X8729119Y-15043976D02*
X8729119Y-14843976D01*
X8776738Y-14843976D01*
X8805310Y-14853500D01*
X8824357Y-14872548D01*
X8833881Y-14891595D01*
X8843405Y-14929690D01*
X8843405Y-14958262D01*
X8833881Y-14996357D01*
X8824357Y-15015405D01*
X8805310Y-15034452D01*
X8776738Y-15043976D01*
X8729119Y-15043976D01*
X8929119Y-15043976D02*
X8929119Y-14910643D01*
X8929119Y-14948738D02*
X8938643Y-14929690D01*
X8948167Y-14920167D01*
X8967214Y-14910643D01*
X8986262Y-14910643D01*
X9052929Y-15043976D02*
X9052929Y-14910643D01*
X9052929Y-14843976D02*
X9043405Y-14853500D01*
X9052929Y-14863024D01*
X9062452Y-14853500D01*
X9052929Y-14843976D01*
X9052929Y-14863024D01*
X9176738Y-15043976D02*
X9157690Y-15034452D01*
X9148167Y-15015405D01*
X9148167Y-14843976D01*
X9281500Y-15043976D02*
X9262452Y-15034452D01*
X9252929Y-15015405D01*
X9252929Y-14843976D01*
X9510071Y-15043976D02*
X9510071Y-14843976D01*
X9576738Y-14986833D01*
X9643405Y-14843976D01*
X9643405Y-15043976D01*
X9824357Y-15043976D02*
X9824357Y-14939214D01*
X9814833Y-14920167D01*
X9795786Y-14910643D01*
X9757690Y-14910643D01*
X9738643Y-14920167D01*
X9824357Y-15034452D02*
X9805310Y-15043976D01*
X9757690Y-15043976D01*
X9738643Y-15034452D01*
X9729119Y-15015405D01*
X9729119Y-14996357D01*
X9738643Y-14977309D01*
X9757690Y-14967786D01*
X9805310Y-14967786D01*
X9824357Y-14958262D01*
X9919595Y-14910643D02*
X9919595Y-15110643D01*
X9919595Y-14920167D02*
X9938643Y-14910643D01*
X9976738Y-14910643D01*
X9995786Y-14920167D01*
X10005310Y-14929690D01*
X10014833Y-14948738D01*
X10014833Y-15005881D01*
X10005310Y-15024928D01*
X9995786Y-15034452D01*
X9976738Y-15043976D01*
X9938643Y-15043976D01*
X9919595Y-15034452D01*
X10100548Y-15024928D02*
X10110071Y-15034452D01*
X10100548Y-15043976D01*
X10091024Y-15034452D01*
X10100548Y-15024928D01*
X10100548Y-15043976D01*
X10100548Y-14920167D02*
X10110071Y-14929690D01*
X10100548Y-14939214D01*
X10091024Y-14929690D01*
X10100548Y-14920167D01*
X10100548Y-14939214D01*
M02*
