%TF.GenerationSoftware,KiCad,Pcbnew,6.0.1+dfsg-1*%
%TF.CreationDate,2022-03-07T03:58:01+00:00*%
%TF.ProjectId,st_pat,73745f70-6174-42e6-9b69-6361645f7063,rev?*%
%TF.SameCoordinates,Original*%
%TF.FileFunction,Soldermask,Bot*%
%TF.FilePolarity,Negative*%
%FSLAX46Y46*%
G04 Gerber Fmt 4.6, Leading zero omitted, Abs format (unit mm)*
G04 Created by KiCad (PCBNEW 6.0.1+dfsg-1) date 2022-03-07 03:58:01*
%MOMM*%
%LPD*%
G01*
G04 APERTURE LIST*
G04 Aperture macros list*
%AMRoundRect*
0 Rectangle with rounded corners*
0 $1 Rounding radius*
0 $2 $3 $4 $5 $6 $7 $8 $9 X,Y pos of 4 corners*
0 Add a 4 corners polygon primitive as box body*
4,1,4,$2,$3,$4,$5,$6,$7,$8,$9,$2,$3,0*
0 Add four circle primitives for the rounded corners*
1,1,$1+$1,$2,$3*
1,1,$1+$1,$4,$5*
1,1,$1+$1,$6,$7*
1,1,$1+$1,$8,$9*
0 Add four rect primitives between the rounded corners*
20,1,$1+$1,$2,$3,$4,$5,0*
20,1,$1+$1,$4,$5,$6,$7,0*
20,1,$1+$1,$6,$7,$8,$9,0*
20,1,$1+$1,$8,$9,$2,$3,0*%
G04 Aperture macros list end*
%ADD10C,2.000000*%
%ADD11C,3.200000*%
%ADD12C,1.530000*%
%ADD13C,4.400000*%
%ADD14C,1.524000*%
%ADD15C,4.500000*%
%ADD16RoundRect,0.250000X0.350000X0.625000X-0.350000X0.625000X-0.350000X-0.625000X0.350000X-0.625000X0*%
%ADD17O,1.200000X1.750000*%
%ADD18R,1.530000X1.530000*%
G04 APERTURE END LIST*
D10*
X143464000Y-131362000D03*
X143464000Y-137862000D03*
X147964000Y-131362000D03*
X147964000Y-137862000D03*
X111714000Y-137862000D03*
X111714000Y-131362000D03*
X116214000Y-137862000D03*
X116214000Y-131362000D03*
D11*
X174960000Y-115510000D03*
X116540000Y-115510000D03*
X174960000Y-64710000D03*
X116540000Y-64710000D03*
D12*
X155910000Y-115510000D03*
X153370000Y-115510000D03*
X150830000Y-115510000D03*
X148290000Y-115510000D03*
X145750000Y-115510000D03*
X143210000Y-115510000D03*
X140670000Y-115510000D03*
X138130000Y-115510000D03*
X135590000Y-115510000D03*
D10*
X189744000Y-85066000D03*
X196244000Y-85066000D03*
X196244000Y-89566000D03*
X189744000Y-89566000D03*
D12*
X88600000Y-69949000D03*
X91140000Y-69949000D03*
X93680000Y-69949000D03*
X96220000Y-69949000D03*
X98760000Y-69949000D03*
X101300000Y-69949000D03*
X103840000Y-69949000D03*
X106380000Y-69949000D03*
X108920000Y-69949000D03*
D10*
X175214000Y-137862000D03*
X175214000Y-131362000D03*
X179714000Y-131362000D03*
X179714000Y-137862000D03*
D13*
X202900000Y-63440000D03*
X88600000Y-143450000D03*
X88600000Y-63440000D03*
D14*
X205440000Y-71060000D03*
X205440000Y-76140000D03*
X197820000Y-71060000D03*
X197820000Y-73600000D03*
X197820000Y-76140000D03*
X200360000Y-71060000D03*
X200360000Y-73600000D03*
X200360000Y-76140000D03*
D15*
X145750000Y-63440000D03*
X155874000Y-123857000D03*
X130220000Y-108490000D03*
X130220000Y-140240000D03*
X158250000Y-100240000D03*
X133250000Y-100240000D03*
D14*
X150370000Y-141145000D03*
X147830000Y-141145000D03*
X145290000Y-141145000D03*
X142750000Y-141145000D03*
X140210000Y-141145000D03*
X137670000Y-141145000D03*
D16*
X187390000Y-63530000D03*
D17*
X185390000Y-63530000D03*
D11*
X185120000Y-97730000D03*
X202900000Y-97730000D03*
X202900000Y-143450000D03*
X185120000Y-143450000D03*
D18*
X204170000Y-139640000D03*
D12*
X204170000Y-137100000D03*
X204170000Y-134560000D03*
X204170000Y-132020000D03*
X204170000Y-129480000D03*
X204170000Y-126940000D03*
X204170000Y-124400000D03*
X204170000Y-121860000D03*
X204170000Y-119320000D03*
X204170000Y-116780000D03*
X204170000Y-114240000D03*
X204170000Y-111700000D03*
X204170000Y-109160000D03*
X204170000Y-106620000D03*
X204170000Y-104080000D03*
X204170000Y-101540000D03*
D18*
X183850000Y-111700000D03*
D12*
X183850000Y-114240000D03*
X183850000Y-116780000D03*
X183850000Y-119320000D03*
X183850000Y-121860000D03*
X183850000Y-124400000D03*
X183850000Y-126940000D03*
X183850000Y-129480000D03*
X183850000Y-132020000D03*
X183850000Y-134560000D03*
X183850000Y-137100000D03*
X183850000Y-139640000D03*
X105205000Y-119320000D03*
X105205000Y-121860000D03*
X105205000Y-124400000D03*
X105205000Y-126940000D03*
X105205000Y-129480000D03*
X105205000Y-132020000D03*
X105205000Y-134560000D03*
M02*
