%TF.GenerationSoftware,KiCad,Pcbnew,5.1.9+dfsg1-1*%
%TF.CreationDate,2021-10-03T17:17:10+00:00*%
%TF.ProjectId,st_pat,73745f70-6174-42e6-9b69-6361645f7063,rev?*%
%TF.SameCoordinates,Original*%
%TF.FileFunction,Legend,Top*%
%TF.FilePolarity,Positive*%
%FSLAX46Y46*%
G04 Gerber Fmt 4.6, Leading zero omitted, Abs format (unit mm)*
G04 Created by KiCad (PCBNEW 5.1.9+dfsg1-1) date 2021-10-03 17:17:10*
%MOMM*%
%LPD*%
G01*
G04 APERTURE LIST*
%ADD10C,0.120000*%
%ADD11C,0.150000*%
G04 APERTURE END LIST*
D10*
%TO.C,U1*%
X198120000Y-93980000D02*
X172720000Y-93980000D01*
X198120000Y-59944000D02*
X198120000Y-93980000D01*
X172720000Y-59944000D02*
X198120000Y-59944000D01*
X172720000Y-93980000D02*
X172720000Y-59944000D01*
%TO.C,SW5*%
X174664000Y-114062000D02*
X174664000Y-109562000D01*
X170664000Y-115312000D02*
X172164000Y-115312000D01*
X168164000Y-109562000D02*
X168164000Y-114062000D01*
X172164000Y-108312000D02*
X170664000Y-108312000D01*
%TO.C,SW4*%
X142914000Y-114062000D02*
X142914000Y-109562000D01*
X138914000Y-115312000D02*
X140414000Y-115312000D01*
X136414000Y-109562000D02*
X136414000Y-114062000D01*
X140414000Y-108312000D02*
X138914000Y-108312000D01*
%TO.C,SW3*%
X111164000Y-114062000D02*
X111164000Y-109562000D01*
X107164000Y-115312000D02*
X108664000Y-115312000D01*
X104664000Y-109562000D02*
X104664000Y-114062000D01*
X108664000Y-108312000D02*
X107164000Y-108312000D01*
%TO.C,SW2*%
X84820000Y-72556000D02*
X89320000Y-72556000D01*
X83570000Y-68556000D02*
X83570000Y-70056000D01*
X89320000Y-66056000D02*
X84820000Y-66056000D01*
X90570000Y-70056000D02*
X90570000Y-68556000D01*
%TO.C,U4*%
X171450000Y-99568000D02*
X107950000Y-99568000D01*
X107950000Y-99568000D02*
X107950000Y-43688000D01*
X107950000Y-43688000D02*
X171450000Y-43688000D01*
X171450000Y-43688000D02*
X171450000Y-99568000D01*
%TO.C,U3*%
X81280000Y-105410000D02*
X81280000Y-80010000D01*
X81280000Y-80010000D02*
X99060000Y-80010000D01*
X99060000Y-80010000D02*
X99060000Y-105410000D01*
X99060000Y-105410000D02*
X81280000Y-105410000D01*
%TO.C,R3*%
X151627064Y-113565000D02*
X151172936Y-113565000D01*
X151627064Y-115035000D02*
X151172936Y-115035000D01*
%TO.C,D3*%
X157345000Y-114220000D02*
X157345000Y-110160000D01*
X155075000Y-114220000D02*
X157345000Y-114220000D01*
X155075000Y-110160000D02*
X155075000Y-114220000D01*
%TO.C,R2*%
X117337064Y-112295000D02*
X116882936Y-112295000D01*
X117337064Y-113765000D02*
X116882936Y-113765000D01*
%TO.C,D2*%
X124325000Y-114183500D02*
X124325000Y-110123500D01*
X122055000Y-114183500D02*
X124325000Y-114183500D01*
X122055000Y-110123500D02*
X122055000Y-114183500D01*
%TO.C, *%
D11*
%TO.C,U1*%
X185166095Y-89368380D02*
X185166095Y-90177904D01*
X185213714Y-90273142D01*
X185261333Y-90320761D01*
X185356571Y-90368380D01*
X185547047Y-90368380D01*
X185642285Y-90320761D01*
X185689904Y-90273142D01*
X185737523Y-90177904D01*
X185737523Y-89368380D01*
X186737523Y-90368380D02*
X186166095Y-90368380D01*
X186451809Y-90368380D02*
X186451809Y-89368380D01*
X186356571Y-89511238D01*
X186261333Y-89606476D01*
X186166095Y-89654095D01*
X179737523Y-91448000D02*
X179642285Y-91400380D01*
X179499428Y-91400380D01*
X179356571Y-91448000D01*
X179261333Y-91543238D01*
X179213714Y-91638476D01*
X179166095Y-91828952D01*
X179166095Y-91971809D01*
X179213714Y-92162285D01*
X179261333Y-92257523D01*
X179356571Y-92352761D01*
X179499428Y-92400380D01*
X179594666Y-92400380D01*
X179737523Y-92352761D01*
X179785142Y-92305142D01*
X179785142Y-91971809D01*
X179594666Y-91971809D01*
X180213714Y-92400380D02*
X180213714Y-91400380D01*
X180594666Y-91400380D01*
X180689904Y-91448000D01*
X180737523Y-91495619D01*
X180785142Y-91590857D01*
X180785142Y-91733714D01*
X180737523Y-91828952D01*
X180689904Y-91876571D01*
X180594666Y-91924190D01*
X180213714Y-91924190D01*
X181166095Y-92352761D02*
X181308952Y-92400380D01*
X181547047Y-92400380D01*
X181642285Y-92352761D01*
X181689904Y-92305142D01*
X181737523Y-92209904D01*
X181737523Y-92114666D01*
X181689904Y-92019428D01*
X181642285Y-91971809D01*
X181547047Y-91924190D01*
X181356571Y-91876571D01*
X181261333Y-91828952D01*
X181213714Y-91781333D01*
X181166095Y-91686095D01*
X181166095Y-91590857D01*
X181213714Y-91495619D01*
X181261333Y-91448000D01*
X181356571Y-91400380D01*
X181594666Y-91400380D01*
X181737523Y-91448000D01*
X181928000Y-92495619D02*
X182689904Y-92495619D01*
X183261333Y-91876571D02*
X183404190Y-91924190D01*
X183451809Y-91971809D01*
X183499428Y-92067047D01*
X183499428Y-92209904D01*
X183451809Y-92305142D01*
X183404190Y-92352761D01*
X183308952Y-92400380D01*
X182928000Y-92400380D01*
X182928000Y-91400380D01*
X183261333Y-91400380D01*
X183356571Y-91448000D01*
X183404190Y-91495619D01*
X183451809Y-91590857D01*
X183451809Y-91686095D01*
X183404190Y-91781333D01*
X183356571Y-91828952D01*
X183261333Y-91876571D01*
X182928000Y-91876571D01*
X183928000Y-92400380D02*
X183928000Y-91733714D01*
X183928000Y-91924190D02*
X183975619Y-91828952D01*
X184023238Y-91781333D01*
X184118476Y-91733714D01*
X184213714Y-91733714D01*
X184928000Y-92352761D02*
X184832761Y-92400380D01*
X184642285Y-92400380D01*
X184547047Y-92352761D01*
X184499428Y-92257523D01*
X184499428Y-91876571D01*
X184547047Y-91781333D01*
X184642285Y-91733714D01*
X184832761Y-91733714D01*
X184928000Y-91781333D01*
X184975619Y-91876571D01*
X184975619Y-91971809D01*
X184499428Y-92067047D01*
X185832761Y-92400380D02*
X185832761Y-91876571D01*
X185785142Y-91781333D01*
X185689904Y-91733714D01*
X185499428Y-91733714D01*
X185404190Y-91781333D01*
X185832761Y-92352761D02*
X185737523Y-92400380D01*
X185499428Y-92400380D01*
X185404190Y-92352761D01*
X185356571Y-92257523D01*
X185356571Y-92162285D01*
X185404190Y-92067047D01*
X185499428Y-92019428D01*
X185737523Y-92019428D01*
X185832761Y-91971809D01*
X186308952Y-92400380D02*
X186308952Y-91400380D01*
X186404190Y-92019428D02*
X186689904Y-92400380D01*
X186689904Y-91733714D02*
X186308952Y-92114666D01*
X187261333Y-92400380D02*
X187166095Y-92352761D01*
X187118476Y-92305142D01*
X187070857Y-92209904D01*
X187070857Y-91924190D01*
X187118476Y-91828952D01*
X187166095Y-91781333D01*
X187261333Y-91733714D01*
X187404190Y-91733714D01*
X187499428Y-91781333D01*
X187547047Y-91828952D01*
X187594666Y-91924190D01*
X187594666Y-92209904D01*
X187547047Y-92305142D01*
X187499428Y-92352761D01*
X187404190Y-92400380D01*
X187261333Y-92400380D01*
X188451809Y-91733714D02*
X188451809Y-92400380D01*
X188023238Y-91733714D02*
X188023238Y-92257523D01*
X188070857Y-92352761D01*
X188166095Y-92400380D01*
X188308952Y-92400380D01*
X188404190Y-92352761D01*
X188451809Y-92305142D01*
X188785142Y-91733714D02*
X189166095Y-91733714D01*
X188928000Y-91400380D02*
X188928000Y-92257523D01*
X188975619Y-92352761D01*
X189070857Y-92400380D01*
X189166095Y-92400380D01*
X189261333Y-92495619D02*
X190023238Y-92495619D01*
X190166095Y-91400380D02*
X190832761Y-91400380D01*
X190404190Y-92400380D01*
X191642285Y-91733714D02*
X191642285Y-92400380D01*
X191404190Y-91352761D02*
X191166095Y-92067047D01*
X191785142Y-92067047D01*
X192594666Y-91400380D02*
X192404190Y-91400380D01*
X192308952Y-91448000D01*
X192261333Y-91495619D01*
X192166095Y-91638476D01*
X192118476Y-91828952D01*
X192118476Y-92209904D01*
X192166095Y-92305142D01*
X192213714Y-92352761D01*
X192308952Y-92400380D01*
X192499428Y-92400380D01*
X192594666Y-92352761D01*
X192642285Y-92305142D01*
X192689904Y-92209904D01*
X192689904Y-91971809D01*
X192642285Y-91876571D01*
X192594666Y-91828952D01*
X192499428Y-91781333D01*
X192308952Y-91781333D01*
X192213714Y-91828952D01*
X192166095Y-91876571D01*
X192118476Y-91971809D01*
%TO.C,SW5*%
X169862666Y-117752761D02*
X170005523Y-117800380D01*
X170243619Y-117800380D01*
X170338857Y-117752761D01*
X170386476Y-117705142D01*
X170434095Y-117609904D01*
X170434095Y-117514666D01*
X170386476Y-117419428D01*
X170338857Y-117371809D01*
X170243619Y-117324190D01*
X170053142Y-117276571D01*
X169957904Y-117228952D01*
X169910285Y-117181333D01*
X169862666Y-117086095D01*
X169862666Y-116990857D01*
X169910285Y-116895619D01*
X169957904Y-116848000D01*
X170053142Y-116800380D01*
X170291238Y-116800380D01*
X170434095Y-116848000D01*
X170767428Y-116800380D02*
X171005523Y-117800380D01*
X171196000Y-117086095D01*
X171386476Y-117800380D01*
X171624571Y-116800380D01*
X172481714Y-116800380D02*
X172005523Y-116800380D01*
X171957904Y-117276571D01*
X172005523Y-117228952D01*
X172100761Y-117181333D01*
X172338857Y-117181333D01*
X172434095Y-117228952D01*
X172481714Y-117276571D01*
X172529333Y-117371809D01*
X172529333Y-117609904D01*
X172481714Y-117705142D01*
X172434095Y-117752761D01*
X172338857Y-117800380D01*
X172100761Y-117800380D01*
X172005523Y-117752761D01*
X171957904Y-117705142D01*
%TO.C,SW4*%
X138366666Y-117752761D02*
X138509523Y-117800380D01*
X138747619Y-117800380D01*
X138842857Y-117752761D01*
X138890476Y-117705142D01*
X138938095Y-117609904D01*
X138938095Y-117514666D01*
X138890476Y-117419428D01*
X138842857Y-117371809D01*
X138747619Y-117324190D01*
X138557142Y-117276571D01*
X138461904Y-117228952D01*
X138414285Y-117181333D01*
X138366666Y-117086095D01*
X138366666Y-116990857D01*
X138414285Y-116895619D01*
X138461904Y-116848000D01*
X138557142Y-116800380D01*
X138795238Y-116800380D01*
X138938095Y-116848000D01*
X139271428Y-116800380D02*
X139509523Y-117800380D01*
X139700000Y-117086095D01*
X139890476Y-117800380D01*
X140128571Y-116800380D01*
X140938095Y-117133714D02*
X140938095Y-117800380D01*
X140700000Y-116752761D02*
X140461904Y-117467047D01*
X141080952Y-117467047D01*
%TO.C,SW3*%
X106870666Y-117752761D02*
X107013523Y-117800380D01*
X107251619Y-117800380D01*
X107346857Y-117752761D01*
X107394476Y-117705142D01*
X107442095Y-117609904D01*
X107442095Y-117514666D01*
X107394476Y-117419428D01*
X107346857Y-117371809D01*
X107251619Y-117324190D01*
X107061142Y-117276571D01*
X106965904Y-117228952D01*
X106918285Y-117181333D01*
X106870666Y-117086095D01*
X106870666Y-116990857D01*
X106918285Y-116895619D01*
X106965904Y-116848000D01*
X107061142Y-116800380D01*
X107299238Y-116800380D01*
X107442095Y-116848000D01*
X107775428Y-116800380D02*
X108013523Y-117800380D01*
X108204000Y-117086095D01*
X108394476Y-117800380D01*
X108632571Y-116800380D01*
X108918285Y-116800380D02*
X109537333Y-116800380D01*
X109204000Y-117181333D01*
X109346857Y-117181333D01*
X109442095Y-117228952D01*
X109489714Y-117276571D01*
X109537333Y-117371809D01*
X109537333Y-117609904D01*
X109489714Y-117705142D01*
X109442095Y-117752761D01*
X109346857Y-117800380D01*
X109061142Y-117800380D01*
X108965904Y-117752761D01*
X108918285Y-117705142D01*
%TO.C,SW2*%
X85736666Y-65460761D02*
X85879523Y-65508380D01*
X86117619Y-65508380D01*
X86212857Y-65460761D01*
X86260476Y-65413142D01*
X86308095Y-65317904D01*
X86308095Y-65222666D01*
X86260476Y-65127428D01*
X86212857Y-65079809D01*
X86117619Y-65032190D01*
X85927142Y-64984571D01*
X85831904Y-64936952D01*
X85784285Y-64889333D01*
X85736666Y-64794095D01*
X85736666Y-64698857D01*
X85784285Y-64603619D01*
X85831904Y-64556000D01*
X85927142Y-64508380D01*
X86165238Y-64508380D01*
X86308095Y-64556000D01*
X86641428Y-64508380D02*
X86879523Y-65508380D01*
X87070000Y-64794095D01*
X87260476Y-65508380D01*
X87498571Y-64508380D01*
X87831904Y-64603619D02*
X87879523Y-64556000D01*
X87974761Y-64508380D01*
X88212857Y-64508380D01*
X88308095Y-64556000D01*
X88355714Y-64603619D01*
X88403333Y-64698857D01*
X88403333Y-64794095D01*
X88355714Y-64936952D01*
X87784285Y-65508380D01*
X88403333Y-65508380D01*
%TO.C, *%
%TO.C,U4*%
X138938095Y-90892380D02*
X138938095Y-91701904D01*
X138985714Y-91797142D01*
X139033333Y-91844761D01*
X139128571Y-91892380D01*
X139319047Y-91892380D01*
X139414285Y-91844761D01*
X139461904Y-91797142D01*
X139509523Y-91701904D01*
X139509523Y-90892380D01*
X140414285Y-91225714D02*
X140414285Y-91892380D01*
X140176190Y-90844761D02*
X139938095Y-91559047D01*
X140557142Y-91559047D01*
X132390476Y-94384761D02*
X132533333Y-94432380D01*
X132771428Y-94432380D01*
X132866666Y-94384761D01*
X132914285Y-94337142D01*
X132961904Y-94241904D01*
X132961904Y-94146666D01*
X132914285Y-94051428D01*
X132866666Y-94003809D01*
X132771428Y-93956190D01*
X132580952Y-93908571D01*
X132485714Y-93860952D01*
X132438095Y-93813333D01*
X132390476Y-93718095D01*
X132390476Y-93622857D01*
X132438095Y-93527619D01*
X132485714Y-93480000D01*
X132580952Y-93432380D01*
X132819047Y-93432380D01*
X132961904Y-93480000D01*
X133390476Y-94432380D02*
X133390476Y-93432380D01*
X133819047Y-94432380D02*
X133819047Y-93908571D01*
X133771428Y-93813333D01*
X133676190Y-93765714D01*
X133533333Y-93765714D01*
X133438095Y-93813333D01*
X133390476Y-93860952D01*
X134723809Y-94432380D02*
X134723809Y-93908571D01*
X134676190Y-93813333D01*
X134580952Y-93765714D01*
X134390476Y-93765714D01*
X134295238Y-93813333D01*
X134723809Y-94384761D02*
X134628571Y-94432380D01*
X134390476Y-94432380D01*
X134295238Y-94384761D01*
X134247619Y-94289523D01*
X134247619Y-94194285D01*
X134295238Y-94099047D01*
X134390476Y-94051428D01*
X134628571Y-94051428D01*
X134723809Y-94003809D01*
X135200000Y-94432380D02*
X135200000Y-93765714D01*
X135200000Y-93956190D02*
X135247619Y-93860952D01*
X135295238Y-93813333D01*
X135390476Y-93765714D01*
X135485714Y-93765714D01*
X135819047Y-93765714D02*
X135819047Y-94765714D01*
X135819047Y-93813333D02*
X135914285Y-93765714D01*
X136104761Y-93765714D01*
X136200000Y-93813333D01*
X136247619Y-93860952D01*
X136295238Y-93956190D01*
X136295238Y-94241904D01*
X136247619Y-94337142D01*
X136200000Y-94384761D01*
X136104761Y-94432380D01*
X135914285Y-94432380D01*
X135819047Y-94384761D01*
X136485714Y-94527619D02*
X137247619Y-94527619D01*
X137485714Y-94432380D02*
X137485714Y-93432380D01*
X137723809Y-93432380D01*
X137866666Y-93480000D01*
X137961904Y-93575238D01*
X138009523Y-93670476D01*
X138057142Y-93860952D01*
X138057142Y-94003809D01*
X138009523Y-94194285D01*
X137961904Y-94289523D01*
X137866666Y-94384761D01*
X137723809Y-94432380D01*
X137485714Y-94432380D01*
X138485714Y-94432380D02*
X138485714Y-93765714D01*
X138485714Y-93432380D02*
X138438095Y-93480000D01*
X138485714Y-93527619D01*
X138533333Y-93480000D01*
X138485714Y-93432380D01*
X138485714Y-93527619D01*
X138914285Y-94384761D02*
X139009523Y-94432380D01*
X139200000Y-94432380D01*
X139295238Y-94384761D01*
X139342857Y-94289523D01*
X139342857Y-94241904D01*
X139295238Y-94146666D01*
X139200000Y-94099047D01*
X139057142Y-94099047D01*
X138961904Y-94051428D01*
X138914285Y-93956190D01*
X138914285Y-93908571D01*
X138961904Y-93813333D01*
X139057142Y-93765714D01*
X139200000Y-93765714D01*
X139295238Y-93813333D01*
X139771428Y-93765714D02*
X139771428Y-94765714D01*
X139771428Y-93813333D02*
X139866666Y-93765714D01*
X140057142Y-93765714D01*
X140152380Y-93813333D01*
X140200000Y-93860952D01*
X140247619Y-93956190D01*
X140247619Y-94241904D01*
X140200000Y-94337142D01*
X140152380Y-94384761D01*
X140057142Y-94432380D01*
X139866666Y-94432380D01*
X139771428Y-94384761D01*
X140819047Y-94432380D02*
X140723809Y-94384761D01*
X140676190Y-94289523D01*
X140676190Y-93432380D01*
X141628571Y-94432380D02*
X141628571Y-93908571D01*
X141580952Y-93813333D01*
X141485714Y-93765714D01*
X141295238Y-93765714D01*
X141200000Y-93813333D01*
X141628571Y-94384761D02*
X141533333Y-94432380D01*
X141295238Y-94432380D01*
X141200000Y-94384761D01*
X141152380Y-94289523D01*
X141152380Y-94194285D01*
X141200000Y-94099047D01*
X141295238Y-94051428D01*
X141533333Y-94051428D01*
X141628571Y-94003809D01*
X142009523Y-93765714D02*
X142247619Y-94432380D01*
X142485714Y-93765714D02*
X142247619Y-94432380D01*
X142152380Y-94670476D01*
X142104761Y-94718095D01*
X142009523Y-94765714D01*
X142628571Y-94527619D02*
X143390476Y-94527619D01*
X144057142Y-93765714D02*
X144057142Y-94432380D01*
X143819047Y-93384761D02*
X143580952Y-94099047D01*
X144200000Y-94099047D01*
X145009523Y-93432380D02*
X144819047Y-93432380D01*
X144723809Y-93480000D01*
X144676190Y-93527619D01*
X144580952Y-93670476D01*
X144533333Y-93860952D01*
X144533333Y-94241904D01*
X144580952Y-94337142D01*
X144628571Y-94384761D01*
X144723809Y-94432380D01*
X144914285Y-94432380D01*
X145009523Y-94384761D01*
X145057142Y-94337142D01*
X145104761Y-94241904D01*
X145104761Y-94003809D01*
X145057142Y-93908571D01*
X145009523Y-93860952D01*
X144914285Y-93813333D01*
X144723809Y-93813333D01*
X144628571Y-93860952D01*
X144580952Y-93908571D01*
X144533333Y-94003809D01*
X145580952Y-94432380D02*
X145771428Y-94432380D01*
X145866666Y-94384761D01*
X145914285Y-94337142D01*
X146009523Y-94194285D01*
X146057142Y-94003809D01*
X146057142Y-93622857D01*
X146009523Y-93527619D01*
X145961904Y-93480000D01*
X145866666Y-93432380D01*
X145676190Y-93432380D01*
X145580952Y-93480000D01*
X145533333Y-93527619D01*
X145485714Y-93622857D01*
X145485714Y-93860952D01*
X145533333Y-93956190D01*
X145580952Y-94003809D01*
X145676190Y-94051428D01*
X145866666Y-94051428D01*
X145961904Y-94003809D01*
X146009523Y-93956190D01*
X146057142Y-93860952D01*
X146914285Y-93765714D02*
X146914285Y-94432380D01*
X146676190Y-93384761D02*
X146438095Y-94099047D01*
X147057142Y-94099047D01*
%TO.C,U3*%
X89408095Y-103592380D02*
X89408095Y-104401904D01*
X89455714Y-104497142D01*
X89503333Y-104544761D01*
X89598571Y-104592380D01*
X89789047Y-104592380D01*
X89884285Y-104544761D01*
X89931904Y-104497142D01*
X89979523Y-104401904D01*
X89979523Y-103592380D01*
X90360476Y-103592380D02*
X90979523Y-103592380D01*
X90646190Y-103973333D01*
X90789047Y-103973333D01*
X90884285Y-104020952D01*
X90931904Y-104068571D01*
X90979523Y-104163809D01*
X90979523Y-104401904D01*
X90931904Y-104497142D01*
X90884285Y-104544761D01*
X90789047Y-104592380D01*
X90503333Y-104592380D01*
X90408095Y-104544761D01*
X90360476Y-104497142D01*
X84257333Y-107132380D02*
X83781142Y-107132380D01*
X83781142Y-106132380D01*
X84590666Y-107132380D02*
X84590666Y-106132380D01*
X85019238Y-107084761D02*
X85162095Y-107132380D01*
X85400190Y-107132380D01*
X85495428Y-107084761D01*
X85543047Y-107037142D01*
X85590666Y-106941904D01*
X85590666Y-106846666D01*
X85543047Y-106751428D01*
X85495428Y-106703809D01*
X85400190Y-106656190D01*
X85209714Y-106608571D01*
X85114476Y-106560952D01*
X85066857Y-106513333D01*
X85019238Y-106418095D01*
X85019238Y-106322857D01*
X85066857Y-106227619D01*
X85114476Y-106180000D01*
X85209714Y-106132380D01*
X85447809Y-106132380D01*
X85590666Y-106180000D01*
X85971619Y-106227619D02*
X86019238Y-106180000D01*
X86114476Y-106132380D01*
X86352571Y-106132380D01*
X86447809Y-106180000D01*
X86495428Y-106227619D01*
X86543047Y-106322857D01*
X86543047Y-106418095D01*
X86495428Y-106560952D01*
X85924000Y-107132380D01*
X86543047Y-107132380D01*
X86971619Y-107132380D02*
X86971619Y-106132380D01*
X87304952Y-106846666D01*
X87638285Y-106132380D01*
X87638285Y-107132380D01*
X88114476Y-107132380D02*
X88114476Y-106132380D01*
X88352571Y-106132380D01*
X88495428Y-106180000D01*
X88590666Y-106275238D01*
X88638285Y-106370476D01*
X88685904Y-106560952D01*
X88685904Y-106703809D01*
X88638285Y-106894285D01*
X88590666Y-106989523D01*
X88495428Y-107084761D01*
X88352571Y-107132380D01*
X88114476Y-107132380D01*
X89590666Y-107132380D02*
X89114476Y-107132380D01*
X89114476Y-106132380D01*
X89685904Y-107227619D02*
X90447809Y-107227619D01*
X90638285Y-106846666D02*
X91114476Y-106846666D01*
X90543047Y-107132380D02*
X90876380Y-106132380D01*
X91209714Y-107132380D01*
X91543047Y-107132380D02*
X91543047Y-106132380D01*
X91781142Y-106132380D01*
X91924000Y-106180000D01*
X92019238Y-106275238D01*
X92066857Y-106370476D01*
X92114476Y-106560952D01*
X92114476Y-106703809D01*
X92066857Y-106894285D01*
X92019238Y-106989523D01*
X91924000Y-107084761D01*
X91781142Y-107132380D01*
X91543047Y-107132380D01*
X92495428Y-106846666D02*
X92971619Y-106846666D01*
X92400190Y-107132380D02*
X92733523Y-106132380D01*
X93066857Y-107132380D01*
X93733523Y-106608571D02*
X93400190Y-106608571D01*
X93400190Y-107132380D02*
X93400190Y-106132380D01*
X93876380Y-106132380D01*
X94828761Y-107132380D02*
X94495428Y-106656190D01*
X94257333Y-107132380D02*
X94257333Y-106132380D01*
X94638285Y-106132380D01*
X94733523Y-106180000D01*
X94781142Y-106227619D01*
X94828761Y-106322857D01*
X94828761Y-106465714D01*
X94781142Y-106560952D01*
X94733523Y-106608571D01*
X94638285Y-106656190D01*
X94257333Y-106656190D01*
X95257333Y-106132380D02*
X95257333Y-106941904D01*
X95304952Y-107037142D01*
X95352571Y-107084761D01*
X95447809Y-107132380D01*
X95638285Y-107132380D01*
X95733523Y-107084761D01*
X95781142Y-107037142D01*
X95828761Y-106941904D01*
X95828761Y-106132380D01*
X96304952Y-107132380D02*
X96304952Y-106132380D01*
X96638285Y-106132380D02*
X97209714Y-106132380D01*
X96923999Y-107132380D02*
X96923999Y-106132380D01*
%TO.C,R3*%
X151233333Y-112212380D02*
X150900000Y-111736190D01*
X150661904Y-112212380D02*
X150661904Y-111212380D01*
X151042857Y-111212380D01*
X151138095Y-111260000D01*
X151185714Y-111307619D01*
X151233333Y-111402857D01*
X151233333Y-111545714D01*
X151185714Y-111640952D01*
X151138095Y-111688571D01*
X151042857Y-111736190D01*
X150661904Y-111736190D01*
X151566666Y-111212380D02*
X152185714Y-111212380D01*
X151852380Y-111593333D01*
X151995238Y-111593333D01*
X152090476Y-111640952D01*
X152138095Y-111688571D01*
X152185714Y-111783809D01*
X152185714Y-112021904D01*
X152138095Y-112117142D01*
X152090476Y-112164761D01*
X151995238Y-112212380D01*
X151709523Y-112212380D01*
X151614285Y-112164761D01*
X151566666Y-112117142D01*
%TO.C,D3*%
X155471904Y-108656380D02*
X155471904Y-107656380D01*
X155710000Y-107656380D01*
X155852857Y-107704000D01*
X155948095Y-107799238D01*
X155995714Y-107894476D01*
X156043333Y-108084952D01*
X156043333Y-108227809D01*
X155995714Y-108418285D01*
X155948095Y-108513523D01*
X155852857Y-108608761D01*
X155710000Y-108656380D01*
X155471904Y-108656380D01*
X156376666Y-107656380D02*
X156995714Y-107656380D01*
X156662380Y-108037333D01*
X156805238Y-108037333D01*
X156900476Y-108084952D01*
X156948095Y-108132571D01*
X156995714Y-108227809D01*
X156995714Y-108465904D01*
X156948095Y-108561142D01*
X156900476Y-108608761D01*
X156805238Y-108656380D01*
X156519523Y-108656380D01*
X156424285Y-108608761D01*
X156376666Y-108561142D01*
X158512190Y-113292000D02*
X158416952Y-113244380D01*
X158274095Y-113244380D01*
X158131238Y-113292000D01*
X158036000Y-113387238D01*
X157988380Y-113482476D01*
X157940761Y-113672952D01*
X157940761Y-113815809D01*
X157988380Y-114006285D01*
X158036000Y-114101523D01*
X158131238Y-114196761D01*
X158274095Y-114244380D01*
X158369333Y-114244380D01*
X158512190Y-114196761D01*
X158559809Y-114149142D01*
X158559809Y-113815809D01*
X158369333Y-113815809D01*
X158988380Y-113720571D02*
X159321714Y-113720571D01*
X159464571Y-114244380D02*
X158988380Y-114244380D01*
X158988380Y-113244380D01*
X159464571Y-113244380D01*
X159893142Y-114244380D02*
X159893142Y-113244380D01*
X160464571Y-114244380D01*
X160464571Y-113244380D01*
X160702666Y-114339619D02*
X161464571Y-114339619D01*
X162036000Y-113720571D02*
X162178857Y-113768190D01*
X162226476Y-113815809D01*
X162274095Y-113911047D01*
X162274095Y-114053904D01*
X162226476Y-114149142D01*
X162178857Y-114196761D01*
X162083619Y-114244380D01*
X161702666Y-114244380D01*
X161702666Y-113244380D01*
X162036000Y-113244380D01*
X162131238Y-113292000D01*
X162178857Y-113339619D01*
X162226476Y-113434857D01*
X162226476Y-113530095D01*
X162178857Y-113625333D01*
X162131238Y-113672952D01*
X162036000Y-113720571D01*
X161702666Y-113720571D01*
X163178857Y-114244380D02*
X162702666Y-114244380D01*
X162702666Y-113244380D01*
X163512190Y-113244380D02*
X163512190Y-114053904D01*
X163559809Y-114149142D01*
X163607428Y-114196761D01*
X163702666Y-114244380D01*
X163893142Y-114244380D01*
X163988380Y-114196761D01*
X164036000Y-114149142D01*
X164083619Y-114053904D01*
X164083619Y-113244380D01*
%TO.C,R2*%
X116673333Y-116022380D02*
X116340000Y-115546190D01*
X116101904Y-116022380D02*
X116101904Y-115022380D01*
X116482857Y-115022380D01*
X116578095Y-115070000D01*
X116625714Y-115117619D01*
X116673333Y-115212857D01*
X116673333Y-115355714D01*
X116625714Y-115450952D01*
X116578095Y-115498571D01*
X116482857Y-115546190D01*
X116101904Y-115546190D01*
X117054285Y-115117619D02*
X117101904Y-115070000D01*
X117197142Y-115022380D01*
X117435238Y-115022380D01*
X117530476Y-115070000D01*
X117578095Y-115117619D01*
X117625714Y-115212857D01*
X117625714Y-115308095D01*
X117578095Y-115450952D01*
X117006666Y-116022380D01*
X117625714Y-116022380D01*
%TO.C,D2*%
X122451904Y-108583380D02*
X122451904Y-107583380D01*
X122690000Y-107583380D01*
X122832857Y-107631000D01*
X122928095Y-107726238D01*
X122975714Y-107821476D01*
X123023333Y-108011952D01*
X123023333Y-108154809D01*
X122975714Y-108345285D01*
X122928095Y-108440523D01*
X122832857Y-108535761D01*
X122690000Y-108583380D01*
X122451904Y-108583380D01*
X123404285Y-107678619D02*
X123451904Y-107631000D01*
X123547142Y-107583380D01*
X123785238Y-107583380D01*
X123880476Y-107631000D01*
X123928095Y-107678619D01*
X123975714Y-107773857D01*
X123975714Y-107869095D01*
X123928095Y-108011952D01*
X123356666Y-108583380D01*
X123975714Y-108583380D01*
X114181333Y-111196380D02*
X114181333Y-110196380D01*
X114562285Y-110196380D01*
X114657523Y-110244000D01*
X114705142Y-110291619D01*
X114752761Y-110386857D01*
X114752761Y-110529714D01*
X114705142Y-110624952D01*
X114657523Y-110672571D01*
X114562285Y-110720190D01*
X114181333Y-110720190D01*
X115086095Y-110196380D02*
X115324190Y-111196380D01*
X115514666Y-110482095D01*
X115705142Y-111196380D01*
X115943238Y-110196380D01*
X116895619Y-111196380D02*
X116562285Y-110720190D01*
X116324190Y-111196380D02*
X116324190Y-110196380D01*
X116705142Y-110196380D01*
X116800380Y-110244000D01*
X116848000Y-110291619D01*
X116895619Y-110386857D01*
X116895619Y-110529714D01*
X116848000Y-110624952D01*
X116800380Y-110672571D01*
X116705142Y-110720190D01*
X116324190Y-110720190D01*
X117086095Y-111291619D02*
X117848000Y-111291619D01*
X118657523Y-111196380D02*
X118324190Y-110720190D01*
X118086095Y-111196380D02*
X118086095Y-110196380D01*
X118467047Y-110196380D01*
X118562285Y-110244000D01*
X118609904Y-110291619D01*
X118657523Y-110386857D01*
X118657523Y-110529714D01*
X118609904Y-110624952D01*
X118562285Y-110672571D01*
X118467047Y-110720190D01*
X118086095Y-110720190D01*
X119086095Y-110672571D02*
X119419428Y-110672571D01*
X119562285Y-111196380D02*
X119086095Y-111196380D01*
X119086095Y-110196380D01*
X119562285Y-110196380D01*
X119990857Y-111196380D02*
X119990857Y-110196380D01*
X120228952Y-110196380D01*
X120371809Y-110244000D01*
X120467047Y-110339238D01*
X120514666Y-110434476D01*
X120562285Y-110624952D01*
X120562285Y-110767809D01*
X120514666Y-110958285D01*
X120467047Y-111053523D01*
X120371809Y-111148761D01*
X120228952Y-111196380D01*
X119990857Y-111196380D01*
%TD*%
M02*
