M48
; DRILL file {KiCad 6.0.1+dfsg-1} date Mon Mar  7 03:58:12 2022
; FORMAT={-:-/ absolute / metric / decimal}
; #@! TF.CreationDate,2022-03-07T03:58:12+00:00
; #@! TF.GenerationSoftware,Kicad,Pcbnew,6.0.1+dfsg-1
; #@! TF.FileFunction,Plated,1,2,PTH
FMAT,2
METRIC
; #@! TA.AperFunction,Plated,PTH,ViaDrill
T1C0.400
; #@! TA.AperFunction,Plated,PTH,ComponentDrill
T2C0.750
; #@! TA.AperFunction,Plated,PTH,ComponentDrill
T3C0.762
; #@! TA.AperFunction,Plated,PTH,ComponentDrill
T4C0.800
; #@! TA.AperFunction,Plated,PTH,ComponentDrill
T5C1.016
; #@! TA.AperFunction,Plated,PTH,ComponentDrill
T6C1.020
; #@! TA.AperFunction,Plated,PTH,ComponentDrill
T7C1.100
; #@! TA.AperFunction,Plated,PTH,ComponentDrill
T8C2.500
; #@! TA.AperFunction,Plated,PTH,ComponentDrill
T9C3.200
; #@! TA.AperFunction,Plated,PTH,ComponentDrill
T10C3.400
%
G90
G05
T1
X101.554Y-85.284
X120.858Y-124.4
X150.068Y-119.828
X151.846Y-118.812
X153.37Y-126.94
X198.074Y-123.892
X200.106Y-123.892
T2
X185.39Y-63.53
X187.39Y-63.53
T3
X137.67Y-141.145
X140.21Y-141.145
X142.75Y-141.145
X145.29Y-141.145
X147.83Y-141.145
X150.37Y-141.145
T4
X205.44Y-71.06
X205.44Y-76.14
T5
X197.82Y-71.06
X197.82Y-73.6
X197.82Y-76.14
X200.36Y-71.06
X200.36Y-73.6
X200.36Y-76.14
T6
X88.6Y-69.949
X91.14Y-69.949
X93.68Y-69.949
X96.22Y-69.949
X98.76Y-69.949
X101.3Y-69.949
X103.84Y-69.949
X105.205Y-119.32
X105.205Y-121.86
X105.205Y-124.4
X105.205Y-126.94
X105.205Y-129.48
X105.205Y-132.02
X105.205Y-134.56
X106.38Y-69.949
X108.92Y-69.949
X135.59Y-115.51
X138.13Y-115.51
X140.67Y-115.51
X143.21Y-115.51
X145.75Y-115.51
X148.29Y-115.51
X150.83Y-115.51
X153.37Y-115.51
X155.91Y-115.51
X183.85Y-111.7
X183.85Y-114.24
X183.85Y-116.78
X183.85Y-119.32
X183.85Y-121.86
X183.85Y-124.4
X183.85Y-126.94
X183.85Y-129.48
X183.85Y-132.02
X183.85Y-134.56
X183.85Y-137.1
X183.85Y-139.64
X204.17Y-101.54
X204.17Y-104.08
X204.17Y-106.62
X204.17Y-109.16
X204.17Y-111.7
X204.17Y-114.24
X204.17Y-116.78
X204.17Y-119.32
X204.17Y-121.86
X204.17Y-124.4
X204.17Y-126.94
X204.17Y-129.48
X204.17Y-132.02
X204.17Y-134.56
X204.17Y-137.1
X204.17Y-139.64
T7
X111.714Y-131.362
X111.714Y-137.862
X116.214Y-131.362
X116.214Y-137.862
X143.464Y-131.362
X143.464Y-137.862
X147.964Y-131.362
X147.964Y-137.862
X175.214Y-131.362
X175.214Y-137.862
X179.714Y-131.362
X179.714Y-137.862
X189.744Y-85.066
X189.744Y-89.566
X196.244Y-85.066
X196.244Y-89.566
T8
X116.54Y-64.71
X116.54Y-115.51
X174.96Y-64.71
X174.96Y-115.51
X185.12Y-97.73
X185.12Y-143.45
X202.9Y-97.73
X202.9Y-143.45
T9
X130.22Y-108.49
X130.22Y-140.24
X133.25Y-100.24
X145.75Y-63.44
X155.874Y-123.857
X158.25Y-100.24
T10
X88.6Y-63.44
X88.6Y-143.45
X202.9Y-63.44
T0
M30
