M48
; DRILL file {KiCad 5.1.9+dfsg1-1} date Thu Sep 30 01:50:24 2021
; FORMAT={-:-/ absolute / inch / decimal}
; #@! TF.CreationDate,2021-09-30T01:50:24+00:00
; #@! TF.GenerationSoftware,Kicad,Pcbnew,5.1.9+dfsg1-1
; #@! TF.FileFunction,Plated,1,2,PTH
FMAT,2
INCH
T1C0.0157
T2C0.0295
T3C0.0315
T4C0.0400
T5C0.0402
T6C0.0433
T7C0.0984
%
G90
G05
T1
X4.3Y-3.075
X4.4Y-3.08
X4.5Y-3.08
X4.98Y-4.74
X5.28Y-3.06
X5.32Y-3.02
X6.4Y-2.82
T2
X6.9463Y-1.625
X7.025Y-1.625
T3
X7.85Y-1.9
X7.85Y-2.1
T4
X4.095Y-2.825
X4.195Y-2.825
X4.295Y-2.825
X4.395Y-2.825
X4.495Y-2.825
X4.595Y-2.825
X4.695Y-2.825
X5.645Y-2.825
X5.745Y-2.825
X5.845Y-2.825
X5.945Y-2.825
X6.045Y-2.825
X6.145Y-2.825
X6.245Y-2.825
X7.55Y-1.9
X7.55Y-2.0
X7.55Y-2.1
X7.65Y-1.9
X7.65Y-2.0
X7.65Y-2.1
T5
X3.8Y-3.35
X3.8Y-3.45
X3.8Y-3.55
X3.8Y-3.65
X3.8Y-3.75
X3.8Y-3.85
X3.8Y-3.95
X4.73Y-4.02
X4.73Y-4.82
X4.83Y-4.02
X4.83Y-4.82
X4.93Y-4.02
X4.93Y-4.82
X5.03Y-4.02
X5.03Y-4.82
X5.1Y-3.82
X5.13Y-4.02
X5.13Y-4.82
X5.2Y-3.82
X5.23Y-4.02
X5.23Y-4.82
X5.3Y-3.82
X5.33Y-4.02
X5.33Y-4.82
X5.4Y-3.82
X5.43Y-4.02
X5.43Y-4.82
X5.5Y-3.82
X5.53Y-4.02
X5.53Y-4.82
X5.6Y-3.82
X5.63Y-4.02
X5.63Y-4.82
X5.7Y-3.82
X5.73Y-4.02
X5.73Y-4.82
X5.8Y-3.82
X5.83Y-4.02
X5.83Y-4.82
X5.9Y-3.82
X5.93Y-4.82
X6.03Y-4.82
X6.13Y-4.82
X6.23Y-4.82
X6.9Y-2.44
X7.0Y-2.44
X7.1Y-2.44
X7.2Y-2.44
X7.3Y-2.44
X7.4Y-2.44
X7.5Y-2.44
X7.6Y-2.44
X7.7Y-2.44
T6
X3.3Y-2.64
X3.3Y-2.8172
X3.5559Y-2.64
X3.5559Y-2.8172
X4.16Y-4.2741
X4.16Y-4.53
X4.3372Y-4.2741
X4.3372Y-4.53
X5.41Y-4.2741
X5.41Y-4.53
X5.5872Y-4.2741
X5.5872Y-4.53
X6.66Y-4.2741
X6.66Y-4.53
X6.8372Y-4.2741
X6.8372Y-4.53
T7
X3.25Y-1.6
X3.25Y-4.75
X3.3Y-3.25
X3.3Y-4.05
X3.8Y-3.25
X3.8Y-4.05
X3.825Y-1.6
X3.825Y-2.85
X4.35Y-1.82
X4.35Y-3.82
X4.58Y-4.07
X4.58Y-4.77
X5.075Y-1.6
X5.075Y-2.85
X5.375Y-1.6
X5.375Y-2.85
X6.38Y-4.07
X6.38Y-4.77
X6.625Y-1.6
X6.625Y-2.85
X6.65Y-1.82
X6.65Y-3.82
X6.9Y-3.6
X7.7Y-3.6
X7.75Y-1.6
X7.75Y-4.75
T0
M30
