%TF.GenerationSoftware,KiCad,Pcbnew,5.1.9+dfsg1-1*%
%TF.CreationDate,2021-09-30T01:50:27+00:00*%
%TF.ProjectId,st_pat,73745f70-6174-42e6-9b69-6361645f7063,rev?*%
%TF.SameCoordinates,Original*%
%TF.FileFunction,Copper,L1,Top*%
%TF.FilePolarity,Positive*%
%FSLAX46Y46*%
G04 Gerber Fmt 4.6, Leading zero omitted, Abs format (unit mm)*
G04 Created by KiCad (PCBNEW 5.1.9+dfsg1-1) date 2021-09-30 01:50:27*
%MOMM*%
%LPD*%
G01*
G04 APERTURE LIST*
%TA.AperFunction,ComponentPad*%
%ADD10C,5.000000*%
%TD*%
%TA.AperFunction,ComponentPad*%
%ADD11C,3.200000*%
%TD*%
%TA.AperFunction,ComponentPad*%
%ADD12C,1.530000*%
%TD*%
%TA.AperFunction,ComponentPad*%
%ADD13C,2.000000*%
%TD*%
%TA.AperFunction,ComponentPad*%
%ADD14R,1.530000X1.530000*%
%TD*%
%TA.AperFunction,ComponentPad*%
%ADD15C,2.500000*%
%TD*%
%TA.AperFunction,ComponentPad*%
%ADD16C,3.000000*%
%TD*%
%TA.AperFunction,ComponentPad*%
%ADD17C,1.524000*%
%TD*%
%TA.AperFunction,ComponentPad*%
%ADD18O,1.200000X1.750000*%
%TD*%
%TA.AperFunction,ViaPad*%
%ADD19C,0.800000*%
%TD*%
%TA.AperFunction,Conductor*%
%ADD20C,0.250000*%
%TD*%
%TA.AperFunction,Conductor*%
%ADD21C,0.254000*%
%TD*%
%TA.AperFunction,Conductor*%
%ADD22C,0.100000*%
%TD*%
G04 APERTURE END LIST*
D10*
%TO.P, ,1*%
%TO.N,N/C*%
X196850000Y-120650000D03*
%TD*%
D11*
%TO.P,U1,*%
%TO.N,*%
X175260000Y-91440000D03*
X195580000Y-91440000D03*
D12*
%TO.P,U1,2*%
%TO.N,N/C*%
X177800000Y-61976000D03*
%TO.P,U1,1*%
%TO.N,/GPS_PPS_D12*%
X175260000Y-61976000D03*
%TO.P,U1,6*%
%TO.N,/GPS_FIX_D11*%
X187960000Y-61976000D03*
%TO.P,U1,4*%
%TO.N,/GPS_RX*%
X182880000Y-61976000D03*
%TO.P,U1,8*%
%TO.N,N/C*%
X193040000Y-61976000D03*
%TO.P,U1,3*%
%TO.N,GND*%
X180340000Y-61976000D03*
%TO.P,U1,9*%
%TO.N,+3V3*%
X195580000Y-61976000D03*
%TO.P,U1,5*%
%TO.N,/GPS_TX*%
X185420000Y-61976000D03*
%TO.P,U1,7*%
%TO.N,N/C*%
X190500000Y-61976000D03*
%TD*%
D13*
%TO.P,SW5,1*%
%TO.N,/BTN_A1*%
X169164000Y-108562000D03*
%TO.P,SW5,2*%
%TO.N,GND*%
X173664000Y-108562000D03*
%TO.P,SW5,1*%
%TO.N,/BTN_A1*%
X169164000Y-115062000D03*
%TO.P,SW5,2*%
%TO.N,GND*%
X173664000Y-115062000D03*
%TD*%
%TO.P,SW4,1*%
%TO.N,/BTN_A2*%
X137414000Y-108562000D03*
%TO.P,SW4,2*%
%TO.N,GND*%
X141914000Y-108562000D03*
%TO.P,SW4,1*%
%TO.N,/BTN_A2*%
X137414000Y-115062000D03*
%TO.P,SW4,2*%
%TO.N,GND*%
X141914000Y-115062000D03*
%TD*%
%TO.P,SW3,1*%
%TO.N,/BTN_A3*%
X105664000Y-108562000D03*
%TO.P,SW3,2*%
%TO.N,GND*%
X110164000Y-108562000D03*
%TO.P,SW3,1*%
%TO.N,/BTN_A3*%
X105664000Y-115062000D03*
%TO.P,SW3,2*%
%TO.N,GND*%
X110164000Y-115062000D03*
%TD*%
%TO.P,SW2,1*%
%TO.N,/RST*%
X90320000Y-67056000D03*
%TO.P,SW2,2*%
%TO.N,GND*%
X90320000Y-71556000D03*
%TO.P,SW2,1*%
%TO.N,/RST*%
X83820000Y-67056000D03*
%TO.P,SW2,2*%
%TO.N,GND*%
X83820000Y-71556000D03*
%TD*%
D10*
%TO.P, ,1*%
%TO.N,N/C*%
X82550000Y-120650000D03*
%TD*%
%TO.P, ,1*%
%TO.N,N/C*%
X82550000Y-40640000D03*
%TD*%
%TO.P, ,1*%
%TO.N,N/C*%
X196850000Y-40640000D03*
%TD*%
D12*
%TO.P,U4,9*%
%TO.N,N/C*%
X149860000Y-97028000D03*
%TO.P,U4,8*%
%TO.N,/SHARP_DISP_D6*%
X147320000Y-97028000D03*
%TO.P,U4,7*%
%TO.N,N/C*%
X144780000Y-97028000D03*
%TO.P,U4,6*%
%TO.N,/SHARP_CS_D5*%
X142240000Y-97028000D03*
%TO.P,U4,5*%
%TO.N,/MOSI*%
X139700000Y-97028000D03*
%TO.P,U4,4*%
%TO.N,/SCK*%
X137160000Y-97028000D03*
%TO.P,U4,3*%
%TO.N,GND*%
X134620000Y-97028000D03*
%TO.P,U4,2*%
%TO.N,N/C*%
X132080000Y-97028000D03*
%TO.P,U4,1*%
%TO.N,+3V3*%
X129540000Y-97028000D03*
D11*
%TO.P,U4,*%
%TO.N,*%
X110490000Y-97028000D03*
X110490000Y-46228000D03*
X168910000Y-46228000D03*
X168910000Y-97028000D03*
%TD*%
D14*
%TO.P,U2,P1_1*%
%TO.N,GND*%
X120142000Y-122428000D03*
%TO.P,U2,P2_1*%
%TO.N,+BATT*%
X148082000Y-102108000D03*
D11*
%TO.P,U2,P$1*%
%TO.N,N/C*%
X162052000Y-103378000D03*
%TO.P,U2,P$2*%
X162052000Y-121158000D03*
D12*
%TO.P,U2,P2_2*%
X145542000Y-102108000D03*
%TO.P,U2,P2_3*%
X143002000Y-102108000D03*
%TO.P,U2,P2_4*%
%TO.N,Net-(D3-Pad2)*%
X140462000Y-102108000D03*
%TO.P,U2,P2_5*%
%TO.N,/GPS_PPS_D12*%
X137922000Y-102108000D03*
%TO.P,U2,P2_6*%
%TO.N,/GPS_FIX_D11*%
X135382000Y-102108000D03*
%TO.P,U2,P2_7*%
%TO.N,/CPS_CS_D10*%
X132842000Y-102108000D03*
%TO.P,U2,P2_8*%
%TO.N,N/C*%
X130302000Y-102108000D03*
%TO.P,U2,P2_9*%
%TO.N,/SHARP_DISP_D6*%
X127762000Y-102108000D03*
%TO.P,U2,P2_10*%
%TO.N,/SHARP_CS_D5*%
X125222000Y-102108000D03*
%TO.P,U2,P2_11*%
%TO.N,N/C*%
X122682000Y-102108000D03*
%TO.P,U2,P2_12*%
X120142000Y-102108000D03*
%TO.P,U2,P1_2*%
%TO.N,/GPS_RX*%
X122682000Y-122428000D03*
%TO.P,U2,P1_3*%
%TO.N,/GPS_TX*%
X125222000Y-122428000D03*
%TO.P,U2,P1_4*%
%TO.N,/MISO*%
X127762000Y-122428000D03*
%TO.P,U2,P1_5*%
%TO.N,/MOSI*%
X130302000Y-122428000D03*
%TO.P,U2,P1_6*%
%TO.N,/SCK*%
X132842000Y-122428000D03*
%TO.P,U2,P1_7*%
%TO.N,/SRAD_RECV_CS_A5*%
X135382000Y-122428000D03*
%TO.P,U2,P1_8*%
%TO.N,/COTS_RECV_CS_A4*%
X137922000Y-122428000D03*
%TO.P,U2,P1_9*%
%TO.N,/BTN_A3*%
X140462000Y-122428000D03*
%TO.P,U2,P1_10*%
%TO.N,/BTN_A2*%
X143002000Y-122428000D03*
%TO.P,U2,P1_11*%
%TO.N,/BTN_A1*%
X145542000Y-122428000D03*
%TO.P,U2,P1_12*%
%TO.N,N/C*%
X148082000Y-122428000D03*
%TO.P,U2,P1_13*%
%TO.N,GND*%
X150622000Y-122428000D03*
%TO.P,U2,P1_14*%
%TO.N,N/C*%
X153162000Y-122428000D03*
%TO.P,U2,P1_15*%
%TO.N,+3V3*%
X155702000Y-122428000D03*
%TO.P,U2,P1_16*%
%TO.N,/RST*%
X158242000Y-122428000D03*
D11*
%TO.P,U2,P$3*%
%TO.N,N/C*%
X116332000Y-121158000D03*
%TO.P,U2,P$4*%
X116332000Y-103378000D03*
%TD*%
D12*
%TO.P,U3,1*%
%TO.N,+3V3*%
X96520000Y-100330000D03*
D15*
%TO.P,U3,*%
%TO.N,*%
X96520000Y-102870000D03*
X96520000Y-82550000D03*
D11*
X83820000Y-82550000D03*
X83820000Y-102870000D03*
D12*
%TO.P,U3,2*%
%TO.N,N/C*%
X96520000Y-97790000D03*
%TO.P,U3,3*%
%TO.N,GND*%
X96520000Y-95250000D03*
%TO.P,U3,4*%
%TO.N,/SCK*%
X96520000Y-92710000D03*
%TO.P,U3,5*%
%TO.N,/MOSI*%
X96520000Y-90170000D03*
%TO.P,U3,6*%
%TO.N,/MISO*%
X96520000Y-87630000D03*
%TO.P,U3,7*%
%TO.N,/CPS_CS_D10*%
X96520000Y-85090000D03*
%TD*%
D16*
%TO.P,U6,*%
%TO.N,*%
X128905000Y-72390000D03*
X128905000Y-40640000D03*
X97155000Y-40640000D03*
X97155000Y-72390000D03*
D17*
%TO.P,U6,1*%
%TO.N,N/C*%
X119253000Y-71755000D03*
%TO.P,U6,2*%
%TO.N,/SRAD_RECV_CS_A5*%
X116713000Y-71755000D03*
%TO.P,U6,3*%
%TO.N,/SCK*%
X114173000Y-71755000D03*
%TO.P,U6,4*%
%TO.N,/MOSI*%
X111633000Y-71755000D03*
%TO.P,U6,5*%
%TO.N,/MISO*%
X109093000Y-71755000D03*
%TO.P,U6,6*%
%TO.N,+3V3*%
X106553000Y-71755000D03*
%TO.P,U6,7*%
%TO.N,GND*%
X104013000Y-71755000D03*
%TD*%
D16*
%TO.P,U5,*%
%TO.N,*%
X168275000Y-72390000D03*
X168275000Y-40640000D03*
X136525000Y-40640000D03*
X136525000Y-72390000D03*
D17*
%TO.P,U5,1*%
%TO.N,N/C*%
X158623000Y-71755000D03*
%TO.P,U5,2*%
%TO.N,/COTS_RECV_CS_A4*%
X156083000Y-71755000D03*
%TO.P,U5,3*%
%TO.N,/SCK*%
X153543000Y-71755000D03*
%TO.P,U5,4*%
%TO.N,/MOSI*%
X151003000Y-71755000D03*
%TO.P,U5,5*%
%TO.N,/MISO*%
X148463000Y-71755000D03*
%TO.P,U5,6*%
%TO.N,+3V3*%
X145923000Y-71755000D03*
%TO.P,U5,7*%
%TO.N,GND*%
X143383000Y-71755000D03*
%TD*%
%TO.P,R3,2*%
%TO.N,GND*%
%TA.AperFunction,SMDPad,CuDef*%
G36*
G01*
X151000000Y-113849999D02*
X151000000Y-114750001D01*
G75*
G02*
X150750001Y-115000000I-249999J0D01*
G01*
X150049999Y-115000000D01*
G75*
G02*
X149800000Y-114750001I0J249999D01*
G01*
X149800000Y-113849999D01*
G75*
G02*
X150049999Y-113600000I249999J0D01*
G01*
X150750001Y-113600000D01*
G75*
G02*
X151000000Y-113849999I0J-249999D01*
G01*
G37*
%TD.AperFunction*%
%TO.P,R3,1*%
%TO.N,Net-(D3-Pad1)*%
%TA.AperFunction,SMDPad,CuDef*%
G36*
G01*
X153000000Y-113849999D02*
X153000000Y-114750001D01*
G75*
G02*
X152750001Y-115000000I-249999J0D01*
G01*
X152049999Y-115000000D01*
G75*
G02*
X151800000Y-114750001I0J249999D01*
G01*
X151800000Y-113849999D01*
G75*
G02*
X152049999Y-113600000I249999J0D01*
G01*
X152750001Y-113600000D01*
G75*
G02*
X153000000Y-113849999I0J-249999D01*
G01*
G37*
%TD.AperFunction*%
%TD*%
%TO.P,D3,2*%
%TO.N,Net-(D3-Pad2)*%
%TA.AperFunction,SMDPad,CuDef*%
G36*
G01*
X156835000Y-110985000D02*
X155585000Y-110985000D01*
G75*
G02*
X155335000Y-110735000I0J250000D01*
G01*
X155335000Y-109810000D01*
G75*
G02*
X155585000Y-109560000I250000J0D01*
G01*
X156835000Y-109560000D01*
G75*
G02*
X157085000Y-109810000I0J-250000D01*
G01*
X157085000Y-110735000D01*
G75*
G02*
X156835000Y-110985000I-250000J0D01*
G01*
G37*
%TD.AperFunction*%
%TO.P,D3,1*%
%TO.N,Net-(D3-Pad1)*%
%TA.AperFunction,SMDPad,CuDef*%
G36*
G01*
X156835000Y-113960000D02*
X155585000Y-113960000D01*
G75*
G02*
X155335000Y-113710000I0J250000D01*
G01*
X155335000Y-112785000D01*
G75*
G02*
X155585000Y-112535000I250000J0D01*
G01*
X156835000Y-112535000D01*
G75*
G02*
X157085000Y-112785000I0J-250000D01*
G01*
X157085000Y-113710000D01*
G75*
G02*
X156835000Y-113960000I-250000J0D01*
G01*
G37*
%TD.AperFunction*%
%TD*%
%TO.P,SW1,*%
%TO.N,*%
X199390000Y-53340000D03*
X199390000Y-48260000D03*
%TO.P,SW1,6*%
%TO.N,Net-(J4-Pad1)*%
X194310000Y-53340000D03*
%TO.P,SW1,5*%
%TO.N,+BATT*%
X194310000Y-50800000D03*
%TO.P,SW1,4*%
%TO.N,N/C*%
X194310000Y-48260000D03*
%TO.P,SW1,3*%
X191770000Y-53340000D03*
%TO.P,SW1,2*%
X191770000Y-50800000D03*
%TO.P,SW1,1*%
X191770000Y-48260000D03*
%TD*%
%TO.P,R2,2*%
%TO.N,GND*%
%TA.AperFunction,SMDPad,CuDef*%
G36*
G01*
X116710000Y-112579999D02*
X116710000Y-113480001D01*
G75*
G02*
X116460001Y-113730000I-249999J0D01*
G01*
X115759999Y-113730000D01*
G75*
G02*
X115510000Y-113480001I0J249999D01*
G01*
X115510000Y-112579999D01*
G75*
G02*
X115759999Y-112330000I249999J0D01*
G01*
X116460001Y-112330000D01*
G75*
G02*
X116710000Y-112579999I0J-249999D01*
G01*
G37*
%TD.AperFunction*%
%TO.P,R2,1*%
%TO.N,Net-(D2-Pad1)*%
%TA.AperFunction,SMDPad,CuDef*%
G36*
G01*
X118710000Y-112579999D02*
X118710000Y-113480001D01*
G75*
G02*
X118460001Y-113730000I-249999J0D01*
G01*
X117759999Y-113730000D01*
G75*
G02*
X117510000Y-113480001I0J249999D01*
G01*
X117510000Y-112579999D01*
G75*
G02*
X117759999Y-112330000I249999J0D01*
G01*
X118460001Y-112330000D01*
G75*
G02*
X118710000Y-112579999I0J-249999D01*
G01*
G37*
%TD.AperFunction*%
%TD*%
%TO.P,D2,2*%
%TO.N,+3V3*%
%TA.AperFunction,SMDPad,CuDef*%
G36*
G01*
X123815000Y-110948500D02*
X122565000Y-110948500D01*
G75*
G02*
X122315000Y-110698500I0J250000D01*
G01*
X122315000Y-109773500D01*
G75*
G02*
X122565000Y-109523500I250000J0D01*
G01*
X123815000Y-109523500D01*
G75*
G02*
X124065000Y-109773500I0J-250000D01*
G01*
X124065000Y-110698500D01*
G75*
G02*
X123815000Y-110948500I-250000J0D01*
G01*
G37*
%TD.AperFunction*%
%TO.P,D2,1*%
%TO.N,Net-(D2-Pad1)*%
%TA.AperFunction,SMDPad,CuDef*%
G36*
G01*
X123815000Y-113923500D02*
X122565000Y-113923500D01*
G75*
G02*
X122315000Y-113673500I0J250000D01*
G01*
X122315000Y-112748500D01*
G75*
G02*
X122565000Y-112498500I250000J0D01*
G01*
X123815000Y-112498500D01*
G75*
G02*
X124065000Y-112748500I0J-250000D01*
G01*
X124065000Y-113673500D01*
G75*
G02*
X123815000Y-113923500I-250000J0D01*
G01*
G37*
%TD.AperFunction*%
%TD*%
D18*
%TO.P,J4,2*%
%TO.N,GND*%
X176435000Y-41275000D03*
%TO.P,J4,1*%
%TO.N,Net-(J4-Pad1)*%
%TA.AperFunction,ComponentPad*%
G36*
G01*
X179035000Y-40649999D02*
X179035000Y-41900001D01*
G75*
G02*
X178785001Y-42150000I-249999J0D01*
G01*
X178084999Y-42150000D01*
G75*
G02*
X177835000Y-41900001I0J249999D01*
G01*
X177835000Y-40649999D01*
G75*
G02*
X178084999Y-40400000I249999J0D01*
G01*
X178785001Y-40400000D01*
G75*
G02*
X179035000Y-40649999I0J-249999D01*
G01*
G37*
%TD.AperFunction*%
%TD*%
D19*
%TO.N,/RST*%
X162560000Y-71628000D03*
%TO.N,/BTN_A3*%
X126492000Y-120396000D03*
%TO.N,/SCK*%
X114300000Y-78232000D03*
X134112000Y-77724000D03*
%TO.N,/MOSI*%
X111760000Y-78232000D03*
X135128000Y-76708000D03*
%TO.N,/MISO*%
X109220000Y-78105000D03*
%TD*%
D20*
%TO.N,+3V3*%
X129540000Y-97192798D02*
X129540000Y-97028000D01*
X134112000Y-101764798D02*
X129540000Y-97192798D01*
X134112000Y-105156000D02*
X134112000Y-101764798D01*
X129032000Y-110236000D02*
X134112000Y-105156000D01*
X123190000Y-110236000D02*
X129032000Y-110236000D01*
%TO.N,/GPS_FIX_D11*%
X174752000Y-59436000D02*
X185420000Y-59436000D01*
X151384000Y-99060000D02*
X155956000Y-94488000D01*
X171704000Y-62484000D02*
X174752000Y-59436000D01*
X171704000Y-73152000D02*
X171704000Y-62484000D01*
X185420000Y-59436000D02*
X187960000Y-61976000D01*
X155956000Y-88900000D02*
X171704000Y-73152000D01*
X155956000Y-94488000D02*
X155956000Y-88900000D01*
X138430000Y-99060000D02*
X139192000Y-99060000D01*
X135382000Y-102108000D02*
X138430000Y-99060000D01*
X139192000Y-99060000D02*
X151384000Y-99060000D01*
%TO.N,Net-(D2-Pad1)*%
X118291000Y-113211000D02*
X118110000Y-113030000D01*
X123190000Y-113211000D02*
X118291000Y-113211000D01*
%TO.N,/RST*%
X162560000Y-71628000D02*
X162560000Y-68580000D01*
X161036000Y-67056000D02*
X90320000Y-67056000D01*
X162560000Y-68580000D02*
X161036000Y-67056000D01*
X83820000Y-67056000D02*
X90320000Y-67056000D01*
%TO.N,/BTN_A1*%
X169164000Y-115062000D02*
X157226000Y-115062000D01*
X157226000Y-115062000D02*
X151892000Y-120396000D01*
X147574000Y-120396000D02*
X145542000Y-122428000D01*
X151892000Y-120396000D02*
X147574000Y-120396000D01*
X169164000Y-115062000D02*
X169164000Y-108562000D01*
%TO.N,/BTN_A2*%
X143002000Y-120650000D02*
X137414000Y-115062000D01*
X143002000Y-122428000D02*
X143002000Y-120650000D01*
%TO.N,/BTN_A3*%
X140462000Y-122428000D02*
X138430000Y-120396000D01*
X138430000Y-120396000D02*
X126492000Y-120396000D01*
X126492000Y-120396000D02*
X126492000Y-120396000D01*
%TO.N,/SCK*%
X147574000Y-77724000D02*
X153543000Y-71755000D01*
X134112000Y-77724000D02*
X147574000Y-77724000D01*
X96647000Y-92583000D02*
X96520000Y-92710000D01*
X99822000Y-92710000D02*
X114300000Y-78232000D01*
X96520000Y-92710000D02*
X99822000Y-92710000D01*
X114808000Y-77724000D02*
X114300000Y-78232000D01*
X134112000Y-77724000D02*
X114808000Y-77724000D01*
%TO.N,/MOSI*%
X96647000Y-90043000D02*
X96520000Y-90170000D01*
X99822000Y-90170000D02*
X111760000Y-78232000D01*
X96520000Y-90170000D02*
X99822000Y-90170000D01*
X113284000Y-76708000D02*
X111760000Y-78232000D01*
X146050000Y-76708000D02*
X113284000Y-76708000D01*
X151003000Y-71755000D02*
X146050000Y-76708000D01*
%TO.N,/MISO*%
X96647000Y-87503000D02*
X96520000Y-87630000D01*
X99695000Y-87630000D02*
X109220000Y-78105000D01*
X96520000Y-87630000D02*
X99695000Y-87630000D01*
X111633000Y-75692000D02*
X109220000Y-78105000D01*
X144526000Y-75692000D02*
X111633000Y-75692000D01*
X148463000Y-71755000D02*
X144526000Y-75692000D01*
%TO.N,/GPS_PPS_D12*%
X156013990Y-99510010D02*
X156972000Y-98552000D01*
X140519990Y-99510010D02*
X156013990Y-99510010D01*
X137922000Y-102108000D02*
X140519990Y-99510010D01*
X156972000Y-98552000D02*
X156972000Y-89916000D01*
X175260000Y-71628000D02*
X175260000Y-61976000D01*
X156972000Y-89916000D02*
X175260000Y-71628000D01*
%TO.N,+BATT*%
X197104000Y-62992000D02*
X197104000Y-53594000D01*
X196596000Y-63500000D02*
X197104000Y-62992000D01*
X187452000Y-63500000D02*
X196596000Y-63500000D01*
X186233589Y-60885999D02*
X186869999Y-61522409D01*
X197104000Y-53594000D02*
X194310000Y-50800000D01*
X186869999Y-61522409D02*
X186869999Y-62917999D01*
X182356799Y-60885999D02*
X186233589Y-60885999D01*
X181789999Y-61452799D02*
X182356799Y-60885999D01*
X186869999Y-62917999D02*
X187452000Y-63500000D01*
X181789999Y-74370411D02*
X181789999Y-61452799D01*
X154052410Y-102108000D02*
X181789999Y-74370411D01*
X148082000Y-102108000D02*
X154052410Y-102108000D01*
%TO.N,Net-(J4-Pad1)*%
X194310000Y-53340000D02*
X194310000Y-55118000D01*
X194310000Y-55118000D02*
X192532000Y-56896000D01*
X192532000Y-56896000D02*
X188976000Y-56896000D01*
X188976000Y-56896000D02*
X184912000Y-52832000D01*
X184912000Y-47752000D02*
X178435000Y-41275000D01*
X184912000Y-52832000D02*
X184912000Y-47752000D01*
%TO.N,Net-(D3-Pad2)*%
X148626500Y-110272500D02*
X156210000Y-110272500D01*
X140462000Y-102108000D02*
X148626500Y-110272500D01*
%TO.N,Net-(D3-Pad1)*%
X155157500Y-114300000D02*
X156210000Y-113247500D01*
X152400000Y-114300000D02*
X155157500Y-114300000D01*
%TO.N,/CPS_CS_D10*%
X128515001Y-106434999D02*
X96274999Y-106434999D01*
X132842000Y-102108000D02*
X128515001Y-106434999D01*
X94944999Y-86665001D02*
X96520000Y-85090000D01*
X94944999Y-105104999D02*
X94944999Y-86665001D01*
X96274999Y-106434999D02*
X94944999Y-105104999D01*
%TO.N,/GPS_TX*%
X125222000Y-122428000D02*
X125222000Y-119126000D01*
X125222000Y-117533310D02*
X130581820Y-112173490D01*
X125222000Y-119126000D02*
X125222000Y-117533310D01*
X147261990Y-112209990D02*
X149801990Y-112209990D01*
X147225490Y-112173490D02*
X147261990Y-112209990D01*
X130581820Y-112173490D02*
X147225490Y-112173490D01*
X149801990Y-112209990D02*
X161602010Y-112209990D01*
X185420000Y-61976000D02*
X185420000Y-88392000D01*
X183388000Y-90424000D02*
X161602010Y-112209990D01*
X185420000Y-88392000D02*
X183388000Y-90424000D01*
X184912000Y-88900000D02*
X183388000Y-90424000D01*
%TO.N,/GPS_RX*%
X122682000Y-119436900D02*
X122682000Y-122428000D01*
X130395419Y-111723481D02*
X122682000Y-119436900D01*
X161452110Y-111723480D02*
X130395419Y-111723481D01*
X182880000Y-90295590D02*
X161452110Y-111723480D01*
X182880000Y-61976000D02*
X182880000Y-90295590D01*
%TD*%
D21*
%TO.N,GND*%
X194851554Y-38204886D02*
X194414886Y-38641554D01*
X194071799Y-39155021D01*
X193835476Y-39725554D01*
X193715000Y-40331229D01*
X193715000Y-40948771D01*
X193835476Y-41554446D01*
X194071799Y-42124979D01*
X194414886Y-42638446D01*
X194851554Y-43075114D01*
X195365021Y-43418201D01*
X195935554Y-43654524D01*
X196541229Y-43775000D01*
X197158771Y-43775000D01*
X197764446Y-43654524D01*
X198334979Y-43418201D01*
X198848446Y-43075114D01*
X199285114Y-42638446D01*
X199628201Y-42124979D01*
X199864524Y-41554446D01*
X199950000Y-41124728D01*
X199950000Y-46979858D01*
X199797490Y-46916686D01*
X199527592Y-46863000D01*
X199252408Y-46863000D01*
X198982510Y-46916686D01*
X198728273Y-47021995D01*
X198499465Y-47174880D01*
X198304880Y-47369465D01*
X198151995Y-47598273D01*
X198046686Y-47852510D01*
X197993000Y-48122408D01*
X197993000Y-48397592D01*
X198046686Y-48667490D01*
X198151995Y-48921727D01*
X198304880Y-49150535D01*
X198499465Y-49345120D01*
X198728273Y-49498005D01*
X198982510Y-49603314D01*
X199252408Y-49657000D01*
X199527592Y-49657000D01*
X199797490Y-49603314D01*
X199950000Y-49540142D01*
X199950000Y-52059858D01*
X199797490Y-51996686D01*
X199527592Y-51943000D01*
X199252408Y-51943000D01*
X198982510Y-51996686D01*
X198728273Y-52101995D01*
X198499465Y-52254880D01*
X198304880Y-52449465D01*
X198151995Y-52678273D01*
X198046686Y-52932510D01*
X197993000Y-53202408D01*
X197993000Y-53477592D01*
X198046686Y-53747490D01*
X198151995Y-54001727D01*
X198304880Y-54230535D01*
X198499465Y-54425120D01*
X198728273Y-54578005D01*
X198982510Y-54683314D01*
X199252408Y-54737000D01*
X199527592Y-54737000D01*
X199797490Y-54683314D01*
X199950000Y-54620142D01*
X199950001Y-120165277D01*
X199864524Y-119735554D01*
X199628201Y-119165021D01*
X199285114Y-118651554D01*
X198848446Y-118214886D01*
X198334979Y-117871799D01*
X197764446Y-117635476D01*
X197158771Y-117515000D01*
X196541229Y-117515000D01*
X195935554Y-117635476D01*
X195365021Y-117871799D01*
X194851554Y-118214886D01*
X194414886Y-118651554D01*
X194071799Y-119165021D01*
X193835476Y-119735554D01*
X193715000Y-120341229D01*
X193715000Y-120958771D01*
X193835476Y-121564446D01*
X194071799Y-122134979D01*
X194414886Y-122648446D01*
X194851554Y-123085114D01*
X195365021Y-123428201D01*
X195935554Y-123664524D01*
X196365272Y-123750000D01*
X158708787Y-123750000D01*
X158905149Y-123668664D01*
X159134448Y-123515451D01*
X159329451Y-123320448D01*
X159482664Y-123091149D01*
X159588199Y-122836365D01*
X159642000Y-122565888D01*
X159642000Y-122290112D01*
X159588199Y-122019635D01*
X159482664Y-121764851D01*
X159329451Y-121535552D01*
X159134448Y-121340549D01*
X158905149Y-121187336D01*
X158650365Y-121081801D01*
X158379888Y-121028000D01*
X158104112Y-121028000D01*
X157833635Y-121081801D01*
X157578851Y-121187336D01*
X157349552Y-121340549D01*
X157154549Y-121535552D01*
X157001336Y-121764851D01*
X156972000Y-121835674D01*
X156942664Y-121764851D01*
X156789451Y-121535552D01*
X156594448Y-121340549D01*
X156365149Y-121187336D01*
X156110365Y-121081801D01*
X155839888Y-121028000D01*
X155564112Y-121028000D01*
X155293635Y-121081801D01*
X155038851Y-121187336D01*
X154809552Y-121340549D01*
X154614549Y-121535552D01*
X154461336Y-121764851D01*
X154432000Y-121835674D01*
X154402664Y-121764851D01*
X154249451Y-121535552D01*
X154054448Y-121340549D01*
X153825149Y-121187336D01*
X153570365Y-121081801D01*
X153299888Y-121028000D01*
X153024112Y-121028000D01*
X152753635Y-121081801D01*
X152498851Y-121187336D01*
X152269552Y-121340549D01*
X152074549Y-121535552D01*
X151921336Y-121764851D01*
X151894518Y-121829594D01*
X151892478Y-121823928D01*
X151830106Y-121707240D01*
X151589707Y-121639898D01*
X150801605Y-122428000D01*
X151589707Y-123216102D01*
X151830106Y-123148760D01*
X151891312Y-123018664D01*
X151921336Y-123091149D01*
X152074549Y-123320448D01*
X152269552Y-123515451D01*
X152498851Y-123668664D01*
X152695213Y-123750000D01*
X151082999Y-123750000D01*
X151226072Y-123698478D01*
X151342760Y-123636106D01*
X151410102Y-123395707D01*
X150622000Y-122607605D01*
X149833898Y-123395707D01*
X149901240Y-123636106D01*
X150143328Y-123750000D01*
X148548787Y-123750000D01*
X148745149Y-123668664D01*
X148974448Y-123515451D01*
X149169451Y-123320448D01*
X149322664Y-123091149D01*
X149349482Y-123026406D01*
X149351522Y-123032072D01*
X149413894Y-123148760D01*
X149654293Y-123216102D01*
X150442395Y-122428000D01*
X149654293Y-121639898D01*
X149413894Y-121707240D01*
X149352688Y-121837336D01*
X149322664Y-121764851D01*
X149169451Y-121535552D01*
X148974448Y-121340549D01*
X148745149Y-121187336D01*
X148669497Y-121156000D01*
X150022154Y-121156000D01*
X150017928Y-121157522D01*
X149901240Y-121219894D01*
X149833898Y-121460293D01*
X150622000Y-122248395D01*
X151410102Y-121460293D01*
X151342760Y-121219894D01*
X151206950Y-121156000D01*
X151854678Y-121156000D01*
X151892000Y-121159676D01*
X151929322Y-121156000D01*
X151929333Y-121156000D01*
X152040986Y-121145003D01*
X152184247Y-121101546D01*
X152316276Y-121030974D01*
X152429721Y-120937872D01*
X159817000Y-120937872D01*
X159817000Y-121378128D01*
X159902890Y-121809925D01*
X160071369Y-122216669D01*
X160315962Y-122582729D01*
X160627271Y-122894038D01*
X160993331Y-123138631D01*
X161400075Y-123307110D01*
X161831872Y-123393000D01*
X162272128Y-123393000D01*
X162703925Y-123307110D01*
X163110669Y-123138631D01*
X163476729Y-122894038D01*
X163788038Y-122582729D01*
X164032631Y-122216669D01*
X164201110Y-121809925D01*
X164287000Y-121378128D01*
X164287000Y-120937872D01*
X164201110Y-120506075D01*
X164032631Y-120099331D01*
X163788038Y-119733271D01*
X163476729Y-119421962D01*
X163110669Y-119177369D01*
X162703925Y-119008890D01*
X162272128Y-118923000D01*
X161831872Y-118923000D01*
X161400075Y-119008890D01*
X160993331Y-119177369D01*
X160627271Y-119421962D01*
X160315962Y-119733271D01*
X160071369Y-120099331D01*
X159902890Y-120506075D01*
X159817000Y-120937872D01*
X152429721Y-120937872D01*
X152432001Y-120936001D01*
X152455804Y-120906997D01*
X157540802Y-115822000D01*
X167709091Y-115822000D01*
X167715082Y-115836463D01*
X167894013Y-116104252D01*
X168121748Y-116331987D01*
X168389537Y-116510918D01*
X168687088Y-116634168D01*
X169002967Y-116697000D01*
X169325033Y-116697000D01*
X169640912Y-116634168D01*
X169938463Y-116510918D01*
X170206252Y-116331987D01*
X170340826Y-116197413D01*
X172708192Y-116197413D01*
X172803956Y-116461814D01*
X173093571Y-116602704D01*
X173405108Y-116684384D01*
X173726595Y-116703718D01*
X174045675Y-116659961D01*
X174350088Y-116554795D01*
X174524044Y-116461814D01*
X174619808Y-116197413D01*
X173664000Y-115241605D01*
X172708192Y-116197413D01*
X170340826Y-116197413D01*
X170433987Y-116104252D01*
X170612918Y-115836463D01*
X170736168Y-115538912D01*
X170799000Y-115223033D01*
X170799000Y-115124595D01*
X172022282Y-115124595D01*
X172066039Y-115443675D01*
X172171205Y-115748088D01*
X172264186Y-115922044D01*
X172528587Y-116017808D01*
X173484395Y-115062000D01*
X173843605Y-115062000D01*
X174799413Y-116017808D01*
X175063814Y-115922044D01*
X175204704Y-115632429D01*
X175286384Y-115320892D01*
X175305718Y-114999405D01*
X175261961Y-114680325D01*
X175156795Y-114375912D01*
X175063814Y-114201956D01*
X174799413Y-114106192D01*
X173843605Y-115062000D01*
X173484395Y-115062000D01*
X172528587Y-114106192D01*
X172264186Y-114201956D01*
X172123296Y-114491571D01*
X172041616Y-114803108D01*
X172022282Y-115124595D01*
X170799000Y-115124595D01*
X170799000Y-114900967D01*
X170736168Y-114585088D01*
X170612918Y-114287537D01*
X170433987Y-114019748D01*
X170340826Y-113926587D01*
X172708192Y-113926587D01*
X173664000Y-114882395D01*
X174619808Y-113926587D01*
X174524044Y-113662186D01*
X174234429Y-113521296D01*
X173922892Y-113439616D01*
X173601405Y-113420282D01*
X173282325Y-113464039D01*
X172977912Y-113569205D01*
X172803956Y-113662186D01*
X172708192Y-113926587D01*
X170340826Y-113926587D01*
X170206252Y-113792013D01*
X169938463Y-113613082D01*
X169924000Y-113607091D01*
X169924000Y-110016909D01*
X169938463Y-110010918D01*
X170206252Y-109831987D01*
X170340826Y-109697413D01*
X172708192Y-109697413D01*
X172803956Y-109961814D01*
X173093571Y-110102704D01*
X173405108Y-110184384D01*
X173726595Y-110203718D01*
X174045675Y-110159961D01*
X174350088Y-110054795D01*
X174524044Y-109961814D01*
X174619808Y-109697413D01*
X173664000Y-108741605D01*
X172708192Y-109697413D01*
X170340826Y-109697413D01*
X170433987Y-109604252D01*
X170612918Y-109336463D01*
X170736168Y-109038912D01*
X170799000Y-108723033D01*
X170799000Y-108624595D01*
X172022282Y-108624595D01*
X172066039Y-108943675D01*
X172171205Y-109248088D01*
X172264186Y-109422044D01*
X172528587Y-109517808D01*
X173484395Y-108562000D01*
X173843605Y-108562000D01*
X174799413Y-109517808D01*
X175063814Y-109422044D01*
X175204704Y-109132429D01*
X175286384Y-108820892D01*
X175305718Y-108499405D01*
X175261961Y-108180325D01*
X175156795Y-107875912D01*
X175063814Y-107701956D01*
X174799413Y-107606192D01*
X173843605Y-108562000D01*
X173484395Y-108562000D01*
X172528587Y-107606192D01*
X172264186Y-107701956D01*
X172123296Y-107991571D01*
X172041616Y-108303108D01*
X172022282Y-108624595D01*
X170799000Y-108624595D01*
X170799000Y-108400967D01*
X170736168Y-108085088D01*
X170612918Y-107787537D01*
X170433987Y-107519748D01*
X170340826Y-107426587D01*
X172708192Y-107426587D01*
X173664000Y-108382395D01*
X174619808Y-107426587D01*
X174524044Y-107162186D01*
X174234429Y-107021296D01*
X173922892Y-106939616D01*
X173601405Y-106920282D01*
X173282325Y-106964039D01*
X172977912Y-107069205D01*
X172803956Y-107162186D01*
X172708192Y-107426587D01*
X170340826Y-107426587D01*
X170206252Y-107292013D01*
X169938463Y-107113082D01*
X169640912Y-106989832D01*
X169325033Y-106927000D01*
X169002967Y-106927000D01*
X168687088Y-106989832D01*
X168389537Y-107113082D01*
X168121748Y-107292013D01*
X167894013Y-107519748D01*
X167715082Y-107787537D01*
X167591832Y-108085088D01*
X167529000Y-108400967D01*
X167529000Y-108723033D01*
X167591832Y-109038912D01*
X167715082Y-109336463D01*
X167894013Y-109604252D01*
X168121748Y-109831987D01*
X168389537Y-110010918D01*
X168404001Y-110016909D01*
X168404000Y-113607091D01*
X168389537Y-113613082D01*
X168121748Y-113792013D01*
X167894013Y-114019748D01*
X167715082Y-114287537D01*
X167709091Y-114302000D01*
X157492475Y-114302000D01*
X157573405Y-114203386D01*
X157655472Y-114049850D01*
X157706008Y-113883254D01*
X157723072Y-113710000D01*
X157723072Y-112969990D01*
X161564688Y-112969990D01*
X161602010Y-112973666D01*
X161639332Y-112969990D01*
X161639343Y-112969990D01*
X161750996Y-112958993D01*
X161894257Y-112915536D01*
X162026286Y-112844964D01*
X162142011Y-112749991D01*
X162165814Y-112720987D01*
X183666929Y-91219872D01*
X193345000Y-91219872D01*
X193345000Y-91660128D01*
X193430890Y-92091925D01*
X193599369Y-92498669D01*
X193843962Y-92864729D01*
X194155271Y-93176038D01*
X194521331Y-93420631D01*
X194928075Y-93589110D01*
X195359872Y-93675000D01*
X195800128Y-93675000D01*
X196231925Y-93589110D01*
X196638669Y-93420631D01*
X197004729Y-93176038D01*
X197316038Y-92864729D01*
X197560631Y-92498669D01*
X197729110Y-92091925D01*
X197815000Y-91660128D01*
X197815000Y-91219872D01*
X197729110Y-90788075D01*
X197560631Y-90381331D01*
X197316038Y-90015271D01*
X197004729Y-89703962D01*
X196638669Y-89459369D01*
X196231925Y-89290890D01*
X195800128Y-89205000D01*
X195359872Y-89205000D01*
X194928075Y-89290890D01*
X194521331Y-89459369D01*
X194155271Y-89703962D01*
X193843962Y-90015271D01*
X193599369Y-90381331D01*
X193430890Y-90788075D01*
X193345000Y-91219872D01*
X183666929Y-91219872D01*
X183951799Y-90935003D01*
X183951803Y-90934998D01*
X184292525Y-90594276D01*
X185475799Y-89411004D01*
X185475805Y-89410997D01*
X185931003Y-88955799D01*
X185960001Y-88932001D01*
X186016902Y-88862667D01*
X186054974Y-88816277D01*
X186125546Y-88684247D01*
X186148749Y-88607754D01*
X186169003Y-88540986D01*
X186180000Y-88429333D01*
X186180000Y-88429323D01*
X186183676Y-88392000D01*
X186180000Y-88354677D01*
X186180000Y-63239331D01*
X186235025Y-63342275D01*
X186262703Y-63376000D01*
X186329999Y-63458000D01*
X186358997Y-63481798D01*
X186888200Y-64011002D01*
X186911999Y-64040001D01*
X187027724Y-64134974D01*
X187159753Y-64205546D01*
X187303014Y-64249003D01*
X187414667Y-64260000D01*
X187414675Y-64260000D01*
X187452000Y-64263676D01*
X187489325Y-64260000D01*
X196558678Y-64260000D01*
X196596000Y-64263676D01*
X196633322Y-64260000D01*
X196633333Y-64260000D01*
X196744986Y-64249003D01*
X196888247Y-64205546D01*
X197020276Y-64134974D01*
X197136001Y-64040001D01*
X197159803Y-64010998D01*
X197615003Y-63555798D01*
X197644001Y-63532001D01*
X197738974Y-63416276D01*
X197809546Y-63284247D01*
X197853003Y-63140986D01*
X197864000Y-63029333D01*
X197864000Y-63029324D01*
X197867676Y-62992001D01*
X197864000Y-62954678D01*
X197864000Y-53631325D01*
X197867676Y-53594000D01*
X197864000Y-53556675D01*
X197864000Y-53556667D01*
X197853003Y-53445014D01*
X197809546Y-53301753D01*
X197738974Y-53169724D01*
X197644001Y-53053999D01*
X197615003Y-53030201D01*
X195676372Y-51091571D01*
X195707000Y-50937592D01*
X195707000Y-50662408D01*
X195653314Y-50392510D01*
X195548005Y-50138273D01*
X195395120Y-49909465D01*
X195200535Y-49714880D01*
X194971727Y-49561995D01*
X194894485Y-49530000D01*
X194971727Y-49498005D01*
X195200535Y-49345120D01*
X195395120Y-49150535D01*
X195548005Y-48921727D01*
X195653314Y-48667490D01*
X195707000Y-48397592D01*
X195707000Y-48122408D01*
X195653314Y-47852510D01*
X195548005Y-47598273D01*
X195395120Y-47369465D01*
X195200535Y-47174880D01*
X194971727Y-47021995D01*
X194717490Y-46916686D01*
X194447592Y-46863000D01*
X194172408Y-46863000D01*
X193902510Y-46916686D01*
X193648273Y-47021995D01*
X193419465Y-47174880D01*
X193224880Y-47369465D01*
X193071995Y-47598273D01*
X193040000Y-47675515D01*
X193008005Y-47598273D01*
X192855120Y-47369465D01*
X192660535Y-47174880D01*
X192431727Y-47021995D01*
X192177490Y-46916686D01*
X191907592Y-46863000D01*
X191632408Y-46863000D01*
X191362510Y-46916686D01*
X191108273Y-47021995D01*
X190879465Y-47174880D01*
X190684880Y-47369465D01*
X190531995Y-47598273D01*
X190426686Y-47852510D01*
X190373000Y-48122408D01*
X190373000Y-48397592D01*
X190426686Y-48667490D01*
X190531995Y-48921727D01*
X190684880Y-49150535D01*
X190879465Y-49345120D01*
X191108273Y-49498005D01*
X191185515Y-49530000D01*
X191108273Y-49561995D01*
X190879465Y-49714880D01*
X190684880Y-49909465D01*
X190531995Y-50138273D01*
X190426686Y-50392510D01*
X190373000Y-50662408D01*
X190373000Y-50937592D01*
X190426686Y-51207490D01*
X190531995Y-51461727D01*
X190684880Y-51690535D01*
X190879465Y-51885120D01*
X191108273Y-52038005D01*
X191185515Y-52070000D01*
X191108273Y-52101995D01*
X190879465Y-52254880D01*
X190684880Y-52449465D01*
X190531995Y-52678273D01*
X190426686Y-52932510D01*
X190373000Y-53202408D01*
X190373000Y-53477592D01*
X190426686Y-53747490D01*
X190531995Y-54001727D01*
X190684880Y-54230535D01*
X190879465Y-54425120D01*
X191108273Y-54578005D01*
X191362510Y-54683314D01*
X191632408Y-54737000D01*
X191907592Y-54737000D01*
X192177490Y-54683314D01*
X192431727Y-54578005D01*
X192660535Y-54425120D01*
X192855120Y-54230535D01*
X193008005Y-54001727D01*
X193040000Y-53924485D01*
X193071995Y-54001727D01*
X193224880Y-54230535D01*
X193419465Y-54425120D01*
X193550001Y-54512341D01*
X193550001Y-54803197D01*
X192217199Y-56136000D01*
X189290802Y-56136000D01*
X185672000Y-52517199D01*
X185672000Y-47789322D01*
X185675676Y-47751999D01*
X185672000Y-47714676D01*
X185672000Y-47714667D01*
X185661003Y-47603014D01*
X185617546Y-47459753D01*
X185546974Y-47327724D01*
X185452001Y-47211999D01*
X185423003Y-47188201D01*
X179673072Y-41438271D01*
X179673072Y-40649999D01*
X179656008Y-40476745D01*
X179605472Y-40310149D01*
X179523405Y-40156613D01*
X179412962Y-40022038D01*
X179278387Y-39911595D01*
X179124851Y-39829528D01*
X178958255Y-39778992D01*
X178785001Y-39761928D01*
X178084999Y-39761928D01*
X177911745Y-39778992D01*
X177745149Y-39829528D01*
X177591613Y-39911595D01*
X177457038Y-40022038D01*
X177346595Y-40156613D01*
X177344033Y-40161406D01*
X177218474Y-40036922D01*
X177015533Y-39902579D01*
X176790282Y-39810409D01*
X176752609Y-39806538D01*
X176562000Y-39931269D01*
X176562000Y-41148000D01*
X176582000Y-41148000D01*
X176582000Y-41402000D01*
X176562000Y-41402000D01*
X176562000Y-42618731D01*
X176752609Y-42743462D01*
X176790282Y-42739591D01*
X177015533Y-42647421D01*
X177218474Y-42513078D01*
X177344033Y-42388594D01*
X177346595Y-42393387D01*
X177457038Y-42527962D01*
X177591613Y-42638405D01*
X177745149Y-42720472D01*
X177911745Y-42771008D01*
X178084999Y-42788072D01*
X178785001Y-42788072D01*
X178865357Y-42780158D01*
X184152001Y-48066803D01*
X184152000Y-52794677D01*
X184148324Y-52832000D01*
X184152000Y-52869322D01*
X184152000Y-52869332D01*
X184162997Y-52980985D01*
X184206454Y-53124246D01*
X184277026Y-53256276D01*
X184314348Y-53301753D01*
X184371999Y-53372001D01*
X184401003Y-53395804D01*
X188412201Y-57407003D01*
X188435999Y-57436001D01*
X188464997Y-57459799D01*
X188551723Y-57530974D01*
X188683753Y-57601546D01*
X188827014Y-57645003D01*
X188938667Y-57656000D01*
X188938677Y-57656000D01*
X188976000Y-57659676D01*
X189013323Y-57656000D01*
X192494678Y-57656000D01*
X192532000Y-57659676D01*
X192569322Y-57656000D01*
X192569333Y-57656000D01*
X192680986Y-57645003D01*
X192824247Y-57601546D01*
X192956276Y-57530974D01*
X193072001Y-57436001D01*
X193095804Y-57406997D01*
X194821003Y-55681799D01*
X194850001Y-55658001D01*
X194944974Y-55542276D01*
X195015546Y-55410247D01*
X195059003Y-55266986D01*
X195070000Y-55155333D01*
X195070000Y-55155325D01*
X195073676Y-55118000D01*
X195070000Y-55080675D01*
X195070000Y-54512341D01*
X195200535Y-54425120D01*
X195395120Y-54230535D01*
X195548005Y-54001727D01*
X195653314Y-53747490D01*
X195707000Y-53477592D01*
X195707000Y-53271802D01*
X196344001Y-53908803D01*
X196344000Y-60802723D01*
X196243149Y-60735336D01*
X195988365Y-60629801D01*
X195717888Y-60576000D01*
X195442112Y-60576000D01*
X195171635Y-60629801D01*
X194916851Y-60735336D01*
X194687552Y-60888549D01*
X194492549Y-61083552D01*
X194339336Y-61312851D01*
X194310000Y-61383674D01*
X194280664Y-61312851D01*
X194127451Y-61083552D01*
X193932448Y-60888549D01*
X193703149Y-60735336D01*
X193448365Y-60629801D01*
X193177888Y-60576000D01*
X192902112Y-60576000D01*
X192631635Y-60629801D01*
X192376851Y-60735336D01*
X192147552Y-60888549D01*
X191952549Y-61083552D01*
X191799336Y-61312851D01*
X191770000Y-61383674D01*
X191740664Y-61312851D01*
X191587451Y-61083552D01*
X191392448Y-60888549D01*
X191163149Y-60735336D01*
X190908365Y-60629801D01*
X190637888Y-60576000D01*
X190362112Y-60576000D01*
X190091635Y-60629801D01*
X189836851Y-60735336D01*
X189607552Y-60888549D01*
X189412549Y-61083552D01*
X189259336Y-61312851D01*
X189230000Y-61383674D01*
X189200664Y-61312851D01*
X189047451Y-61083552D01*
X188852448Y-60888549D01*
X188623149Y-60735336D01*
X188368365Y-60629801D01*
X188097888Y-60576000D01*
X187822112Y-60576000D01*
X187665879Y-60607077D01*
X185983804Y-58925003D01*
X185960001Y-58895999D01*
X185844276Y-58801026D01*
X185712247Y-58730454D01*
X185568986Y-58686997D01*
X185457333Y-58676000D01*
X185457322Y-58676000D01*
X185420000Y-58672324D01*
X185382678Y-58676000D01*
X174789323Y-58676000D01*
X174752000Y-58672324D01*
X174714677Y-58676000D01*
X174714667Y-58676000D01*
X174603014Y-58686997D01*
X174459753Y-58730454D01*
X174327723Y-58801026D01*
X174244083Y-58869668D01*
X174211999Y-58895999D01*
X174188201Y-58924997D01*
X171192998Y-61920201D01*
X171164000Y-61943999D01*
X171140202Y-61972997D01*
X171140201Y-61972998D01*
X171069026Y-62059724D01*
X170998454Y-62191754D01*
X170954998Y-62335015D01*
X170940324Y-62484000D01*
X170944001Y-62521332D01*
X170944000Y-72837198D01*
X155444998Y-88336201D01*
X155416000Y-88359999D01*
X155392202Y-88388997D01*
X155392201Y-88388998D01*
X155321026Y-88475724D01*
X155250454Y-88607754D01*
X155206998Y-88751015D01*
X155192324Y-88900000D01*
X155196001Y-88937332D01*
X155196000Y-94173197D01*
X151069199Y-98300000D01*
X150447497Y-98300000D01*
X150523149Y-98268664D01*
X150752448Y-98115451D01*
X150947451Y-97920448D01*
X151100664Y-97691149D01*
X151206199Y-97436365D01*
X151260000Y-97165888D01*
X151260000Y-96890112D01*
X151206199Y-96619635D01*
X151100664Y-96364851D01*
X150947451Y-96135552D01*
X150752448Y-95940549D01*
X150523149Y-95787336D01*
X150268365Y-95681801D01*
X149997888Y-95628000D01*
X149722112Y-95628000D01*
X149451635Y-95681801D01*
X149196851Y-95787336D01*
X148967552Y-95940549D01*
X148772549Y-96135552D01*
X148619336Y-96364851D01*
X148590000Y-96435674D01*
X148560664Y-96364851D01*
X148407451Y-96135552D01*
X148212448Y-95940549D01*
X147983149Y-95787336D01*
X147728365Y-95681801D01*
X147457888Y-95628000D01*
X147182112Y-95628000D01*
X146911635Y-95681801D01*
X146656851Y-95787336D01*
X146427552Y-95940549D01*
X146232549Y-96135552D01*
X146079336Y-96364851D01*
X146050000Y-96435674D01*
X146020664Y-96364851D01*
X145867451Y-96135552D01*
X145672448Y-95940549D01*
X145443149Y-95787336D01*
X145188365Y-95681801D01*
X144917888Y-95628000D01*
X144642112Y-95628000D01*
X144371635Y-95681801D01*
X144116851Y-95787336D01*
X143887552Y-95940549D01*
X143692549Y-96135552D01*
X143539336Y-96364851D01*
X143510000Y-96435674D01*
X143480664Y-96364851D01*
X143327451Y-96135552D01*
X143132448Y-95940549D01*
X142903149Y-95787336D01*
X142648365Y-95681801D01*
X142377888Y-95628000D01*
X142102112Y-95628000D01*
X141831635Y-95681801D01*
X141576851Y-95787336D01*
X141347552Y-95940549D01*
X141152549Y-96135552D01*
X140999336Y-96364851D01*
X140970000Y-96435674D01*
X140940664Y-96364851D01*
X140787451Y-96135552D01*
X140592448Y-95940549D01*
X140363149Y-95787336D01*
X140108365Y-95681801D01*
X139837888Y-95628000D01*
X139562112Y-95628000D01*
X139291635Y-95681801D01*
X139036851Y-95787336D01*
X138807552Y-95940549D01*
X138612549Y-96135552D01*
X138459336Y-96364851D01*
X138430000Y-96435674D01*
X138400664Y-96364851D01*
X138247451Y-96135552D01*
X138052448Y-95940549D01*
X137823149Y-95787336D01*
X137568365Y-95681801D01*
X137297888Y-95628000D01*
X137022112Y-95628000D01*
X136751635Y-95681801D01*
X136496851Y-95787336D01*
X136267552Y-95940549D01*
X136072549Y-96135552D01*
X135919336Y-96364851D01*
X135892518Y-96429594D01*
X135890478Y-96423928D01*
X135828106Y-96307240D01*
X135587707Y-96239898D01*
X134799605Y-97028000D01*
X135587707Y-97816102D01*
X135828106Y-97748760D01*
X135889312Y-97618664D01*
X135919336Y-97691149D01*
X136072549Y-97920448D01*
X136267552Y-98115451D01*
X136496851Y-98268664D01*
X136751635Y-98374199D01*
X137022112Y-98428000D01*
X137297888Y-98428000D01*
X137568365Y-98374199D01*
X137823149Y-98268664D01*
X138052448Y-98115451D01*
X138247451Y-97920448D01*
X138400664Y-97691149D01*
X138430000Y-97620326D01*
X138459336Y-97691149D01*
X138612549Y-97920448D01*
X138807552Y-98115451D01*
X139036851Y-98268664D01*
X139112503Y-98300000D01*
X138467323Y-98300000D01*
X138430000Y-98296324D01*
X138392677Y-98300000D01*
X138392667Y-98300000D01*
X138281014Y-98310997D01*
X138140878Y-98353506D01*
X138137753Y-98354454D01*
X138005723Y-98425026D01*
X137922083Y-98493668D01*
X137889999Y-98519999D01*
X137866201Y-98548997D01*
X135676122Y-100739077D01*
X135519888Y-100708000D01*
X135244112Y-100708000D01*
X134973635Y-100761801D01*
X134718851Y-100867336D01*
X134489552Y-101020549D01*
X134466053Y-101044048D01*
X131827133Y-98405129D01*
X131942112Y-98428000D01*
X132217888Y-98428000D01*
X132488365Y-98374199D01*
X132743149Y-98268664D01*
X132972448Y-98115451D01*
X133092192Y-97995707D01*
X133831898Y-97995707D01*
X133899240Y-98236106D01*
X134148780Y-98353506D01*
X134416427Y-98419967D01*
X134691899Y-98432936D01*
X134964607Y-98391914D01*
X135224072Y-98298478D01*
X135340760Y-98236106D01*
X135408102Y-97995707D01*
X134620000Y-97207605D01*
X133831898Y-97995707D01*
X133092192Y-97995707D01*
X133167451Y-97920448D01*
X133320664Y-97691149D01*
X133347482Y-97626406D01*
X133349522Y-97632072D01*
X133411894Y-97748760D01*
X133652293Y-97816102D01*
X134440395Y-97028000D01*
X133652293Y-96239898D01*
X133411894Y-96307240D01*
X133350688Y-96437336D01*
X133320664Y-96364851D01*
X133167451Y-96135552D01*
X133092192Y-96060293D01*
X133831898Y-96060293D01*
X134620000Y-96848395D01*
X135408102Y-96060293D01*
X135340760Y-95819894D01*
X135091220Y-95702494D01*
X134823573Y-95636033D01*
X134548101Y-95623064D01*
X134275393Y-95664086D01*
X134015928Y-95757522D01*
X133899240Y-95819894D01*
X133831898Y-96060293D01*
X133092192Y-96060293D01*
X132972448Y-95940549D01*
X132743149Y-95787336D01*
X132488365Y-95681801D01*
X132217888Y-95628000D01*
X131942112Y-95628000D01*
X131671635Y-95681801D01*
X131416851Y-95787336D01*
X131187552Y-95940549D01*
X130992549Y-96135552D01*
X130839336Y-96364851D01*
X130810000Y-96435674D01*
X130780664Y-96364851D01*
X130627451Y-96135552D01*
X130432448Y-95940549D01*
X130203149Y-95787336D01*
X129948365Y-95681801D01*
X129677888Y-95628000D01*
X129402112Y-95628000D01*
X129131635Y-95681801D01*
X128876851Y-95787336D01*
X128647552Y-95940549D01*
X128452549Y-96135552D01*
X128299336Y-96364851D01*
X128193801Y-96619635D01*
X128140000Y-96890112D01*
X128140000Y-97165888D01*
X128193801Y-97436365D01*
X128299336Y-97691149D01*
X128452549Y-97920448D01*
X128647552Y-98115451D01*
X128876851Y-98268664D01*
X129131635Y-98374199D01*
X129402112Y-98428000D01*
X129677888Y-98428000D01*
X129696666Y-98424265D01*
X132155403Y-100883003D01*
X131949552Y-101020549D01*
X131754549Y-101215552D01*
X131601336Y-101444851D01*
X131572000Y-101515674D01*
X131542664Y-101444851D01*
X131389451Y-101215552D01*
X131194448Y-101020549D01*
X130965149Y-100867336D01*
X130710365Y-100761801D01*
X130439888Y-100708000D01*
X130164112Y-100708000D01*
X129893635Y-100761801D01*
X129638851Y-100867336D01*
X129409552Y-101020549D01*
X129214549Y-101215552D01*
X129061336Y-101444851D01*
X129032000Y-101515674D01*
X129002664Y-101444851D01*
X128849451Y-101215552D01*
X128654448Y-101020549D01*
X128425149Y-100867336D01*
X128170365Y-100761801D01*
X127899888Y-100708000D01*
X127624112Y-100708000D01*
X127353635Y-100761801D01*
X127098851Y-100867336D01*
X126869552Y-101020549D01*
X126674549Y-101215552D01*
X126521336Y-101444851D01*
X126492000Y-101515674D01*
X126462664Y-101444851D01*
X126309451Y-101215552D01*
X126114448Y-101020549D01*
X125885149Y-100867336D01*
X125630365Y-100761801D01*
X125359888Y-100708000D01*
X125084112Y-100708000D01*
X124813635Y-100761801D01*
X124558851Y-100867336D01*
X124329552Y-101020549D01*
X124134549Y-101215552D01*
X123981336Y-101444851D01*
X123952000Y-101515674D01*
X123922664Y-101444851D01*
X123769451Y-101215552D01*
X123574448Y-101020549D01*
X123345149Y-100867336D01*
X123090365Y-100761801D01*
X122819888Y-100708000D01*
X122544112Y-100708000D01*
X122273635Y-100761801D01*
X122018851Y-100867336D01*
X121789552Y-101020549D01*
X121594549Y-101215552D01*
X121441336Y-101444851D01*
X121412000Y-101515674D01*
X121382664Y-101444851D01*
X121229451Y-101215552D01*
X121034448Y-101020549D01*
X120805149Y-100867336D01*
X120550365Y-100761801D01*
X120279888Y-100708000D01*
X120004112Y-100708000D01*
X119733635Y-100761801D01*
X119478851Y-100867336D01*
X119249552Y-101020549D01*
X119054549Y-101215552D01*
X118901336Y-101444851D01*
X118795801Y-101699635D01*
X118742000Y-101970112D01*
X118742000Y-102245888D01*
X118795801Y-102516365D01*
X118901336Y-102771149D01*
X119054549Y-103000448D01*
X119249552Y-103195451D01*
X119478851Y-103348664D01*
X119733635Y-103454199D01*
X120004112Y-103508000D01*
X120279888Y-103508000D01*
X120550365Y-103454199D01*
X120805149Y-103348664D01*
X121034448Y-103195451D01*
X121229451Y-103000448D01*
X121382664Y-102771149D01*
X121412000Y-102700326D01*
X121441336Y-102771149D01*
X121594549Y-103000448D01*
X121789552Y-103195451D01*
X122018851Y-103348664D01*
X122273635Y-103454199D01*
X122544112Y-103508000D01*
X122819888Y-103508000D01*
X123090365Y-103454199D01*
X123345149Y-103348664D01*
X123574448Y-103195451D01*
X123769451Y-103000448D01*
X123922664Y-102771149D01*
X123952000Y-102700326D01*
X123981336Y-102771149D01*
X124134549Y-103000448D01*
X124329552Y-103195451D01*
X124558851Y-103348664D01*
X124813635Y-103454199D01*
X125084112Y-103508000D01*
X125359888Y-103508000D01*
X125630365Y-103454199D01*
X125885149Y-103348664D01*
X126114448Y-103195451D01*
X126309451Y-103000448D01*
X126462664Y-102771149D01*
X126492000Y-102700326D01*
X126521336Y-102771149D01*
X126674549Y-103000448D01*
X126869552Y-103195451D01*
X127098851Y-103348664D01*
X127353635Y-103454199D01*
X127624112Y-103508000D01*
X127899888Y-103508000D01*
X128170365Y-103454199D01*
X128425149Y-103348664D01*
X128654448Y-103195451D01*
X128849451Y-103000448D01*
X129002664Y-102771149D01*
X129032000Y-102700326D01*
X129061336Y-102771149D01*
X129214549Y-103000448D01*
X129409552Y-103195451D01*
X129638851Y-103348664D01*
X129893635Y-103454199D01*
X130164112Y-103508000D01*
X130367198Y-103508000D01*
X128200200Y-105674999D01*
X96589801Y-105674999D01*
X95704999Y-104790198D01*
X95704999Y-104572725D01*
X95970166Y-104682561D01*
X96334344Y-104755000D01*
X96705656Y-104755000D01*
X97069834Y-104682561D01*
X97412882Y-104540466D01*
X97721618Y-104334175D01*
X97984175Y-104071618D01*
X98190466Y-103762882D01*
X98332561Y-103419834D01*
X98384668Y-103157872D01*
X114097000Y-103157872D01*
X114097000Y-103598128D01*
X114182890Y-104029925D01*
X114351369Y-104436669D01*
X114595962Y-104802729D01*
X114907271Y-105114038D01*
X115273331Y-105358631D01*
X115680075Y-105527110D01*
X116111872Y-105613000D01*
X116552128Y-105613000D01*
X116983925Y-105527110D01*
X117390669Y-105358631D01*
X117756729Y-105114038D01*
X118068038Y-104802729D01*
X118312631Y-104436669D01*
X118481110Y-104029925D01*
X118567000Y-103598128D01*
X118567000Y-103157872D01*
X118481110Y-102726075D01*
X118312631Y-102319331D01*
X118068038Y-101953271D01*
X117756729Y-101641962D01*
X117390669Y-101397369D01*
X116983925Y-101228890D01*
X116552128Y-101143000D01*
X116111872Y-101143000D01*
X115680075Y-101228890D01*
X115273331Y-101397369D01*
X114907271Y-101641962D01*
X114595962Y-101953271D01*
X114351369Y-102319331D01*
X114182890Y-102726075D01*
X114097000Y-103157872D01*
X98384668Y-103157872D01*
X98405000Y-103055656D01*
X98405000Y-102684344D01*
X98332561Y-102320166D01*
X98190466Y-101977118D01*
X97984175Y-101668382D01*
X97721618Y-101405825D01*
X97543253Y-101286646D01*
X97607451Y-101222448D01*
X97760664Y-100993149D01*
X97866199Y-100738365D01*
X97920000Y-100467888D01*
X97920000Y-100192112D01*
X97866199Y-99921635D01*
X97760664Y-99666851D01*
X97607451Y-99437552D01*
X97412448Y-99242549D01*
X97183149Y-99089336D01*
X97112326Y-99060000D01*
X97183149Y-99030664D01*
X97412448Y-98877451D01*
X97607451Y-98682448D01*
X97760664Y-98453149D01*
X97866199Y-98198365D01*
X97920000Y-97927888D01*
X97920000Y-97652112D01*
X97866199Y-97381635D01*
X97760664Y-97126851D01*
X97607451Y-96897552D01*
X97517771Y-96807872D01*
X108255000Y-96807872D01*
X108255000Y-97248128D01*
X108340890Y-97679925D01*
X108509369Y-98086669D01*
X108753962Y-98452729D01*
X109065271Y-98764038D01*
X109431331Y-99008631D01*
X109838075Y-99177110D01*
X110269872Y-99263000D01*
X110710128Y-99263000D01*
X111141925Y-99177110D01*
X111548669Y-99008631D01*
X111914729Y-98764038D01*
X112226038Y-98452729D01*
X112470631Y-98086669D01*
X112639110Y-97679925D01*
X112725000Y-97248128D01*
X112725000Y-96807872D01*
X112639110Y-96376075D01*
X112470631Y-95969331D01*
X112226038Y-95603271D01*
X111914729Y-95291962D01*
X111548669Y-95047369D01*
X111141925Y-94878890D01*
X110710128Y-94793000D01*
X110269872Y-94793000D01*
X109838075Y-94878890D01*
X109431331Y-95047369D01*
X109065271Y-95291962D01*
X108753962Y-95603271D01*
X108509369Y-95969331D01*
X108340890Y-96376075D01*
X108255000Y-96807872D01*
X97517771Y-96807872D01*
X97412448Y-96702549D01*
X97183149Y-96549336D01*
X97118406Y-96522518D01*
X97124072Y-96520478D01*
X97240760Y-96458106D01*
X97308102Y-96217707D01*
X96520000Y-95429605D01*
X96505858Y-95443748D01*
X96326253Y-95264143D01*
X96340395Y-95250000D01*
X96699605Y-95250000D01*
X97487707Y-96038102D01*
X97728106Y-95970760D01*
X97845506Y-95721220D01*
X97911967Y-95453573D01*
X97924936Y-95178101D01*
X97883914Y-94905393D01*
X97790478Y-94645928D01*
X97728106Y-94529240D01*
X97487707Y-94461898D01*
X96699605Y-95250000D01*
X96340395Y-95250000D01*
X96326253Y-95235858D01*
X96505858Y-95056253D01*
X96520000Y-95070395D01*
X97308102Y-94282293D01*
X97240760Y-94041894D01*
X97110664Y-93980688D01*
X97183149Y-93950664D01*
X97412448Y-93797451D01*
X97607451Y-93602448D01*
X97695950Y-93470000D01*
X99784678Y-93470000D01*
X99822000Y-93473676D01*
X99859322Y-93470000D01*
X99859333Y-93470000D01*
X99970986Y-93459003D01*
X100114247Y-93415546D01*
X100246276Y-93344974D01*
X100362001Y-93250001D01*
X100385804Y-93220997D01*
X114339802Y-79267000D01*
X114401939Y-79267000D01*
X114601898Y-79227226D01*
X114790256Y-79149205D01*
X114959774Y-79035937D01*
X115103937Y-78891774D01*
X115217205Y-78722256D01*
X115295226Y-78533898D01*
X115305151Y-78484000D01*
X133408289Y-78484000D01*
X133452226Y-78527937D01*
X133621744Y-78641205D01*
X133810102Y-78719226D01*
X134010061Y-78759000D01*
X134213939Y-78759000D01*
X134413898Y-78719226D01*
X134602256Y-78641205D01*
X134771774Y-78527937D01*
X134815711Y-78484000D01*
X147536678Y-78484000D01*
X147574000Y-78487676D01*
X147611322Y-78484000D01*
X147611333Y-78484000D01*
X147722986Y-78473003D01*
X147866247Y-78429546D01*
X147998276Y-78358974D01*
X148114001Y-78264001D01*
X148137804Y-78234997D01*
X153251430Y-73121372D01*
X153405408Y-73152000D01*
X153680592Y-73152000D01*
X153950490Y-73098314D01*
X154204727Y-72993005D01*
X154433535Y-72840120D01*
X154628120Y-72645535D01*
X154781005Y-72416727D01*
X154813000Y-72339485D01*
X154844995Y-72416727D01*
X154997880Y-72645535D01*
X155192465Y-72840120D01*
X155421273Y-72993005D01*
X155675510Y-73098314D01*
X155945408Y-73152000D01*
X156220592Y-73152000D01*
X156490490Y-73098314D01*
X156744727Y-72993005D01*
X156973535Y-72840120D01*
X157168120Y-72645535D01*
X157321005Y-72416727D01*
X157353000Y-72339485D01*
X157384995Y-72416727D01*
X157537880Y-72645535D01*
X157732465Y-72840120D01*
X157961273Y-72993005D01*
X158215510Y-73098314D01*
X158485408Y-73152000D01*
X158760592Y-73152000D01*
X159030490Y-73098314D01*
X159284727Y-72993005D01*
X159513535Y-72840120D01*
X159708120Y-72645535D01*
X159861005Y-72416727D01*
X159966314Y-72162490D01*
X160020000Y-71892592D01*
X160020000Y-71617408D01*
X159966314Y-71347510D01*
X159861005Y-71093273D01*
X159708120Y-70864465D01*
X159513535Y-70669880D01*
X159284727Y-70516995D01*
X159030490Y-70411686D01*
X158760592Y-70358000D01*
X158485408Y-70358000D01*
X158215510Y-70411686D01*
X157961273Y-70516995D01*
X157732465Y-70669880D01*
X157537880Y-70864465D01*
X157384995Y-71093273D01*
X157353000Y-71170515D01*
X157321005Y-71093273D01*
X157168120Y-70864465D01*
X156973535Y-70669880D01*
X156744727Y-70516995D01*
X156490490Y-70411686D01*
X156220592Y-70358000D01*
X155945408Y-70358000D01*
X155675510Y-70411686D01*
X155421273Y-70516995D01*
X155192465Y-70669880D01*
X154997880Y-70864465D01*
X154844995Y-71093273D01*
X154813000Y-71170515D01*
X154781005Y-71093273D01*
X154628120Y-70864465D01*
X154433535Y-70669880D01*
X154204727Y-70516995D01*
X153950490Y-70411686D01*
X153680592Y-70358000D01*
X153405408Y-70358000D01*
X153135510Y-70411686D01*
X152881273Y-70516995D01*
X152652465Y-70669880D01*
X152457880Y-70864465D01*
X152304995Y-71093273D01*
X152273000Y-71170515D01*
X152241005Y-71093273D01*
X152088120Y-70864465D01*
X151893535Y-70669880D01*
X151664727Y-70516995D01*
X151410490Y-70411686D01*
X151140592Y-70358000D01*
X150865408Y-70358000D01*
X150595510Y-70411686D01*
X150341273Y-70516995D01*
X150112465Y-70669880D01*
X149917880Y-70864465D01*
X149764995Y-71093273D01*
X149733000Y-71170515D01*
X149701005Y-71093273D01*
X149548120Y-70864465D01*
X149353535Y-70669880D01*
X149124727Y-70516995D01*
X148870490Y-70411686D01*
X148600592Y-70358000D01*
X148325408Y-70358000D01*
X148055510Y-70411686D01*
X147801273Y-70516995D01*
X147572465Y-70669880D01*
X147377880Y-70864465D01*
X147224995Y-71093273D01*
X147193000Y-71170515D01*
X147161005Y-71093273D01*
X147008120Y-70864465D01*
X146813535Y-70669880D01*
X146584727Y-70516995D01*
X146330490Y-70411686D01*
X146060592Y-70358000D01*
X145785408Y-70358000D01*
X145515510Y-70411686D01*
X145261273Y-70516995D01*
X145032465Y-70669880D01*
X144837880Y-70864465D01*
X144684995Y-71093273D01*
X144655308Y-71164943D01*
X144650636Y-71151977D01*
X144588656Y-71036020D01*
X144348565Y-70969040D01*
X143562605Y-71755000D01*
X144348565Y-72540960D01*
X144588656Y-72473980D01*
X144652485Y-72338240D01*
X144684995Y-72416727D01*
X144837880Y-72645535D01*
X145032465Y-72840120D01*
X145261273Y-72993005D01*
X145515510Y-73098314D01*
X145785408Y-73152000D01*
X145991198Y-73152000D01*
X144211199Y-74932000D01*
X111670322Y-74932000D01*
X111632999Y-74928324D01*
X111595676Y-74932000D01*
X111595667Y-74932000D01*
X111484014Y-74942997D01*
X111340753Y-74986454D01*
X111208724Y-75057026D01*
X111092999Y-75151999D01*
X111069201Y-75180997D01*
X109180199Y-77070000D01*
X109118061Y-77070000D01*
X108918102Y-77109774D01*
X108729744Y-77187795D01*
X108560226Y-77301063D01*
X108416063Y-77445226D01*
X108302795Y-77614744D01*
X108224774Y-77803102D01*
X108185000Y-78003061D01*
X108185000Y-78065198D01*
X99380199Y-86870000D01*
X97695950Y-86870000D01*
X97607451Y-86737552D01*
X97412448Y-86542549D01*
X97183149Y-86389336D01*
X97112326Y-86360000D01*
X97183149Y-86330664D01*
X97412448Y-86177451D01*
X97607451Y-85982448D01*
X97760664Y-85753149D01*
X97866199Y-85498365D01*
X97920000Y-85227888D01*
X97920000Y-84952112D01*
X97866199Y-84681635D01*
X97760664Y-84426851D01*
X97607451Y-84197552D01*
X97543253Y-84133354D01*
X97721618Y-84014175D01*
X97984175Y-83751618D01*
X98190466Y-83442882D01*
X98332561Y-83099834D01*
X98405000Y-82735656D01*
X98405000Y-82364344D01*
X98332561Y-82000166D01*
X98190466Y-81657118D01*
X97984175Y-81348382D01*
X97721618Y-81085825D01*
X97412882Y-80879534D01*
X97069834Y-80737439D01*
X96705656Y-80665000D01*
X96334344Y-80665000D01*
X95970166Y-80737439D01*
X95627118Y-80879534D01*
X95318382Y-81085825D01*
X95055825Y-81348382D01*
X94849534Y-81657118D01*
X94707439Y-82000166D01*
X94635000Y-82364344D01*
X94635000Y-82735656D01*
X94707439Y-83099834D01*
X94849534Y-83442882D01*
X95055825Y-83751618D01*
X95318382Y-84014175D01*
X95496747Y-84133354D01*
X95432549Y-84197552D01*
X95279336Y-84426851D01*
X95173801Y-84681635D01*
X95120000Y-84952112D01*
X95120000Y-85227888D01*
X95151077Y-85384122D01*
X94433997Y-86101202D01*
X94404999Y-86125000D01*
X94381201Y-86153998D01*
X94381200Y-86153999D01*
X94310025Y-86240725D01*
X94239453Y-86372755D01*
X94209179Y-86472559D01*
X94203889Y-86490000D01*
X94195997Y-86516016D01*
X94181323Y-86665001D01*
X94185000Y-86702334D01*
X94184999Y-105067677D01*
X94181323Y-105104999D01*
X94184999Y-105142321D01*
X94184999Y-105142331D01*
X94195996Y-105253984D01*
X94227740Y-105358631D01*
X94239453Y-105397245D01*
X94310025Y-105529275D01*
X94349870Y-105577825D01*
X94404998Y-105645000D01*
X94434002Y-105668803D01*
X95711200Y-106946002D01*
X95734998Y-106975000D01*
X95763996Y-106998798D01*
X95850722Y-107069973D01*
X95931373Y-107113082D01*
X95982752Y-107140545D01*
X96126013Y-107184002D01*
X96237666Y-107194999D01*
X96237675Y-107194999D01*
X96274998Y-107198675D01*
X96312321Y-107194999D01*
X104766940Y-107194999D01*
X104621748Y-107292013D01*
X104394013Y-107519748D01*
X104215082Y-107787537D01*
X104091832Y-108085088D01*
X104029000Y-108400967D01*
X104029000Y-108723033D01*
X104091832Y-109038912D01*
X104215082Y-109336463D01*
X104394013Y-109604252D01*
X104621748Y-109831987D01*
X104889537Y-110010918D01*
X105187088Y-110134168D01*
X105502967Y-110197000D01*
X105825033Y-110197000D01*
X106140912Y-110134168D01*
X106438463Y-110010918D01*
X106706252Y-109831987D01*
X106840826Y-109697413D01*
X109208192Y-109697413D01*
X109303956Y-109961814D01*
X109593571Y-110102704D01*
X109905108Y-110184384D01*
X110226595Y-110203718D01*
X110545675Y-110159961D01*
X110850088Y-110054795D01*
X111024044Y-109961814D01*
X111119808Y-109697413D01*
X110164000Y-108741605D01*
X109208192Y-109697413D01*
X106840826Y-109697413D01*
X106933987Y-109604252D01*
X107112918Y-109336463D01*
X107236168Y-109038912D01*
X107299000Y-108723033D01*
X107299000Y-108624595D01*
X108522282Y-108624595D01*
X108566039Y-108943675D01*
X108671205Y-109248088D01*
X108764186Y-109422044D01*
X109028587Y-109517808D01*
X109984395Y-108562000D01*
X110343605Y-108562000D01*
X111299413Y-109517808D01*
X111563814Y-109422044D01*
X111704704Y-109132429D01*
X111786384Y-108820892D01*
X111805718Y-108499405D01*
X111761961Y-108180325D01*
X111656795Y-107875912D01*
X111563814Y-107701956D01*
X111299413Y-107606192D01*
X110343605Y-108562000D01*
X109984395Y-108562000D01*
X109028587Y-107606192D01*
X108764186Y-107701956D01*
X108623296Y-107991571D01*
X108541616Y-108303108D01*
X108522282Y-108624595D01*
X107299000Y-108624595D01*
X107299000Y-108400967D01*
X107236168Y-108085088D01*
X107112918Y-107787537D01*
X106933987Y-107519748D01*
X106706252Y-107292013D01*
X106561060Y-107194999D01*
X109292071Y-107194999D01*
X109208192Y-107426587D01*
X110164000Y-108382395D01*
X111119808Y-107426587D01*
X111035929Y-107194999D01*
X128477679Y-107194999D01*
X128515001Y-107198675D01*
X128552323Y-107194999D01*
X128552334Y-107194999D01*
X128663987Y-107184002D01*
X128807248Y-107140545D01*
X128939277Y-107069973D01*
X129055002Y-106975000D01*
X129078805Y-106945996D01*
X132547878Y-103476923D01*
X132704112Y-103508000D01*
X132979888Y-103508000D01*
X133250365Y-103454199D01*
X133352001Y-103412100D01*
X133352000Y-104841198D01*
X128717199Y-109476000D01*
X124648319Y-109476000D01*
X124635472Y-109433650D01*
X124553405Y-109280114D01*
X124442962Y-109145538D01*
X124308386Y-109035095D01*
X124154850Y-108953028D01*
X123988254Y-108902492D01*
X123815000Y-108885428D01*
X122565000Y-108885428D01*
X122391746Y-108902492D01*
X122225150Y-108953028D01*
X122071614Y-109035095D01*
X121937038Y-109145538D01*
X121826595Y-109280114D01*
X121744528Y-109433650D01*
X121693992Y-109600246D01*
X121676928Y-109773500D01*
X121676928Y-110698500D01*
X121693992Y-110871754D01*
X121744528Y-111038350D01*
X121826595Y-111191886D01*
X121937038Y-111326462D01*
X122071614Y-111436905D01*
X122225150Y-111518972D01*
X122391746Y-111569508D01*
X122565000Y-111586572D01*
X123815000Y-111586572D01*
X123988254Y-111569508D01*
X124154850Y-111518972D01*
X124308386Y-111436905D01*
X124442962Y-111326462D01*
X124553405Y-111191886D01*
X124635472Y-111038350D01*
X124648319Y-110996000D01*
X128994678Y-110996000D01*
X129032000Y-110999676D01*
X129069322Y-110996000D01*
X129069333Y-110996000D01*
X129180986Y-110985003D01*
X129324247Y-110941546D01*
X129456276Y-110870974D01*
X129572001Y-110776001D01*
X129595804Y-110746997D01*
X131941834Y-108400967D01*
X135779000Y-108400967D01*
X135779000Y-108723033D01*
X135841832Y-109038912D01*
X135965082Y-109336463D01*
X136144013Y-109604252D01*
X136371748Y-109831987D01*
X136639537Y-110010918D01*
X136937088Y-110134168D01*
X137252967Y-110197000D01*
X137575033Y-110197000D01*
X137890912Y-110134168D01*
X138188463Y-110010918D01*
X138456252Y-109831987D01*
X138590826Y-109697413D01*
X140958192Y-109697413D01*
X141053956Y-109961814D01*
X141343571Y-110102704D01*
X141655108Y-110184384D01*
X141976595Y-110203718D01*
X142295675Y-110159961D01*
X142600088Y-110054795D01*
X142774044Y-109961814D01*
X142869808Y-109697413D01*
X141914000Y-108741605D01*
X140958192Y-109697413D01*
X138590826Y-109697413D01*
X138683987Y-109604252D01*
X138862918Y-109336463D01*
X138986168Y-109038912D01*
X139049000Y-108723033D01*
X139049000Y-108624595D01*
X140272282Y-108624595D01*
X140316039Y-108943675D01*
X140421205Y-109248088D01*
X140514186Y-109422044D01*
X140778587Y-109517808D01*
X141734395Y-108562000D01*
X142093605Y-108562000D01*
X143049413Y-109517808D01*
X143313814Y-109422044D01*
X143454704Y-109132429D01*
X143536384Y-108820892D01*
X143555718Y-108499405D01*
X143511961Y-108180325D01*
X143406795Y-107875912D01*
X143313814Y-107701956D01*
X143049413Y-107606192D01*
X142093605Y-108562000D01*
X141734395Y-108562000D01*
X140778587Y-107606192D01*
X140514186Y-107701956D01*
X140373296Y-107991571D01*
X140291616Y-108303108D01*
X140272282Y-108624595D01*
X139049000Y-108624595D01*
X139049000Y-108400967D01*
X138986168Y-108085088D01*
X138862918Y-107787537D01*
X138683987Y-107519748D01*
X138590826Y-107426587D01*
X140958192Y-107426587D01*
X141914000Y-108382395D01*
X142869808Y-107426587D01*
X142774044Y-107162186D01*
X142484429Y-107021296D01*
X142172892Y-106939616D01*
X141851405Y-106920282D01*
X141532325Y-106964039D01*
X141227912Y-107069205D01*
X141053956Y-107162186D01*
X140958192Y-107426587D01*
X138590826Y-107426587D01*
X138456252Y-107292013D01*
X138188463Y-107113082D01*
X137890912Y-106989832D01*
X137575033Y-106927000D01*
X137252967Y-106927000D01*
X136937088Y-106989832D01*
X136639537Y-107113082D01*
X136371748Y-107292013D01*
X136144013Y-107519748D01*
X135965082Y-107787537D01*
X135841832Y-108085088D01*
X135779000Y-108400967D01*
X131941834Y-108400967D01*
X134623004Y-105719798D01*
X134652001Y-105696001D01*
X134678332Y-105663917D01*
X134746974Y-105580277D01*
X134817546Y-105448247D01*
X134817546Y-105448246D01*
X134861003Y-105304986D01*
X134872000Y-105193333D01*
X134872000Y-105193323D01*
X134875676Y-105156000D01*
X134872000Y-105118677D01*
X134872000Y-103412100D01*
X134973635Y-103454199D01*
X135244112Y-103508000D01*
X135519888Y-103508000D01*
X135790365Y-103454199D01*
X136045149Y-103348664D01*
X136274448Y-103195451D01*
X136469451Y-103000448D01*
X136622664Y-102771149D01*
X136652000Y-102700326D01*
X136681336Y-102771149D01*
X136834549Y-103000448D01*
X137029552Y-103195451D01*
X137258851Y-103348664D01*
X137513635Y-103454199D01*
X137784112Y-103508000D01*
X138059888Y-103508000D01*
X138330365Y-103454199D01*
X138585149Y-103348664D01*
X138814448Y-103195451D01*
X139009451Y-103000448D01*
X139162664Y-102771149D01*
X139192000Y-102700326D01*
X139221336Y-102771149D01*
X139374549Y-103000448D01*
X139569552Y-103195451D01*
X139798851Y-103348664D01*
X140053635Y-103454199D01*
X140324112Y-103508000D01*
X140599888Y-103508000D01*
X140756122Y-103476923D01*
X148062701Y-110783503D01*
X148086499Y-110812501D01*
X148202224Y-110907474D01*
X148307004Y-110963481D01*
X130432754Y-110963482D01*
X130395419Y-110959805D01*
X130246433Y-110974478D01*
X130103172Y-111017935D01*
X129971143Y-111088507D01*
X129884416Y-111159682D01*
X129884411Y-111159687D01*
X129855418Y-111183481D01*
X129831624Y-111212474D01*
X122171003Y-118873096D01*
X122141999Y-118896899D01*
X122086871Y-118964074D01*
X122047026Y-119012624D01*
X122006380Y-119088667D01*
X121976454Y-119144654D01*
X121932997Y-119287915D01*
X121922000Y-119399568D01*
X121922000Y-119399578D01*
X121918324Y-119436900D01*
X121922000Y-119474223D01*
X121922001Y-121252049D01*
X121789552Y-121340549D01*
X121594549Y-121535552D01*
X121540488Y-121616459D01*
X121532812Y-121538518D01*
X121496502Y-121418820D01*
X121437537Y-121308506D01*
X121358185Y-121211815D01*
X121261494Y-121132463D01*
X121151180Y-121073498D01*
X121031482Y-121037188D01*
X120907000Y-121024928D01*
X120427750Y-121028000D01*
X120269000Y-121186750D01*
X120269000Y-122301000D01*
X120289000Y-122301000D01*
X120289000Y-122555000D01*
X120269000Y-122555000D01*
X120269000Y-122575000D01*
X120015000Y-122575000D01*
X120015000Y-122555000D01*
X118900750Y-122555000D01*
X118742000Y-122713750D01*
X118738928Y-123193000D01*
X118751188Y-123317482D01*
X118787498Y-123437180D01*
X118846463Y-123547494D01*
X118925815Y-123644185D01*
X119022506Y-123723537D01*
X119072014Y-123750000D01*
X83034728Y-123750000D01*
X83464446Y-123664524D01*
X84034979Y-123428201D01*
X84548446Y-123085114D01*
X84985114Y-122648446D01*
X85328201Y-122134979D01*
X85564524Y-121564446D01*
X85685000Y-120958771D01*
X85685000Y-120937872D01*
X114097000Y-120937872D01*
X114097000Y-121378128D01*
X114182890Y-121809925D01*
X114351369Y-122216669D01*
X114595962Y-122582729D01*
X114907271Y-122894038D01*
X115273331Y-123138631D01*
X115680075Y-123307110D01*
X116111872Y-123393000D01*
X116552128Y-123393000D01*
X116983925Y-123307110D01*
X117390669Y-123138631D01*
X117756729Y-122894038D01*
X118068038Y-122582729D01*
X118312631Y-122216669D01*
X118481110Y-121809925D01*
X118510335Y-121663000D01*
X118738928Y-121663000D01*
X118742000Y-122142250D01*
X118900750Y-122301000D01*
X120015000Y-122301000D01*
X120015000Y-121186750D01*
X119856250Y-121028000D01*
X119377000Y-121024928D01*
X119252518Y-121037188D01*
X119132820Y-121073498D01*
X119022506Y-121132463D01*
X118925815Y-121211815D01*
X118846463Y-121308506D01*
X118787498Y-121418820D01*
X118751188Y-121538518D01*
X118738928Y-121663000D01*
X118510335Y-121663000D01*
X118567000Y-121378128D01*
X118567000Y-120937872D01*
X118481110Y-120506075D01*
X118312631Y-120099331D01*
X118068038Y-119733271D01*
X117756729Y-119421962D01*
X117390669Y-119177369D01*
X116983925Y-119008890D01*
X116552128Y-118923000D01*
X116111872Y-118923000D01*
X115680075Y-119008890D01*
X115273331Y-119177369D01*
X114907271Y-119421962D01*
X114595962Y-119733271D01*
X114351369Y-120099331D01*
X114182890Y-120506075D01*
X114097000Y-120937872D01*
X85685000Y-120937872D01*
X85685000Y-120341229D01*
X85564524Y-119735554D01*
X85328201Y-119165021D01*
X84985114Y-118651554D01*
X84548446Y-118214886D01*
X84034979Y-117871799D01*
X83464446Y-117635476D01*
X82858771Y-117515000D01*
X82241229Y-117515000D01*
X81635554Y-117635476D01*
X81065021Y-117871799D01*
X80551554Y-118214886D01*
X80114886Y-118651554D01*
X79771799Y-119165021D01*
X79535476Y-119735554D01*
X79450000Y-120165272D01*
X79450000Y-114900967D01*
X104029000Y-114900967D01*
X104029000Y-115223033D01*
X104091832Y-115538912D01*
X104215082Y-115836463D01*
X104394013Y-116104252D01*
X104621748Y-116331987D01*
X104889537Y-116510918D01*
X105187088Y-116634168D01*
X105502967Y-116697000D01*
X105825033Y-116697000D01*
X106140912Y-116634168D01*
X106438463Y-116510918D01*
X106706252Y-116331987D01*
X106840826Y-116197413D01*
X109208192Y-116197413D01*
X109303956Y-116461814D01*
X109593571Y-116602704D01*
X109905108Y-116684384D01*
X110226595Y-116703718D01*
X110545675Y-116659961D01*
X110850088Y-116554795D01*
X111024044Y-116461814D01*
X111119808Y-116197413D01*
X110164000Y-115241605D01*
X109208192Y-116197413D01*
X106840826Y-116197413D01*
X106933987Y-116104252D01*
X107112918Y-115836463D01*
X107236168Y-115538912D01*
X107299000Y-115223033D01*
X107299000Y-115124595D01*
X108522282Y-115124595D01*
X108566039Y-115443675D01*
X108671205Y-115748088D01*
X108764186Y-115922044D01*
X109028587Y-116017808D01*
X109984395Y-115062000D01*
X110343605Y-115062000D01*
X111299413Y-116017808D01*
X111563814Y-115922044D01*
X111704704Y-115632429D01*
X111786384Y-115320892D01*
X111805718Y-114999405D01*
X111761961Y-114680325D01*
X111656795Y-114375912D01*
X111563814Y-114201956D01*
X111299413Y-114106192D01*
X110343605Y-115062000D01*
X109984395Y-115062000D01*
X109028587Y-114106192D01*
X108764186Y-114201956D01*
X108623296Y-114491571D01*
X108541616Y-114803108D01*
X108522282Y-115124595D01*
X107299000Y-115124595D01*
X107299000Y-114900967D01*
X107236168Y-114585088D01*
X107112918Y-114287537D01*
X106933987Y-114019748D01*
X106840826Y-113926587D01*
X109208192Y-113926587D01*
X110164000Y-114882395D01*
X111119808Y-113926587D01*
X111048606Y-113730000D01*
X114871928Y-113730000D01*
X114884188Y-113854482D01*
X114920498Y-113974180D01*
X114979463Y-114084494D01*
X115058815Y-114181185D01*
X115155506Y-114260537D01*
X115265820Y-114319502D01*
X115385518Y-114355812D01*
X115510000Y-114368072D01*
X115824250Y-114365000D01*
X115983000Y-114206250D01*
X115983000Y-113157000D01*
X115033750Y-113157000D01*
X114875000Y-113315750D01*
X114871928Y-113730000D01*
X111048606Y-113730000D01*
X111024044Y-113662186D01*
X110734429Y-113521296D01*
X110422892Y-113439616D01*
X110101405Y-113420282D01*
X109782325Y-113464039D01*
X109477912Y-113569205D01*
X109303956Y-113662186D01*
X109208192Y-113926587D01*
X106840826Y-113926587D01*
X106706252Y-113792013D01*
X106438463Y-113613082D01*
X106140912Y-113489832D01*
X105825033Y-113427000D01*
X105502967Y-113427000D01*
X105187088Y-113489832D01*
X104889537Y-113613082D01*
X104621748Y-113792013D01*
X104394013Y-114019748D01*
X104215082Y-114287537D01*
X104091832Y-114585088D01*
X104029000Y-114900967D01*
X79450000Y-114900967D01*
X79450000Y-112330000D01*
X114871928Y-112330000D01*
X114875000Y-112744250D01*
X115033750Y-112903000D01*
X115983000Y-112903000D01*
X115983000Y-111853750D01*
X116237000Y-111853750D01*
X116237000Y-112903000D01*
X116257000Y-112903000D01*
X116257000Y-113157000D01*
X116237000Y-113157000D01*
X116237000Y-114206250D01*
X116395750Y-114365000D01*
X116710000Y-114368072D01*
X116834482Y-114355812D01*
X116954180Y-114319502D01*
X117064494Y-114260537D01*
X117161185Y-114181185D01*
X117185363Y-114151724D01*
X117266613Y-114218405D01*
X117420149Y-114300472D01*
X117586745Y-114351008D01*
X117759999Y-114368072D01*
X118460001Y-114368072D01*
X118633255Y-114351008D01*
X118799851Y-114300472D01*
X118953387Y-114218405D01*
X119087962Y-114107962D01*
X119198405Y-113973387D01*
X119199681Y-113971000D01*
X121731681Y-113971000D01*
X121744528Y-114013350D01*
X121826595Y-114166886D01*
X121937038Y-114301462D01*
X122071614Y-114411905D01*
X122225150Y-114493972D01*
X122391746Y-114544508D01*
X122565000Y-114561572D01*
X123815000Y-114561572D01*
X123988254Y-114544508D01*
X124154850Y-114493972D01*
X124308386Y-114411905D01*
X124442962Y-114301462D01*
X124553405Y-114166886D01*
X124635472Y-114013350D01*
X124686008Y-113846754D01*
X124703072Y-113673500D01*
X124703072Y-112748500D01*
X124686008Y-112575246D01*
X124635472Y-112408650D01*
X124553405Y-112255114D01*
X124442962Y-112120538D01*
X124308386Y-112010095D01*
X124154850Y-111928028D01*
X123988254Y-111877492D01*
X123815000Y-111860428D01*
X122565000Y-111860428D01*
X122391746Y-111877492D01*
X122225150Y-111928028D01*
X122071614Y-112010095D01*
X121937038Y-112120538D01*
X121826595Y-112255114D01*
X121744528Y-112408650D01*
X121731681Y-112451000D01*
X119335367Y-112451000D01*
X119331008Y-112406745D01*
X119280472Y-112240149D01*
X119198405Y-112086613D01*
X119087962Y-111952038D01*
X118953387Y-111841595D01*
X118799851Y-111759528D01*
X118633255Y-111708992D01*
X118460001Y-111691928D01*
X117759999Y-111691928D01*
X117586745Y-111708992D01*
X117420149Y-111759528D01*
X117266613Y-111841595D01*
X117185363Y-111908276D01*
X117161185Y-111878815D01*
X117064494Y-111799463D01*
X116954180Y-111740498D01*
X116834482Y-111704188D01*
X116710000Y-111691928D01*
X116395750Y-111695000D01*
X116237000Y-111853750D01*
X115983000Y-111853750D01*
X115824250Y-111695000D01*
X115510000Y-111691928D01*
X115385518Y-111704188D01*
X115265820Y-111740498D01*
X115155506Y-111799463D01*
X115058815Y-111878815D01*
X114979463Y-111975506D01*
X114920498Y-112085820D01*
X114884188Y-112205518D01*
X114871928Y-112330000D01*
X79450000Y-112330000D01*
X79450000Y-102649872D01*
X81585000Y-102649872D01*
X81585000Y-103090128D01*
X81670890Y-103521925D01*
X81839369Y-103928669D01*
X82083962Y-104294729D01*
X82395271Y-104606038D01*
X82761331Y-104850631D01*
X83168075Y-105019110D01*
X83599872Y-105105000D01*
X84040128Y-105105000D01*
X84471925Y-105019110D01*
X84878669Y-104850631D01*
X85244729Y-104606038D01*
X85556038Y-104294729D01*
X85800631Y-103928669D01*
X85969110Y-103521925D01*
X86055000Y-103090128D01*
X86055000Y-102649872D01*
X85969110Y-102218075D01*
X85800631Y-101811331D01*
X85556038Y-101445271D01*
X85244729Y-101133962D01*
X84878669Y-100889369D01*
X84471925Y-100720890D01*
X84040128Y-100635000D01*
X83599872Y-100635000D01*
X83168075Y-100720890D01*
X82761331Y-100889369D01*
X82395271Y-101133962D01*
X82083962Y-101445271D01*
X81839369Y-101811331D01*
X81670890Y-102218075D01*
X81585000Y-102649872D01*
X79450000Y-102649872D01*
X79450000Y-82329872D01*
X81585000Y-82329872D01*
X81585000Y-82770128D01*
X81670890Y-83201925D01*
X81839369Y-83608669D01*
X82083962Y-83974729D01*
X82395271Y-84286038D01*
X82761331Y-84530631D01*
X83168075Y-84699110D01*
X83599872Y-84785000D01*
X84040128Y-84785000D01*
X84471925Y-84699110D01*
X84878669Y-84530631D01*
X85244729Y-84286038D01*
X85556038Y-83974729D01*
X85800631Y-83608669D01*
X85969110Y-83201925D01*
X86055000Y-82770128D01*
X86055000Y-82329872D01*
X85969110Y-81898075D01*
X85800631Y-81491331D01*
X85556038Y-81125271D01*
X85244729Y-80813962D01*
X84878669Y-80569369D01*
X84471925Y-80400890D01*
X84040128Y-80315000D01*
X83599872Y-80315000D01*
X83168075Y-80400890D01*
X82761331Y-80569369D01*
X82395271Y-80813962D01*
X82083962Y-81125271D01*
X81839369Y-81491331D01*
X81670890Y-81898075D01*
X81585000Y-82329872D01*
X79450000Y-82329872D01*
X79450000Y-72691413D01*
X82864192Y-72691413D01*
X82959956Y-72955814D01*
X83249571Y-73096704D01*
X83561108Y-73178384D01*
X83882595Y-73197718D01*
X84201675Y-73153961D01*
X84506088Y-73048795D01*
X84680044Y-72955814D01*
X84775808Y-72691413D01*
X89364192Y-72691413D01*
X89459956Y-72955814D01*
X89749571Y-73096704D01*
X90061108Y-73178384D01*
X90382595Y-73197718D01*
X90701675Y-73153961D01*
X91006088Y-73048795D01*
X91180044Y-72955814D01*
X91275808Y-72691413D01*
X90320000Y-71735605D01*
X89364192Y-72691413D01*
X84775808Y-72691413D01*
X83820000Y-71735605D01*
X82864192Y-72691413D01*
X79450000Y-72691413D01*
X79450000Y-71618595D01*
X82178282Y-71618595D01*
X82222039Y-71937675D01*
X82327205Y-72242088D01*
X82420186Y-72416044D01*
X82684587Y-72511808D01*
X83640395Y-71556000D01*
X83999605Y-71556000D01*
X84955413Y-72511808D01*
X85219814Y-72416044D01*
X85360704Y-72126429D01*
X85442384Y-71814892D01*
X85454189Y-71618595D01*
X88678282Y-71618595D01*
X88722039Y-71937675D01*
X88827205Y-72242088D01*
X88920186Y-72416044D01*
X89184587Y-72511808D01*
X90140395Y-71556000D01*
X90499605Y-71556000D01*
X91455413Y-72511808D01*
X91719814Y-72416044D01*
X91834778Y-72179721D01*
X95020000Y-72179721D01*
X95020000Y-72600279D01*
X95102047Y-73012756D01*
X95262988Y-73401302D01*
X95496637Y-73750983D01*
X95794017Y-74048363D01*
X96143698Y-74282012D01*
X96532244Y-74442953D01*
X96944721Y-74525000D01*
X97365279Y-74525000D01*
X97777756Y-74442953D01*
X98166302Y-74282012D01*
X98515983Y-74048363D01*
X98813363Y-73750983D01*
X99047012Y-73401302D01*
X99207953Y-73012756D01*
X99266073Y-72720565D01*
X103227040Y-72720565D01*
X103294020Y-72960656D01*
X103543048Y-73077756D01*
X103810135Y-73144023D01*
X104085017Y-73156910D01*
X104357133Y-73115922D01*
X104616023Y-73022636D01*
X104731980Y-72960656D01*
X104798960Y-72720565D01*
X104013000Y-71934605D01*
X103227040Y-72720565D01*
X99266073Y-72720565D01*
X99290000Y-72600279D01*
X99290000Y-72179721D01*
X99219843Y-71827017D01*
X102611090Y-71827017D01*
X102652078Y-72099133D01*
X102745364Y-72358023D01*
X102807344Y-72473980D01*
X103047435Y-72540960D01*
X103833395Y-71755000D01*
X104192605Y-71755000D01*
X104978565Y-72540960D01*
X105218656Y-72473980D01*
X105282485Y-72338240D01*
X105314995Y-72416727D01*
X105467880Y-72645535D01*
X105662465Y-72840120D01*
X105891273Y-72993005D01*
X106145510Y-73098314D01*
X106415408Y-73152000D01*
X106690592Y-73152000D01*
X106960490Y-73098314D01*
X107214727Y-72993005D01*
X107443535Y-72840120D01*
X107638120Y-72645535D01*
X107791005Y-72416727D01*
X107823000Y-72339485D01*
X107854995Y-72416727D01*
X108007880Y-72645535D01*
X108202465Y-72840120D01*
X108431273Y-72993005D01*
X108685510Y-73098314D01*
X108955408Y-73152000D01*
X109230592Y-73152000D01*
X109500490Y-73098314D01*
X109754727Y-72993005D01*
X109983535Y-72840120D01*
X110178120Y-72645535D01*
X110331005Y-72416727D01*
X110363000Y-72339485D01*
X110394995Y-72416727D01*
X110547880Y-72645535D01*
X110742465Y-72840120D01*
X110971273Y-72993005D01*
X111225510Y-73098314D01*
X111495408Y-73152000D01*
X111770592Y-73152000D01*
X112040490Y-73098314D01*
X112294727Y-72993005D01*
X112523535Y-72840120D01*
X112718120Y-72645535D01*
X112871005Y-72416727D01*
X112903000Y-72339485D01*
X112934995Y-72416727D01*
X113087880Y-72645535D01*
X113282465Y-72840120D01*
X113511273Y-72993005D01*
X113765510Y-73098314D01*
X114035408Y-73152000D01*
X114310592Y-73152000D01*
X114580490Y-73098314D01*
X114834727Y-72993005D01*
X115063535Y-72840120D01*
X115258120Y-72645535D01*
X115411005Y-72416727D01*
X115443000Y-72339485D01*
X115474995Y-72416727D01*
X115627880Y-72645535D01*
X115822465Y-72840120D01*
X116051273Y-72993005D01*
X116305510Y-73098314D01*
X116575408Y-73152000D01*
X116850592Y-73152000D01*
X117120490Y-73098314D01*
X117374727Y-72993005D01*
X117603535Y-72840120D01*
X117798120Y-72645535D01*
X117951005Y-72416727D01*
X117983000Y-72339485D01*
X118014995Y-72416727D01*
X118167880Y-72645535D01*
X118362465Y-72840120D01*
X118591273Y-72993005D01*
X118845510Y-73098314D01*
X119115408Y-73152000D01*
X119390592Y-73152000D01*
X119660490Y-73098314D01*
X119914727Y-72993005D01*
X120143535Y-72840120D01*
X120338120Y-72645535D01*
X120491005Y-72416727D01*
X120589176Y-72179721D01*
X126770000Y-72179721D01*
X126770000Y-72600279D01*
X126852047Y-73012756D01*
X127012988Y-73401302D01*
X127246637Y-73750983D01*
X127544017Y-74048363D01*
X127893698Y-74282012D01*
X128282244Y-74442953D01*
X128694721Y-74525000D01*
X129115279Y-74525000D01*
X129527756Y-74442953D01*
X129916302Y-74282012D01*
X130265983Y-74048363D01*
X130563363Y-73750983D01*
X130797012Y-73401302D01*
X130957953Y-73012756D01*
X131040000Y-72600279D01*
X131040000Y-72179721D01*
X134390000Y-72179721D01*
X134390000Y-72600279D01*
X134472047Y-73012756D01*
X134632988Y-73401302D01*
X134866637Y-73750983D01*
X135164017Y-74048363D01*
X135513698Y-74282012D01*
X135902244Y-74442953D01*
X136314721Y-74525000D01*
X136735279Y-74525000D01*
X137147756Y-74442953D01*
X137536302Y-74282012D01*
X137885983Y-74048363D01*
X138183363Y-73750983D01*
X138417012Y-73401302D01*
X138577953Y-73012756D01*
X138636073Y-72720565D01*
X142597040Y-72720565D01*
X142664020Y-72960656D01*
X142913048Y-73077756D01*
X143180135Y-73144023D01*
X143455017Y-73156910D01*
X143727133Y-73115922D01*
X143986023Y-73022636D01*
X144101980Y-72960656D01*
X144168960Y-72720565D01*
X143383000Y-71934605D01*
X142597040Y-72720565D01*
X138636073Y-72720565D01*
X138660000Y-72600279D01*
X138660000Y-72179721D01*
X138589843Y-71827017D01*
X141981090Y-71827017D01*
X142022078Y-72099133D01*
X142115364Y-72358023D01*
X142177344Y-72473980D01*
X142417435Y-72540960D01*
X143203395Y-71755000D01*
X142417435Y-70969040D01*
X142177344Y-71036020D01*
X142060244Y-71285048D01*
X141993977Y-71552135D01*
X141981090Y-71827017D01*
X138589843Y-71827017D01*
X138577953Y-71767244D01*
X138417012Y-71378698D01*
X138183363Y-71029017D01*
X137943781Y-70789435D01*
X142597040Y-70789435D01*
X143383000Y-71575395D01*
X144168960Y-70789435D01*
X144101980Y-70549344D01*
X143852952Y-70432244D01*
X143585865Y-70365977D01*
X143310983Y-70353090D01*
X143038867Y-70394078D01*
X142779977Y-70487364D01*
X142664020Y-70549344D01*
X142597040Y-70789435D01*
X137943781Y-70789435D01*
X137885983Y-70731637D01*
X137536302Y-70497988D01*
X137147756Y-70337047D01*
X136735279Y-70255000D01*
X136314721Y-70255000D01*
X135902244Y-70337047D01*
X135513698Y-70497988D01*
X135164017Y-70731637D01*
X134866637Y-71029017D01*
X134632988Y-71378698D01*
X134472047Y-71767244D01*
X134390000Y-72179721D01*
X131040000Y-72179721D01*
X130957953Y-71767244D01*
X130797012Y-71378698D01*
X130563363Y-71029017D01*
X130265983Y-70731637D01*
X129916302Y-70497988D01*
X129527756Y-70337047D01*
X129115279Y-70255000D01*
X128694721Y-70255000D01*
X128282244Y-70337047D01*
X127893698Y-70497988D01*
X127544017Y-70731637D01*
X127246637Y-71029017D01*
X127012988Y-71378698D01*
X126852047Y-71767244D01*
X126770000Y-72179721D01*
X120589176Y-72179721D01*
X120596314Y-72162490D01*
X120650000Y-71892592D01*
X120650000Y-71617408D01*
X120596314Y-71347510D01*
X120491005Y-71093273D01*
X120338120Y-70864465D01*
X120143535Y-70669880D01*
X119914727Y-70516995D01*
X119660490Y-70411686D01*
X119390592Y-70358000D01*
X119115408Y-70358000D01*
X118845510Y-70411686D01*
X118591273Y-70516995D01*
X118362465Y-70669880D01*
X118167880Y-70864465D01*
X118014995Y-71093273D01*
X117983000Y-71170515D01*
X117951005Y-71093273D01*
X117798120Y-70864465D01*
X117603535Y-70669880D01*
X117374727Y-70516995D01*
X117120490Y-70411686D01*
X116850592Y-70358000D01*
X116575408Y-70358000D01*
X116305510Y-70411686D01*
X116051273Y-70516995D01*
X115822465Y-70669880D01*
X115627880Y-70864465D01*
X115474995Y-71093273D01*
X115443000Y-71170515D01*
X115411005Y-71093273D01*
X115258120Y-70864465D01*
X115063535Y-70669880D01*
X114834727Y-70516995D01*
X114580490Y-70411686D01*
X114310592Y-70358000D01*
X114035408Y-70358000D01*
X113765510Y-70411686D01*
X113511273Y-70516995D01*
X113282465Y-70669880D01*
X113087880Y-70864465D01*
X112934995Y-71093273D01*
X112903000Y-71170515D01*
X112871005Y-71093273D01*
X112718120Y-70864465D01*
X112523535Y-70669880D01*
X112294727Y-70516995D01*
X112040490Y-70411686D01*
X111770592Y-70358000D01*
X111495408Y-70358000D01*
X111225510Y-70411686D01*
X110971273Y-70516995D01*
X110742465Y-70669880D01*
X110547880Y-70864465D01*
X110394995Y-71093273D01*
X110363000Y-71170515D01*
X110331005Y-71093273D01*
X110178120Y-70864465D01*
X109983535Y-70669880D01*
X109754727Y-70516995D01*
X109500490Y-70411686D01*
X109230592Y-70358000D01*
X108955408Y-70358000D01*
X108685510Y-70411686D01*
X108431273Y-70516995D01*
X108202465Y-70669880D01*
X108007880Y-70864465D01*
X107854995Y-71093273D01*
X107823000Y-71170515D01*
X107791005Y-71093273D01*
X107638120Y-70864465D01*
X107443535Y-70669880D01*
X107214727Y-70516995D01*
X106960490Y-70411686D01*
X106690592Y-70358000D01*
X106415408Y-70358000D01*
X106145510Y-70411686D01*
X105891273Y-70516995D01*
X105662465Y-70669880D01*
X105467880Y-70864465D01*
X105314995Y-71093273D01*
X105285308Y-71164943D01*
X105280636Y-71151977D01*
X105218656Y-71036020D01*
X104978565Y-70969040D01*
X104192605Y-71755000D01*
X103833395Y-71755000D01*
X103047435Y-70969040D01*
X102807344Y-71036020D01*
X102690244Y-71285048D01*
X102623977Y-71552135D01*
X102611090Y-71827017D01*
X99219843Y-71827017D01*
X99207953Y-71767244D01*
X99047012Y-71378698D01*
X98813363Y-71029017D01*
X98573781Y-70789435D01*
X103227040Y-70789435D01*
X104013000Y-71575395D01*
X104798960Y-70789435D01*
X104731980Y-70549344D01*
X104482952Y-70432244D01*
X104215865Y-70365977D01*
X103940983Y-70353090D01*
X103668867Y-70394078D01*
X103409977Y-70487364D01*
X103294020Y-70549344D01*
X103227040Y-70789435D01*
X98573781Y-70789435D01*
X98515983Y-70731637D01*
X98166302Y-70497988D01*
X97777756Y-70337047D01*
X97365279Y-70255000D01*
X96944721Y-70255000D01*
X96532244Y-70337047D01*
X96143698Y-70497988D01*
X95794017Y-70731637D01*
X95496637Y-71029017D01*
X95262988Y-71378698D01*
X95102047Y-71767244D01*
X95020000Y-72179721D01*
X91834778Y-72179721D01*
X91860704Y-72126429D01*
X91942384Y-71814892D01*
X91961718Y-71493405D01*
X91917961Y-71174325D01*
X91812795Y-70869912D01*
X91719814Y-70695956D01*
X91455413Y-70600192D01*
X90499605Y-71556000D01*
X90140395Y-71556000D01*
X89184587Y-70600192D01*
X88920186Y-70695956D01*
X88779296Y-70985571D01*
X88697616Y-71297108D01*
X88678282Y-71618595D01*
X85454189Y-71618595D01*
X85461718Y-71493405D01*
X85417961Y-71174325D01*
X85312795Y-70869912D01*
X85219814Y-70695956D01*
X84955413Y-70600192D01*
X83999605Y-71556000D01*
X83640395Y-71556000D01*
X82684587Y-70600192D01*
X82420186Y-70695956D01*
X82279296Y-70985571D01*
X82197616Y-71297108D01*
X82178282Y-71618595D01*
X79450000Y-71618595D01*
X79450000Y-70420587D01*
X82864192Y-70420587D01*
X83820000Y-71376395D01*
X84775808Y-70420587D01*
X89364192Y-70420587D01*
X90320000Y-71376395D01*
X91275808Y-70420587D01*
X91180044Y-70156186D01*
X90890429Y-70015296D01*
X90578892Y-69933616D01*
X90257405Y-69914282D01*
X89938325Y-69958039D01*
X89633912Y-70063205D01*
X89459956Y-70156186D01*
X89364192Y-70420587D01*
X84775808Y-70420587D01*
X84680044Y-70156186D01*
X84390429Y-70015296D01*
X84078892Y-69933616D01*
X83757405Y-69914282D01*
X83438325Y-69958039D01*
X83133912Y-70063205D01*
X82959956Y-70156186D01*
X82864192Y-70420587D01*
X79450000Y-70420587D01*
X79450000Y-66894967D01*
X82185000Y-66894967D01*
X82185000Y-67217033D01*
X82247832Y-67532912D01*
X82371082Y-67830463D01*
X82550013Y-68098252D01*
X82777748Y-68325987D01*
X83045537Y-68504918D01*
X83343088Y-68628168D01*
X83658967Y-68691000D01*
X83981033Y-68691000D01*
X84296912Y-68628168D01*
X84594463Y-68504918D01*
X84862252Y-68325987D01*
X85089987Y-68098252D01*
X85268918Y-67830463D01*
X85274909Y-67816000D01*
X88865091Y-67816000D01*
X88871082Y-67830463D01*
X89050013Y-68098252D01*
X89277748Y-68325987D01*
X89545537Y-68504918D01*
X89843088Y-68628168D01*
X90158967Y-68691000D01*
X90481033Y-68691000D01*
X90796912Y-68628168D01*
X91094463Y-68504918D01*
X91362252Y-68325987D01*
X91589987Y-68098252D01*
X91768918Y-67830463D01*
X91774909Y-67816000D01*
X160721199Y-67816000D01*
X161800001Y-68894804D01*
X161800000Y-70924289D01*
X161756063Y-70968226D01*
X161642795Y-71137744D01*
X161564774Y-71326102D01*
X161525000Y-71526061D01*
X161525000Y-71729939D01*
X161564774Y-71929898D01*
X161642795Y-72118256D01*
X161756063Y-72287774D01*
X161900226Y-72431937D01*
X162069744Y-72545205D01*
X162258102Y-72623226D01*
X162458061Y-72663000D01*
X162661939Y-72663000D01*
X162861898Y-72623226D01*
X163050256Y-72545205D01*
X163219774Y-72431937D01*
X163363937Y-72287774D01*
X163436135Y-72179721D01*
X166140000Y-72179721D01*
X166140000Y-72600279D01*
X166222047Y-73012756D01*
X166382988Y-73401302D01*
X166616637Y-73750983D01*
X166914017Y-74048363D01*
X167263698Y-74282012D01*
X167652244Y-74442953D01*
X168064721Y-74525000D01*
X168485279Y-74525000D01*
X168897756Y-74442953D01*
X169286302Y-74282012D01*
X169635983Y-74048363D01*
X169933363Y-73750983D01*
X170167012Y-73401302D01*
X170327953Y-73012756D01*
X170410000Y-72600279D01*
X170410000Y-72179721D01*
X170327953Y-71767244D01*
X170167012Y-71378698D01*
X169933363Y-71029017D01*
X169635983Y-70731637D01*
X169286302Y-70497988D01*
X168897756Y-70337047D01*
X168485279Y-70255000D01*
X168064721Y-70255000D01*
X167652244Y-70337047D01*
X167263698Y-70497988D01*
X166914017Y-70731637D01*
X166616637Y-71029017D01*
X166382988Y-71378698D01*
X166222047Y-71767244D01*
X166140000Y-72179721D01*
X163436135Y-72179721D01*
X163477205Y-72118256D01*
X163555226Y-71929898D01*
X163595000Y-71729939D01*
X163595000Y-71526061D01*
X163555226Y-71326102D01*
X163477205Y-71137744D01*
X163363937Y-70968226D01*
X163320000Y-70924289D01*
X163320000Y-68617322D01*
X163323676Y-68579999D01*
X163320000Y-68542676D01*
X163320000Y-68542667D01*
X163309003Y-68431014D01*
X163265546Y-68287753D01*
X163194974Y-68155724D01*
X163147808Y-68098252D01*
X163123799Y-68068996D01*
X163123795Y-68068992D01*
X163100001Y-68039999D01*
X163071008Y-68016205D01*
X161599803Y-66545002D01*
X161576001Y-66515999D01*
X161460276Y-66421026D01*
X161328247Y-66350454D01*
X161184986Y-66306997D01*
X161073333Y-66296000D01*
X161073322Y-66296000D01*
X161036000Y-66292324D01*
X160998678Y-66296000D01*
X91774909Y-66296000D01*
X91768918Y-66281537D01*
X91589987Y-66013748D01*
X91362252Y-65786013D01*
X91094463Y-65607082D01*
X90796912Y-65483832D01*
X90481033Y-65421000D01*
X90158967Y-65421000D01*
X89843088Y-65483832D01*
X89545537Y-65607082D01*
X89277748Y-65786013D01*
X89050013Y-66013748D01*
X88871082Y-66281537D01*
X88865091Y-66296000D01*
X85274909Y-66296000D01*
X85268918Y-66281537D01*
X85089987Y-66013748D01*
X84862252Y-65786013D01*
X84594463Y-65607082D01*
X84296912Y-65483832D01*
X83981033Y-65421000D01*
X83658967Y-65421000D01*
X83343088Y-65483832D01*
X83045537Y-65607082D01*
X82777748Y-65786013D01*
X82550013Y-66013748D01*
X82371082Y-66281537D01*
X82247832Y-66579088D01*
X82185000Y-66894967D01*
X79450000Y-66894967D01*
X79450000Y-46007872D01*
X108255000Y-46007872D01*
X108255000Y-46448128D01*
X108340890Y-46879925D01*
X108509369Y-47286669D01*
X108753962Y-47652729D01*
X109065271Y-47964038D01*
X109431331Y-48208631D01*
X109838075Y-48377110D01*
X110269872Y-48463000D01*
X110710128Y-48463000D01*
X111141925Y-48377110D01*
X111548669Y-48208631D01*
X111914729Y-47964038D01*
X112226038Y-47652729D01*
X112470631Y-47286669D01*
X112639110Y-46879925D01*
X112725000Y-46448128D01*
X112725000Y-46007872D01*
X166675000Y-46007872D01*
X166675000Y-46448128D01*
X166760890Y-46879925D01*
X166929369Y-47286669D01*
X167173962Y-47652729D01*
X167485271Y-47964038D01*
X167851331Y-48208631D01*
X168258075Y-48377110D01*
X168689872Y-48463000D01*
X169130128Y-48463000D01*
X169561925Y-48377110D01*
X169968669Y-48208631D01*
X170334729Y-47964038D01*
X170646038Y-47652729D01*
X170890631Y-47286669D01*
X171059110Y-46879925D01*
X171145000Y-46448128D01*
X171145000Y-46007872D01*
X171059110Y-45576075D01*
X170890631Y-45169331D01*
X170646038Y-44803271D01*
X170334729Y-44491962D01*
X169968669Y-44247369D01*
X169561925Y-44078890D01*
X169130128Y-43993000D01*
X168689872Y-43993000D01*
X168258075Y-44078890D01*
X167851331Y-44247369D01*
X167485271Y-44491962D01*
X167173962Y-44803271D01*
X166929369Y-45169331D01*
X166760890Y-45576075D01*
X166675000Y-46007872D01*
X112725000Y-46007872D01*
X112639110Y-45576075D01*
X112470631Y-45169331D01*
X112226038Y-44803271D01*
X111914729Y-44491962D01*
X111548669Y-44247369D01*
X111141925Y-44078890D01*
X110710128Y-43993000D01*
X110269872Y-43993000D01*
X109838075Y-44078890D01*
X109431331Y-44247369D01*
X109065271Y-44491962D01*
X108753962Y-44803271D01*
X108509369Y-45169331D01*
X108340890Y-45576075D01*
X108255000Y-46007872D01*
X79450000Y-46007872D01*
X79450000Y-41124728D01*
X79535476Y-41554446D01*
X79771799Y-42124979D01*
X80114886Y-42638446D01*
X80551554Y-43075114D01*
X81065021Y-43418201D01*
X81635554Y-43654524D01*
X82241229Y-43775000D01*
X82858771Y-43775000D01*
X83464446Y-43654524D01*
X84034979Y-43418201D01*
X84548446Y-43075114D01*
X84985114Y-42638446D01*
X85328201Y-42124979D01*
X85564524Y-41554446D01*
X85685000Y-40948771D01*
X85685000Y-40429721D01*
X95020000Y-40429721D01*
X95020000Y-40850279D01*
X95102047Y-41262756D01*
X95262988Y-41651302D01*
X95496637Y-42000983D01*
X95794017Y-42298363D01*
X96143698Y-42532012D01*
X96532244Y-42692953D01*
X96944721Y-42775000D01*
X97365279Y-42775000D01*
X97777756Y-42692953D01*
X98166302Y-42532012D01*
X98515983Y-42298363D01*
X98813363Y-42000983D01*
X99047012Y-41651302D01*
X99207953Y-41262756D01*
X99290000Y-40850279D01*
X99290000Y-40429721D01*
X126770000Y-40429721D01*
X126770000Y-40850279D01*
X126852047Y-41262756D01*
X127012988Y-41651302D01*
X127246637Y-42000983D01*
X127544017Y-42298363D01*
X127893698Y-42532012D01*
X128282244Y-42692953D01*
X128694721Y-42775000D01*
X129115279Y-42775000D01*
X129527756Y-42692953D01*
X129916302Y-42532012D01*
X130265983Y-42298363D01*
X130563363Y-42000983D01*
X130797012Y-41651302D01*
X130957953Y-41262756D01*
X131040000Y-40850279D01*
X131040000Y-40429721D01*
X134390000Y-40429721D01*
X134390000Y-40850279D01*
X134472047Y-41262756D01*
X134632988Y-41651302D01*
X134866637Y-42000983D01*
X135164017Y-42298363D01*
X135513698Y-42532012D01*
X135902244Y-42692953D01*
X136314721Y-42775000D01*
X136735279Y-42775000D01*
X137147756Y-42692953D01*
X137536302Y-42532012D01*
X137885983Y-42298363D01*
X138183363Y-42000983D01*
X138417012Y-41651302D01*
X138577953Y-41262756D01*
X138660000Y-40850279D01*
X138660000Y-40429721D01*
X166140000Y-40429721D01*
X166140000Y-40850279D01*
X166222047Y-41262756D01*
X166382988Y-41651302D01*
X166616637Y-42000983D01*
X166914017Y-42298363D01*
X167263698Y-42532012D01*
X167652244Y-42692953D01*
X168064721Y-42775000D01*
X168485279Y-42775000D01*
X168897756Y-42692953D01*
X169286302Y-42532012D01*
X169635983Y-42298363D01*
X169933363Y-42000983D01*
X170167012Y-41651302D01*
X170270276Y-41402000D01*
X175200000Y-41402000D01*
X175200000Y-41677000D01*
X175248507Y-41915496D01*
X175342610Y-42139946D01*
X175478693Y-42341725D01*
X175651526Y-42513078D01*
X175854467Y-42647421D01*
X176079718Y-42739591D01*
X176117391Y-42743462D01*
X176308000Y-42618731D01*
X176308000Y-41402000D01*
X175200000Y-41402000D01*
X170270276Y-41402000D01*
X170327953Y-41262756D01*
X170405480Y-40873000D01*
X175200000Y-40873000D01*
X175200000Y-41148000D01*
X176308000Y-41148000D01*
X176308000Y-39931269D01*
X176117391Y-39806538D01*
X176079718Y-39810409D01*
X175854467Y-39902579D01*
X175651526Y-40036922D01*
X175478693Y-40208275D01*
X175342610Y-40410054D01*
X175248507Y-40634504D01*
X175200000Y-40873000D01*
X170405480Y-40873000D01*
X170410000Y-40850279D01*
X170410000Y-40429721D01*
X170327953Y-40017244D01*
X170167012Y-39628698D01*
X169933363Y-39279017D01*
X169635983Y-38981637D01*
X169286302Y-38747988D01*
X168897756Y-38587047D01*
X168485279Y-38505000D01*
X168064721Y-38505000D01*
X167652244Y-38587047D01*
X167263698Y-38747988D01*
X166914017Y-38981637D01*
X166616637Y-39279017D01*
X166382988Y-39628698D01*
X166222047Y-40017244D01*
X166140000Y-40429721D01*
X138660000Y-40429721D01*
X138577953Y-40017244D01*
X138417012Y-39628698D01*
X138183363Y-39279017D01*
X137885983Y-38981637D01*
X137536302Y-38747988D01*
X137147756Y-38587047D01*
X136735279Y-38505000D01*
X136314721Y-38505000D01*
X135902244Y-38587047D01*
X135513698Y-38747988D01*
X135164017Y-38981637D01*
X134866637Y-39279017D01*
X134632988Y-39628698D01*
X134472047Y-40017244D01*
X134390000Y-40429721D01*
X131040000Y-40429721D01*
X130957953Y-40017244D01*
X130797012Y-39628698D01*
X130563363Y-39279017D01*
X130265983Y-38981637D01*
X129916302Y-38747988D01*
X129527756Y-38587047D01*
X129115279Y-38505000D01*
X128694721Y-38505000D01*
X128282244Y-38587047D01*
X127893698Y-38747988D01*
X127544017Y-38981637D01*
X127246637Y-39279017D01*
X127012988Y-39628698D01*
X126852047Y-40017244D01*
X126770000Y-40429721D01*
X99290000Y-40429721D01*
X99207953Y-40017244D01*
X99047012Y-39628698D01*
X98813363Y-39279017D01*
X98515983Y-38981637D01*
X98166302Y-38747988D01*
X97777756Y-38587047D01*
X97365279Y-38505000D01*
X96944721Y-38505000D01*
X96532244Y-38587047D01*
X96143698Y-38747988D01*
X95794017Y-38981637D01*
X95496637Y-39279017D01*
X95262988Y-39628698D01*
X95102047Y-40017244D01*
X95020000Y-40429721D01*
X85685000Y-40429721D01*
X85685000Y-40331229D01*
X85564524Y-39725554D01*
X85328201Y-39155021D01*
X84985114Y-38641554D01*
X84548446Y-38204886D01*
X84503718Y-38175000D01*
X194896282Y-38175000D01*
X194851554Y-38204886D01*
%TA.AperFunction,Conductor*%
D22*
G36*
X194851554Y-38204886D02*
G01*
X194414886Y-38641554D01*
X194071799Y-39155021D01*
X193835476Y-39725554D01*
X193715000Y-40331229D01*
X193715000Y-40948771D01*
X193835476Y-41554446D01*
X194071799Y-42124979D01*
X194414886Y-42638446D01*
X194851554Y-43075114D01*
X195365021Y-43418201D01*
X195935554Y-43654524D01*
X196541229Y-43775000D01*
X197158771Y-43775000D01*
X197764446Y-43654524D01*
X198334979Y-43418201D01*
X198848446Y-43075114D01*
X199285114Y-42638446D01*
X199628201Y-42124979D01*
X199864524Y-41554446D01*
X199950000Y-41124728D01*
X199950000Y-46979858D01*
X199797490Y-46916686D01*
X199527592Y-46863000D01*
X199252408Y-46863000D01*
X198982510Y-46916686D01*
X198728273Y-47021995D01*
X198499465Y-47174880D01*
X198304880Y-47369465D01*
X198151995Y-47598273D01*
X198046686Y-47852510D01*
X197993000Y-48122408D01*
X197993000Y-48397592D01*
X198046686Y-48667490D01*
X198151995Y-48921727D01*
X198304880Y-49150535D01*
X198499465Y-49345120D01*
X198728273Y-49498005D01*
X198982510Y-49603314D01*
X199252408Y-49657000D01*
X199527592Y-49657000D01*
X199797490Y-49603314D01*
X199950000Y-49540142D01*
X199950000Y-52059858D01*
X199797490Y-51996686D01*
X199527592Y-51943000D01*
X199252408Y-51943000D01*
X198982510Y-51996686D01*
X198728273Y-52101995D01*
X198499465Y-52254880D01*
X198304880Y-52449465D01*
X198151995Y-52678273D01*
X198046686Y-52932510D01*
X197993000Y-53202408D01*
X197993000Y-53477592D01*
X198046686Y-53747490D01*
X198151995Y-54001727D01*
X198304880Y-54230535D01*
X198499465Y-54425120D01*
X198728273Y-54578005D01*
X198982510Y-54683314D01*
X199252408Y-54737000D01*
X199527592Y-54737000D01*
X199797490Y-54683314D01*
X199950000Y-54620142D01*
X199950001Y-120165277D01*
X199864524Y-119735554D01*
X199628201Y-119165021D01*
X199285114Y-118651554D01*
X198848446Y-118214886D01*
X198334979Y-117871799D01*
X197764446Y-117635476D01*
X197158771Y-117515000D01*
X196541229Y-117515000D01*
X195935554Y-117635476D01*
X195365021Y-117871799D01*
X194851554Y-118214886D01*
X194414886Y-118651554D01*
X194071799Y-119165021D01*
X193835476Y-119735554D01*
X193715000Y-120341229D01*
X193715000Y-120958771D01*
X193835476Y-121564446D01*
X194071799Y-122134979D01*
X194414886Y-122648446D01*
X194851554Y-123085114D01*
X195365021Y-123428201D01*
X195935554Y-123664524D01*
X196365272Y-123750000D01*
X158708787Y-123750000D01*
X158905149Y-123668664D01*
X159134448Y-123515451D01*
X159329451Y-123320448D01*
X159482664Y-123091149D01*
X159588199Y-122836365D01*
X159642000Y-122565888D01*
X159642000Y-122290112D01*
X159588199Y-122019635D01*
X159482664Y-121764851D01*
X159329451Y-121535552D01*
X159134448Y-121340549D01*
X158905149Y-121187336D01*
X158650365Y-121081801D01*
X158379888Y-121028000D01*
X158104112Y-121028000D01*
X157833635Y-121081801D01*
X157578851Y-121187336D01*
X157349552Y-121340549D01*
X157154549Y-121535552D01*
X157001336Y-121764851D01*
X156972000Y-121835674D01*
X156942664Y-121764851D01*
X156789451Y-121535552D01*
X156594448Y-121340549D01*
X156365149Y-121187336D01*
X156110365Y-121081801D01*
X155839888Y-121028000D01*
X155564112Y-121028000D01*
X155293635Y-121081801D01*
X155038851Y-121187336D01*
X154809552Y-121340549D01*
X154614549Y-121535552D01*
X154461336Y-121764851D01*
X154432000Y-121835674D01*
X154402664Y-121764851D01*
X154249451Y-121535552D01*
X154054448Y-121340549D01*
X153825149Y-121187336D01*
X153570365Y-121081801D01*
X153299888Y-121028000D01*
X153024112Y-121028000D01*
X152753635Y-121081801D01*
X152498851Y-121187336D01*
X152269552Y-121340549D01*
X152074549Y-121535552D01*
X151921336Y-121764851D01*
X151894518Y-121829594D01*
X151892478Y-121823928D01*
X151830106Y-121707240D01*
X151589707Y-121639898D01*
X150801605Y-122428000D01*
X151589707Y-123216102D01*
X151830106Y-123148760D01*
X151891312Y-123018664D01*
X151921336Y-123091149D01*
X152074549Y-123320448D01*
X152269552Y-123515451D01*
X152498851Y-123668664D01*
X152695213Y-123750000D01*
X151082999Y-123750000D01*
X151226072Y-123698478D01*
X151342760Y-123636106D01*
X151410102Y-123395707D01*
X150622000Y-122607605D01*
X149833898Y-123395707D01*
X149901240Y-123636106D01*
X150143328Y-123750000D01*
X148548787Y-123750000D01*
X148745149Y-123668664D01*
X148974448Y-123515451D01*
X149169451Y-123320448D01*
X149322664Y-123091149D01*
X149349482Y-123026406D01*
X149351522Y-123032072D01*
X149413894Y-123148760D01*
X149654293Y-123216102D01*
X150442395Y-122428000D01*
X149654293Y-121639898D01*
X149413894Y-121707240D01*
X149352688Y-121837336D01*
X149322664Y-121764851D01*
X149169451Y-121535552D01*
X148974448Y-121340549D01*
X148745149Y-121187336D01*
X148669497Y-121156000D01*
X150022154Y-121156000D01*
X150017928Y-121157522D01*
X149901240Y-121219894D01*
X149833898Y-121460293D01*
X150622000Y-122248395D01*
X151410102Y-121460293D01*
X151342760Y-121219894D01*
X151206950Y-121156000D01*
X151854678Y-121156000D01*
X151892000Y-121159676D01*
X151929322Y-121156000D01*
X151929333Y-121156000D01*
X152040986Y-121145003D01*
X152184247Y-121101546D01*
X152316276Y-121030974D01*
X152429721Y-120937872D01*
X159817000Y-120937872D01*
X159817000Y-121378128D01*
X159902890Y-121809925D01*
X160071369Y-122216669D01*
X160315962Y-122582729D01*
X160627271Y-122894038D01*
X160993331Y-123138631D01*
X161400075Y-123307110D01*
X161831872Y-123393000D01*
X162272128Y-123393000D01*
X162703925Y-123307110D01*
X163110669Y-123138631D01*
X163476729Y-122894038D01*
X163788038Y-122582729D01*
X164032631Y-122216669D01*
X164201110Y-121809925D01*
X164287000Y-121378128D01*
X164287000Y-120937872D01*
X164201110Y-120506075D01*
X164032631Y-120099331D01*
X163788038Y-119733271D01*
X163476729Y-119421962D01*
X163110669Y-119177369D01*
X162703925Y-119008890D01*
X162272128Y-118923000D01*
X161831872Y-118923000D01*
X161400075Y-119008890D01*
X160993331Y-119177369D01*
X160627271Y-119421962D01*
X160315962Y-119733271D01*
X160071369Y-120099331D01*
X159902890Y-120506075D01*
X159817000Y-120937872D01*
X152429721Y-120937872D01*
X152432001Y-120936001D01*
X152455804Y-120906997D01*
X157540802Y-115822000D01*
X167709091Y-115822000D01*
X167715082Y-115836463D01*
X167894013Y-116104252D01*
X168121748Y-116331987D01*
X168389537Y-116510918D01*
X168687088Y-116634168D01*
X169002967Y-116697000D01*
X169325033Y-116697000D01*
X169640912Y-116634168D01*
X169938463Y-116510918D01*
X170206252Y-116331987D01*
X170340826Y-116197413D01*
X172708192Y-116197413D01*
X172803956Y-116461814D01*
X173093571Y-116602704D01*
X173405108Y-116684384D01*
X173726595Y-116703718D01*
X174045675Y-116659961D01*
X174350088Y-116554795D01*
X174524044Y-116461814D01*
X174619808Y-116197413D01*
X173664000Y-115241605D01*
X172708192Y-116197413D01*
X170340826Y-116197413D01*
X170433987Y-116104252D01*
X170612918Y-115836463D01*
X170736168Y-115538912D01*
X170799000Y-115223033D01*
X170799000Y-115124595D01*
X172022282Y-115124595D01*
X172066039Y-115443675D01*
X172171205Y-115748088D01*
X172264186Y-115922044D01*
X172528587Y-116017808D01*
X173484395Y-115062000D01*
X173843605Y-115062000D01*
X174799413Y-116017808D01*
X175063814Y-115922044D01*
X175204704Y-115632429D01*
X175286384Y-115320892D01*
X175305718Y-114999405D01*
X175261961Y-114680325D01*
X175156795Y-114375912D01*
X175063814Y-114201956D01*
X174799413Y-114106192D01*
X173843605Y-115062000D01*
X173484395Y-115062000D01*
X172528587Y-114106192D01*
X172264186Y-114201956D01*
X172123296Y-114491571D01*
X172041616Y-114803108D01*
X172022282Y-115124595D01*
X170799000Y-115124595D01*
X170799000Y-114900967D01*
X170736168Y-114585088D01*
X170612918Y-114287537D01*
X170433987Y-114019748D01*
X170340826Y-113926587D01*
X172708192Y-113926587D01*
X173664000Y-114882395D01*
X174619808Y-113926587D01*
X174524044Y-113662186D01*
X174234429Y-113521296D01*
X173922892Y-113439616D01*
X173601405Y-113420282D01*
X173282325Y-113464039D01*
X172977912Y-113569205D01*
X172803956Y-113662186D01*
X172708192Y-113926587D01*
X170340826Y-113926587D01*
X170206252Y-113792013D01*
X169938463Y-113613082D01*
X169924000Y-113607091D01*
X169924000Y-110016909D01*
X169938463Y-110010918D01*
X170206252Y-109831987D01*
X170340826Y-109697413D01*
X172708192Y-109697413D01*
X172803956Y-109961814D01*
X173093571Y-110102704D01*
X173405108Y-110184384D01*
X173726595Y-110203718D01*
X174045675Y-110159961D01*
X174350088Y-110054795D01*
X174524044Y-109961814D01*
X174619808Y-109697413D01*
X173664000Y-108741605D01*
X172708192Y-109697413D01*
X170340826Y-109697413D01*
X170433987Y-109604252D01*
X170612918Y-109336463D01*
X170736168Y-109038912D01*
X170799000Y-108723033D01*
X170799000Y-108624595D01*
X172022282Y-108624595D01*
X172066039Y-108943675D01*
X172171205Y-109248088D01*
X172264186Y-109422044D01*
X172528587Y-109517808D01*
X173484395Y-108562000D01*
X173843605Y-108562000D01*
X174799413Y-109517808D01*
X175063814Y-109422044D01*
X175204704Y-109132429D01*
X175286384Y-108820892D01*
X175305718Y-108499405D01*
X175261961Y-108180325D01*
X175156795Y-107875912D01*
X175063814Y-107701956D01*
X174799413Y-107606192D01*
X173843605Y-108562000D01*
X173484395Y-108562000D01*
X172528587Y-107606192D01*
X172264186Y-107701956D01*
X172123296Y-107991571D01*
X172041616Y-108303108D01*
X172022282Y-108624595D01*
X170799000Y-108624595D01*
X170799000Y-108400967D01*
X170736168Y-108085088D01*
X170612918Y-107787537D01*
X170433987Y-107519748D01*
X170340826Y-107426587D01*
X172708192Y-107426587D01*
X173664000Y-108382395D01*
X174619808Y-107426587D01*
X174524044Y-107162186D01*
X174234429Y-107021296D01*
X173922892Y-106939616D01*
X173601405Y-106920282D01*
X173282325Y-106964039D01*
X172977912Y-107069205D01*
X172803956Y-107162186D01*
X172708192Y-107426587D01*
X170340826Y-107426587D01*
X170206252Y-107292013D01*
X169938463Y-107113082D01*
X169640912Y-106989832D01*
X169325033Y-106927000D01*
X169002967Y-106927000D01*
X168687088Y-106989832D01*
X168389537Y-107113082D01*
X168121748Y-107292013D01*
X167894013Y-107519748D01*
X167715082Y-107787537D01*
X167591832Y-108085088D01*
X167529000Y-108400967D01*
X167529000Y-108723033D01*
X167591832Y-109038912D01*
X167715082Y-109336463D01*
X167894013Y-109604252D01*
X168121748Y-109831987D01*
X168389537Y-110010918D01*
X168404001Y-110016909D01*
X168404000Y-113607091D01*
X168389537Y-113613082D01*
X168121748Y-113792013D01*
X167894013Y-114019748D01*
X167715082Y-114287537D01*
X167709091Y-114302000D01*
X157492475Y-114302000D01*
X157573405Y-114203386D01*
X157655472Y-114049850D01*
X157706008Y-113883254D01*
X157723072Y-113710000D01*
X157723072Y-112969990D01*
X161564688Y-112969990D01*
X161602010Y-112973666D01*
X161639332Y-112969990D01*
X161639343Y-112969990D01*
X161750996Y-112958993D01*
X161894257Y-112915536D01*
X162026286Y-112844964D01*
X162142011Y-112749991D01*
X162165814Y-112720987D01*
X183666929Y-91219872D01*
X193345000Y-91219872D01*
X193345000Y-91660128D01*
X193430890Y-92091925D01*
X193599369Y-92498669D01*
X193843962Y-92864729D01*
X194155271Y-93176038D01*
X194521331Y-93420631D01*
X194928075Y-93589110D01*
X195359872Y-93675000D01*
X195800128Y-93675000D01*
X196231925Y-93589110D01*
X196638669Y-93420631D01*
X197004729Y-93176038D01*
X197316038Y-92864729D01*
X197560631Y-92498669D01*
X197729110Y-92091925D01*
X197815000Y-91660128D01*
X197815000Y-91219872D01*
X197729110Y-90788075D01*
X197560631Y-90381331D01*
X197316038Y-90015271D01*
X197004729Y-89703962D01*
X196638669Y-89459369D01*
X196231925Y-89290890D01*
X195800128Y-89205000D01*
X195359872Y-89205000D01*
X194928075Y-89290890D01*
X194521331Y-89459369D01*
X194155271Y-89703962D01*
X193843962Y-90015271D01*
X193599369Y-90381331D01*
X193430890Y-90788075D01*
X193345000Y-91219872D01*
X183666929Y-91219872D01*
X183951799Y-90935003D01*
X183951803Y-90934998D01*
X184292525Y-90594276D01*
X185475799Y-89411004D01*
X185475805Y-89410997D01*
X185931003Y-88955799D01*
X185960001Y-88932001D01*
X186016902Y-88862667D01*
X186054974Y-88816277D01*
X186125546Y-88684247D01*
X186148749Y-88607754D01*
X186169003Y-88540986D01*
X186180000Y-88429333D01*
X186180000Y-88429323D01*
X186183676Y-88392000D01*
X186180000Y-88354677D01*
X186180000Y-63239331D01*
X186235025Y-63342275D01*
X186262703Y-63376000D01*
X186329999Y-63458000D01*
X186358997Y-63481798D01*
X186888200Y-64011002D01*
X186911999Y-64040001D01*
X187027724Y-64134974D01*
X187159753Y-64205546D01*
X187303014Y-64249003D01*
X187414667Y-64260000D01*
X187414675Y-64260000D01*
X187452000Y-64263676D01*
X187489325Y-64260000D01*
X196558678Y-64260000D01*
X196596000Y-64263676D01*
X196633322Y-64260000D01*
X196633333Y-64260000D01*
X196744986Y-64249003D01*
X196888247Y-64205546D01*
X197020276Y-64134974D01*
X197136001Y-64040001D01*
X197159803Y-64010998D01*
X197615003Y-63555798D01*
X197644001Y-63532001D01*
X197738974Y-63416276D01*
X197809546Y-63284247D01*
X197853003Y-63140986D01*
X197864000Y-63029333D01*
X197864000Y-63029324D01*
X197867676Y-62992001D01*
X197864000Y-62954678D01*
X197864000Y-53631325D01*
X197867676Y-53594000D01*
X197864000Y-53556675D01*
X197864000Y-53556667D01*
X197853003Y-53445014D01*
X197809546Y-53301753D01*
X197738974Y-53169724D01*
X197644001Y-53053999D01*
X197615003Y-53030201D01*
X195676372Y-51091571D01*
X195707000Y-50937592D01*
X195707000Y-50662408D01*
X195653314Y-50392510D01*
X195548005Y-50138273D01*
X195395120Y-49909465D01*
X195200535Y-49714880D01*
X194971727Y-49561995D01*
X194894485Y-49530000D01*
X194971727Y-49498005D01*
X195200535Y-49345120D01*
X195395120Y-49150535D01*
X195548005Y-48921727D01*
X195653314Y-48667490D01*
X195707000Y-48397592D01*
X195707000Y-48122408D01*
X195653314Y-47852510D01*
X195548005Y-47598273D01*
X195395120Y-47369465D01*
X195200535Y-47174880D01*
X194971727Y-47021995D01*
X194717490Y-46916686D01*
X194447592Y-46863000D01*
X194172408Y-46863000D01*
X193902510Y-46916686D01*
X193648273Y-47021995D01*
X193419465Y-47174880D01*
X193224880Y-47369465D01*
X193071995Y-47598273D01*
X193040000Y-47675515D01*
X193008005Y-47598273D01*
X192855120Y-47369465D01*
X192660535Y-47174880D01*
X192431727Y-47021995D01*
X192177490Y-46916686D01*
X191907592Y-46863000D01*
X191632408Y-46863000D01*
X191362510Y-46916686D01*
X191108273Y-47021995D01*
X190879465Y-47174880D01*
X190684880Y-47369465D01*
X190531995Y-47598273D01*
X190426686Y-47852510D01*
X190373000Y-48122408D01*
X190373000Y-48397592D01*
X190426686Y-48667490D01*
X190531995Y-48921727D01*
X190684880Y-49150535D01*
X190879465Y-49345120D01*
X191108273Y-49498005D01*
X191185515Y-49530000D01*
X191108273Y-49561995D01*
X190879465Y-49714880D01*
X190684880Y-49909465D01*
X190531995Y-50138273D01*
X190426686Y-50392510D01*
X190373000Y-50662408D01*
X190373000Y-50937592D01*
X190426686Y-51207490D01*
X190531995Y-51461727D01*
X190684880Y-51690535D01*
X190879465Y-51885120D01*
X191108273Y-52038005D01*
X191185515Y-52070000D01*
X191108273Y-52101995D01*
X190879465Y-52254880D01*
X190684880Y-52449465D01*
X190531995Y-52678273D01*
X190426686Y-52932510D01*
X190373000Y-53202408D01*
X190373000Y-53477592D01*
X190426686Y-53747490D01*
X190531995Y-54001727D01*
X190684880Y-54230535D01*
X190879465Y-54425120D01*
X191108273Y-54578005D01*
X191362510Y-54683314D01*
X191632408Y-54737000D01*
X191907592Y-54737000D01*
X192177490Y-54683314D01*
X192431727Y-54578005D01*
X192660535Y-54425120D01*
X192855120Y-54230535D01*
X193008005Y-54001727D01*
X193040000Y-53924485D01*
X193071995Y-54001727D01*
X193224880Y-54230535D01*
X193419465Y-54425120D01*
X193550001Y-54512341D01*
X193550001Y-54803197D01*
X192217199Y-56136000D01*
X189290802Y-56136000D01*
X185672000Y-52517199D01*
X185672000Y-47789322D01*
X185675676Y-47751999D01*
X185672000Y-47714676D01*
X185672000Y-47714667D01*
X185661003Y-47603014D01*
X185617546Y-47459753D01*
X185546974Y-47327724D01*
X185452001Y-47211999D01*
X185423003Y-47188201D01*
X179673072Y-41438271D01*
X179673072Y-40649999D01*
X179656008Y-40476745D01*
X179605472Y-40310149D01*
X179523405Y-40156613D01*
X179412962Y-40022038D01*
X179278387Y-39911595D01*
X179124851Y-39829528D01*
X178958255Y-39778992D01*
X178785001Y-39761928D01*
X178084999Y-39761928D01*
X177911745Y-39778992D01*
X177745149Y-39829528D01*
X177591613Y-39911595D01*
X177457038Y-40022038D01*
X177346595Y-40156613D01*
X177344033Y-40161406D01*
X177218474Y-40036922D01*
X177015533Y-39902579D01*
X176790282Y-39810409D01*
X176752609Y-39806538D01*
X176562000Y-39931269D01*
X176562000Y-41148000D01*
X176582000Y-41148000D01*
X176582000Y-41402000D01*
X176562000Y-41402000D01*
X176562000Y-42618731D01*
X176752609Y-42743462D01*
X176790282Y-42739591D01*
X177015533Y-42647421D01*
X177218474Y-42513078D01*
X177344033Y-42388594D01*
X177346595Y-42393387D01*
X177457038Y-42527962D01*
X177591613Y-42638405D01*
X177745149Y-42720472D01*
X177911745Y-42771008D01*
X178084999Y-42788072D01*
X178785001Y-42788072D01*
X178865357Y-42780158D01*
X184152001Y-48066803D01*
X184152000Y-52794677D01*
X184148324Y-52832000D01*
X184152000Y-52869322D01*
X184152000Y-52869332D01*
X184162997Y-52980985D01*
X184206454Y-53124246D01*
X184277026Y-53256276D01*
X184314348Y-53301753D01*
X184371999Y-53372001D01*
X184401003Y-53395804D01*
X188412201Y-57407003D01*
X188435999Y-57436001D01*
X188464997Y-57459799D01*
X188551723Y-57530974D01*
X188683753Y-57601546D01*
X188827014Y-57645003D01*
X188938667Y-57656000D01*
X188938677Y-57656000D01*
X188976000Y-57659676D01*
X189013323Y-57656000D01*
X192494678Y-57656000D01*
X192532000Y-57659676D01*
X192569322Y-57656000D01*
X192569333Y-57656000D01*
X192680986Y-57645003D01*
X192824247Y-57601546D01*
X192956276Y-57530974D01*
X193072001Y-57436001D01*
X193095804Y-57406997D01*
X194821003Y-55681799D01*
X194850001Y-55658001D01*
X194944974Y-55542276D01*
X195015546Y-55410247D01*
X195059003Y-55266986D01*
X195070000Y-55155333D01*
X195070000Y-55155325D01*
X195073676Y-55118000D01*
X195070000Y-55080675D01*
X195070000Y-54512341D01*
X195200535Y-54425120D01*
X195395120Y-54230535D01*
X195548005Y-54001727D01*
X195653314Y-53747490D01*
X195707000Y-53477592D01*
X195707000Y-53271802D01*
X196344001Y-53908803D01*
X196344000Y-60802723D01*
X196243149Y-60735336D01*
X195988365Y-60629801D01*
X195717888Y-60576000D01*
X195442112Y-60576000D01*
X195171635Y-60629801D01*
X194916851Y-60735336D01*
X194687552Y-60888549D01*
X194492549Y-61083552D01*
X194339336Y-61312851D01*
X194310000Y-61383674D01*
X194280664Y-61312851D01*
X194127451Y-61083552D01*
X193932448Y-60888549D01*
X193703149Y-60735336D01*
X193448365Y-60629801D01*
X193177888Y-60576000D01*
X192902112Y-60576000D01*
X192631635Y-60629801D01*
X192376851Y-60735336D01*
X192147552Y-60888549D01*
X191952549Y-61083552D01*
X191799336Y-61312851D01*
X191770000Y-61383674D01*
X191740664Y-61312851D01*
X191587451Y-61083552D01*
X191392448Y-60888549D01*
X191163149Y-60735336D01*
X190908365Y-60629801D01*
X190637888Y-60576000D01*
X190362112Y-60576000D01*
X190091635Y-60629801D01*
X189836851Y-60735336D01*
X189607552Y-60888549D01*
X189412549Y-61083552D01*
X189259336Y-61312851D01*
X189230000Y-61383674D01*
X189200664Y-61312851D01*
X189047451Y-61083552D01*
X188852448Y-60888549D01*
X188623149Y-60735336D01*
X188368365Y-60629801D01*
X188097888Y-60576000D01*
X187822112Y-60576000D01*
X187665879Y-60607077D01*
X185983804Y-58925003D01*
X185960001Y-58895999D01*
X185844276Y-58801026D01*
X185712247Y-58730454D01*
X185568986Y-58686997D01*
X185457333Y-58676000D01*
X185457322Y-58676000D01*
X185420000Y-58672324D01*
X185382678Y-58676000D01*
X174789323Y-58676000D01*
X174752000Y-58672324D01*
X174714677Y-58676000D01*
X174714667Y-58676000D01*
X174603014Y-58686997D01*
X174459753Y-58730454D01*
X174327723Y-58801026D01*
X174244083Y-58869668D01*
X174211999Y-58895999D01*
X174188201Y-58924997D01*
X171192998Y-61920201D01*
X171164000Y-61943999D01*
X171140202Y-61972997D01*
X171140201Y-61972998D01*
X171069026Y-62059724D01*
X170998454Y-62191754D01*
X170954998Y-62335015D01*
X170940324Y-62484000D01*
X170944001Y-62521332D01*
X170944000Y-72837198D01*
X155444998Y-88336201D01*
X155416000Y-88359999D01*
X155392202Y-88388997D01*
X155392201Y-88388998D01*
X155321026Y-88475724D01*
X155250454Y-88607754D01*
X155206998Y-88751015D01*
X155192324Y-88900000D01*
X155196001Y-88937332D01*
X155196000Y-94173197D01*
X151069199Y-98300000D01*
X150447497Y-98300000D01*
X150523149Y-98268664D01*
X150752448Y-98115451D01*
X150947451Y-97920448D01*
X151100664Y-97691149D01*
X151206199Y-97436365D01*
X151260000Y-97165888D01*
X151260000Y-96890112D01*
X151206199Y-96619635D01*
X151100664Y-96364851D01*
X150947451Y-96135552D01*
X150752448Y-95940549D01*
X150523149Y-95787336D01*
X150268365Y-95681801D01*
X149997888Y-95628000D01*
X149722112Y-95628000D01*
X149451635Y-95681801D01*
X149196851Y-95787336D01*
X148967552Y-95940549D01*
X148772549Y-96135552D01*
X148619336Y-96364851D01*
X148590000Y-96435674D01*
X148560664Y-96364851D01*
X148407451Y-96135552D01*
X148212448Y-95940549D01*
X147983149Y-95787336D01*
X147728365Y-95681801D01*
X147457888Y-95628000D01*
X147182112Y-95628000D01*
X146911635Y-95681801D01*
X146656851Y-95787336D01*
X146427552Y-95940549D01*
X146232549Y-96135552D01*
X146079336Y-96364851D01*
X146050000Y-96435674D01*
X146020664Y-96364851D01*
X145867451Y-96135552D01*
X145672448Y-95940549D01*
X145443149Y-95787336D01*
X145188365Y-95681801D01*
X144917888Y-95628000D01*
X144642112Y-95628000D01*
X144371635Y-95681801D01*
X144116851Y-95787336D01*
X143887552Y-95940549D01*
X143692549Y-96135552D01*
X143539336Y-96364851D01*
X143510000Y-96435674D01*
X143480664Y-96364851D01*
X143327451Y-96135552D01*
X143132448Y-95940549D01*
X142903149Y-95787336D01*
X142648365Y-95681801D01*
X142377888Y-95628000D01*
X142102112Y-95628000D01*
X141831635Y-95681801D01*
X141576851Y-95787336D01*
X141347552Y-95940549D01*
X141152549Y-96135552D01*
X140999336Y-96364851D01*
X140970000Y-96435674D01*
X140940664Y-96364851D01*
X140787451Y-96135552D01*
X140592448Y-95940549D01*
X140363149Y-95787336D01*
X140108365Y-95681801D01*
X139837888Y-95628000D01*
X139562112Y-95628000D01*
X139291635Y-95681801D01*
X139036851Y-95787336D01*
X138807552Y-95940549D01*
X138612549Y-96135552D01*
X138459336Y-96364851D01*
X138430000Y-96435674D01*
X138400664Y-96364851D01*
X138247451Y-96135552D01*
X138052448Y-95940549D01*
X137823149Y-95787336D01*
X137568365Y-95681801D01*
X137297888Y-95628000D01*
X137022112Y-95628000D01*
X136751635Y-95681801D01*
X136496851Y-95787336D01*
X136267552Y-95940549D01*
X136072549Y-96135552D01*
X135919336Y-96364851D01*
X135892518Y-96429594D01*
X135890478Y-96423928D01*
X135828106Y-96307240D01*
X135587707Y-96239898D01*
X134799605Y-97028000D01*
X135587707Y-97816102D01*
X135828106Y-97748760D01*
X135889312Y-97618664D01*
X135919336Y-97691149D01*
X136072549Y-97920448D01*
X136267552Y-98115451D01*
X136496851Y-98268664D01*
X136751635Y-98374199D01*
X137022112Y-98428000D01*
X137297888Y-98428000D01*
X137568365Y-98374199D01*
X137823149Y-98268664D01*
X138052448Y-98115451D01*
X138247451Y-97920448D01*
X138400664Y-97691149D01*
X138430000Y-97620326D01*
X138459336Y-97691149D01*
X138612549Y-97920448D01*
X138807552Y-98115451D01*
X139036851Y-98268664D01*
X139112503Y-98300000D01*
X138467323Y-98300000D01*
X138430000Y-98296324D01*
X138392677Y-98300000D01*
X138392667Y-98300000D01*
X138281014Y-98310997D01*
X138140878Y-98353506D01*
X138137753Y-98354454D01*
X138005723Y-98425026D01*
X137922083Y-98493668D01*
X137889999Y-98519999D01*
X137866201Y-98548997D01*
X135676122Y-100739077D01*
X135519888Y-100708000D01*
X135244112Y-100708000D01*
X134973635Y-100761801D01*
X134718851Y-100867336D01*
X134489552Y-101020549D01*
X134466053Y-101044048D01*
X131827133Y-98405129D01*
X131942112Y-98428000D01*
X132217888Y-98428000D01*
X132488365Y-98374199D01*
X132743149Y-98268664D01*
X132972448Y-98115451D01*
X133092192Y-97995707D01*
X133831898Y-97995707D01*
X133899240Y-98236106D01*
X134148780Y-98353506D01*
X134416427Y-98419967D01*
X134691899Y-98432936D01*
X134964607Y-98391914D01*
X135224072Y-98298478D01*
X135340760Y-98236106D01*
X135408102Y-97995707D01*
X134620000Y-97207605D01*
X133831898Y-97995707D01*
X133092192Y-97995707D01*
X133167451Y-97920448D01*
X133320664Y-97691149D01*
X133347482Y-97626406D01*
X133349522Y-97632072D01*
X133411894Y-97748760D01*
X133652293Y-97816102D01*
X134440395Y-97028000D01*
X133652293Y-96239898D01*
X133411894Y-96307240D01*
X133350688Y-96437336D01*
X133320664Y-96364851D01*
X133167451Y-96135552D01*
X133092192Y-96060293D01*
X133831898Y-96060293D01*
X134620000Y-96848395D01*
X135408102Y-96060293D01*
X135340760Y-95819894D01*
X135091220Y-95702494D01*
X134823573Y-95636033D01*
X134548101Y-95623064D01*
X134275393Y-95664086D01*
X134015928Y-95757522D01*
X133899240Y-95819894D01*
X133831898Y-96060293D01*
X133092192Y-96060293D01*
X132972448Y-95940549D01*
X132743149Y-95787336D01*
X132488365Y-95681801D01*
X132217888Y-95628000D01*
X131942112Y-95628000D01*
X131671635Y-95681801D01*
X131416851Y-95787336D01*
X131187552Y-95940549D01*
X130992549Y-96135552D01*
X130839336Y-96364851D01*
X130810000Y-96435674D01*
X130780664Y-96364851D01*
X130627451Y-96135552D01*
X130432448Y-95940549D01*
X130203149Y-95787336D01*
X129948365Y-95681801D01*
X129677888Y-95628000D01*
X129402112Y-95628000D01*
X129131635Y-95681801D01*
X128876851Y-95787336D01*
X128647552Y-95940549D01*
X128452549Y-96135552D01*
X128299336Y-96364851D01*
X128193801Y-96619635D01*
X128140000Y-96890112D01*
X128140000Y-97165888D01*
X128193801Y-97436365D01*
X128299336Y-97691149D01*
X128452549Y-97920448D01*
X128647552Y-98115451D01*
X128876851Y-98268664D01*
X129131635Y-98374199D01*
X129402112Y-98428000D01*
X129677888Y-98428000D01*
X129696666Y-98424265D01*
X132155403Y-100883003D01*
X131949552Y-101020549D01*
X131754549Y-101215552D01*
X131601336Y-101444851D01*
X131572000Y-101515674D01*
X131542664Y-101444851D01*
X131389451Y-101215552D01*
X131194448Y-101020549D01*
X130965149Y-100867336D01*
X130710365Y-100761801D01*
X130439888Y-100708000D01*
X130164112Y-100708000D01*
X129893635Y-100761801D01*
X129638851Y-100867336D01*
X129409552Y-101020549D01*
X129214549Y-101215552D01*
X129061336Y-101444851D01*
X129032000Y-101515674D01*
X129002664Y-101444851D01*
X128849451Y-101215552D01*
X128654448Y-101020549D01*
X128425149Y-100867336D01*
X128170365Y-100761801D01*
X127899888Y-100708000D01*
X127624112Y-100708000D01*
X127353635Y-100761801D01*
X127098851Y-100867336D01*
X126869552Y-101020549D01*
X126674549Y-101215552D01*
X126521336Y-101444851D01*
X126492000Y-101515674D01*
X126462664Y-101444851D01*
X126309451Y-101215552D01*
X126114448Y-101020549D01*
X125885149Y-100867336D01*
X125630365Y-100761801D01*
X125359888Y-100708000D01*
X125084112Y-100708000D01*
X124813635Y-100761801D01*
X124558851Y-100867336D01*
X124329552Y-101020549D01*
X124134549Y-101215552D01*
X123981336Y-101444851D01*
X123952000Y-101515674D01*
X123922664Y-101444851D01*
X123769451Y-101215552D01*
X123574448Y-101020549D01*
X123345149Y-100867336D01*
X123090365Y-100761801D01*
X122819888Y-100708000D01*
X122544112Y-100708000D01*
X122273635Y-100761801D01*
X122018851Y-100867336D01*
X121789552Y-101020549D01*
X121594549Y-101215552D01*
X121441336Y-101444851D01*
X121412000Y-101515674D01*
X121382664Y-101444851D01*
X121229451Y-101215552D01*
X121034448Y-101020549D01*
X120805149Y-100867336D01*
X120550365Y-100761801D01*
X120279888Y-100708000D01*
X120004112Y-100708000D01*
X119733635Y-100761801D01*
X119478851Y-100867336D01*
X119249552Y-101020549D01*
X119054549Y-101215552D01*
X118901336Y-101444851D01*
X118795801Y-101699635D01*
X118742000Y-101970112D01*
X118742000Y-102245888D01*
X118795801Y-102516365D01*
X118901336Y-102771149D01*
X119054549Y-103000448D01*
X119249552Y-103195451D01*
X119478851Y-103348664D01*
X119733635Y-103454199D01*
X120004112Y-103508000D01*
X120279888Y-103508000D01*
X120550365Y-103454199D01*
X120805149Y-103348664D01*
X121034448Y-103195451D01*
X121229451Y-103000448D01*
X121382664Y-102771149D01*
X121412000Y-102700326D01*
X121441336Y-102771149D01*
X121594549Y-103000448D01*
X121789552Y-103195451D01*
X122018851Y-103348664D01*
X122273635Y-103454199D01*
X122544112Y-103508000D01*
X122819888Y-103508000D01*
X123090365Y-103454199D01*
X123345149Y-103348664D01*
X123574448Y-103195451D01*
X123769451Y-103000448D01*
X123922664Y-102771149D01*
X123952000Y-102700326D01*
X123981336Y-102771149D01*
X124134549Y-103000448D01*
X124329552Y-103195451D01*
X124558851Y-103348664D01*
X124813635Y-103454199D01*
X125084112Y-103508000D01*
X125359888Y-103508000D01*
X125630365Y-103454199D01*
X125885149Y-103348664D01*
X126114448Y-103195451D01*
X126309451Y-103000448D01*
X126462664Y-102771149D01*
X126492000Y-102700326D01*
X126521336Y-102771149D01*
X126674549Y-103000448D01*
X126869552Y-103195451D01*
X127098851Y-103348664D01*
X127353635Y-103454199D01*
X127624112Y-103508000D01*
X127899888Y-103508000D01*
X128170365Y-103454199D01*
X128425149Y-103348664D01*
X128654448Y-103195451D01*
X128849451Y-103000448D01*
X129002664Y-102771149D01*
X129032000Y-102700326D01*
X129061336Y-102771149D01*
X129214549Y-103000448D01*
X129409552Y-103195451D01*
X129638851Y-103348664D01*
X129893635Y-103454199D01*
X130164112Y-103508000D01*
X130367198Y-103508000D01*
X128200200Y-105674999D01*
X96589801Y-105674999D01*
X95704999Y-104790198D01*
X95704999Y-104572725D01*
X95970166Y-104682561D01*
X96334344Y-104755000D01*
X96705656Y-104755000D01*
X97069834Y-104682561D01*
X97412882Y-104540466D01*
X97721618Y-104334175D01*
X97984175Y-104071618D01*
X98190466Y-103762882D01*
X98332561Y-103419834D01*
X98384668Y-103157872D01*
X114097000Y-103157872D01*
X114097000Y-103598128D01*
X114182890Y-104029925D01*
X114351369Y-104436669D01*
X114595962Y-104802729D01*
X114907271Y-105114038D01*
X115273331Y-105358631D01*
X115680075Y-105527110D01*
X116111872Y-105613000D01*
X116552128Y-105613000D01*
X116983925Y-105527110D01*
X117390669Y-105358631D01*
X117756729Y-105114038D01*
X118068038Y-104802729D01*
X118312631Y-104436669D01*
X118481110Y-104029925D01*
X118567000Y-103598128D01*
X118567000Y-103157872D01*
X118481110Y-102726075D01*
X118312631Y-102319331D01*
X118068038Y-101953271D01*
X117756729Y-101641962D01*
X117390669Y-101397369D01*
X116983925Y-101228890D01*
X116552128Y-101143000D01*
X116111872Y-101143000D01*
X115680075Y-101228890D01*
X115273331Y-101397369D01*
X114907271Y-101641962D01*
X114595962Y-101953271D01*
X114351369Y-102319331D01*
X114182890Y-102726075D01*
X114097000Y-103157872D01*
X98384668Y-103157872D01*
X98405000Y-103055656D01*
X98405000Y-102684344D01*
X98332561Y-102320166D01*
X98190466Y-101977118D01*
X97984175Y-101668382D01*
X97721618Y-101405825D01*
X97543253Y-101286646D01*
X97607451Y-101222448D01*
X97760664Y-100993149D01*
X97866199Y-100738365D01*
X97920000Y-100467888D01*
X97920000Y-100192112D01*
X97866199Y-99921635D01*
X97760664Y-99666851D01*
X97607451Y-99437552D01*
X97412448Y-99242549D01*
X97183149Y-99089336D01*
X97112326Y-99060000D01*
X97183149Y-99030664D01*
X97412448Y-98877451D01*
X97607451Y-98682448D01*
X97760664Y-98453149D01*
X97866199Y-98198365D01*
X97920000Y-97927888D01*
X97920000Y-97652112D01*
X97866199Y-97381635D01*
X97760664Y-97126851D01*
X97607451Y-96897552D01*
X97517771Y-96807872D01*
X108255000Y-96807872D01*
X108255000Y-97248128D01*
X108340890Y-97679925D01*
X108509369Y-98086669D01*
X108753962Y-98452729D01*
X109065271Y-98764038D01*
X109431331Y-99008631D01*
X109838075Y-99177110D01*
X110269872Y-99263000D01*
X110710128Y-99263000D01*
X111141925Y-99177110D01*
X111548669Y-99008631D01*
X111914729Y-98764038D01*
X112226038Y-98452729D01*
X112470631Y-98086669D01*
X112639110Y-97679925D01*
X112725000Y-97248128D01*
X112725000Y-96807872D01*
X112639110Y-96376075D01*
X112470631Y-95969331D01*
X112226038Y-95603271D01*
X111914729Y-95291962D01*
X111548669Y-95047369D01*
X111141925Y-94878890D01*
X110710128Y-94793000D01*
X110269872Y-94793000D01*
X109838075Y-94878890D01*
X109431331Y-95047369D01*
X109065271Y-95291962D01*
X108753962Y-95603271D01*
X108509369Y-95969331D01*
X108340890Y-96376075D01*
X108255000Y-96807872D01*
X97517771Y-96807872D01*
X97412448Y-96702549D01*
X97183149Y-96549336D01*
X97118406Y-96522518D01*
X97124072Y-96520478D01*
X97240760Y-96458106D01*
X97308102Y-96217707D01*
X96520000Y-95429605D01*
X96505858Y-95443748D01*
X96326253Y-95264143D01*
X96340395Y-95250000D01*
X96699605Y-95250000D01*
X97487707Y-96038102D01*
X97728106Y-95970760D01*
X97845506Y-95721220D01*
X97911967Y-95453573D01*
X97924936Y-95178101D01*
X97883914Y-94905393D01*
X97790478Y-94645928D01*
X97728106Y-94529240D01*
X97487707Y-94461898D01*
X96699605Y-95250000D01*
X96340395Y-95250000D01*
X96326253Y-95235858D01*
X96505858Y-95056253D01*
X96520000Y-95070395D01*
X97308102Y-94282293D01*
X97240760Y-94041894D01*
X97110664Y-93980688D01*
X97183149Y-93950664D01*
X97412448Y-93797451D01*
X97607451Y-93602448D01*
X97695950Y-93470000D01*
X99784678Y-93470000D01*
X99822000Y-93473676D01*
X99859322Y-93470000D01*
X99859333Y-93470000D01*
X99970986Y-93459003D01*
X100114247Y-93415546D01*
X100246276Y-93344974D01*
X100362001Y-93250001D01*
X100385804Y-93220997D01*
X114339802Y-79267000D01*
X114401939Y-79267000D01*
X114601898Y-79227226D01*
X114790256Y-79149205D01*
X114959774Y-79035937D01*
X115103937Y-78891774D01*
X115217205Y-78722256D01*
X115295226Y-78533898D01*
X115305151Y-78484000D01*
X133408289Y-78484000D01*
X133452226Y-78527937D01*
X133621744Y-78641205D01*
X133810102Y-78719226D01*
X134010061Y-78759000D01*
X134213939Y-78759000D01*
X134413898Y-78719226D01*
X134602256Y-78641205D01*
X134771774Y-78527937D01*
X134815711Y-78484000D01*
X147536678Y-78484000D01*
X147574000Y-78487676D01*
X147611322Y-78484000D01*
X147611333Y-78484000D01*
X147722986Y-78473003D01*
X147866247Y-78429546D01*
X147998276Y-78358974D01*
X148114001Y-78264001D01*
X148137804Y-78234997D01*
X153251430Y-73121372D01*
X153405408Y-73152000D01*
X153680592Y-73152000D01*
X153950490Y-73098314D01*
X154204727Y-72993005D01*
X154433535Y-72840120D01*
X154628120Y-72645535D01*
X154781005Y-72416727D01*
X154813000Y-72339485D01*
X154844995Y-72416727D01*
X154997880Y-72645535D01*
X155192465Y-72840120D01*
X155421273Y-72993005D01*
X155675510Y-73098314D01*
X155945408Y-73152000D01*
X156220592Y-73152000D01*
X156490490Y-73098314D01*
X156744727Y-72993005D01*
X156973535Y-72840120D01*
X157168120Y-72645535D01*
X157321005Y-72416727D01*
X157353000Y-72339485D01*
X157384995Y-72416727D01*
X157537880Y-72645535D01*
X157732465Y-72840120D01*
X157961273Y-72993005D01*
X158215510Y-73098314D01*
X158485408Y-73152000D01*
X158760592Y-73152000D01*
X159030490Y-73098314D01*
X159284727Y-72993005D01*
X159513535Y-72840120D01*
X159708120Y-72645535D01*
X159861005Y-72416727D01*
X159966314Y-72162490D01*
X160020000Y-71892592D01*
X160020000Y-71617408D01*
X159966314Y-71347510D01*
X159861005Y-71093273D01*
X159708120Y-70864465D01*
X159513535Y-70669880D01*
X159284727Y-70516995D01*
X159030490Y-70411686D01*
X158760592Y-70358000D01*
X158485408Y-70358000D01*
X158215510Y-70411686D01*
X157961273Y-70516995D01*
X157732465Y-70669880D01*
X157537880Y-70864465D01*
X157384995Y-71093273D01*
X157353000Y-71170515D01*
X157321005Y-71093273D01*
X157168120Y-70864465D01*
X156973535Y-70669880D01*
X156744727Y-70516995D01*
X156490490Y-70411686D01*
X156220592Y-70358000D01*
X155945408Y-70358000D01*
X155675510Y-70411686D01*
X155421273Y-70516995D01*
X155192465Y-70669880D01*
X154997880Y-70864465D01*
X154844995Y-71093273D01*
X154813000Y-71170515D01*
X154781005Y-71093273D01*
X154628120Y-70864465D01*
X154433535Y-70669880D01*
X154204727Y-70516995D01*
X153950490Y-70411686D01*
X153680592Y-70358000D01*
X153405408Y-70358000D01*
X153135510Y-70411686D01*
X152881273Y-70516995D01*
X152652465Y-70669880D01*
X152457880Y-70864465D01*
X152304995Y-71093273D01*
X152273000Y-71170515D01*
X152241005Y-71093273D01*
X152088120Y-70864465D01*
X151893535Y-70669880D01*
X151664727Y-70516995D01*
X151410490Y-70411686D01*
X151140592Y-70358000D01*
X150865408Y-70358000D01*
X150595510Y-70411686D01*
X150341273Y-70516995D01*
X150112465Y-70669880D01*
X149917880Y-70864465D01*
X149764995Y-71093273D01*
X149733000Y-71170515D01*
X149701005Y-71093273D01*
X149548120Y-70864465D01*
X149353535Y-70669880D01*
X149124727Y-70516995D01*
X148870490Y-70411686D01*
X148600592Y-70358000D01*
X148325408Y-70358000D01*
X148055510Y-70411686D01*
X147801273Y-70516995D01*
X147572465Y-70669880D01*
X147377880Y-70864465D01*
X147224995Y-71093273D01*
X147193000Y-71170515D01*
X147161005Y-71093273D01*
X147008120Y-70864465D01*
X146813535Y-70669880D01*
X146584727Y-70516995D01*
X146330490Y-70411686D01*
X146060592Y-70358000D01*
X145785408Y-70358000D01*
X145515510Y-70411686D01*
X145261273Y-70516995D01*
X145032465Y-70669880D01*
X144837880Y-70864465D01*
X144684995Y-71093273D01*
X144655308Y-71164943D01*
X144650636Y-71151977D01*
X144588656Y-71036020D01*
X144348565Y-70969040D01*
X143562605Y-71755000D01*
X144348565Y-72540960D01*
X144588656Y-72473980D01*
X144652485Y-72338240D01*
X144684995Y-72416727D01*
X144837880Y-72645535D01*
X145032465Y-72840120D01*
X145261273Y-72993005D01*
X145515510Y-73098314D01*
X145785408Y-73152000D01*
X145991198Y-73152000D01*
X144211199Y-74932000D01*
X111670322Y-74932000D01*
X111632999Y-74928324D01*
X111595676Y-74932000D01*
X111595667Y-74932000D01*
X111484014Y-74942997D01*
X111340753Y-74986454D01*
X111208724Y-75057026D01*
X111092999Y-75151999D01*
X111069201Y-75180997D01*
X109180199Y-77070000D01*
X109118061Y-77070000D01*
X108918102Y-77109774D01*
X108729744Y-77187795D01*
X108560226Y-77301063D01*
X108416063Y-77445226D01*
X108302795Y-77614744D01*
X108224774Y-77803102D01*
X108185000Y-78003061D01*
X108185000Y-78065198D01*
X99380199Y-86870000D01*
X97695950Y-86870000D01*
X97607451Y-86737552D01*
X97412448Y-86542549D01*
X97183149Y-86389336D01*
X97112326Y-86360000D01*
X97183149Y-86330664D01*
X97412448Y-86177451D01*
X97607451Y-85982448D01*
X97760664Y-85753149D01*
X97866199Y-85498365D01*
X97920000Y-85227888D01*
X97920000Y-84952112D01*
X97866199Y-84681635D01*
X97760664Y-84426851D01*
X97607451Y-84197552D01*
X97543253Y-84133354D01*
X97721618Y-84014175D01*
X97984175Y-83751618D01*
X98190466Y-83442882D01*
X98332561Y-83099834D01*
X98405000Y-82735656D01*
X98405000Y-82364344D01*
X98332561Y-82000166D01*
X98190466Y-81657118D01*
X97984175Y-81348382D01*
X97721618Y-81085825D01*
X97412882Y-80879534D01*
X97069834Y-80737439D01*
X96705656Y-80665000D01*
X96334344Y-80665000D01*
X95970166Y-80737439D01*
X95627118Y-80879534D01*
X95318382Y-81085825D01*
X95055825Y-81348382D01*
X94849534Y-81657118D01*
X94707439Y-82000166D01*
X94635000Y-82364344D01*
X94635000Y-82735656D01*
X94707439Y-83099834D01*
X94849534Y-83442882D01*
X95055825Y-83751618D01*
X95318382Y-84014175D01*
X95496747Y-84133354D01*
X95432549Y-84197552D01*
X95279336Y-84426851D01*
X95173801Y-84681635D01*
X95120000Y-84952112D01*
X95120000Y-85227888D01*
X95151077Y-85384122D01*
X94433997Y-86101202D01*
X94404999Y-86125000D01*
X94381201Y-86153998D01*
X94381200Y-86153999D01*
X94310025Y-86240725D01*
X94239453Y-86372755D01*
X94209179Y-86472559D01*
X94203889Y-86490000D01*
X94195997Y-86516016D01*
X94181323Y-86665001D01*
X94185000Y-86702334D01*
X94184999Y-105067677D01*
X94181323Y-105104999D01*
X94184999Y-105142321D01*
X94184999Y-105142331D01*
X94195996Y-105253984D01*
X94227740Y-105358631D01*
X94239453Y-105397245D01*
X94310025Y-105529275D01*
X94349870Y-105577825D01*
X94404998Y-105645000D01*
X94434002Y-105668803D01*
X95711200Y-106946002D01*
X95734998Y-106975000D01*
X95763996Y-106998798D01*
X95850722Y-107069973D01*
X95931373Y-107113082D01*
X95982752Y-107140545D01*
X96126013Y-107184002D01*
X96237666Y-107194999D01*
X96237675Y-107194999D01*
X96274998Y-107198675D01*
X96312321Y-107194999D01*
X104766940Y-107194999D01*
X104621748Y-107292013D01*
X104394013Y-107519748D01*
X104215082Y-107787537D01*
X104091832Y-108085088D01*
X104029000Y-108400967D01*
X104029000Y-108723033D01*
X104091832Y-109038912D01*
X104215082Y-109336463D01*
X104394013Y-109604252D01*
X104621748Y-109831987D01*
X104889537Y-110010918D01*
X105187088Y-110134168D01*
X105502967Y-110197000D01*
X105825033Y-110197000D01*
X106140912Y-110134168D01*
X106438463Y-110010918D01*
X106706252Y-109831987D01*
X106840826Y-109697413D01*
X109208192Y-109697413D01*
X109303956Y-109961814D01*
X109593571Y-110102704D01*
X109905108Y-110184384D01*
X110226595Y-110203718D01*
X110545675Y-110159961D01*
X110850088Y-110054795D01*
X111024044Y-109961814D01*
X111119808Y-109697413D01*
X110164000Y-108741605D01*
X109208192Y-109697413D01*
X106840826Y-109697413D01*
X106933987Y-109604252D01*
X107112918Y-109336463D01*
X107236168Y-109038912D01*
X107299000Y-108723033D01*
X107299000Y-108624595D01*
X108522282Y-108624595D01*
X108566039Y-108943675D01*
X108671205Y-109248088D01*
X108764186Y-109422044D01*
X109028587Y-109517808D01*
X109984395Y-108562000D01*
X110343605Y-108562000D01*
X111299413Y-109517808D01*
X111563814Y-109422044D01*
X111704704Y-109132429D01*
X111786384Y-108820892D01*
X111805718Y-108499405D01*
X111761961Y-108180325D01*
X111656795Y-107875912D01*
X111563814Y-107701956D01*
X111299413Y-107606192D01*
X110343605Y-108562000D01*
X109984395Y-108562000D01*
X109028587Y-107606192D01*
X108764186Y-107701956D01*
X108623296Y-107991571D01*
X108541616Y-108303108D01*
X108522282Y-108624595D01*
X107299000Y-108624595D01*
X107299000Y-108400967D01*
X107236168Y-108085088D01*
X107112918Y-107787537D01*
X106933987Y-107519748D01*
X106706252Y-107292013D01*
X106561060Y-107194999D01*
X109292071Y-107194999D01*
X109208192Y-107426587D01*
X110164000Y-108382395D01*
X111119808Y-107426587D01*
X111035929Y-107194999D01*
X128477679Y-107194999D01*
X128515001Y-107198675D01*
X128552323Y-107194999D01*
X128552334Y-107194999D01*
X128663987Y-107184002D01*
X128807248Y-107140545D01*
X128939277Y-107069973D01*
X129055002Y-106975000D01*
X129078805Y-106945996D01*
X132547878Y-103476923D01*
X132704112Y-103508000D01*
X132979888Y-103508000D01*
X133250365Y-103454199D01*
X133352001Y-103412100D01*
X133352000Y-104841198D01*
X128717199Y-109476000D01*
X124648319Y-109476000D01*
X124635472Y-109433650D01*
X124553405Y-109280114D01*
X124442962Y-109145538D01*
X124308386Y-109035095D01*
X124154850Y-108953028D01*
X123988254Y-108902492D01*
X123815000Y-108885428D01*
X122565000Y-108885428D01*
X122391746Y-108902492D01*
X122225150Y-108953028D01*
X122071614Y-109035095D01*
X121937038Y-109145538D01*
X121826595Y-109280114D01*
X121744528Y-109433650D01*
X121693992Y-109600246D01*
X121676928Y-109773500D01*
X121676928Y-110698500D01*
X121693992Y-110871754D01*
X121744528Y-111038350D01*
X121826595Y-111191886D01*
X121937038Y-111326462D01*
X122071614Y-111436905D01*
X122225150Y-111518972D01*
X122391746Y-111569508D01*
X122565000Y-111586572D01*
X123815000Y-111586572D01*
X123988254Y-111569508D01*
X124154850Y-111518972D01*
X124308386Y-111436905D01*
X124442962Y-111326462D01*
X124553405Y-111191886D01*
X124635472Y-111038350D01*
X124648319Y-110996000D01*
X128994678Y-110996000D01*
X129032000Y-110999676D01*
X129069322Y-110996000D01*
X129069333Y-110996000D01*
X129180986Y-110985003D01*
X129324247Y-110941546D01*
X129456276Y-110870974D01*
X129572001Y-110776001D01*
X129595804Y-110746997D01*
X131941834Y-108400967D01*
X135779000Y-108400967D01*
X135779000Y-108723033D01*
X135841832Y-109038912D01*
X135965082Y-109336463D01*
X136144013Y-109604252D01*
X136371748Y-109831987D01*
X136639537Y-110010918D01*
X136937088Y-110134168D01*
X137252967Y-110197000D01*
X137575033Y-110197000D01*
X137890912Y-110134168D01*
X138188463Y-110010918D01*
X138456252Y-109831987D01*
X138590826Y-109697413D01*
X140958192Y-109697413D01*
X141053956Y-109961814D01*
X141343571Y-110102704D01*
X141655108Y-110184384D01*
X141976595Y-110203718D01*
X142295675Y-110159961D01*
X142600088Y-110054795D01*
X142774044Y-109961814D01*
X142869808Y-109697413D01*
X141914000Y-108741605D01*
X140958192Y-109697413D01*
X138590826Y-109697413D01*
X138683987Y-109604252D01*
X138862918Y-109336463D01*
X138986168Y-109038912D01*
X139049000Y-108723033D01*
X139049000Y-108624595D01*
X140272282Y-108624595D01*
X140316039Y-108943675D01*
X140421205Y-109248088D01*
X140514186Y-109422044D01*
X140778587Y-109517808D01*
X141734395Y-108562000D01*
X142093605Y-108562000D01*
X143049413Y-109517808D01*
X143313814Y-109422044D01*
X143454704Y-109132429D01*
X143536384Y-108820892D01*
X143555718Y-108499405D01*
X143511961Y-108180325D01*
X143406795Y-107875912D01*
X143313814Y-107701956D01*
X143049413Y-107606192D01*
X142093605Y-108562000D01*
X141734395Y-108562000D01*
X140778587Y-107606192D01*
X140514186Y-107701956D01*
X140373296Y-107991571D01*
X140291616Y-108303108D01*
X140272282Y-108624595D01*
X139049000Y-108624595D01*
X139049000Y-108400967D01*
X138986168Y-108085088D01*
X138862918Y-107787537D01*
X138683987Y-107519748D01*
X138590826Y-107426587D01*
X140958192Y-107426587D01*
X141914000Y-108382395D01*
X142869808Y-107426587D01*
X142774044Y-107162186D01*
X142484429Y-107021296D01*
X142172892Y-106939616D01*
X141851405Y-106920282D01*
X141532325Y-106964039D01*
X141227912Y-107069205D01*
X141053956Y-107162186D01*
X140958192Y-107426587D01*
X138590826Y-107426587D01*
X138456252Y-107292013D01*
X138188463Y-107113082D01*
X137890912Y-106989832D01*
X137575033Y-106927000D01*
X137252967Y-106927000D01*
X136937088Y-106989832D01*
X136639537Y-107113082D01*
X136371748Y-107292013D01*
X136144013Y-107519748D01*
X135965082Y-107787537D01*
X135841832Y-108085088D01*
X135779000Y-108400967D01*
X131941834Y-108400967D01*
X134623004Y-105719798D01*
X134652001Y-105696001D01*
X134678332Y-105663917D01*
X134746974Y-105580277D01*
X134817546Y-105448247D01*
X134817546Y-105448246D01*
X134861003Y-105304986D01*
X134872000Y-105193333D01*
X134872000Y-105193323D01*
X134875676Y-105156000D01*
X134872000Y-105118677D01*
X134872000Y-103412100D01*
X134973635Y-103454199D01*
X135244112Y-103508000D01*
X135519888Y-103508000D01*
X135790365Y-103454199D01*
X136045149Y-103348664D01*
X136274448Y-103195451D01*
X136469451Y-103000448D01*
X136622664Y-102771149D01*
X136652000Y-102700326D01*
X136681336Y-102771149D01*
X136834549Y-103000448D01*
X137029552Y-103195451D01*
X137258851Y-103348664D01*
X137513635Y-103454199D01*
X137784112Y-103508000D01*
X138059888Y-103508000D01*
X138330365Y-103454199D01*
X138585149Y-103348664D01*
X138814448Y-103195451D01*
X139009451Y-103000448D01*
X139162664Y-102771149D01*
X139192000Y-102700326D01*
X139221336Y-102771149D01*
X139374549Y-103000448D01*
X139569552Y-103195451D01*
X139798851Y-103348664D01*
X140053635Y-103454199D01*
X140324112Y-103508000D01*
X140599888Y-103508000D01*
X140756122Y-103476923D01*
X148062701Y-110783503D01*
X148086499Y-110812501D01*
X148202224Y-110907474D01*
X148307004Y-110963481D01*
X130432754Y-110963482D01*
X130395419Y-110959805D01*
X130246433Y-110974478D01*
X130103172Y-111017935D01*
X129971143Y-111088507D01*
X129884416Y-111159682D01*
X129884411Y-111159687D01*
X129855418Y-111183481D01*
X129831624Y-111212474D01*
X122171003Y-118873096D01*
X122141999Y-118896899D01*
X122086871Y-118964074D01*
X122047026Y-119012624D01*
X122006380Y-119088667D01*
X121976454Y-119144654D01*
X121932997Y-119287915D01*
X121922000Y-119399568D01*
X121922000Y-119399578D01*
X121918324Y-119436900D01*
X121922000Y-119474223D01*
X121922001Y-121252049D01*
X121789552Y-121340549D01*
X121594549Y-121535552D01*
X121540488Y-121616459D01*
X121532812Y-121538518D01*
X121496502Y-121418820D01*
X121437537Y-121308506D01*
X121358185Y-121211815D01*
X121261494Y-121132463D01*
X121151180Y-121073498D01*
X121031482Y-121037188D01*
X120907000Y-121024928D01*
X120427750Y-121028000D01*
X120269000Y-121186750D01*
X120269000Y-122301000D01*
X120289000Y-122301000D01*
X120289000Y-122555000D01*
X120269000Y-122555000D01*
X120269000Y-122575000D01*
X120015000Y-122575000D01*
X120015000Y-122555000D01*
X118900750Y-122555000D01*
X118742000Y-122713750D01*
X118738928Y-123193000D01*
X118751188Y-123317482D01*
X118787498Y-123437180D01*
X118846463Y-123547494D01*
X118925815Y-123644185D01*
X119022506Y-123723537D01*
X119072014Y-123750000D01*
X83034728Y-123750000D01*
X83464446Y-123664524D01*
X84034979Y-123428201D01*
X84548446Y-123085114D01*
X84985114Y-122648446D01*
X85328201Y-122134979D01*
X85564524Y-121564446D01*
X85685000Y-120958771D01*
X85685000Y-120937872D01*
X114097000Y-120937872D01*
X114097000Y-121378128D01*
X114182890Y-121809925D01*
X114351369Y-122216669D01*
X114595962Y-122582729D01*
X114907271Y-122894038D01*
X115273331Y-123138631D01*
X115680075Y-123307110D01*
X116111872Y-123393000D01*
X116552128Y-123393000D01*
X116983925Y-123307110D01*
X117390669Y-123138631D01*
X117756729Y-122894038D01*
X118068038Y-122582729D01*
X118312631Y-122216669D01*
X118481110Y-121809925D01*
X118510335Y-121663000D01*
X118738928Y-121663000D01*
X118742000Y-122142250D01*
X118900750Y-122301000D01*
X120015000Y-122301000D01*
X120015000Y-121186750D01*
X119856250Y-121028000D01*
X119377000Y-121024928D01*
X119252518Y-121037188D01*
X119132820Y-121073498D01*
X119022506Y-121132463D01*
X118925815Y-121211815D01*
X118846463Y-121308506D01*
X118787498Y-121418820D01*
X118751188Y-121538518D01*
X118738928Y-121663000D01*
X118510335Y-121663000D01*
X118567000Y-121378128D01*
X118567000Y-120937872D01*
X118481110Y-120506075D01*
X118312631Y-120099331D01*
X118068038Y-119733271D01*
X117756729Y-119421962D01*
X117390669Y-119177369D01*
X116983925Y-119008890D01*
X116552128Y-118923000D01*
X116111872Y-118923000D01*
X115680075Y-119008890D01*
X115273331Y-119177369D01*
X114907271Y-119421962D01*
X114595962Y-119733271D01*
X114351369Y-120099331D01*
X114182890Y-120506075D01*
X114097000Y-120937872D01*
X85685000Y-120937872D01*
X85685000Y-120341229D01*
X85564524Y-119735554D01*
X85328201Y-119165021D01*
X84985114Y-118651554D01*
X84548446Y-118214886D01*
X84034979Y-117871799D01*
X83464446Y-117635476D01*
X82858771Y-117515000D01*
X82241229Y-117515000D01*
X81635554Y-117635476D01*
X81065021Y-117871799D01*
X80551554Y-118214886D01*
X80114886Y-118651554D01*
X79771799Y-119165021D01*
X79535476Y-119735554D01*
X79450000Y-120165272D01*
X79450000Y-114900967D01*
X104029000Y-114900967D01*
X104029000Y-115223033D01*
X104091832Y-115538912D01*
X104215082Y-115836463D01*
X104394013Y-116104252D01*
X104621748Y-116331987D01*
X104889537Y-116510918D01*
X105187088Y-116634168D01*
X105502967Y-116697000D01*
X105825033Y-116697000D01*
X106140912Y-116634168D01*
X106438463Y-116510918D01*
X106706252Y-116331987D01*
X106840826Y-116197413D01*
X109208192Y-116197413D01*
X109303956Y-116461814D01*
X109593571Y-116602704D01*
X109905108Y-116684384D01*
X110226595Y-116703718D01*
X110545675Y-116659961D01*
X110850088Y-116554795D01*
X111024044Y-116461814D01*
X111119808Y-116197413D01*
X110164000Y-115241605D01*
X109208192Y-116197413D01*
X106840826Y-116197413D01*
X106933987Y-116104252D01*
X107112918Y-115836463D01*
X107236168Y-115538912D01*
X107299000Y-115223033D01*
X107299000Y-115124595D01*
X108522282Y-115124595D01*
X108566039Y-115443675D01*
X108671205Y-115748088D01*
X108764186Y-115922044D01*
X109028587Y-116017808D01*
X109984395Y-115062000D01*
X110343605Y-115062000D01*
X111299413Y-116017808D01*
X111563814Y-115922044D01*
X111704704Y-115632429D01*
X111786384Y-115320892D01*
X111805718Y-114999405D01*
X111761961Y-114680325D01*
X111656795Y-114375912D01*
X111563814Y-114201956D01*
X111299413Y-114106192D01*
X110343605Y-115062000D01*
X109984395Y-115062000D01*
X109028587Y-114106192D01*
X108764186Y-114201956D01*
X108623296Y-114491571D01*
X108541616Y-114803108D01*
X108522282Y-115124595D01*
X107299000Y-115124595D01*
X107299000Y-114900967D01*
X107236168Y-114585088D01*
X107112918Y-114287537D01*
X106933987Y-114019748D01*
X106840826Y-113926587D01*
X109208192Y-113926587D01*
X110164000Y-114882395D01*
X111119808Y-113926587D01*
X111048606Y-113730000D01*
X114871928Y-113730000D01*
X114884188Y-113854482D01*
X114920498Y-113974180D01*
X114979463Y-114084494D01*
X115058815Y-114181185D01*
X115155506Y-114260537D01*
X115265820Y-114319502D01*
X115385518Y-114355812D01*
X115510000Y-114368072D01*
X115824250Y-114365000D01*
X115983000Y-114206250D01*
X115983000Y-113157000D01*
X115033750Y-113157000D01*
X114875000Y-113315750D01*
X114871928Y-113730000D01*
X111048606Y-113730000D01*
X111024044Y-113662186D01*
X110734429Y-113521296D01*
X110422892Y-113439616D01*
X110101405Y-113420282D01*
X109782325Y-113464039D01*
X109477912Y-113569205D01*
X109303956Y-113662186D01*
X109208192Y-113926587D01*
X106840826Y-113926587D01*
X106706252Y-113792013D01*
X106438463Y-113613082D01*
X106140912Y-113489832D01*
X105825033Y-113427000D01*
X105502967Y-113427000D01*
X105187088Y-113489832D01*
X104889537Y-113613082D01*
X104621748Y-113792013D01*
X104394013Y-114019748D01*
X104215082Y-114287537D01*
X104091832Y-114585088D01*
X104029000Y-114900967D01*
X79450000Y-114900967D01*
X79450000Y-112330000D01*
X114871928Y-112330000D01*
X114875000Y-112744250D01*
X115033750Y-112903000D01*
X115983000Y-112903000D01*
X115983000Y-111853750D01*
X116237000Y-111853750D01*
X116237000Y-112903000D01*
X116257000Y-112903000D01*
X116257000Y-113157000D01*
X116237000Y-113157000D01*
X116237000Y-114206250D01*
X116395750Y-114365000D01*
X116710000Y-114368072D01*
X116834482Y-114355812D01*
X116954180Y-114319502D01*
X117064494Y-114260537D01*
X117161185Y-114181185D01*
X117185363Y-114151724D01*
X117266613Y-114218405D01*
X117420149Y-114300472D01*
X117586745Y-114351008D01*
X117759999Y-114368072D01*
X118460001Y-114368072D01*
X118633255Y-114351008D01*
X118799851Y-114300472D01*
X118953387Y-114218405D01*
X119087962Y-114107962D01*
X119198405Y-113973387D01*
X119199681Y-113971000D01*
X121731681Y-113971000D01*
X121744528Y-114013350D01*
X121826595Y-114166886D01*
X121937038Y-114301462D01*
X122071614Y-114411905D01*
X122225150Y-114493972D01*
X122391746Y-114544508D01*
X122565000Y-114561572D01*
X123815000Y-114561572D01*
X123988254Y-114544508D01*
X124154850Y-114493972D01*
X124308386Y-114411905D01*
X124442962Y-114301462D01*
X124553405Y-114166886D01*
X124635472Y-114013350D01*
X124686008Y-113846754D01*
X124703072Y-113673500D01*
X124703072Y-112748500D01*
X124686008Y-112575246D01*
X124635472Y-112408650D01*
X124553405Y-112255114D01*
X124442962Y-112120538D01*
X124308386Y-112010095D01*
X124154850Y-111928028D01*
X123988254Y-111877492D01*
X123815000Y-111860428D01*
X122565000Y-111860428D01*
X122391746Y-111877492D01*
X122225150Y-111928028D01*
X122071614Y-112010095D01*
X121937038Y-112120538D01*
X121826595Y-112255114D01*
X121744528Y-112408650D01*
X121731681Y-112451000D01*
X119335367Y-112451000D01*
X119331008Y-112406745D01*
X119280472Y-112240149D01*
X119198405Y-112086613D01*
X119087962Y-111952038D01*
X118953387Y-111841595D01*
X118799851Y-111759528D01*
X118633255Y-111708992D01*
X118460001Y-111691928D01*
X117759999Y-111691928D01*
X117586745Y-111708992D01*
X117420149Y-111759528D01*
X117266613Y-111841595D01*
X117185363Y-111908276D01*
X117161185Y-111878815D01*
X117064494Y-111799463D01*
X116954180Y-111740498D01*
X116834482Y-111704188D01*
X116710000Y-111691928D01*
X116395750Y-111695000D01*
X116237000Y-111853750D01*
X115983000Y-111853750D01*
X115824250Y-111695000D01*
X115510000Y-111691928D01*
X115385518Y-111704188D01*
X115265820Y-111740498D01*
X115155506Y-111799463D01*
X115058815Y-111878815D01*
X114979463Y-111975506D01*
X114920498Y-112085820D01*
X114884188Y-112205518D01*
X114871928Y-112330000D01*
X79450000Y-112330000D01*
X79450000Y-102649872D01*
X81585000Y-102649872D01*
X81585000Y-103090128D01*
X81670890Y-103521925D01*
X81839369Y-103928669D01*
X82083962Y-104294729D01*
X82395271Y-104606038D01*
X82761331Y-104850631D01*
X83168075Y-105019110D01*
X83599872Y-105105000D01*
X84040128Y-105105000D01*
X84471925Y-105019110D01*
X84878669Y-104850631D01*
X85244729Y-104606038D01*
X85556038Y-104294729D01*
X85800631Y-103928669D01*
X85969110Y-103521925D01*
X86055000Y-103090128D01*
X86055000Y-102649872D01*
X85969110Y-102218075D01*
X85800631Y-101811331D01*
X85556038Y-101445271D01*
X85244729Y-101133962D01*
X84878669Y-100889369D01*
X84471925Y-100720890D01*
X84040128Y-100635000D01*
X83599872Y-100635000D01*
X83168075Y-100720890D01*
X82761331Y-100889369D01*
X82395271Y-101133962D01*
X82083962Y-101445271D01*
X81839369Y-101811331D01*
X81670890Y-102218075D01*
X81585000Y-102649872D01*
X79450000Y-102649872D01*
X79450000Y-82329872D01*
X81585000Y-82329872D01*
X81585000Y-82770128D01*
X81670890Y-83201925D01*
X81839369Y-83608669D01*
X82083962Y-83974729D01*
X82395271Y-84286038D01*
X82761331Y-84530631D01*
X83168075Y-84699110D01*
X83599872Y-84785000D01*
X84040128Y-84785000D01*
X84471925Y-84699110D01*
X84878669Y-84530631D01*
X85244729Y-84286038D01*
X85556038Y-83974729D01*
X85800631Y-83608669D01*
X85969110Y-83201925D01*
X86055000Y-82770128D01*
X86055000Y-82329872D01*
X85969110Y-81898075D01*
X85800631Y-81491331D01*
X85556038Y-81125271D01*
X85244729Y-80813962D01*
X84878669Y-80569369D01*
X84471925Y-80400890D01*
X84040128Y-80315000D01*
X83599872Y-80315000D01*
X83168075Y-80400890D01*
X82761331Y-80569369D01*
X82395271Y-80813962D01*
X82083962Y-81125271D01*
X81839369Y-81491331D01*
X81670890Y-81898075D01*
X81585000Y-82329872D01*
X79450000Y-82329872D01*
X79450000Y-72691413D01*
X82864192Y-72691413D01*
X82959956Y-72955814D01*
X83249571Y-73096704D01*
X83561108Y-73178384D01*
X83882595Y-73197718D01*
X84201675Y-73153961D01*
X84506088Y-73048795D01*
X84680044Y-72955814D01*
X84775808Y-72691413D01*
X89364192Y-72691413D01*
X89459956Y-72955814D01*
X89749571Y-73096704D01*
X90061108Y-73178384D01*
X90382595Y-73197718D01*
X90701675Y-73153961D01*
X91006088Y-73048795D01*
X91180044Y-72955814D01*
X91275808Y-72691413D01*
X90320000Y-71735605D01*
X89364192Y-72691413D01*
X84775808Y-72691413D01*
X83820000Y-71735605D01*
X82864192Y-72691413D01*
X79450000Y-72691413D01*
X79450000Y-71618595D01*
X82178282Y-71618595D01*
X82222039Y-71937675D01*
X82327205Y-72242088D01*
X82420186Y-72416044D01*
X82684587Y-72511808D01*
X83640395Y-71556000D01*
X83999605Y-71556000D01*
X84955413Y-72511808D01*
X85219814Y-72416044D01*
X85360704Y-72126429D01*
X85442384Y-71814892D01*
X85454189Y-71618595D01*
X88678282Y-71618595D01*
X88722039Y-71937675D01*
X88827205Y-72242088D01*
X88920186Y-72416044D01*
X89184587Y-72511808D01*
X90140395Y-71556000D01*
X90499605Y-71556000D01*
X91455413Y-72511808D01*
X91719814Y-72416044D01*
X91834778Y-72179721D01*
X95020000Y-72179721D01*
X95020000Y-72600279D01*
X95102047Y-73012756D01*
X95262988Y-73401302D01*
X95496637Y-73750983D01*
X95794017Y-74048363D01*
X96143698Y-74282012D01*
X96532244Y-74442953D01*
X96944721Y-74525000D01*
X97365279Y-74525000D01*
X97777756Y-74442953D01*
X98166302Y-74282012D01*
X98515983Y-74048363D01*
X98813363Y-73750983D01*
X99047012Y-73401302D01*
X99207953Y-73012756D01*
X99266073Y-72720565D01*
X103227040Y-72720565D01*
X103294020Y-72960656D01*
X103543048Y-73077756D01*
X103810135Y-73144023D01*
X104085017Y-73156910D01*
X104357133Y-73115922D01*
X104616023Y-73022636D01*
X104731980Y-72960656D01*
X104798960Y-72720565D01*
X104013000Y-71934605D01*
X103227040Y-72720565D01*
X99266073Y-72720565D01*
X99290000Y-72600279D01*
X99290000Y-72179721D01*
X99219843Y-71827017D01*
X102611090Y-71827017D01*
X102652078Y-72099133D01*
X102745364Y-72358023D01*
X102807344Y-72473980D01*
X103047435Y-72540960D01*
X103833395Y-71755000D01*
X104192605Y-71755000D01*
X104978565Y-72540960D01*
X105218656Y-72473980D01*
X105282485Y-72338240D01*
X105314995Y-72416727D01*
X105467880Y-72645535D01*
X105662465Y-72840120D01*
X105891273Y-72993005D01*
X106145510Y-73098314D01*
X106415408Y-73152000D01*
X106690592Y-73152000D01*
X106960490Y-73098314D01*
X107214727Y-72993005D01*
X107443535Y-72840120D01*
X107638120Y-72645535D01*
X107791005Y-72416727D01*
X107823000Y-72339485D01*
X107854995Y-72416727D01*
X108007880Y-72645535D01*
X108202465Y-72840120D01*
X108431273Y-72993005D01*
X108685510Y-73098314D01*
X108955408Y-73152000D01*
X109230592Y-73152000D01*
X109500490Y-73098314D01*
X109754727Y-72993005D01*
X109983535Y-72840120D01*
X110178120Y-72645535D01*
X110331005Y-72416727D01*
X110363000Y-72339485D01*
X110394995Y-72416727D01*
X110547880Y-72645535D01*
X110742465Y-72840120D01*
X110971273Y-72993005D01*
X111225510Y-73098314D01*
X111495408Y-73152000D01*
X111770592Y-73152000D01*
X112040490Y-73098314D01*
X112294727Y-72993005D01*
X112523535Y-72840120D01*
X112718120Y-72645535D01*
X112871005Y-72416727D01*
X112903000Y-72339485D01*
X112934995Y-72416727D01*
X113087880Y-72645535D01*
X113282465Y-72840120D01*
X113511273Y-72993005D01*
X113765510Y-73098314D01*
X114035408Y-73152000D01*
X114310592Y-73152000D01*
X114580490Y-73098314D01*
X114834727Y-72993005D01*
X115063535Y-72840120D01*
X115258120Y-72645535D01*
X115411005Y-72416727D01*
X115443000Y-72339485D01*
X115474995Y-72416727D01*
X115627880Y-72645535D01*
X115822465Y-72840120D01*
X116051273Y-72993005D01*
X116305510Y-73098314D01*
X116575408Y-73152000D01*
X116850592Y-73152000D01*
X117120490Y-73098314D01*
X117374727Y-72993005D01*
X117603535Y-72840120D01*
X117798120Y-72645535D01*
X117951005Y-72416727D01*
X117983000Y-72339485D01*
X118014995Y-72416727D01*
X118167880Y-72645535D01*
X118362465Y-72840120D01*
X118591273Y-72993005D01*
X118845510Y-73098314D01*
X119115408Y-73152000D01*
X119390592Y-73152000D01*
X119660490Y-73098314D01*
X119914727Y-72993005D01*
X120143535Y-72840120D01*
X120338120Y-72645535D01*
X120491005Y-72416727D01*
X120589176Y-72179721D01*
X126770000Y-72179721D01*
X126770000Y-72600279D01*
X126852047Y-73012756D01*
X127012988Y-73401302D01*
X127246637Y-73750983D01*
X127544017Y-74048363D01*
X127893698Y-74282012D01*
X128282244Y-74442953D01*
X128694721Y-74525000D01*
X129115279Y-74525000D01*
X129527756Y-74442953D01*
X129916302Y-74282012D01*
X130265983Y-74048363D01*
X130563363Y-73750983D01*
X130797012Y-73401302D01*
X130957953Y-73012756D01*
X131040000Y-72600279D01*
X131040000Y-72179721D01*
X134390000Y-72179721D01*
X134390000Y-72600279D01*
X134472047Y-73012756D01*
X134632988Y-73401302D01*
X134866637Y-73750983D01*
X135164017Y-74048363D01*
X135513698Y-74282012D01*
X135902244Y-74442953D01*
X136314721Y-74525000D01*
X136735279Y-74525000D01*
X137147756Y-74442953D01*
X137536302Y-74282012D01*
X137885983Y-74048363D01*
X138183363Y-73750983D01*
X138417012Y-73401302D01*
X138577953Y-73012756D01*
X138636073Y-72720565D01*
X142597040Y-72720565D01*
X142664020Y-72960656D01*
X142913048Y-73077756D01*
X143180135Y-73144023D01*
X143455017Y-73156910D01*
X143727133Y-73115922D01*
X143986023Y-73022636D01*
X144101980Y-72960656D01*
X144168960Y-72720565D01*
X143383000Y-71934605D01*
X142597040Y-72720565D01*
X138636073Y-72720565D01*
X138660000Y-72600279D01*
X138660000Y-72179721D01*
X138589843Y-71827017D01*
X141981090Y-71827017D01*
X142022078Y-72099133D01*
X142115364Y-72358023D01*
X142177344Y-72473980D01*
X142417435Y-72540960D01*
X143203395Y-71755000D01*
X142417435Y-70969040D01*
X142177344Y-71036020D01*
X142060244Y-71285048D01*
X141993977Y-71552135D01*
X141981090Y-71827017D01*
X138589843Y-71827017D01*
X138577953Y-71767244D01*
X138417012Y-71378698D01*
X138183363Y-71029017D01*
X137943781Y-70789435D01*
X142597040Y-70789435D01*
X143383000Y-71575395D01*
X144168960Y-70789435D01*
X144101980Y-70549344D01*
X143852952Y-70432244D01*
X143585865Y-70365977D01*
X143310983Y-70353090D01*
X143038867Y-70394078D01*
X142779977Y-70487364D01*
X142664020Y-70549344D01*
X142597040Y-70789435D01*
X137943781Y-70789435D01*
X137885983Y-70731637D01*
X137536302Y-70497988D01*
X137147756Y-70337047D01*
X136735279Y-70255000D01*
X136314721Y-70255000D01*
X135902244Y-70337047D01*
X135513698Y-70497988D01*
X135164017Y-70731637D01*
X134866637Y-71029017D01*
X134632988Y-71378698D01*
X134472047Y-71767244D01*
X134390000Y-72179721D01*
X131040000Y-72179721D01*
X130957953Y-71767244D01*
X130797012Y-71378698D01*
X130563363Y-71029017D01*
X130265983Y-70731637D01*
X129916302Y-70497988D01*
X129527756Y-70337047D01*
X129115279Y-70255000D01*
X128694721Y-70255000D01*
X128282244Y-70337047D01*
X127893698Y-70497988D01*
X127544017Y-70731637D01*
X127246637Y-71029017D01*
X127012988Y-71378698D01*
X126852047Y-71767244D01*
X126770000Y-72179721D01*
X120589176Y-72179721D01*
X120596314Y-72162490D01*
X120650000Y-71892592D01*
X120650000Y-71617408D01*
X120596314Y-71347510D01*
X120491005Y-71093273D01*
X120338120Y-70864465D01*
X120143535Y-70669880D01*
X119914727Y-70516995D01*
X119660490Y-70411686D01*
X119390592Y-70358000D01*
X119115408Y-70358000D01*
X118845510Y-70411686D01*
X118591273Y-70516995D01*
X118362465Y-70669880D01*
X118167880Y-70864465D01*
X118014995Y-71093273D01*
X117983000Y-71170515D01*
X117951005Y-71093273D01*
X117798120Y-70864465D01*
X117603535Y-70669880D01*
X117374727Y-70516995D01*
X117120490Y-70411686D01*
X116850592Y-70358000D01*
X116575408Y-70358000D01*
X116305510Y-70411686D01*
X116051273Y-70516995D01*
X115822465Y-70669880D01*
X115627880Y-70864465D01*
X115474995Y-71093273D01*
X115443000Y-71170515D01*
X115411005Y-71093273D01*
X115258120Y-70864465D01*
X115063535Y-70669880D01*
X114834727Y-70516995D01*
X114580490Y-70411686D01*
X114310592Y-70358000D01*
X114035408Y-70358000D01*
X113765510Y-70411686D01*
X113511273Y-70516995D01*
X113282465Y-70669880D01*
X113087880Y-70864465D01*
X112934995Y-71093273D01*
X112903000Y-71170515D01*
X112871005Y-71093273D01*
X112718120Y-70864465D01*
X112523535Y-70669880D01*
X112294727Y-70516995D01*
X112040490Y-70411686D01*
X111770592Y-70358000D01*
X111495408Y-70358000D01*
X111225510Y-70411686D01*
X110971273Y-70516995D01*
X110742465Y-70669880D01*
X110547880Y-70864465D01*
X110394995Y-71093273D01*
X110363000Y-71170515D01*
X110331005Y-71093273D01*
X110178120Y-70864465D01*
X109983535Y-70669880D01*
X109754727Y-70516995D01*
X109500490Y-70411686D01*
X109230592Y-70358000D01*
X108955408Y-70358000D01*
X108685510Y-70411686D01*
X108431273Y-70516995D01*
X108202465Y-70669880D01*
X108007880Y-70864465D01*
X107854995Y-71093273D01*
X107823000Y-71170515D01*
X107791005Y-71093273D01*
X107638120Y-70864465D01*
X107443535Y-70669880D01*
X107214727Y-70516995D01*
X106960490Y-70411686D01*
X106690592Y-70358000D01*
X106415408Y-70358000D01*
X106145510Y-70411686D01*
X105891273Y-70516995D01*
X105662465Y-70669880D01*
X105467880Y-70864465D01*
X105314995Y-71093273D01*
X105285308Y-71164943D01*
X105280636Y-71151977D01*
X105218656Y-71036020D01*
X104978565Y-70969040D01*
X104192605Y-71755000D01*
X103833395Y-71755000D01*
X103047435Y-70969040D01*
X102807344Y-71036020D01*
X102690244Y-71285048D01*
X102623977Y-71552135D01*
X102611090Y-71827017D01*
X99219843Y-71827017D01*
X99207953Y-71767244D01*
X99047012Y-71378698D01*
X98813363Y-71029017D01*
X98573781Y-70789435D01*
X103227040Y-70789435D01*
X104013000Y-71575395D01*
X104798960Y-70789435D01*
X104731980Y-70549344D01*
X104482952Y-70432244D01*
X104215865Y-70365977D01*
X103940983Y-70353090D01*
X103668867Y-70394078D01*
X103409977Y-70487364D01*
X103294020Y-70549344D01*
X103227040Y-70789435D01*
X98573781Y-70789435D01*
X98515983Y-70731637D01*
X98166302Y-70497988D01*
X97777756Y-70337047D01*
X97365279Y-70255000D01*
X96944721Y-70255000D01*
X96532244Y-70337047D01*
X96143698Y-70497988D01*
X95794017Y-70731637D01*
X95496637Y-71029017D01*
X95262988Y-71378698D01*
X95102047Y-71767244D01*
X95020000Y-72179721D01*
X91834778Y-72179721D01*
X91860704Y-72126429D01*
X91942384Y-71814892D01*
X91961718Y-71493405D01*
X91917961Y-71174325D01*
X91812795Y-70869912D01*
X91719814Y-70695956D01*
X91455413Y-70600192D01*
X90499605Y-71556000D01*
X90140395Y-71556000D01*
X89184587Y-70600192D01*
X88920186Y-70695956D01*
X88779296Y-70985571D01*
X88697616Y-71297108D01*
X88678282Y-71618595D01*
X85454189Y-71618595D01*
X85461718Y-71493405D01*
X85417961Y-71174325D01*
X85312795Y-70869912D01*
X85219814Y-70695956D01*
X84955413Y-70600192D01*
X83999605Y-71556000D01*
X83640395Y-71556000D01*
X82684587Y-70600192D01*
X82420186Y-70695956D01*
X82279296Y-70985571D01*
X82197616Y-71297108D01*
X82178282Y-71618595D01*
X79450000Y-71618595D01*
X79450000Y-70420587D01*
X82864192Y-70420587D01*
X83820000Y-71376395D01*
X84775808Y-70420587D01*
X89364192Y-70420587D01*
X90320000Y-71376395D01*
X91275808Y-70420587D01*
X91180044Y-70156186D01*
X90890429Y-70015296D01*
X90578892Y-69933616D01*
X90257405Y-69914282D01*
X89938325Y-69958039D01*
X89633912Y-70063205D01*
X89459956Y-70156186D01*
X89364192Y-70420587D01*
X84775808Y-70420587D01*
X84680044Y-70156186D01*
X84390429Y-70015296D01*
X84078892Y-69933616D01*
X83757405Y-69914282D01*
X83438325Y-69958039D01*
X83133912Y-70063205D01*
X82959956Y-70156186D01*
X82864192Y-70420587D01*
X79450000Y-70420587D01*
X79450000Y-66894967D01*
X82185000Y-66894967D01*
X82185000Y-67217033D01*
X82247832Y-67532912D01*
X82371082Y-67830463D01*
X82550013Y-68098252D01*
X82777748Y-68325987D01*
X83045537Y-68504918D01*
X83343088Y-68628168D01*
X83658967Y-68691000D01*
X83981033Y-68691000D01*
X84296912Y-68628168D01*
X84594463Y-68504918D01*
X84862252Y-68325987D01*
X85089987Y-68098252D01*
X85268918Y-67830463D01*
X85274909Y-67816000D01*
X88865091Y-67816000D01*
X88871082Y-67830463D01*
X89050013Y-68098252D01*
X89277748Y-68325987D01*
X89545537Y-68504918D01*
X89843088Y-68628168D01*
X90158967Y-68691000D01*
X90481033Y-68691000D01*
X90796912Y-68628168D01*
X91094463Y-68504918D01*
X91362252Y-68325987D01*
X91589987Y-68098252D01*
X91768918Y-67830463D01*
X91774909Y-67816000D01*
X160721199Y-67816000D01*
X161800001Y-68894804D01*
X161800000Y-70924289D01*
X161756063Y-70968226D01*
X161642795Y-71137744D01*
X161564774Y-71326102D01*
X161525000Y-71526061D01*
X161525000Y-71729939D01*
X161564774Y-71929898D01*
X161642795Y-72118256D01*
X161756063Y-72287774D01*
X161900226Y-72431937D01*
X162069744Y-72545205D01*
X162258102Y-72623226D01*
X162458061Y-72663000D01*
X162661939Y-72663000D01*
X162861898Y-72623226D01*
X163050256Y-72545205D01*
X163219774Y-72431937D01*
X163363937Y-72287774D01*
X163436135Y-72179721D01*
X166140000Y-72179721D01*
X166140000Y-72600279D01*
X166222047Y-73012756D01*
X166382988Y-73401302D01*
X166616637Y-73750983D01*
X166914017Y-74048363D01*
X167263698Y-74282012D01*
X167652244Y-74442953D01*
X168064721Y-74525000D01*
X168485279Y-74525000D01*
X168897756Y-74442953D01*
X169286302Y-74282012D01*
X169635983Y-74048363D01*
X169933363Y-73750983D01*
X170167012Y-73401302D01*
X170327953Y-73012756D01*
X170410000Y-72600279D01*
X170410000Y-72179721D01*
X170327953Y-71767244D01*
X170167012Y-71378698D01*
X169933363Y-71029017D01*
X169635983Y-70731637D01*
X169286302Y-70497988D01*
X168897756Y-70337047D01*
X168485279Y-70255000D01*
X168064721Y-70255000D01*
X167652244Y-70337047D01*
X167263698Y-70497988D01*
X166914017Y-70731637D01*
X166616637Y-71029017D01*
X166382988Y-71378698D01*
X166222047Y-71767244D01*
X166140000Y-72179721D01*
X163436135Y-72179721D01*
X163477205Y-72118256D01*
X163555226Y-71929898D01*
X163595000Y-71729939D01*
X163595000Y-71526061D01*
X163555226Y-71326102D01*
X163477205Y-71137744D01*
X163363937Y-70968226D01*
X163320000Y-70924289D01*
X163320000Y-68617322D01*
X163323676Y-68579999D01*
X163320000Y-68542676D01*
X163320000Y-68542667D01*
X163309003Y-68431014D01*
X163265546Y-68287753D01*
X163194974Y-68155724D01*
X163147808Y-68098252D01*
X163123799Y-68068996D01*
X163123795Y-68068992D01*
X163100001Y-68039999D01*
X163071008Y-68016205D01*
X161599803Y-66545002D01*
X161576001Y-66515999D01*
X161460276Y-66421026D01*
X161328247Y-66350454D01*
X161184986Y-66306997D01*
X161073333Y-66296000D01*
X161073322Y-66296000D01*
X161036000Y-66292324D01*
X160998678Y-66296000D01*
X91774909Y-66296000D01*
X91768918Y-66281537D01*
X91589987Y-66013748D01*
X91362252Y-65786013D01*
X91094463Y-65607082D01*
X90796912Y-65483832D01*
X90481033Y-65421000D01*
X90158967Y-65421000D01*
X89843088Y-65483832D01*
X89545537Y-65607082D01*
X89277748Y-65786013D01*
X89050013Y-66013748D01*
X88871082Y-66281537D01*
X88865091Y-66296000D01*
X85274909Y-66296000D01*
X85268918Y-66281537D01*
X85089987Y-66013748D01*
X84862252Y-65786013D01*
X84594463Y-65607082D01*
X84296912Y-65483832D01*
X83981033Y-65421000D01*
X83658967Y-65421000D01*
X83343088Y-65483832D01*
X83045537Y-65607082D01*
X82777748Y-65786013D01*
X82550013Y-66013748D01*
X82371082Y-66281537D01*
X82247832Y-66579088D01*
X82185000Y-66894967D01*
X79450000Y-66894967D01*
X79450000Y-46007872D01*
X108255000Y-46007872D01*
X108255000Y-46448128D01*
X108340890Y-46879925D01*
X108509369Y-47286669D01*
X108753962Y-47652729D01*
X109065271Y-47964038D01*
X109431331Y-48208631D01*
X109838075Y-48377110D01*
X110269872Y-48463000D01*
X110710128Y-48463000D01*
X111141925Y-48377110D01*
X111548669Y-48208631D01*
X111914729Y-47964038D01*
X112226038Y-47652729D01*
X112470631Y-47286669D01*
X112639110Y-46879925D01*
X112725000Y-46448128D01*
X112725000Y-46007872D01*
X166675000Y-46007872D01*
X166675000Y-46448128D01*
X166760890Y-46879925D01*
X166929369Y-47286669D01*
X167173962Y-47652729D01*
X167485271Y-47964038D01*
X167851331Y-48208631D01*
X168258075Y-48377110D01*
X168689872Y-48463000D01*
X169130128Y-48463000D01*
X169561925Y-48377110D01*
X169968669Y-48208631D01*
X170334729Y-47964038D01*
X170646038Y-47652729D01*
X170890631Y-47286669D01*
X171059110Y-46879925D01*
X171145000Y-46448128D01*
X171145000Y-46007872D01*
X171059110Y-45576075D01*
X170890631Y-45169331D01*
X170646038Y-44803271D01*
X170334729Y-44491962D01*
X169968669Y-44247369D01*
X169561925Y-44078890D01*
X169130128Y-43993000D01*
X168689872Y-43993000D01*
X168258075Y-44078890D01*
X167851331Y-44247369D01*
X167485271Y-44491962D01*
X167173962Y-44803271D01*
X166929369Y-45169331D01*
X166760890Y-45576075D01*
X166675000Y-46007872D01*
X112725000Y-46007872D01*
X112639110Y-45576075D01*
X112470631Y-45169331D01*
X112226038Y-44803271D01*
X111914729Y-44491962D01*
X111548669Y-44247369D01*
X111141925Y-44078890D01*
X110710128Y-43993000D01*
X110269872Y-43993000D01*
X109838075Y-44078890D01*
X109431331Y-44247369D01*
X109065271Y-44491962D01*
X108753962Y-44803271D01*
X108509369Y-45169331D01*
X108340890Y-45576075D01*
X108255000Y-46007872D01*
X79450000Y-46007872D01*
X79450000Y-41124728D01*
X79535476Y-41554446D01*
X79771799Y-42124979D01*
X80114886Y-42638446D01*
X80551554Y-43075114D01*
X81065021Y-43418201D01*
X81635554Y-43654524D01*
X82241229Y-43775000D01*
X82858771Y-43775000D01*
X83464446Y-43654524D01*
X84034979Y-43418201D01*
X84548446Y-43075114D01*
X84985114Y-42638446D01*
X85328201Y-42124979D01*
X85564524Y-41554446D01*
X85685000Y-40948771D01*
X85685000Y-40429721D01*
X95020000Y-40429721D01*
X95020000Y-40850279D01*
X95102047Y-41262756D01*
X95262988Y-41651302D01*
X95496637Y-42000983D01*
X95794017Y-42298363D01*
X96143698Y-42532012D01*
X96532244Y-42692953D01*
X96944721Y-42775000D01*
X97365279Y-42775000D01*
X97777756Y-42692953D01*
X98166302Y-42532012D01*
X98515983Y-42298363D01*
X98813363Y-42000983D01*
X99047012Y-41651302D01*
X99207953Y-41262756D01*
X99290000Y-40850279D01*
X99290000Y-40429721D01*
X126770000Y-40429721D01*
X126770000Y-40850279D01*
X126852047Y-41262756D01*
X127012988Y-41651302D01*
X127246637Y-42000983D01*
X127544017Y-42298363D01*
X127893698Y-42532012D01*
X128282244Y-42692953D01*
X128694721Y-42775000D01*
X129115279Y-42775000D01*
X129527756Y-42692953D01*
X129916302Y-42532012D01*
X130265983Y-42298363D01*
X130563363Y-42000983D01*
X130797012Y-41651302D01*
X130957953Y-41262756D01*
X131040000Y-40850279D01*
X131040000Y-40429721D01*
X134390000Y-40429721D01*
X134390000Y-40850279D01*
X134472047Y-41262756D01*
X134632988Y-41651302D01*
X134866637Y-42000983D01*
X135164017Y-42298363D01*
X135513698Y-42532012D01*
X135902244Y-42692953D01*
X136314721Y-42775000D01*
X136735279Y-42775000D01*
X137147756Y-42692953D01*
X137536302Y-42532012D01*
X137885983Y-42298363D01*
X138183363Y-42000983D01*
X138417012Y-41651302D01*
X138577953Y-41262756D01*
X138660000Y-40850279D01*
X138660000Y-40429721D01*
X166140000Y-40429721D01*
X166140000Y-40850279D01*
X166222047Y-41262756D01*
X166382988Y-41651302D01*
X166616637Y-42000983D01*
X166914017Y-42298363D01*
X167263698Y-42532012D01*
X167652244Y-42692953D01*
X168064721Y-42775000D01*
X168485279Y-42775000D01*
X168897756Y-42692953D01*
X169286302Y-42532012D01*
X169635983Y-42298363D01*
X169933363Y-42000983D01*
X170167012Y-41651302D01*
X170270276Y-41402000D01*
X175200000Y-41402000D01*
X175200000Y-41677000D01*
X175248507Y-41915496D01*
X175342610Y-42139946D01*
X175478693Y-42341725D01*
X175651526Y-42513078D01*
X175854467Y-42647421D01*
X176079718Y-42739591D01*
X176117391Y-42743462D01*
X176308000Y-42618731D01*
X176308000Y-41402000D01*
X175200000Y-41402000D01*
X170270276Y-41402000D01*
X170327953Y-41262756D01*
X170405480Y-40873000D01*
X175200000Y-40873000D01*
X175200000Y-41148000D01*
X176308000Y-41148000D01*
X176308000Y-39931269D01*
X176117391Y-39806538D01*
X176079718Y-39810409D01*
X175854467Y-39902579D01*
X175651526Y-40036922D01*
X175478693Y-40208275D01*
X175342610Y-40410054D01*
X175248507Y-40634504D01*
X175200000Y-40873000D01*
X170405480Y-40873000D01*
X170410000Y-40850279D01*
X170410000Y-40429721D01*
X170327953Y-40017244D01*
X170167012Y-39628698D01*
X169933363Y-39279017D01*
X169635983Y-38981637D01*
X169286302Y-38747988D01*
X168897756Y-38587047D01*
X168485279Y-38505000D01*
X168064721Y-38505000D01*
X167652244Y-38587047D01*
X167263698Y-38747988D01*
X166914017Y-38981637D01*
X166616637Y-39279017D01*
X166382988Y-39628698D01*
X166222047Y-40017244D01*
X166140000Y-40429721D01*
X138660000Y-40429721D01*
X138577953Y-40017244D01*
X138417012Y-39628698D01*
X138183363Y-39279017D01*
X137885983Y-38981637D01*
X137536302Y-38747988D01*
X137147756Y-38587047D01*
X136735279Y-38505000D01*
X136314721Y-38505000D01*
X135902244Y-38587047D01*
X135513698Y-38747988D01*
X135164017Y-38981637D01*
X134866637Y-39279017D01*
X134632988Y-39628698D01*
X134472047Y-40017244D01*
X134390000Y-40429721D01*
X131040000Y-40429721D01*
X130957953Y-40017244D01*
X130797012Y-39628698D01*
X130563363Y-39279017D01*
X130265983Y-38981637D01*
X129916302Y-38747988D01*
X129527756Y-38587047D01*
X129115279Y-38505000D01*
X128694721Y-38505000D01*
X128282244Y-38587047D01*
X127893698Y-38747988D01*
X127544017Y-38981637D01*
X127246637Y-39279017D01*
X127012988Y-39628698D01*
X126852047Y-40017244D01*
X126770000Y-40429721D01*
X99290000Y-40429721D01*
X99207953Y-40017244D01*
X99047012Y-39628698D01*
X98813363Y-39279017D01*
X98515983Y-38981637D01*
X98166302Y-38747988D01*
X97777756Y-38587047D01*
X97365279Y-38505000D01*
X96944721Y-38505000D01*
X96532244Y-38587047D01*
X96143698Y-38747988D01*
X95794017Y-38981637D01*
X95496637Y-39279017D01*
X95262988Y-39628698D01*
X95102047Y-40017244D01*
X95020000Y-40429721D01*
X85685000Y-40429721D01*
X85685000Y-40331229D01*
X85564524Y-39725554D01*
X85328201Y-39155021D01*
X84985114Y-38641554D01*
X84548446Y-38204886D01*
X84503718Y-38175000D01*
X194896282Y-38175000D01*
X194851554Y-38204886D01*
G37*
%TD.AperFunction*%
D21*
X147113004Y-112958993D02*
X147224657Y-112969990D01*
X147224665Y-112969990D01*
X147261990Y-112973666D01*
X147299315Y-112969990D01*
X149718142Y-112969990D01*
X149675518Y-112974188D01*
X149555820Y-113010498D01*
X149445506Y-113069463D01*
X149348815Y-113148815D01*
X149269463Y-113245506D01*
X149210498Y-113355820D01*
X149174188Y-113475518D01*
X149161928Y-113600000D01*
X149165000Y-114014250D01*
X149323750Y-114173000D01*
X150273000Y-114173000D01*
X150273000Y-114153000D01*
X150527000Y-114153000D01*
X150527000Y-114173000D01*
X150547000Y-114173000D01*
X150547000Y-114427000D01*
X150527000Y-114427000D01*
X150527000Y-115476250D01*
X150685750Y-115635000D01*
X151000000Y-115638072D01*
X151124482Y-115625812D01*
X151244180Y-115589502D01*
X151354494Y-115530537D01*
X151451185Y-115451185D01*
X151475363Y-115421724D01*
X151556613Y-115488405D01*
X151710149Y-115570472D01*
X151876745Y-115621008D01*
X152049999Y-115638072D01*
X152750001Y-115638072D01*
X152923255Y-115621008D01*
X153089851Y-115570472D01*
X153243387Y-115488405D01*
X153377962Y-115377962D01*
X153488405Y-115243387D01*
X153570472Y-115089851D01*
X153579527Y-115060000D01*
X155120178Y-115060000D01*
X155157500Y-115063676D01*
X155194822Y-115060000D01*
X155194833Y-115060000D01*
X155306486Y-115049003D01*
X155449747Y-115005546D01*
X155581776Y-114934974D01*
X155697501Y-114840001D01*
X155721304Y-114810998D01*
X155934229Y-114598072D01*
X156615126Y-114598072D01*
X151577199Y-119636000D01*
X147611323Y-119636000D01*
X147574000Y-119632324D01*
X147536677Y-119636000D01*
X147536667Y-119636000D01*
X147425014Y-119646997D01*
X147281753Y-119690454D01*
X147149723Y-119761026D01*
X147066083Y-119829668D01*
X147033999Y-119855999D01*
X147010201Y-119884997D01*
X145836122Y-121059077D01*
X145679888Y-121028000D01*
X145404112Y-121028000D01*
X145133635Y-121081801D01*
X144878851Y-121187336D01*
X144649552Y-121340549D01*
X144454549Y-121535552D01*
X144301336Y-121764851D01*
X144272000Y-121835674D01*
X144242664Y-121764851D01*
X144089451Y-121535552D01*
X143894448Y-121340549D01*
X143762000Y-121252050D01*
X143762000Y-120687322D01*
X143765676Y-120649999D01*
X143762000Y-120612676D01*
X143762000Y-120612667D01*
X143751003Y-120501014D01*
X143707546Y-120357753D01*
X143636974Y-120225724D01*
X143568630Y-120142446D01*
X143565799Y-120138996D01*
X143565795Y-120138992D01*
X143542001Y-120109999D01*
X143513008Y-120086205D01*
X139624215Y-116197413D01*
X140958192Y-116197413D01*
X141053956Y-116461814D01*
X141343571Y-116602704D01*
X141655108Y-116684384D01*
X141976595Y-116703718D01*
X142295675Y-116659961D01*
X142600088Y-116554795D01*
X142774044Y-116461814D01*
X142869808Y-116197413D01*
X141914000Y-115241605D01*
X140958192Y-116197413D01*
X139624215Y-116197413D01*
X138980177Y-115553376D01*
X138986168Y-115538912D01*
X139049000Y-115223033D01*
X139049000Y-115124595D01*
X140272282Y-115124595D01*
X140316039Y-115443675D01*
X140421205Y-115748088D01*
X140514186Y-115922044D01*
X140778587Y-116017808D01*
X141734395Y-115062000D01*
X142093605Y-115062000D01*
X143049413Y-116017808D01*
X143313814Y-115922044D01*
X143454704Y-115632429D01*
X143536384Y-115320892D01*
X143555682Y-115000000D01*
X149161928Y-115000000D01*
X149174188Y-115124482D01*
X149210498Y-115244180D01*
X149269463Y-115354494D01*
X149348815Y-115451185D01*
X149445506Y-115530537D01*
X149555820Y-115589502D01*
X149675518Y-115625812D01*
X149800000Y-115638072D01*
X150114250Y-115635000D01*
X150273000Y-115476250D01*
X150273000Y-114427000D01*
X149323750Y-114427000D01*
X149165000Y-114585750D01*
X149161928Y-115000000D01*
X143555682Y-115000000D01*
X143555718Y-114999405D01*
X143511961Y-114680325D01*
X143406795Y-114375912D01*
X143313814Y-114201956D01*
X143049413Y-114106192D01*
X142093605Y-115062000D01*
X141734395Y-115062000D01*
X140778587Y-114106192D01*
X140514186Y-114201956D01*
X140373296Y-114491571D01*
X140291616Y-114803108D01*
X140272282Y-115124595D01*
X139049000Y-115124595D01*
X139049000Y-114900967D01*
X138986168Y-114585088D01*
X138862918Y-114287537D01*
X138683987Y-114019748D01*
X138590826Y-113926587D01*
X140958192Y-113926587D01*
X141914000Y-114882395D01*
X142869808Y-113926587D01*
X142774044Y-113662186D01*
X142484429Y-113521296D01*
X142172892Y-113439616D01*
X141851405Y-113420282D01*
X141532325Y-113464039D01*
X141227912Y-113569205D01*
X141053956Y-113662186D01*
X140958192Y-113926587D01*
X138590826Y-113926587D01*
X138456252Y-113792013D01*
X138188463Y-113613082D01*
X137890912Y-113489832D01*
X137575033Y-113427000D01*
X137252967Y-113427000D01*
X136937088Y-113489832D01*
X136639537Y-113613082D01*
X136371748Y-113792013D01*
X136144013Y-114019748D01*
X135965082Y-114287537D01*
X135841832Y-114585088D01*
X135779000Y-114900967D01*
X135779000Y-115223033D01*
X135841832Y-115538912D01*
X135965082Y-115836463D01*
X136144013Y-116104252D01*
X136371748Y-116331987D01*
X136639537Y-116510918D01*
X136937088Y-116634168D01*
X137252967Y-116697000D01*
X137575033Y-116697000D01*
X137890912Y-116634168D01*
X137905376Y-116628177D01*
X142242001Y-120964804D01*
X142242001Y-121252049D01*
X142109552Y-121340549D01*
X141914549Y-121535552D01*
X141761336Y-121764851D01*
X141732000Y-121835674D01*
X141702664Y-121764851D01*
X141549451Y-121535552D01*
X141354448Y-121340549D01*
X141125149Y-121187336D01*
X140870365Y-121081801D01*
X140599888Y-121028000D01*
X140324112Y-121028000D01*
X140167878Y-121059077D01*
X138993804Y-119885003D01*
X138970001Y-119855999D01*
X138854276Y-119761026D01*
X138722247Y-119690454D01*
X138578986Y-119646997D01*
X138467333Y-119636000D01*
X138467322Y-119636000D01*
X138430000Y-119632324D01*
X138392678Y-119636000D01*
X127195711Y-119636000D01*
X127151774Y-119592063D01*
X126982256Y-119478795D01*
X126793898Y-119400774D01*
X126593939Y-119361000D01*
X126390061Y-119361000D01*
X126190102Y-119400774D01*
X126001744Y-119478795D01*
X125982000Y-119491987D01*
X125982000Y-117848111D01*
X130896622Y-112933490D01*
X147028930Y-112933490D01*
X147113004Y-112958993D01*
%TA.AperFunction,Conductor*%
D22*
G36*
X147113004Y-112958993D02*
G01*
X147224657Y-112969990D01*
X147224665Y-112969990D01*
X147261990Y-112973666D01*
X147299315Y-112969990D01*
X149718142Y-112969990D01*
X149675518Y-112974188D01*
X149555820Y-113010498D01*
X149445506Y-113069463D01*
X149348815Y-113148815D01*
X149269463Y-113245506D01*
X149210498Y-113355820D01*
X149174188Y-113475518D01*
X149161928Y-113600000D01*
X149165000Y-114014250D01*
X149323750Y-114173000D01*
X150273000Y-114173000D01*
X150273000Y-114153000D01*
X150527000Y-114153000D01*
X150527000Y-114173000D01*
X150547000Y-114173000D01*
X150547000Y-114427000D01*
X150527000Y-114427000D01*
X150527000Y-115476250D01*
X150685750Y-115635000D01*
X151000000Y-115638072D01*
X151124482Y-115625812D01*
X151244180Y-115589502D01*
X151354494Y-115530537D01*
X151451185Y-115451185D01*
X151475363Y-115421724D01*
X151556613Y-115488405D01*
X151710149Y-115570472D01*
X151876745Y-115621008D01*
X152049999Y-115638072D01*
X152750001Y-115638072D01*
X152923255Y-115621008D01*
X153089851Y-115570472D01*
X153243387Y-115488405D01*
X153377962Y-115377962D01*
X153488405Y-115243387D01*
X153570472Y-115089851D01*
X153579527Y-115060000D01*
X155120178Y-115060000D01*
X155157500Y-115063676D01*
X155194822Y-115060000D01*
X155194833Y-115060000D01*
X155306486Y-115049003D01*
X155449747Y-115005546D01*
X155581776Y-114934974D01*
X155697501Y-114840001D01*
X155721304Y-114810998D01*
X155934229Y-114598072D01*
X156615126Y-114598072D01*
X151577199Y-119636000D01*
X147611323Y-119636000D01*
X147574000Y-119632324D01*
X147536677Y-119636000D01*
X147536667Y-119636000D01*
X147425014Y-119646997D01*
X147281753Y-119690454D01*
X147149723Y-119761026D01*
X147066083Y-119829668D01*
X147033999Y-119855999D01*
X147010201Y-119884997D01*
X145836122Y-121059077D01*
X145679888Y-121028000D01*
X145404112Y-121028000D01*
X145133635Y-121081801D01*
X144878851Y-121187336D01*
X144649552Y-121340549D01*
X144454549Y-121535552D01*
X144301336Y-121764851D01*
X144272000Y-121835674D01*
X144242664Y-121764851D01*
X144089451Y-121535552D01*
X143894448Y-121340549D01*
X143762000Y-121252050D01*
X143762000Y-120687322D01*
X143765676Y-120649999D01*
X143762000Y-120612676D01*
X143762000Y-120612667D01*
X143751003Y-120501014D01*
X143707546Y-120357753D01*
X143636974Y-120225724D01*
X143568630Y-120142446D01*
X143565799Y-120138996D01*
X143565795Y-120138992D01*
X143542001Y-120109999D01*
X143513008Y-120086205D01*
X139624215Y-116197413D01*
X140958192Y-116197413D01*
X141053956Y-116461814D01*
X141343571Y-116602704D01*
X141655108Y-116684384D01*
X141976595Y-116703718D01*
X142295675Y-116659961D01*
X142600088Y-116554795D01*
X142774044Y-116461814D01*
X142869808Y-116197413D01*
X141914000Y-115241605D01*
X140958192Y-116197413D01*
X139624215Y-116197413D01*
X138980177Y-115553376D01*
X138986168Y-115538912D01*
X139049000Y-115223033D01*
X139049000Y-115124595D01*
X140272282Y-115124595D01*
X140316039Y-115443675D01*
X140421205Y-115748088D01*
X140514186Y-115922044D01*
X140778587Y-116017808D01*
X141734395Y-115062000D01*
X142093605Y-115062000D01*
X143049413Y-116017808D01*
X143313814Y-115922044D01*
X143454704Y-115632429D01*
X143536384Y-115320892D01*
X143555682Y-115000000D01*
X149161928Y-115000000D01*
X149174188Y-115124482D01*
X149210498Y-115244180D01*
X149269463Y-115354494D01*
X149348815Y-115451185D01*
X149445506Y-115530537D01*
X149555820Y-115589502D01*
X149675518Y-115625812D01*
X149800000Y-115638072D01*
X150114250Y-115635000D01*
X150273000Y-115476250D01*
X150273000Y-114427000D01*
X149323750Y-114427000D01*
X149165000Y-114585750D01*
X149161928Y-115000000D01*
X143555682Y-115000000D01*
X143555718Y-114999405D01*
X143511961Y-114680325D01*
X143406795Y-114375912D01*
X143313814Y-114201956D01*
X143049413Y-114106192D01*
X142093605Y-115062000D01*
X141734395Y-115062000D01*
X140778587Y-114106192D01*
X140514186Y-114201956D01*
X140373296Y-114491571D01*
X140291616Y-114803108D01*
X140272282Y-115124595D01*
X139049000Y-115124595D01*
X139049000Y-114900967D01*
X138986168Y-114585088D01*
X138862918Y-114287537D01*
X138683987Y-114019748D01*
X138590826Y-113926587D01*
X140958192Y-113926587D01*
X141914000Y-114882395D01*
X142869808Y-113926587D01*
X142774044Y-113662186D01*
X142484429Y-113521296D01*
X142172892Y-113439616D01*
X141851405Y-113420282D01*
X141532325Y-113464039D01*
X141227912Y-113569205D01*
X141053956Y-113662186D01*
X140958192Y-113926587D01*
X138590826Y-113926587D01*
X138456252Y-113792013D01*
X138188463Y-113613082D01*
X137890912Y-113489832D01*
X137575033Y-113427000D01*
X137252967Y-113427000D01*
X136937088Y-113489832D01*
X136639537Y-113613082D01*
X136371748Y-113792013D01*
X136144013Y-114019748D01*
X135965082Y-114287537D01*
X135841832Y-114585088D01*
X135779000Y-114900967D01*
X135779000Y-115223033D01*
X135841832Y-115538912D01*
X135965082Y-115836463D01*
X136144013Y-116104252D01*
X136371748Y-116331987D01*
X136639537Y-116510918D01*
X136937088Y-116634168D01*
X137252967Y-116697000D01*
X137575033Y-116697000D01*
X137890912Y-116634168D01*
X137905376Y-116628177D01*
X142242001Y-120964804D01*
X142242001Y-121252049D01*
X142109552Y-121340549D01*
X141914549Y-121535552D01*
X141761336Y-121764851D01*
X141732000Y-121835674D01*
X141702664Y-121764851D01*
X141549451Y-121535552D01*
X141354448Y-121340549D01*
X141125149Y-121187336D01*
X140870365Y-121081801D01*
X140599888Y-121028000D01*
X140324112Y-121028000D01*
X140167878Y-121059077D01*
X138993804Y-119885003D01*
X138970001Y-119855999D01*
X138854276Y-119761026D01*
X138722247Y-119690454D01*
X138578986Y-119646997D01*
X138467333Y-119636000D01*
X138467322Y-119636000D01*
X138430000Y-119632324D01*
X138392678Y-119636000D01*
X127195711Y-119636000D01*
X127151774Y-119592063D01*
X126982256Y-119478795D01*
X126793898Y-119400774D01*
X126593939Y-119361000D01*
X126390061Y-119361000D01*
X126190102Y-119400774D01*
X126001744Y-119478795D01*
X125982000Y-119491987D01*
X125982000Y-117848111D01*
X130896622Y-112933490D01*
X147028930Y-112933490D01*
X147113004Y-112958993D01*
G37*
%TD.AperFunction*%
D21*
X181932523Y-60251025D02*
X181816798Y-60345998D01*
X181792999Y-60374997D01*
X181278997Y-60889000D01*
X181258462Y-60905852D01*
X181244501Y-60891891D01*
X181128101Y-61008291D01*
X181060760Y-60767894D01*
X180811220Y-60650494D01*
X180543573Y-60584033D01*
X180268101Y-60571064D01*
X179995393Y-60612086D01*
X179735928Y-60705522D01*
X179619240Y-60767894D01*
X179551898Y-61008293D01*
X180340000Y-61796395D01*
X180354143Y-61782253D01*
X180533748Y-61961858D01*
X180519605Y-61976000D01*
X180533748Y-61990143D01*
X180354143Y-62169748D01*
X180340000Y-62155605D01*
X179551898Y-62943707D01*
X179619240Y-63184106D01*
X179868780Y-63301506D01*
X180136427Y-63367967D01*
X180411899Y-63380936D01*
X180684607Y-63339914D01*
X180944072Y-63246478D01*
X181030000Y-63200548D01*
X181029999Y-74055609D01*
X157732000Y-97353609D01*
X157732000Y-90230801D01*
X175771004Y-72191798D01*
X175800001Y-72168001D01*
X175894974Y-72052276D01*
X175965546Y-71920247D01*
X176009003Y-71776986D01*
X176020000Y-71665333D01*
X176020000Y-71665332D01*
X176023677Y-71628000D01*
X176020000Y-71590667D01*
X176020000Y-63151950D01*
X176152448Y-63063451D01*
X176347451Y-62868448D01*
X176500664Y-62639149D01*
X176530000Y-62568326D01*
X176559336Y-62639149D01*
X176712549Y-62868448D01*
X176907552Y-63063451D01*
X177136851Y-63216664D01*
X177391635Y-63322199D01*
X177662112Y-63376000D01*
X177937888Y-63376000D01*
X178208365Y-63322199D01*
X178463149Y-63216664D01*
X178692448Y-63063451D01*
X178887451Y-62868448D01*
X179040664Y-62639149D01*
X179067482Y-62574406D01*
X179069522Y-62580072D01*
X179131894Y-62696760D01*
X179372293Y-62764102D01*
X180160395Y-61976000D01*
X179372293Y-61187898D01*
X179131894Y-61255240D01*
X179070688Y-61385336D01*
X179040664Y-61312851D01*
X178887451Y-61083552D01*
X178692448Y-60888549D01*
X178463149Y-60735336D01*
X178208365Y-60629801D01*
X177937888Y-60576000D01*
X177662112Y-60576000D01*
X177391635Y-60629801D01*
X177136851Y-60735336D01*
X176907552Y-60888549D01*
X176712549Y-61083552D01*
X176559336Y-61312851D01*
X176530000Y-61383674D01*
X176500664Y-61312851D01*
X176347451Y-61083552D01*
X176152448Y-60888549D01*
X175923149Y-60735336D01*
X175668365Y-60629801D01*
X175397888Y-60576000D01*
X175122112Y-60576000D01*
X174851635Y-60629801D01*
X174596851Y-60735336D01*
X174387746Y-60875056D01*
X175066802Y-60196000D01*
X182035466Y-60196000D01*
X181932523Y-60251025D01*
%TA.AperFunction,Conductor*%
D22*
G36*
X181932523Y-60251025D02*
G01*
X181816798Y-60345998D01*
X181792999Y-60374997D01*
X181278997Y-60889000D01*
X181258462Y-60905852D01*
X181244501Y-60891891D01*
X181128101Y-61008291D01*
X181060760Y-60767894D01*
X180811220Y-60650494D01*
X180543573Y-60584033D01*
X180268101Y-60571064D01*
X179995393Y-60612086D01*
X179735928Y-60705522D01*
X179619240Y-60767894D01*
X179551898Y-61008293D01*
X180340000Y-61796395D01*
X180354143Y-61782253D01*
X180533748Y-61961858D01*
X180519605Y-61976000D01*
X180533748Y-61990143D01*
X180354143Y-62169748D01*
X180340000Y-62155605D01*
X179551898Y-62943707D01*
X179619240Y-63184106D01*
X179868780Y-63301506D01*
X180136427Y-63367967D01*
X180411899Y-63380936D01*
X180684607Y-63339914D01*
X180944072Y-63246478D01*
X181030000Y-63200548D01*
X181029999Y-74055609D01*
X157732000Y-97353609D01*
X157732000Y-90230801D01*
X175771004Y-72191798D01*
X175800001Y-72168001D01*
X175894974Y-72052276D01*
X175965546Y-71920247D01*
X176009003Y-71776986D01*
X176020000Y-71665333D01*
X176020000Y-71665332D01*
X176023677Y-71628000D01*
X176020000Y-71590667D01*
X176020000Y-63151950D01*
X176152448Y-63063451D01*
X176347451Y-62868448D01*
X176500664Y-62639149D01*
X176530000Y-62568326D01*
X176559336Y-62639149D01*
X176712549Y-62868448D01*
X176907552Y-63063451D01*
X177136851Y-63216664D01*
X177391635Y-63322199D01*
X177662112Y-63376000D01*
X177937888Y-63376000D01*
X178208365Y-63322199D01*
X178463149Y-63216664D01*
X178692448Y-63063451D01*
X178887451Y-62868448D01*
X179040664Y-62639149D01*
X179067482Y-62574406D01*
X179069522Y-62580072D01*
X179131894Y-62696760D01*
X179372293Y-62764102D01*
X180160395Y-61976000D01*
X179372293Y-61187898D01*
X179131894Y-61255240D01*
X179070688Y-61385336D01*
X179040664Y-61312851D01*
X178887451Y-61083552D01*
X178692448Y-60888549D01*
X178463149Y-60735336D01*
X178208365Y-60629801D01*
X177937888Y-60576000D01*
X177662112Y-60576000D01*
X177391635Y-60629801D01*
X177136851Y-60735336D01*
X176907552Y-60888549D01*
X176712549Y-61083552D01*
X176559336Y-61312851D01*
X176530000Y-61383674D01*
X176500664Y-61312851D01*
X176347451Y-61083552D01*
X176152448Y-60888549D01*
X175923149Y-60735336D01*
X175668365Y-60629801D01*
X175397888Y-60576000D01*
X175122112Y-60576000D01*
X174851635Y-60629801D01*
X174596851Y-60735336D01*
X174387746Y-60875056D01*
X175066802Y-60196000D01*
X182035466Y-60196000D01*
X181932523Y-60251025D01*
G37*
%TD.AperFunction*%
%TD*%
M02*
