%TF.GenerationSoftware,KiCad,Pcbnew,5.1.9+dfsg1-1*%
%TF.CreationDate,2021-10-03T17:17:10+00:00*%
%TF.ProjectId,st_pat,73745f70-6174-42e6-9b69-6361645f7063,rev?*%
%TF.SameCoordinates,Original*%
%TF.FileFunction,Legend,Bot*%
%TF.FilePolarity,Positive*%
%FSLAX46Y46*%
G04 Gerber Fmt 4.6, Leading zero omitted, Abs format (unit mm)*
G04 Created by KiCad (PCBNEW 5.1.9+dfsg1-1) date 2021-10-03 17:17:10*
%MOMM*%
%LPD*%
G01*
G04 APERTURE LIST*
%ADD10C,0.150000*%
%ADD11C,0.010000*%
%ADD12C,0.127000*%
%ADD13C,0.120000*%
%ADD14C,0.015000*%
G04 APERTURE END LIST*
D10*
X188180023Y-116293761D02*
X188037166Y-116341380D01*
X187799071Y-116341380D01*
X187703833Y-116293761D01*
X187656214Y-116246142D01*
X187608595Y-116150904D01*
X187608595Y-116055666D01*
X187656214Y-115960428D01*
X187703833Y-115912809D01*
X187799071Y-115865190D01*
X187989547Y-115817571D01*
X188084785Y-115769952D01*
X188132404Y-115722333D01*
X188180023Y-115627095D01*
X188180023Y-115531857D01*
X188132404Y-115436619D01*
X188084785Y-115389000D01*
X187989547Y-115341380D01*
X187751452Y-115341380D01*
X187608595Y-115389000D01*
X187322880Y-115674714D02*
X186941928Y-115674714D01*
X187180023Y-115341380D02*
X187180023Y-116198523D01*
X187132404Y-116293761D01*
X187037166Y-116341380D01*
X186941928Y-116341380D01*
X185846690Y-116341380D02*
X185846690Y-115341380D01*
X185465738Y-115341380D01*
X185370500Y-115389000D01*
X185322880Y-115436619D01*
X185275261Y-115531857D01*
X185275261Y-115674714D01*
X185322880Y-115769952D01*
X185370500Y-115817571D01*
X185465738Y-115865190D01*
X185846690Y-115865190D01*
X184418119Y-116341380D02*
X184418119Y-115817571D01*
X184465738Y-115722333D01*
X184560976Y-115674714D01*
X184751452Y-115674714D01*
X184846690Y-115722333D01*
X184418119Y-116293761D02*
X184513357Y-116341380D01*
X184751452Y-116341380D01*
X184846690Y-116293761D01*
X184894309Y-116198523D01*
X184894309Y-116103285D01*
X184846690Y-116008047D01*
X184751452Y-115960428D01*
X184513357Y-115960428D01*
X184418119Y-115912809D01*
X184084785Y-115674714D02*
X183703833Y-115674714D01*
X183941928Y-115341380D02*
X183941928Y-116198523D01*
X183894309Y-116293761D01*
X183799071Y-116341380D01*
X183703833Y-116341380D01*
X183418119Y-116293761D02*
X183322880Y-116341380D01*
X183132404Y-116341380D01*
X183037166Y-116293761D01*
X182989547Y-116198523D01*
X182989547Y-116150904D01*
X183037166Y-116055666D01*
X183132404Y-116008047D01*
X183275261Y-116008047D01*
X183370500Y-115960428D01*
X183418119Y-115865190D01*
X183418119Y-115817571D01*
X183370500Y-115722333D01*
X183275261Y-115674714D01*
X183132404Y-115674714D01*
X183037166Y-115722333D01*
X187560976Y-117991380D02*
X187894309Y-117515190D01*
X188132404Y-117991380D02*
X188132404Y-116991380D01*
X187751452Y-116991380D01*
X187656214Y-117039000D01*
X187608595Y-117086619D01*
X187560976Y-117181857D01*
X187560976Y-117324714D01*
X187608595Y-117419952D01*
X187656214Y-117467571D01*
X187751452Y-117515190D01*
X188132404Y-117515190D01*
X187132404Y-117991380D02*
X187132404Y-117324714D01*
X187132404Y-116991380D02*
X187180023Y-117039000D01*
X187132404Y-117086619D01*
X187084785Y-117039000D01*
X187132404Y-116991380D01*
X187132404Y-117086619D01*
X186513357Y-117991380D02*
X186608595Y-117943761D01*
X186656214Y-117896142D01*
X186703833Y-117800904D01*
X186703833Y-117515190D01*
X186656214Y-117419952D01*
X186608595Y-117372333D01*
X186513357Y-117324714D01*
X186370500Y-117324714D01*
X186275261Y-117372333D01*
X186227642Y-117419952D01*
X186180023Y-117515190D01*
X186180023Y-117800904D01*
X186227642Y-117896142D01*
X186275261Y-117943761D01*
X186370500Y-117991380D01*
X186513357Y-117991380D01*
X184513357Y-117991380D02*
X184989547Y-117991380D01*
X184989547Y-116991380D01*
X184180023Y-117991380D02*
X184180023Y-117324714D01*
X184180023Y-116991380D02*
X184227642Y-117039000D01*
X184180023Y-117086619D01*
X184132404Y-117039000D01*
X184180023Y-116991380D01*
X184180023Y-117086619D01*
X183275261Y-117324714D02*
X183275261Y-117991380D01*
X183703833Y-117324714D02*
X183703833Y-117848523D01*
X183656214Y-117943761D01*
X183560976Y-117991380D01*
X183418119Y-117991380D01*
X183322880Y-117943761D01*
X183275261Y-117896142D01*
X188227642Y-118641380D02*
X187989547Y-119641380D01*
X187799071Y-118927095D01*
X187608595Y-119641380D01*
X187370500Y-118641380D01*
X186560976Y-119641380D02*
X186560976Y-119117571D01*
X186608595Y-119022333D01*
X186703833Y-118974714D01*
X186894309Y-118974714D01*
X186989547Y-119022333D01*
X186560976Y-119593761D02*
X186656214Y-119641380D01*
X186894309Y-119641380D01*
X186989547Y-119593761D01*
X187037166Y-119498523D01*
X187037166Y-119403285D01*
X186989547Y-119308047D01*
X186894309Y-119260428D01*
X186656214Y-119260428D01*
X186560976Y-119212809D01*
X186227642Y-118974714D02*
X185846690Y-118974714D01*
X186084785Y-118641380D02*
X186084785Y-119498523D01*
X186037166Y-119593761D01*
X185941928Y-119641380D01*
X185846690Y-119641380D01*
X185132404Y-119593761D02*
X185227642Y-119641380D01*
X185418119Y-119641380D01*
X185513357Y-119593761D01*
X185560976Y-119498523D01*
X185560976Y-119117571D01*
X185513357Y-119022333D01*
X185418119Y-118974714D01*
X185227642Y-118974714D01*
X185132404Y-119022333D01*
X185084785Y-119117571D01*
X185084785Y-119212809D01*
X185560976Y-119308047D01*
X184656214Y-119641380D02*
X184656214Y-118974714D01*
X184656214Y-119165190D02*
X184608595Y-119069952D01*
X184560976Y-119022333D01*
X184465738Y-118974714D01*
X184370500Y-118974714D01*
X183894309Y-119641380D02*
X183989547Y-119593761D01*
X184037166Y-119498523D01*
X184037166Y-118641380D01*
X183370500Y-119641380D02*
X183465738Y-119593761D01*
X183513357Y-119546142D01*
X183560976Y-119450904D01*
X183560976Y-119165190D01*
X183513357Y-119069952D01*
X183465738Y-119022333D01*
X183370500Y-118974714D01*
X183227642Y-118974714D01*
X183132404Y-119022333D01*
X183084785Y-119069952D01*
X183037166Y-119165190D01*
X183037166Y-119450904D01*
X183084785Y-119546142D01*
X183132404Y-119593761D01*
X183227642Y-119641380D01*
X183370500Y-119641380D01*
X182465738Y-119641380D02*
X182560976Y-119593761D01*
X182608595Y-119546142D01*
X182656214Y-119450904D01*
X182656214Y-119165190D01*
X182608595Y-119069952D01*
X182560976Y-119022333D01*
X182465738Y-118974714D01*
X182322880Y-118974714D01*
X182227642Y-119022333D01*
X182180023Y-119069952D01*
X182132404Y-119165190D01*
X182132404Y-119450904D01*
X182180023Y-119546142D01*
X182227642Y-119593761D01*
X182322880Y-119641380D01*
X182465738Y-119641380D01*
X180370500Y-119641380D02*
X180703833Y-119165190D01*
X180941928Y-119641380D02*
X180941928Y-118641380D01*
X180560976Y-118641380D01*
X180465738Y-118689000D01*
X180418119Y-118736619D01*
X180370500Y-118831857D01*
X180370500Y-118974714D01*
X180418119Y-119069952D01*
X180465738Y-119117571D01*
X180560976Y-119165190D01*
X180941928Y-119165190D01*
X179799071Y-119641380D02*
X179894309Y-119593761D01*
X179941928Y-119546142D01*
X179989547Y-119450904D01*
X179989547Y-119165190D01*
X179941928Y-119069952D01*
X179894309Y-119022333D01*
X179799071Y-118974714D01*
X179656214Y-118974714D01*
X179560976Y-119022333D01*
X179513357Y-119069952D01*
X179465738Y-119165190D01*
X179465738Y-119450904D01*
X179513357Y-119546142D01*
X179560976Y-119593761D01*
X179656214Y-119641380D01*
X179799071Y-119641380D01*
X178608595Y-119593761D02*
X178703833Y-119641380D01*
X178894309Y-119641380D01*
X178989547Y-119593761D01*
X179037166Y-119546142D01*
X179084785Y-119450904D01*
X179084785Y-119165190D01*
X179037166Y-119069952D01*
X178989547Y-119022333D01*
X178894309Y-118974714D01*
X178703833Y-118974714D01*
X178608595Y-119022333D01*
X178180023Y-119641380D02*
X178180023Y-118641380D01*
X178084785Y-119260428D02*
X177799071Y-119641380D01*
X177799071Y-118974714D02*
X178180023Y-119355666D01*
X176989547Y-119593761D02*
X177084785Y-119641380D01*
X177275261Y-119641380D01*
X177370500Y-119593761D01*
X177418119Y-119498523D01*
X177418119Y-119117571D01*
X177370500Y-119022333D01*
X177275261Y-118974714D01*
X177084785Y-118974714D01*
X176989547Y-119022333D01*
X176941928Y-119117571D01*
X176941928Y-119212809D01*
X177418119Y-119308047D01*
X176656214Y-118974714D02*
X176275261Y-118974714D01*
X176513357Y-118641380D02*
X176513357Y-119498523D01*
X176465738Y-119593761D01*
X176370500Y-119641380D01*
X176275261Y-119641380D01*
X175941928Y-119641380D02*
X175941928Y-118974714D01*
X175941928Y-119165190D02*
X175894309Y-119069952D01*
X175846690Y-119022333D01*
X175751452Y-118974714D01*
X175656214Y-118974714D01*
X175418119Y-118974714D02*
X175180023Y-119641380D01*
X174941928Y-118974714D02*
X175180023Y-119641380D01*
X175275261Y-119879476D01*
X175322880Y-119927095D01*
X175418119Y-119974714D01*
X188180023Y-120386619D02*
X188132404Y-120339000D01*
X188037166Y-120291380D01*
X187799071Y-120291380D01*
X187703833Y-120339000D01*
X187656214Y-120386619D01*
X187608595Y-120481857D01*
X187608595Y-120577095D01*
X187656214Y-120719952D01*
X188227642Y-121291380D01*
X187608595Y-121291380D01*
X186989547Y-120291380D02*
X186894309Y-120291380D01*
X186799071Y-120339000D01*
X186751452Y-120386619D01*
X186703833Y-120481857D01*
X186656214Y-120672333D01*
X186656214Y-120910428D01*
X186703833Y-121100904D01*
X186751452Y-121196142D01*
X186799071Y-121243761D01*
X186894309Y-121291380D01*
X186989547Y-121291380D01*
X187084785Y-121243761D01*
X187132404Y-121196142D01*
X187180023Y-121100904D01*
X187227642Y-120910428D01*
X187227642Y-120672333D01*
X187180023Y-120481857D01*
X187132404Y-120386619D01*
X187084785Y-120339000D01*
X186989547Y-120291380D01*
X186275261Y-120386619D02*
X186227642Y-120339000D01*
X186132404Y-120291380D01*
X185894309Y-120291380D01*
X185799071Y-120339000D01*
X185751452Y-120386619D01*
X185703833Y-120481857D01*
X185703833Y-120577095D01*
X185751452Y-120719952D01*
X186322880Y-121291380D01*
X185703833Y-121291380D01*
X184751452Y-121291380D02*
X185322880Y-121291380D01*
X185037166Y-121291380D02*
X185037166Y-120291380D01*
X185132404Y-120434238D01*
X185227642Y-120529476D01*
X185322880Y-120577095D01*
X184322880Y-120910428D02*
X183560976Y-120910428D01*
X182894309Y-120291380D02*
X182799071Y-120291380D01*
X182703833Y-120339000D01*
X182656214Y-120386619D01*
X182608595Y-120481857D01*
X182560976Y-120672333D01*
X182560976Y-120910428D01*
X182608595Y-121100904D01*
X182656214Y-121196142D01*
X182703833Y-121243761D01*
X182799071Y-121291380D01*
X182894309Y-121291380D01*
X182989547Y-121243761D01*
X183037166Y-121196142D01*
X183084785Y-121100904D01*
X183132404Y-120910428D01*
X183132404Y-120672333D01*
X183084785Y-120481857D01*
X183037166Y-120386619D01*
X182989547Y-120339000D01*
X182894309Y-120291380D01*
X182084785Y-121291380D02*
X181894309Y-121291380D01*
X181799071Y-121243761D01*
X181751452Y-121196142D01*
X181656214Y-121053285D01*
X181608595Y-120862809D01*
X181608595Y-120481857D01*
X181656214Y-120386619D01*
X181703833Y-120339000D01*
X181799071Y-120291380D01*
X181989547Y-120291380D01*
X182084785Y-120339000D01*
X182132404Y-120386619D01*
X182180023Y-120481857D01*
X182180023Y-120719952D01*
X182132404Y-120815190D01*
X182084785Y-120862809D01*
X181989547Y-120910428D01*
X181799071Y-120910428D01*
X181703833Y-120862809D01*
X181656214Y-120815190D01*
X181608595Y-120719952D01*
X181180023Y-120910428D02*
X180418119Y-120910428D01*
X179989547Y-120386619D02*
X179941928Y-120339000D01*
X179846690Y-120291380D01*
X179608595Y-120291380D01*
X179513357Y-120339000D01*
X179465738Y-120386619D01*
X179418119Y-120481857D01*
X179418119Y-120577095D01*
X179465738Y-120719952D01*
X180037166Y-121291380D01*
X179418119Y-121291380D01*
X178941928Y-121291380D02*
X178751452Y-121291380D01*
X178656214Y-121243761D01*
X178608595Y-121196142D01*
X178513357Y-121053285D01*
X178465738Y-120862809D01*
X178465738Y-120481857D01*
X178513357Y-120386619D01*
X178560976Y-120339000D01*
X178656214Y-120291380D01*
X178846690Y-120291380D01*
X178941928Y-120339000D01*
X178989547Y-120386619D01*
X179037166Y-120481857D01*
X179037166Y-120719952D01*
X178989547Y-120815190D01*
X178941928Y-120862809D01*
X178846690Y-120910428D01*
X178656214Y-120910428D01*
X178560976Y-120862809D01*
X178513357Y-120815190D01*
X178465738Y-120719952D01*
D11*
%TO.C,G\u002A\u002A\u002A*%
G36*
X185404172Y-103491810D02*
G01*
X185382969Y-103526138D01*
X185350534Y-103580988D01*
X185307966Y-103654430D01*
X185256366Y-103744537D01*
X185196834Y-103849380D01*
X185130470Y-103967029D01*
X185058374Y-104095556D01*
X184981648Y-104233033D01*
X184915106Y-104352787D01*
X184835262Y-104496733D01*
X184759205Y-104633789D01*
X184688035Y-104761976D01*
X184622853Y-104879311D01*
X184564762Y-104983816D01*
X184514862Y-105073509D01*
X184474255Y-105146410D01*
X184444041Y-105200539D01*
X184425322Y-105233916D01*
X184419333Y-105244394D01*
X184410886Y-105247201D01*
X184391181Y-105243900D01*
X184358174Y-105233702D01*
X184309820Y-105215817D01*
X184244077Y-105189456D01*
X184158898Y-105153831D01*
X184052240Y-105108152D01*
X183938435Y-105058770D01*
X183831542Y-105012519D01*
X183732735Y-104970396D01*
X183644891Y-104933580D01*
X183570887Y-104903250D01*
X183513602Y-104880585D01*
X183475914Y-104866763D01*
X183460699Y-104862964D01*
X183460601Y-104863034D01*
X183460640Y-104877846D01*
X183463210Y-104918416D01*
X183468141Y-104982798D01*
X183475258Y-105069044D01*
X183484390Y-105175209D01*
X183495365Y-105299346D01*
X183508010Y-105439509D01*
X183522152Y-105593751D01*
X183537620Y-105760127D01*
X183554240Y-105936690D01*
X183571841Y-106121493D01*
X183574788Y-106152226D01*
X183592559Y-106338115D01*
X183609436Y-106516027D01*
X183625242Y-106684020D01*
X183639802Y-106840154D01*
X183652937Y-106982488D01*
X183664472Y-107109082D01*
X183674231Y-107217995D01*
X183682035Y-107307285D01*
X183687709Y-107375013D01*
X183691077Y-107419238D01*
X183691960Y-107438019D01*
X183691855Y-107438538D01*
X183680697Y-107430621D01*
X183650625Y-107405773D01*
X183603487Y-107365605D01*
X183541133Y-107311726D01*
X183465409Y-107245745D01*
X183378165Y-107169272D01*
X183281249Y-107083918D01*
X183176510Y-106991291D01*
X183083878Y-106909079D01*
X182973784Y-106811387D01*
X182869801Y-106719446D01*
X182773800Y-106634890D01*
X182687652Y-106559352D01*
X182613231Y-106494465D01*
X182552406Y-106441861D01*
X182507051Y-106403174D01*
X182479036Y-106380035D01*
X182470294Y-106373809D01*
X182466045Y-106376925D01*
X182459516Y-106387816D01*
X182449802Y-106408795D01*
X182435998Y-106442177D01*
X182417199Y-106490276D01*
X182392499Y-106555404D01*
X182360994Y-106639877D01*
X182321778Y-106746007D01*
X182276494Y-106869166D01*
X182235147Y-106981784D01*
X182353748Y-107118604D01*
X182506768Y-107299611D01*
X182667267Y-107497790D01*
X182832993Y-107709920D01*
X183001694Y-107932782D01*
X183171121Y-108163156D01*
X183339021Y-108397821D01*
X183503143Y-108633558D01*
X183661236Y-108867146D01*
X183811048Y-109095366D01*
X183950328Y-109314997D01*
X184076826Y-109522819D01*
X184188289Y-109715613D01*
X184255616Y-109838873D01*
X184331199Y-109981245D01*
X184377111Y-109914515D01*
X184464633Y-109777790D01*
X184555323Y-109618444D01*
X184647001Y-109441174D01*
X184737486Y-109250674D01*
X184824596Y-109051642D01*
X184906151Y-108848774D01*
X184979969Y-108646765D01*
X185016385Y-108538028D01*
X185082051Y-108323960D01*
X185147778Y-108088794D01*
X185211911Y-107839211D01*
X185272791Y-107581896D01*
X185328763Y-107323531D01*
X185372308Y-107102394D01*
X185411742Y-106891527D01*
X185483393Y-107248531D01*
X185562574Y-107620304D01*
X185645986Y-107966580D01*
X185734380Y-108289476D01*
X185828506Y-108591112D01*
X185929115Y-108873606D01*
X186036957Y-109139077D01*
X186152782Y-109389644D01*
X186277340Y-109627427D01*
X186399463Y-109835377D01*
X186432713Y-109888208D01*
X186461137Y-109931711D01*
X186481286Y-109960711D01*
X186489108Y-109969978D01*
X186499439Y-109961278D01*
X186518669Y-109932679D01*
X186543527Y-109889318D01*
X186558075Y-109861697D01*
X186638970Y-109710968D01*
X186736218Y-109542122D01*
X186847842Y-109357990D01*
X186971868Y-109161403D01*
X187106319Y-108955194D01*
X187249219Y-108742193D01*
X187398592Y-108525232D01*
X187552462Y-108307144D01*
X187708853Y-108090758D01*
X187865789Y-107878908D01*
X188021294Y-107674425D01*
X188173392Y-107480139D01*
X188320107Y-107298884D01*
X188459463Y-107133489D01*
X188472334Y-107118604D01*
X188590935Y-106981784D01*
X188549588Y-106869166D01*
X188502192Y-106740271D01*
X188463369Y-106635236D01*
X188432217Y-106551748D01*
X188407831Y-106487495D01*
X188389307Y-106440164D01*
X188375741Y-106407443D01*
X188366229Y-106387020D01*
X188359867Y-106376582D01*
X188355936Y-106373809D01*
X188343756Y-106382801D01*
X188312673Y-106408689D01*
X188264561Y-106449841D01*
X188201290Y-106504626D01*
X188124733Y-106571411D01*
X188036761Y-106648565D01*
X187939245Y-106734455D01*
X187834058Y-106827451D01*
X187742198Y-106908924D01*
X187632273Y-107006381D01*
X187528627Y-107097924D01*
X187433108Y-107181945D01*
X187347564Y-107256835D01*
X187273844Y-107320983D01*
X187213796Y-107372780D01*
X187169268Y-107410618D01*
X187142110Y-107432887D01*
X187134072Y-107438383D01*
X187134551Y-107424018D01*
X187137541Y-107383887D01*
X187142867Y-107319932D01*
X187150350Y-107234093D01*
X187159814Y-107128309D01*
X187171083Y-107004522D01*
X187183979Y-106864672D01*
X187198325Y-106710699D01*
X187213946Y-106544543D01*
X187230663Y-106368146D01*
X187232823Y-106345517D01*
X185918761Y-106345517D01*
X185913675Y-106347002D01*
X185893224Y-106331940D01*
X185861665Y-106303527D01*
X185857581Y-106299611D01*
X185808345Y-106258626D01*
X185747164Y-106216615D01*
X185691397Y-106184857D01*
X185567176Y-106137687D01*
X185441078Y-106117548D01*
X185315854Y-106124020D01*
X185194257Y-106156685D01*
X185079039Y-106215125D01*
X184979096Y-106293106D01*
X184943477Y-106324838D01*
X184918193Y-106344248D01*
X184907417Y-106348247D01*
X184907639Y-106345973D01*
X184913007Y-106329234D01*
X184925907Y-106288302D01*
X184945593Y-106225562D01*
X184971319Y-106143396D01*
X185002341Y-106044191D01*
X185037912Y-105930328D01*
X185077287Y-105804193D01*
X185119720Y-105668169D01*
X185162241Y-105531781D01*
X185206706Y-105389200D01*
X185248685Y-105254742D01*
X185287454Y-105130722D01*
X185322287Y-105019456D01*
X185352458Y-104923256D01*
X185377240Y-104844438D01*
X185395909Y-104785316D01*
X185407738Y-104748205D01*
X185411992Y-104735424D01*
X185416461Y-104747775D01*
X185428470Y-104784420D01*
X185447297Y-104843072D01*
X185472218Y-104921444D01*
X185502511Y-105017248D01*
X185537452Y-105128199D01*
X185576318Y-105252009D01*
X185618386Y-105386391D01*
X185662834Y-105528739D01*
X185707598Y-105672217D01*
X185750019Y-105808064D01*
X185789353Y-105933901D01*
X185824854Y-106047353D01*
X185855777Y-106146042D01*
X185881378Y-106227590D01*
X185900913Y-106289621D01*
X185913635Y-106329757D01*
X185918761Y-106345517D01*
X187232823Y-106345517D01*
X187248300Y-106183447D01*
X187251294Y-106152226D01*
X187269037Y-105966262D01*
X187285825Y-105788220D01*
X187301486Y-105620045D01*
X187315848Y-105463685D01*
X187328738Y-105321086D01*
X187339984Y-105194195D01*
X187349414Y-105084958D01*
X187356856Y-104995322D01*
X187362138Y-104927233D01*
X187365087Y-104882639D01*
X187365531Y-104863484D01*
X187365354Y-104862907D01*
X187351029Y-104866256D01*
X187314125Y-104879663D01*
X187257528Y-104901948D01*
X187184125Y-104931932D01*
X187096803Y-104968435D01*
X186998450Y-105010277D01*
X186891952Y-105056278D01*
X186889751Y-105057236D01*
X186783229Y-105103540D01*
X186684989Y-105146138D01*
X186597895Y-105183797D01*
X186524808Y-105215284D01*
X186468590Y-105239366D01*
X186432103Y-105254809D01*
X186418210Y-105260382D01*
X186418182Y-105260384D01*
X186410831Y-105248521D01*
X186391081Y-105214206D01*
X186359996Y-105159344D01*
X186318646Y-105085843D01*
X186268096Y-104995612D01*
X186209414Y-104890557D01*
X186143667Y-104772586D01*
X186071921Y-104643607D01*
X185995245Y-104505526D01*
X185920178Y-104370132D01*
X185839703Y-104225212D01*
X185762937Y-104087622D01*
X185690968Y-103959271D01*
X185624884Y-103842072D01*
X185565774Y-103737933D01*
X185514725Y-103648764D01*
X185472826Y-103576476D01*
X185441165Y-103522978D01*
X185420831Y-103490182D01*
X185413041Y-103479933D01*
X185404172Y-103491810D01*
G37*
X185404172Y-103491810D02*
X185382969Y-103526138D01*
X185350534Y-103580988D01*
X185307966Y-103654430D01*
X185256366Y-103744537D01*
X185196834Y-103849380D01*
X185130470Y-103967029D01*
X185058374Y-104095556D01*
X184981648Y-104233033D01*
X184915106Y-104352787D01*
X184835262Y-104496733D01*
X184759205Y-104633789D01*
X184688035Y-104761976D01*
X184622853Y-104879311D01*
X184564762Y-104983816D01*
X184514862Y-105073509D01*
X184474255Y-105146410D01*
X184444041Y-105200539D01*
X184425322Y-105233916D01*
X184419333Y-105244394D01*
X184410886Y-105247201D01*
X184391181Y-105243900D01*
X184358174Y-105233702D01*
X184309820Y-105215817D01*
X184244077Y-105189456D01*
X184158898Y-105153831D01*
X184052240Y-105108152D01*
X183938435Y-105058770D01*
X183831542Y-105012519D01*
X183732735Y-104970396D01*
X183644891Y-104933580D01*
X183570887Y-104903250D01*
X183513602Y-104880585D01*
X183475914Y-104866763D01*
X183460699Y-104862964D01*
X183460601Y-104863034D01*
X183460640Y-104877846D01*
X183463210Y-104918416D01*
X183468141Y-104982798D01*
X183475258Y-105069044D01*
X183484390Y-105175209D01*
X183495365Y-105299346D01*
X183508010Y-105439509D01*
X183522152Y-105593751D01*
X183537620Y-105760127D01*
X183554240Y-105936690D01*
X183571841Y-106121493D01*
X183574788Y-106152226D01*
X183592559Y-106338115D01*
X183609436Y-106516027D01*
X183625242Y-106684020D01*
X183639802Y-106840154D01*
X183652937Y-106982488D01*
X183664472Y-107109082D01*
X183674231Y-107217995D01*
X183682035Y-107307285D01*
X183687709Y-107375013D01*
X183691077Y-107419238D01*
X183691960Y-107438019D01*
X183691855Y-107438538D01*
X183680697Y-107430621D01*
X183650625Y-107405773D01*
X183603487Y-107365605D01*
X183541133Y-107311726D01*
X183465409Y-107245745D01*
X183378165Y-107169272D01*
X183281249Y-107083918D01*
X183176510Y-106991291D01*
X183083878Y-106909079D01*
X182973784Y-106811387D01*
X182869801Y-106719446D01*
X182773800Y-106634890D01*
X182687652Y-106559352D01*
X182613231Y-106494465D01*
X182552406Y-106441861D01*
X182507051Y-106403174D01*
X182479036Y-106380035D01*
X182470294Y-106373809D01*
X182466045Y-106376925D01*
X182459516Y-106387816D01*
X182449802Y-106408795D01*
X182435998Y-106442177D01*
X182417199Y-106490276D01*
X182392499Y-106555404D01*
X182360994Y-106639877D01*
X182321778Y-106746007D01*
X182276494Y-106869166D01*
X182235147Y-106981784D01*
X182353748Y-107118604D01*
X182506768Y-107299611D01*
X182667267Y-107497790D01*
X182832993Y-107709920D01*
X183001694Y-107932782D01*
X183171121Y-108163156D01*
X183339021Y-108397821D01*
X183503143Y-108633558D01*
X183661236Y-108867146D01*
X183811048Y-109095366D01*
X183950328Y-109314997D01*
X184076826Y-109522819D01*
X184188289Y-109715613D01*
X184255616Y-109838873D01*
X184331199Y-109981245D01*
X184377111Y-109914515D01*
X184464633Y-109777790D01*
X184555323Y-109618444D01*
X184647001Y-109441174D01*
X184737486Y-109250674D01*
X184824596Y-109051642D01*
X184906151Y-108848774D01*
X184979969Y-108646765D01*
X185016385Y-108538028D01*
X185082051Y-108323960D01*
X185147778Y-108088794D01*
X185211911Y-107839211D01*
X185272791Y-107581896D01*
X185328763Y-107323531D01*
X185372308Y-107102394D01*
X185411742Y-106891527D01*
X185483393Y-107248531D01*
X185562574Y-107620304D01*
X185645986Y-107966580D01*
X185734380Y-108289476D01*
X185828506Y-108591112D01*
X185929115Y-108873606D01*
X186036957Y-109139077D01*
X186152782Y-109389644D01*
X186277340Y-109627427D01*
X186399463Y-109835377D01*
X186432713Y-109888208D01*
X186461137Y-109931711D01*
X186481286Y-109960711D01*
X186489108Y-109969978D01*
X186499439Y-109961278D01*
X186518669Y-109932679D01*
X186543527Y-109889318D01*
X186558075Y-109861697D01*
X186638970Y-109710968D01*
X186736218Y-109542122D01*
X186847842Y-109357990D01*
X186971868Y-109161403D01*
X187106319Y-108955194D01*
X187249219Y-108742193D01*
X187398592Y-108525232D01*
X187552462Y-108307144D01*
X187708853Y-108090758D01*
X187865789Y-107878908D01*
X188021294Y-107674425D01*
X188173392Y-107480139D01*
X188320107Y-107298884D01*
X188459463Y-107133489D01*
X188472334Y-107118604D01*
X188590935Y-106981784D01*
X188549588Y-106869166D01*
X188502192Y-106740271D01*
X188463369Y-106635236D01*
X188432217Y-106551748D01*
X188407831Y-106487495D01*
X188389307Y-106440164D01*
X188375741Y-106407443D01*
X188366229Y-106387020D01*
X188359867Y-106376582D01*
X188355936Y-106373809D01*
X188343756Y-106382801D01*
X188312673Y-106408689D01*
X188264561Y-106449841D01*
X188201290Y-106504626D01*
X188124733Y-106571411D01*
X188036761Y-106648565D01*
X187939245Y-106734455D01*
X187834058Y-106827451D01*
X187742198Y-106908924D01*
X187632273Y-107006381D01*
X187528627Y-107097924D01*
X187433108Y-107181945D01*
X187347564Y-107256835D01*
X187273844Y-107320983D01*
X187213796Y-107372780D01*
X187169268Y-107410618D01*
X187142110Y-107432887D01*
X187134072Y-107438383D01*
X187134551Y-107424018D01*
X187137541Y-107383887D01*
X187142867Y-107319932D01*
X187150350Y-107234093D01*
X187159814Y-107128309D01*
X187171083Y-107004522D01*
X187183979Y-106864672D01*
X187198325Y-106710699D01*
X187213946Y-106544543D01*
X187230663Y-106368146D01*
X187232823Y-106345517D01*
X185918761Y-106345517D01*
X185913675Y-106347002D01*
X185893224Y-106331940D01*
X185861665Y-106303527D01*
X185857581Y-106299611D01*
X185808345Y-106258626D01*
X185747164Y-106216615D01*
X185691397Y-106184857D01*
X185567176Y-106137687D01*
X185441078Y-106117548D01*
X185315854Y-106124020D01*
X185194257Y-106156685D01*
X185079039Y-106215125D01*
X184979096Y-106293106D01*
X184943477Y-106324838D01*
X184918193Y-106344248D01*
X184907417Y-106348247D01*
X184907639Y-106345973D01*
X184913007Y-106329234D01*
X184925907Y-106288302D01*
X184945593Y-106225562D01*
X184971319Y-106143396D01*
X185002341Y-106044191D01*
X185037912Y-105930328D01*
X185077287Y-105804193D01*
X185119720Y-105668169D01*
X185162241Y-105531781D01*
X185206706Y-105389200D01*
X185248685Y-105254742D01*
X185287454Y-105130722D01*
X185322287Y-105019456D01*
X185352458Y-104923256D01*
X185377240Y-104844438D01*
X185395909Y-104785316D01*
X185407738Y-104748205D01*
X185411992Y-104735424D01*
X185416461Y-104747775D01*
X185428470Y-104784420D01*
X185447297Y-104843072D01*
X185472218Y-104921444D01*
X185502511Y-105017248D01*
X185537452Y-105128199D01*
X185576318Y-105252009D01*
X185618386Y-105386391D01*
X185662834Y-105528739D01*
X185707598Y-105672217D01*
X185750019Y-105808064D01*
X185789353Y-105933901D01*
X185824854Y-106047353D01*
X185855777Y-106146042D01*
X185881378Y-106227590D01*
X185900913Y-106289621D01*
X185913635Y-106329757D01*
X185918761Y-106345517D01*
X187232823Y-106345517D01*
X187248300Y-106183447D01*
X187251294Y-106152226D01*
X187269037Y-105966262D01*
X187285825Y-105788220D01*
X187301486Y-105620045D01*
X187315848Y-105463685D01*
X187328738Y-105321086D01*
X187339984Y-105194195D01*
X187349414Y-105084958D01*
X187356856Y-104995322D01*
X187362138Y-104927233D01*
X187365087Y-104882639D01*
X187365531Y-104863484D01*
X187365354Y-104862907D01*
X187351029Y-104866256D01*
X187314125Y-104879663D01*
X187257528Y-104901948D01*
X187184125Y-104931932D01*
X187096803Y-104968435D01*
X186998450Y-105010277D01*
X186891952Y-105056278D01*
X186889751Y-105057236D01*
X186783229Y-105103540D01*
X186684989Y-105146138D01*
X186597895Y-105183797D01*
X186524808Y-105215284D01*
X186468590Y-105239366D01*
X186432103Y-105254809D01*
X186418210Y-105260382D01*
X186418182Y-105260384D01*
X186410831Y-105248521D01*
X186391081Y-105214206D01*
X186359996Y-105159344D01*
X186318646Y-105085843D01*
X186268096Y-104995612D01*
X186209414Y-104890557D01*
X186143667Y-104772586D01*
X186071921Y-104643607D01*
X185995245Y-104505526D01*
X185920178Y-104370132D01*
X185839703Y-104225212D01*
X185762937Y-104087622D01*
X185690968Y-103959271D01*
X185624884Y-103842072D01*
X185565774Y-103737933D01*
X185514725Y-103648764D01*
X185472826Y-103576476D01*
X185441165Y-103522978D01*
X185420831Y-103490182D01*
X185413041Y-103479933D01*
X185404172Y-103491810D01*
G36*
X190218607Y-106883939D02*
G01*
X190179934Y-106890799D01*
X190119296Y-106902060D01*
X190039362Y-106917210D01*
X189942802Y-106935742D01*
X189832283Y-106957144D01*
X189710476Y-106980909D01*
X189580049Y-107006526D01*
X189577812Y-107006967D01*
X189416646Y-107038947D01*
X189281050Y-107066363D01*
X189169208Y-107089630D01*
X189079305Y-107109159D01*
X189009522Y-107125365D01*
X188958044Y-107138660D01*
X188923053Y-107149457D01*
X188902735Y-107158169D01*
X188897796Y-107161608D01*
X188872853Y-107188453D01*
X188834548Y-107235311D01*
X188785107Y-107299132D01*
X188726753Y-107376866D01*
X188661712Y-107465463D01*
X188592208Y-107561874D01*
X188520467Y-107663048D01*
X188448712Y-107765937D01*
X188379170Y-107867490D01*
X188335454Y-107932467D01*
X188128917Y-108250668D01*
X187926563Y-108579552D01*
X187730692Y-108914858D01*
X187543603Y-109252325D01*
X187367597Y-109587694D01*
X187204974Y-109916703D01*
X187058032Y-110235092D01*
X186930437Y-110535233D01*
X186898268Y-110617260D01*
X186863301Y-110710875D01*
X186827179Y-110811236D01*
X186791540Y-110913498D01*
X186758027Y-111012817D01*
X186728280Y-111104352D01*
X186703940Y-111183258D01*
X186686648Y-111244691D01*
X186679223Y-111276744D01*
X186670707Y-111310030D01*
X186661760Y-111327689D01*
X186659847Y-111328548D01*
X186646492Y-111318468D01*
X186617856Y-111290284D01*
X186576709Y-111247081D01*
X186525824Y-111191946D01*
X186467969Y-111127962D01*
X186405916Y-111058216D01*
X186342436Y-110985793D01*
X186280298Y-110913778D01*
X186222273Y-110845256D01*
X186179902Y-110794079D01*
X186050138Y-110630280D01*
X185930641Y-110468245D01*
X185817166Y-110301624D01*
X185705465Y-110124069D01*
X185591293Y-109929229D01*
X185538377Y-109834942D01*
X185498974Y-109765513D01*
X185463669Y-109706332D01*
X185434760Y-109661010D01*
X185414545Y-109633158D01*
X185405482Y-109626175D01*
X185394948Y-109642292D01*
X185374315Y-109677695D01*
X185346590Y-109727112D01*
X185315644Y-109783672D01*
X185161823Y-110055432D01*
X185005507Y-110305619D01*
X184842580Y-110540450D01*
X184668926Y-110766139D01*
X184647326Y-110792713D01*
X184594439Y-110856421D01*
X184535232Y-110926080D01*
X184472467Y-110998611D01*
X184408910Y-111070936D01*
X184347322Y-111139977D01*
X184290468Y-111202657D01*
X184241111Y-111255896D01*
X184202016Y-111296618D01*
X184175945Y-111321743D01*
X184166235Y-111328548D01*
X184157743Y-111316361D01*
X184148781Y-111286137D01*
X184146859Y-111276744D01*
X184136029Y-111231851D01*
X184116903Y-111165800D01*
X184091121Y-111083434D01*
X184060324Y-110989597D01*
X184026153Y-110889133D01*
X183990249Y-110786886D01*
X183954254Y-110687697D01*
X183919807Y-110596412D01*
X183895645Y-110535233D01*
X183769016Y-110237402D01*
X183624683Y-109924521D01*
X183464965Y-109600883D01*
X183292177Y-109270779D01*
X183108635Y-108938501D01*
X182916656Y-108608342D01*
X182718556Y-108284592D01*
X182516651Y-107971543D01*
X182492010Y-107934501D01*
X182425245Y-107835644D01*
X182354778Y-107733388D01*
X182282831Y-107630778D01*
X182211624Y-107530859D01*
X182143376Y-107436678D01*
X182080310Y-107351278D01*
X182024644Y-107277707D01*
X181978600Y-107219008D01*
X181944397Y-107178228D01*
X181928894Y-107162158D01*
X181914188Y-107154221D01*
X181884419Y-107144132D01*
X181837887Y-107131504D01*
X181772897Y-107115953D01*
X181687752Y-107097094D01*
X181580753Y-107074541D01*
X181450205Y-107047909D01*
X181294410Y-107016813D01*
X181248878Y-107007816D01*
X181118268Y-106982127D01*
X180996233Y-106958273D01*
X180885438Y-106936763D01*
X180788553Y-106918110D01*
X180708245Y-106902824D01*
X180647182Y-106891415D01*
X180608030Y-106884395D01*
X180593459Y-106882274D01*
X180593437Y-106882286D01*
X180596259Y-106895686D01*
X180605286Y-106933291D01*
X180619817Y-106992342D01*
X180639153Y-107070077D01*
X180662593Y-107163738D01*
X180689436Y-107270563D01*
X180718983Y-107387794D01*
X180750534Y-107512668D01*
X180783387Y-107642427D01*
X180816843Y-107774310D01*
X180850202Y-107905557D01*
X180882763Y-108033407D01*
X180913826Y-108155102D01*
X180942690Y-108267880D01*
X180968656Y-108368981D01*
X180991024Y-108455645D01*
X181009092Y-108525113D01*
X181022161Y-108574623D01*
X181029531Y-108601416D01*
X181029849Y-108602481D01*
X181026470Y-108613082D01*
X181009865Y-108629195D01*
X180977883Y-108652232D01*
X180928370Y-108683607D01*
X180859174Y-108724732D01*
X180768142Y-108777021D01*
X180737070Y-108794633D01*
X180654611Y-108841680D01*
X180580832Y-108884570D01*
X180519012Y-108921331D01*
X180472428Y-108949994D01*
X180444359Y-108968588D01*
X180437425Y-108974799D01*
X180448851Y-108983622D01*
X180482182Y-109006694D01*
X180535995Y-109043075D01*
X180608867Y-109091826D01*
X180699377Y-109152007D01*
X180806101Y-109222680D01*
X180927617Y-109302904D01*
X181062503Y-109391740D01*
X181209337Y-109488249D01*
X181366695Y-109591492D01*
X181533155Y-109700528D01*
X181707296Y-109814419D01*
X181842962Y-109903030D01*
X182021982Y-110020004D01*
X182194400Y-110132882D01*
X182358790Y-110240720D01*
X182513729Y-110342575D01*
X182657795Y-110437504D01*
X182789564Y-110524564D01*
X182907613Y-110602813D01*
X183010519Y-110671307D01*
X183096857Y-110729102D01*
X183165205Y-110775257D01*
X183214140Y-110808828D01*
X183242238Y-110828872D01*
X183248782Y-110834466D01*
X183244767Y-110850370D01*
X183233190Y-110889896D01*
X183214946Y-110950145D01*
X183190927Y-111028218D01*
X183162027Y-111121218D01*
X183129140Y-111226245D01*
X183093159Y-111340400D01*
X183080203Y-111381334D01*
X183043627Y-111497683D01*
X183010219Y-111605715D01*
X182980824Y-111702568D01*
X182956284Y-111785382D01*
X182937443Y-111851297D01*
X182925144Y-111897452D01*
X182920230Y-111920987D01*
X182920421Y-111923362D01*
X182935269Y-111923074D01*
X182975778Y-111919633D01*
X183039977Y-111913262D01*
X183125896Y-111904180D01*
X183231567Y-111892609D01*
X183355018Y-111878769D01*
X183494279Y-111862882D01*
X183647382Y-111845167D01*
X183812355Y-111825847D01*
X183987229Y-111805142D01*
X184170034Y-111783273D01*
X184171271Y-111783124D01*
X185413041Y-111633808D01*
X186629364Y-111780411D01*
X186810959Y-111802254D01*
X186985083Y-111823114D01*
X187149692Y-111842748D01*
X187302745Y-111860919D01*
X187442197Y-111877387D01*
X187566006Y-111891911D01*
X187672130Y-111904251D01*
X187758524Y-111914169D01*
X187823146Y-111921423D01*
X187863953Y-111925775D01*
X187878488Y-111927014D01*
X187903686Y-111922837D01*
X187911288Y-111915463D01*
X187907212Y-111900076D01*
X187895584Y-111861068D01*
X187877304Y-111801338D01*
X187853273Y-111723788D01*
X187824389Y-111631316D01*
X187791554Y-111526824D01*
X187755666Y-111413210D01*
X187744274Y-111377261D01*
X187707615Y-111261287D01*
X187673743Y-111153408D01*
X187643559Y-111056546D01*
X187617965Y-110973627D01*
X187597861Y-110907575D01*
X187584149Y-110861316D01*
X187577730Y-110837773D01*
X187577361Y-110835579D01*
X187588803Y-110826202D01*
X187622154Y-110802590D01*
X187675993Y-110765688D01*
X187748894Y-110716439D01*
X187839435Y-110655787D01*
X187946194Y-110584679D01*
X188067747Y-110504056D01*
X188202671Y-110414865D01*
X188349543Y-110318049D01*
X188506940Y-110214552D01*
X188673438Y-110105319D01*
X188847616Y-109991295D01*
X188983059Y-109902790D01*
X189162051Y-109785835D01*
X189334438Y-109673031D01*
X189498797Y-109565315D01*
X189653705Y-109463627D01*
X189797741Y-109368907D01*
X189929483Y-109282094D01*
X190047508Y-109204127D01*
X190150394Y-109135944D01*
X190236718Y-109078487D01*
X190305059Y-109032692D01*
X190353994Y-108999501D01*
X190382101Y-108979852D01*
X190388657Y-108974559D01*
X190377049Y-108965112D01*
X190344407Y-108944074D01*
X190294011Y-108913414D01*
X190229137Y-108875099D01*
X190153064Y-108831097D01*
X190089012Y-108794633D01*
X189991185Y-108738812D01*
X189915823Y-108694567D01*
X189860774Y-108660486D01*
X189823886Y-108635155D01*
X189803006Y-108617163D01*
X189795980Y-108605095D01*
X189796233Y-108602481D01*
X189803168Y-108577447D01*
X189815853Y-108529491D01*
X189833587Y-108461374D01*
X189855670Y-108375855D01*
X189881402Y-108275697D01*
X189910082Y-108163658D01*
X189941011Y-108042500D01*
X189973488Y-107914983D01*
X190006814Y-107783868D01*
X190040287Y-107651914D01*
X190073208Y-107521882D01*
X190104876Y-107396534D01*
X190134591Y-107278628D01*
X190161654Y-107170926D01*
X190185363Y-107076188D01*
X190205019Y-106997175D01*
X190219921Y-106936647D01*
X190229370Y-106897364D01*
X190232665Y-106882087D01*
X190232646Y-106881987D01*
X190218607Y-106883939D01*
G37*
X190218607Y-106883939D02*
X190179934Y-106890799D01*
X190119296Y-106902060D01*
X190039362Y-106917210D01*
X189942802Y-106935742D01*
X189832283Y-106957144D01*
X189710476Y-106980909D01*
X189580049Y-107006526D01*
X189577812Y-107006967D01*
X189416646Y-107038947D01*
X189281050Y-107066363D01*
X189169208Y-107089630D01*
X189079305Y-107109159D01*
X189009522Y-107125365D01*
X188958044Y-107138660D01*
X188923053Y-107149457D01*
X188902735Y-107158169D01*
X188897796Y-107161608D01*
X188872853Y-107188453D01*
X188834548Y-107235311D01*
X188785107Y-107299132D01*
X188726753Y-107376866D01*
X188661712Y-107465463D01*
X188592208Y-107561874D01*
X188520467Y-107663048D01*
X188448712Y-107765937D01*
X188379170Y-107867490D01*
X188335454Y-107932467D01*
X188128917Y-108250668D01*
X187926563Y-108579552D01*
X187730692Y-108914858D01*
X187543603Y-109252325D01*
X187367597Y-109587694D01*
X187204974Y-109916703D01*
X187058032Y-110235092D01*
X186930437Y-110535233D01*
X186898268Y-110617260D01*
X186863301Y-110710875D01*
X186827179Y-110811236D01*
X186791540Y-110913498D01*
X186758027Y-111012817D01*
X186728280Y-111104352D01*
X186703940Y-111183258D01*
X186686648Y-111244691D01*
X186679223Y-111276744D01*
X186670707Y-111310030D01*
X186661760Y-111327689D01*
X186659847Y-111328548D01*
X186646492Y-111318468D01*
X186617856Y-111290284D01*
X186576709Y-111247081D01*
X186525824Y-111191946D01*
X186467969Y-111127962D01*
X186405916Y-111058216D01*
X186342436Y-110985793D01*
X186280298Y-110913778D01*
X186222273Y-110845256D01*
X186179902Y-110794079D01*
X186050138Y-110630280D01*
X185930641Y-110468245D01*
X185817166Y-110301624D01*
X185705465Y-110124069D01*
X185591293Y-109929229D01*
X185538377Y-109834942D01*
X185498974Y-109765513D01*
X185463669Y-109706332D01*
X185434760Y-109661010D01*
X185414545Y-109633158D01*
X185405482Y-109626175D01*
X185394948Y-109642292D01*
X185374315Y-109677695D01*
X185346590Y-109727112D01*
X185315644Y-109783672D01*
X185161823Y-110055432D01*
X185005507Y-110305619D01*
X184842580Y-110540450D01*
X184668926Y-110766139D01*
X184647326Y-110792713D01*
X184594439Y-110856421D01*
X184535232Y-110926080D01*
X184472467Y-110998611D01*
X184408910Y-111070936D01*
X184347322Y-111139977D01*
X184290468Y-111202657D01*
X184241111Y-111255896D01*
X184202016Y-111296618D01*
X184175945Y-111321743D01*
X184166235Y-111328548D01*
X184157743Y-111316361D01*
X184148781Y-111286137D01*
X184146859Y-111276744D01*
X184136029Y-111231851D01*
X184116903Y-111165800D01*
X184091121Y-111083434D01*
X184060324Y-110989597D01*
X184026153Y-110889133D01*
X183990249Y-110786886D01*
X183954254Y-110687697D01*
X183919807Y-110596412D01*
X183895645Y-110535233D01*
X183769016Y-110237402D01*
X183624683Y-109924521D01*
X183464965Y-109600883D01*
X183292177Y-109270779D01*
X183108635Y-108938501D01*
X182916656Y-108608342D01*
X182718556Y-108284592D01*
X182516651Y-107971543D01*
X182492010Y-107934501D01*
X182425245Y-107835644D01*
X182354778Y-107733388D01*
X182282831Y-107630778D01*
X182211624Y-107530859D01*
X182143376Y-107436678D01*
X182080310Y-107351278D01*
X182024644Y-107277707D01*
X181978600Y-107219008D01*
X181944397Y-107178228D01*
X181928894Y-107162158D01*
X181914188Y-107154221D01*
X181884419Y-107144132D01*
X181837887Y-107131504D01*
X181772897Y-107115953D01*
X181687752Y-107097094D01*
X181580753Y-107074541D01*
X181450205Y-107047909D01*
X181294410Y-107016813D01*
X181248878Y-107007816D01*
X181118268Y-106982127D01*
X180996233Y-106958273D01*
X180885438Y-106936763D01*
X180788553Y-106918110D01*
X180708245Y-106902824D01*
X180647182Y-106891415D01*
X180608030Y-106884395D01*
X180593459Y-106882274D01*
X180593437Y-106882286D01*
X180596259Y-106895686D01*
X180605286Y-106933291D01*
X180619817Y-106992342D01*
X180639153Y-107070077D01*
X180662593Y-107163738D01*
X180689436Y-107270563D01*
X180718983Y-107387794D01*
X180750534Y-107512668D01*
X180783387Y-107642427D01*
X180816843Y-107774310D01*
X180850202Y-107905557D01*
X180882763Y-108033407D01*
X180913826Y-108155102D01*
X180942690Y-108267880D01*
X180968656Y-108368981D01*
X180991024Y-108455645D01*
X181009092Y-108525113D01*
X181022161Y-108574623D01*
X181029531Y-108601416D01*
X181029849Y-108602481D01*
X181026470Y-108613082D01*
X181009865Y-108629195D01*
X180977883Y-108652232D01*
X180928370Y-108683607D01*
X180859174Y-108724732D01*
X180768142Y-108777021D01*
X180737070Y-108794633D01*
X180654611Y-108841680D01*
X180580832Y-108884570D01*
X180519012Y-108921331D01*
X180472428Y-108949994D01*
X180444359Y-108968588D01*
X180437425Y-108974799D01*
X180448851Y-108983622D01*
X180482182Y-109006694D01*
X180535995Y-109043075D01*
X180608867Y-109091826D01*
X180699377Y-109152007D01*
X180806101Y-109222680D01*
X180927617Y-109302904D01*
X181062503Y-109391740D01*
X181209337Y-109488249D01*
X181366695Y-109591492D01*
X181533155Y-109700528D01*
X181707296Y-109814419D01*
X181842962Y-109903030D01*
X182021982Y-110020004D01*
X182194400Y-110132882D01*
X182358790Y-110240720D01*
X182513729Y-110342575D01*
X182657795Y-110437504D01*
X182789564Y-110524564D01*
X182907613Y-110602813D01*
X183010519Y-110671307D01*
X183096857Y-110729102D01*
X183165205Y-110775257D01*
X183214140Y-110808828D01*
X183242238Y-110828872D01*
X183248782Y-110834466D01*
X183244767Y-110850370D01*
X183233190Y-110889896D01*
X183214946Y-110950145D01*
X183190927Y-111028218D01*
X183162027Y-111121218D01*
X183129140Y-111226245D01*
X183093159Y-111340400D01*
X183080203Y-111381334D01*
X183043627Y-111497683D01*
X183010219Y-111605715D01*
X182980824Y-111702568D01*
X182956284Y-111785382D01*
X182937443Y-111851297D01*
X182925144Y-111897452D01*
X182920230Y-111920987D01*
X182920421Y-111923362D01*
X182935269Y-111923074D01*
X182975778Y-111919633D01*
X183039977Y-111913262D01*
X183125896Y-111904180D01*
X183231567Y-111892609D01*
X183355018Y-111878769D01*
X183494279Y-111862882D01*
X183647382Y-111845167D01*
X183812355Y-111825847D01*
X183987229Y-111805142D01*
X184170034Y-111783273D01*
X184171271Y-111783124D01*
X185413041Y-111633808D01*
X186629364Y-111780411D01*
X186810959Y-111802254D01*
X186985083Y-111823114D01*
X187149692Y-111842748D01*
X187302745Y-111860919D01*
X187442197Y-111877387D01*
X187566006Y-111891911D01*
X187672130Y-111904251D01*
X187758524Y-111914169D01*
X187823146Y-111921423D01*
X187863953Y-111925775D01*
X187878488Y-111927014D01*
X187903686Y-111922837D01*
X187911288Y-111915463D01*
X187907212Y-111900076D01*
X187895584Y-111861068D01*
X187877304Y-111801338D01*
X187853273Y-111723788D01*
X187824389Y-111631316D01*
X187791554Y-111526824D01*
X187755666Y-111413210D01*
X187744274Y-111377261D01*
X187707615Y-111261287D01*
X187673743Y-111153408D01*
X187643559Y-111056546D01*
X187617965Y-110973627D01*
X187597861Y-110907575D01*
X187584149Y-110861316D01*
X187577730Y-110837773D01*
X187577361Y-110835579D01*
X187588803Y-110826202D01*
X187622154Y-110802590D01*
X187675993Y-110765688D01*
X187748894Y-110716439D01*
X187839435Y-110655787D01*
X187946194Y-110584679D01*
X188067747Y-110504056D01*
X188202671Y-110414865D01*
X188349543Y-110318049D01*
X188506940Y-110214552D01*
X188673438Y-110105319D01*
X188847616Y-109991295D01*
X188983059Y-109902790D01*
X189162051Y-109785835D01*
X189334438Y-109673031D01*
X189498797Y-109565315D01*
X189653705Y-109463627D01*
X189797741Y-109368907D01*
X189929483Y-109282094D01*
X190047508Y-109204127D01*
X190150394Y-109135944D01*
X190236718Y-109078487D01*
X190305059Y-109032692D01*
X190353994Y-108999501D01*
X190382101Y-108979852D01*
X190388657Y-108974559D01*
X190377049Y-108965112D01*
X190344407Y-108944074D01*
X190294011Y-108913414D01*
X190229137Y-108875099D01*
X190153064Y-108831097D01*
X190089012Y-108794633D01*
X189991185Y-108738812D01*
X189915823Y-108694567D01*
X189860774Y-108660486D01*
X189823886Y-108635155D01*
X189803006Y-108617163D01*
X189795980Y-108605095D01*
X189796233Y-108602481D01*
X189803168Y-108577447D01*
X189815853Y-108529491D01*
X189833587Y-108461374D01*
X189855670Y-108375855D01*
X189881402Y-108275697D01*
X189910082Y-108163658D01*
X189941011Y-108042500D01*
X189973488Y-107914983D01*
X190006814Y-107783868D01*
X190040287Y-107651914D01*
X190073208Y-107521882D01*
X190104876Y-107396534D01*
X190134591Y-107278628D01*
X190161654Y-107170926D01*
X190185363Y-107076188D01*
X190205019Y-106997175D01*
X190219921Y-106936647D01*
X190229370Y-106897364D01*
X190232665Y-106882087D01*
X190232646Y-106881987D01*
X190218607Y-106883939D01*
D12*
%TO.C,U2*%
X116332000Y-123698000D02*
X162052000Y-123698000D01*
X113792000Y-103378000D02*
X113792000Y-121158000D01*
X162052000Y-100838000D02*
X116332000Y-100838000D01*
X164592000Y-121158000D02*
X164592000Y-103378000D01*
X162052000Y-123698000D02*
G75*
G03*
X164592000Y-121158000I0J2540000D01*
G01*
X164592000Y-103378000D02*
G75*
G03*
X162052000Y-100838000I-2540000J0D01*
G01*
X116332000Y-100838000D02*
G75*
G03*
X113792000Y-103378000I0J-2540000D01*
G01*
X113792000Y-121158000D02*
G75*
G03*
X116332000Y-123698000I2540000J0D01*
G01*
D13*
%TO.C,U6*%
X123735000Y-45650000D02*
X123735000Y-38150000D01*
X116235000Y-45650000D02*
X123735000Y-45650000D01*
X116235000Y-38150000D02*
X116235000Y-45650000D01*
X123735000Y-38150000D02*
X116235000Y-38150000D01*
X93980000Y-75565000D02*
X132080000Y-75565000D01*
X93980000Y-37465000D02*
X93980000Y-75565000D01*
X132080000Y-37465000D02*
X93980000Y-37465000D01*
X132080000Y-75565000D02*
X132080000Y-37465000D01*
%TO.C,U5*%
X163105000Y-45650000D02*
X163105000Y-38150000D01*
X155605000Y-45650000D02*
X163105000Y-45650000D01*
X155605000Y-38150000D02*
X155605000Y-45650000D01*
X163105000Y-38150000D02*
X155605000Y-38150000D01*
X133350000Y-75565000D02*
X171450000Y-75565000D01*
X133350000Y-37465000D02*
X133350000Y-75565000D01*
X171450000Y-37465000D02*
X133350000Y-37465000D01*
X171450000Y-75565000D02*
X171450000Y-37465000D01*
%TO.C,SW1*%
X190520000Y-55510000D02*
X190520000Y-45760000D01*
X200660000Y-45760000D02*
X190520000Y-45760000D01*
X200660000Y-55510000D02*
X200660000Y-45760000D01*
X190520000Y-55510000D02*
X200660000Y-55510000D01*
%TO.C,J4*%
X179295000Y-41415000D02*
X179295000Y-40200000D01*
X179235000Y-45375000D02*
X179235000Y-47635000D01*
X178735000Y-45375000D02*
X178735000Y-47635000D01*
X176135000Y-43775000D02*
X175135000Y-43775000D01*
X176135000Y-45375000D02*
X176135000Y-43775000D01*
X175135000Y-45375000D02*
X176135000Y-45375000D01*
X175135000Y-43775000D02*
X175135000Y-45375000D01*
X178735000Y-43775000D02*
X179735000Y-43775000D01*
X178735000Y-45375000D02*
X178735000Y-43775000D01*
X179735000Y-45375000D02*
X178735000Y-45375000D01*
X179735000Y-43775000D02*
X179735000Y-45375000D01*
X174375000Y-41415000D02*
X175295000Y-41415000D01*
X180495000Y-41415000D02*
X179575000Y-41415000D01*
X176935000Y-43275000D02*
X176935000Y-47635000D01*
X177935000Y-43275000D02*
X176935000Y-43275000D01*
X177935000Y-47635000D02*
X177935000Y-43275000D01*
X175295000Y-41415000D02*
X175575000Y-41415000D01*
X175295000Y-39815000D02*
X175295000Y-41415000D01*
X174375000Y-39815000D02*
X175295000Y-39815000D01*
X174375000Y-47635000D02*
X174375000Y-39815000D01*
X180495000Y-47635000D02*
X174375000Y-47635000D01*
X180495000Y-39815000D02*
X180495000Y-47635000D01*
X179575000Y-39815000D02*
X180495000Y-39815000D01*
X179575000Y-41415000D02*
X179575000Y-39815000D01*
X179295000Y-41415000D02*
X179575000Y-41415000D01*
%TO.C,U2*%
D14*
X162813904Y-111720380D02*
X162813904Y-112529904D01*
X162766285Y-112625142D01*
X162718666Y-112672761D01*
X162623428Y-112720380D01*
X162432952Y-112720380D01*
X162337714Y-112672761D01*
X162290095Y-112625142D01*
X162242476Y-112529904D01*
X162242476Y-111720380D01*
X161813904Y-111815619D02*
X161766285Y-111768000D01*
X161671047Y-111720380D01*
X161432952Y-111720380D01*
X161337714Y-111768000D01*
X161290095Y-111815619D01*
X161242476Y-111910857D01*
X161242476Y-112006095D01*
X161290095Y-112148952D01*
X161861523Y-112720380D01*
X161242476Y-112720380D01*
X155915142Y-112196571D02*
X156248476Y-112196571D01*
X156248476Y-112720380D02*
X156248476Y-111720380D01*
X155772285Y-111720380D01*
X155391333Y-112196571D02*
X155058000Y-112196571D01*
X154915142Y-112720380D02*
X155391333Y-112720380D01*
X155391333Y-111720380D01*
X154915142Y-111720380D01*
X154534190Y-112434666D02*
X154058000Y-112434666D01*
X154629428Y-112720380D02*
X154296095Y-111720380D01*
X153962761Y-112720380D01*
X153772285Y-111720380D02*
X153200857Y-111720380D01*
X153486571Y-112720380D02*
X153486571Y-111720380D01*
X152867523Y-112720380D02*
X152867523Y-111720380D01*
X152867523Y-112196571D02*
X152296095Y-112196571D01*
X152296095Y-112720380D02*
X152296095Y-111720380D01*
X151819904Y-112196571D02*
X151486571Y-112196571D01*
X151343714Y-112720380D02*
X151819904Y-112720380D01*
X151819904Y-111720380D01*
X151343714Y-111720380D01*
X150343714Y-112720380D02*
X150677047Y-112244190D01*
X150915142Y-112720380D02*
X150915142Y-111720380D01*
X150534190Y-111720380D01*
X150438952Y-111768000D01*
X150391333Y-111815619D01*
X150343714Y-111910857D01*
X150343714Y-112053714D01*
X150391333Y-112148952D01*
X150438952Y-112196571D01*
X150534190Y-112244190D01*
X150915142Y-112244190D01*
X150153238Y-112815619D02*
X149391333Y-112815619D01*
X149153238Y-112720380D02*
X149153238Y-111720380D01*
X148819904Y-112434666D01*
X148486571Y-111720380D01*
X148486571Y-112720380D01*
X147819904Y-111720380D02*
X147724666Y-111720380D01*
X147629428Y-111768000D01*
X147581809Y-111815619D01*
X147534190Y-111910857D01*
X147486571Y-112101333D01*
X147486571Y-112339428D01*
X147534190Y-112529904D01*
X147581809Y-112625142D01*
X147629428Y-112672761D01*
X147724666Y-112720380D01*
X147819904Y-112720380D01*
X147915142Y-112672761D01*
X147962761Y-112625142D01*
X148010380Y-112529904D01*
X148058000Y-112339428D01*
X148058000Y-112101333D01*
X148010380Y-111910857D01*
X147962761Y-111815619D01*
X147915142Y-111768000D01*
X147819904Y-111720380D01*
X147296095Y-112815619D02*
X146534190Y-112815619D01*
X145962761Y-112196571D02*
X145819904Y-112244190D01*
X145772285Y-112291809D01*
X145724666Y-112387047D01*
X145724666Y-112529904D01*
X145772285Y-112625142D01*
X145819904Y-112672761D01*
X145915142Y-112720380D01*
X146296095Y-112720380D01*
X146296095Y-111720380D01*
X145962761Y-111720380D01*
X145867523Y-111768000D01*
X145819904Y-111815619D01*
X145772285Y-111910857D01*
X145772285Y-112006095D01*
X145819904Y-112101333D01*
X145867523Y-112148952D01*
X145962761Y-112196571D01*
X146296095Y-112196571D01*
X145343714Y-112434666D02*
X144867523Y-112434666D01*
X145438952Y-112720380D02*
X145105619Y-111720380D01*
X144772285Y-112720380D01*
X144486571Y-112672761D02*
X144343714Y-112720380D01*
X144105619Y-112720380D01*
X144010380Y-112672761D01*
X143962761Y-112625142D01*
X143915142Y-112529904D01*
X143915142Y-112434666D01*
X143962761Y-112339428D01*
X144010380Y-112291809D01*
X144105619Y-112244190D01*
X144296095Y-112196571D01*
X144391333Y-112148952D01*
X144438952Y-112101333D01*
X144486571Y-112006095D01*
X144486571Y-111910857D01*
X144438952Y-111815619D01*
X144391333Y-111768000D01*
X144296095Y-111720380D01*
X144058000Y-111720380D01*
X143915142Y-111768000D01*
X143486571Y-112720380D02*
X143486571Y-111720380D01*
X142438952Y-112625142D02*
X142486571Y-112672761D01*
X142629428Y-112720380D01*
X142724666Y-112720380D01*
X142867523Y-112672761D01*
X142962761Y-112577523D01*
X143010380Y-112482285D01*
X143058000Y-112291809D01*
X143058000Y-112148952D01*
X143010380Y-111958476D01*
X142962761Y-111863238D01*
X142867523Y-111768000D01*
X142724666Y-111720380D01*
X142629428Y-111720380D01*
X142486571Y-111768000D01*
X142438952Y-111815619D01*
X142248476Y-112815619D02*
X141486571Y-112815619D01*
X141248476Y-112720380D02*
X141248476Y-111720380D01*
X140867523Y-111720380D01*
X140772285Y-111768000D01*
X140724666Y-111815619D01*
X140677047Y-111910857D01*
X140677047Y-112053714D01*
X140724666Y-112148952D01*
X140772285Y-112196571D01*
X140867523Y-112244190D01*
X141248476Y-112244190D01*
X139677047Y-112720380D02*
X140010380Y-112244190D01*
X140248476Y-112720380D02*
X140248476Y-111720380D01*
X139867523Y-111720380D01*
X139772285Y-111768000D01*
X139724666Y-111815619D01*
X139677047Y-111910857D01*
X139677047Y-112053714D01*
X139724666Y-112148952D01*
X139772285Y-112196571D01*
X139867523Y-112244190D01*
X140248476Y-112244190D01*
X139058000Y-111720380D02*
X138867523Y-111720380D01*
X138772285Y-111768000D01*
X138677047Y-111863238D01*
X138629428Y-112053714D01*
X138629428Y-112387047D01*
X138677047Y-112577523D01*
X138772285Y-112672761D01*
X138867523Y-112720380D01*
X139058000Y-112720380D01*
X139153238Y-112672761D01*
X139248476Y-112577523D01*
X139296095Y-112387047D01*
X139296095Y-112053714D01*
X139248476Y-111863238D01*
X139153238Y-111768000D01*
X139058000Y-111720380D01*
X138343714Y-111720380D02*
X137772285Y-111720380D01*
X138058000Y-112720380D02*
X138058000Y-111720380D01*
X137248476Y-111720380D02*
X137058000Y-111720380D01*
X136962761Y-111768000D01*
X136867523Y-111863238D01*
X136819904Y-112053714D01*
X136819904Y-112387047D01*
X136867523Y-112577523D01*
X136962761Y-112672761D01*
X137058000Y-112720380D01*
X137248476Y-112720380D01*
X137343714Y-112672761D01*
X137438952Y-112577523D01*
X137486571Y-112387047D01*
X137486571Y-112053714D01*
X137438952Y-111863238D01*
X137343714Y-111768000D01*
X137248476Y-111720380D01*
%TO.C,U6*%
D10*
X114403904Y-76541380D02*
X114403904Y-77350904D01*
X114356285Y-77446142D01*
X114308666Y-77493761D01*
X114213428Y-77541380D01*
X114022952Y-77541380D01*
X113927714Y-77493761D01*
X113880095Y-77446142D01*
X113832476Y-77350904D01*
X113832476Y-76541380D01*
X112927714Y-76541380D02*
X113118190Y-76541380D01*
X113213428Y-76589000D01*
X113261047Y-76636619D01*
X113356285Y-76779476D01*
X113403904Y-76969952D01*
X113403904Y-77350904D01*
X113356285Y-77446142D01*
X113308666Y-77493761D01*
X113213428Y-77541380D01*
X113022952Y-77541380D01*
X112927714Y-77493761D01*
X112880095Y-77446142D01*
X112832476Y-77350904D01*
X112832476Y-77112809D01*
X112880095Y-77017571D01*
X112927714Y-76969952D01*
X113022952Y-76922333D01*
X113213428Y-76922333D01*
X113308666Y-76969952D01*
X113356285Y-77017571D01*
X113403904Y-77112809D01*
X121141190Y-67714761D02*
X120998333Y-67762380D01*
X120760238Y-67762380D01*
X120665000Y-67714761D01*
X120617380Y-67667142D01*
X120569761Y-67571904D01*
X120569761Y-67476666D01*
X120617380Y-67381428D01*
X120665000Y-67333809D01*
X120760238Y-67286190D01*
X120950714Y-67238571D01*
X121045952Y-67190952D01*
X121093571Y-67143333D01*
X121141190Y-67048095D01*
X121141190Y-66952857D01*
X121093571Y-66857619D01*
X121045952Y-66810000D01*
X120950714Y-66762380D01*
X120712619Y-66762380D01*
X120569761Y-66810000D01*
X119569761Y-67762380D02*
X119903095Y-67286190D01*
X120141190Y-67762380D02*
X120141190Y-66762380D01*
X119760238Y-66762380D01*
X119665000Y-66810000D01*
X119617380Y-66857619D01*
X119569761Y-66952857D01*
X119569761Y-67095714D01*
X119617380Y-67190952D01*
X119665000Y-67238571D01*
X119760238Y-67286190D01*
X120141190Y-67286190D01*
X119188809Y-67476666D02*
X118712619Y-67476666D01*
X119284047Y-67762380D02*
X118950714Y-66762380D01*
X118617380Y-67762380D01*
X118284047Y-67762380D02*
X118284047Y-66762380D01*
X118045952Y-66762380D01*
X117903095Y-66810000D01*
X117807857Y-66905238D01*
X117760238Y-67000476D01*
X117712619Y-67190952D01*
X117712619Y-67333809D01*
X117760238Y-67524285D01*
X117807857Y-67619523D01*
X117903095Y-67714761D01*
X118045952Y-67762380D01*
X118284047Y-67762380D01*
X117522142Y-67857619D02*
X116760238Y-67857619D01*
X115998333Y-66810000D02*
X116093571Y-66762380D01*
X116236428Y-66762380D01*
X116379285Y-66810000D01*
X116474523Y-66905238D01*
X116522142Y-67000476D01*
X116569761Y-67190952D01*
X116569761Y-67333809D01*
X116522142Y-67524285D01*
X116474523Y-67619523D01*
X116379285Y-67714761D01*
X116236428Y-67762380D01*
X116141190Y-67762380D01*
X115998333Y-67714761D01*
X115950714Y-67667142D01*
X115950714Y-67333809D01*
X116141190Y-67333809D01*
X115522142Y-67762380D02*
X115522142Y-66762380D01*
X115141190Y-66762380D01*
X115045952Y-66810000D01*
X114998333Y-66857619D01*
X114950714Y-66952857D01*
X114950714Y-67095714D01*
X114998333Y-67190952D01*
X115045952Y-67238571D01*
X115141190Y-67286190D01*
X115522142Y-67286190D01*
X114569761Y-67714761D02*
X114426904Y-67762380D01*
X114188809Y-67762380D01*
X114093571Y-67714761D01*
X114045952Y-67667142D01*
X113998333Y-67571904D01*
X113998333Y-67476666D01*
X114045952Y-67381428D01*
X114093571Y-67333809D01*
X114188809Y-67286190D01*
X114379285Y-67238571D01*
X114474523Y-67190952D01*
X114522142Y-67143333D01*
X114569761Y-67048095D01*
X114569761Y-66952857D01*
X114522142Y-66857619D01*
X114474523Y-66810000D01*
X114379285Y-66762380D01*
X114141190Y-66762380D01*
X113998333Y-66810000D01*
X113807857Y-67857619D02*
X113045952Y-67857619D01*
X112236428Y-67762380D02*
X112569761Y-67286190D01*
X112807857Y-67762380D02*
X112807857Y-66762380D01*
X112426904Y-66762380D01*
X112331666Y-66810000D01*
X112284047Y-66857619D01*
X112236428Y-66952857D01*
X112236428Y-67095714D01*
X112284047Y-67190952D01*
X112331666Y-67238571D01*
X112426904Y-67286190D01*
X112807857Y-67286190D01*
X111807857Y-67238571D02*
X111474523Y-67238571D01*
X111331666Y-67762380D02*
X111807857Y-67762380D01*
X111807857Y-66762380D01*
X111331666Y-66762380D01*
X110331666Y-67667142D02*
X110379285Y-67714761D01*
X110522142Y-67762380D01*
X110617380Y-67762380D01*
X110760238Y-67714761D01*
X110855476Y-67619523D01*
X110903095Y-67524285D01*
X110950714Y-67333809D01*
X110950714Y-67190952D01*
X110903095Y-67000476D01*
X110855476Y-66905238D01*
X110760238Y-66810000D01*
X110617380Y-66762380D01*
X110522142Y-66762380D01*
X110379285Y-66810000D01*
X110331666Y-66857619D01*
X109903095Y-67238571D02*
X109569761Y-67238571D01*
X109426904Y-67762380D02*
X109903095Y-67762380D01*
X109903095Y-66762380D01*
X109426904Y-66762380D01*
X108998333Y-67762380D02*
X108998333Y-66762380D01*
X108665000Y-66762380D02*
X108331666Y-67762380D01*
X107998333Y-66762380D01*
X107665000Y-67238571D02*
X107331666Y-67238571D01*
X107188809Y-67762380D02*
X107665000Y-67762380D01*
X107665000Y-66762380D01*
X107188809Y-66762380D01*
X106188809Y-67762380D02*
X106522142Y-67286190D01*
X106760238Y-67762380D02*
X106760238Y-66762380D01*
X106379285Y-66762380D01*
X106284047Y-66810000D01*
X106236428Y-66857619D01*
X106188809Y-66952857D01*
X106188809Y-67095714D01*
X106236428Y-67190952D01*
X106284047Y-67238571D01*
X106379285Y-67286190D01*
X106760238Y-67286190D01*
%TO.C,U5*%
X152653904Y-76541380D02*
X152653904Y-77350904D01*
X152606285Y-77446142D01*
X152558666Y-77493761D01*
X152463428Y-77541380D01*
X152272952Y-77541380D01*
X152177714Y-77493761D01*
X152130095Y-77446142D01*
X152082476Y-77350904D01*
X152082476Y-76541380D01*
X151130095Y-76541380D02*
X151606285Y-76541380D01*
X151653904Y-77017571D01*
X151606285Y-76969952D01*
X151511047Y-76922333D01*
X151272952Y-76922333D01*
X151177714Y-76969952D01*
X151130095Y-77017571D01*
X151082476Y-77112809D01*
X151082476Y-77350904D01*
X151130095Y-77446142D01*
X151177714Y-77493761D01*
X151272952Y-77541380D01*
X151511047Y-77541380D01*
X151606285Y-77493761D01*
X151653904Y-77446142D01*
X158598333Y-67667142D02*
X158645952Y-67714761D01*
X158788809Y-67762380D01*
X158884047Y-67762380D01*
X159026904Y-67714761D01*
X159122142Y-67619523D01*
X159169761Y-67524285D01*
X159217380Y-67333809D01*
X159217380Y-67190952D01*
X159169761Y-67000476D01*
X159122142Y-66905238D01*
X159026904Y-66810000D01*
X158884047Y-66762380D01*
X158788809Y-66762380D01*
X158645952Y-66810000D01*
X158598333Y-66857619D01*
X157979285Y-66762380D02*
X157788809Y-66762380D01*
X157693571Y-66810000D01*
X157598333Y-66905238D01*
X157550714Y-67095714D01*
X157550714Y-67429047D01*
X157598333Y-67619523D01*
X157693571Y-67714761D01*
X157788809Y-67762380D01*
X157979285Y-67762380D01*
X158074523Y-67714761D01*
X158169761Y-67619523D01*
X158217380Y-67429047D01*
X158217380Y-67095714D01*
X158169761Y-66905238D01*
X158074523Y-66810000D01*
X157979285Y-66762380D01*
X157265000Y-66762380D02*
X156693571Y-66762380D01*
X156979285Y-67762380D02*
X156979285Y-66762380D01*
X156407857Y-67714761D02*
X156265000Y-67762380D01*
X156026904Y-67762380D01*
X155931666Y-67714761D01*
X155884047Y-67667142D01*
X155836428Y-67571904D01*
X155836428Y-67476666D01*
X155884047Y-67381428D01*
X155931666Y-67333809D01*
X156026904Y-67286190D01*
X156217380Y-67238571D01*
X156312619Y-67190952D01*
X156360238Y-67143333D01*
X156407857Y-67048095D01*
X156407857Y-66952857D01*
X156360238Y-66857619D01*
X156312619Y-66810000D01*
X156217380Y-66762380D01*
X155979285Y-66762380D01*
X155836428Y-66810000D01*
X155645952Y-67857619D02*
X154884047Y-67857619D01*
X154122142Y-66810000D02*
X154217380Y-66762380D01*
X154360238Y-66762380D01*
X154503095Y-66810000D01*
X154598333Y-66905238D01*
X154645952Y-67000476D01*
X154693571Y-67190952D01*
X154693571Y-67333809D01*
X154645952Y-67524285D01*
X154598333Y-67619523D01*
X154503095Y-67714761D01*
X154360238Y-67762380D01*
X154265000Y-67762380D01*
X154122142Y-67714761D01*
X154074523Y-67667142D01*
X154074523Y-67333809D01*
X154265000Y-67333809D01*
X153645952Y-67762380D02*
X153645952Y-66762380D01*
X153265000Y-66762380D01*
X153169761Y-66810000D01*
X153122142Y-66857619D01*
X153074523Y-66952857D01*
X153074523Y-67095714D01*
X153122142Y-67190952D01*
X153169761Y-67238571D01*
X153265000Y-67286190D01*
X153645952Y-67286190D01*
X152693571Y-67714761D02*
X152550714Y-67762380D01*
X152312619Y-67762380D01*
X152217380Y-67714761D01*
X152169761Y-67667142D01*
X152122142Y-67571904D01*
X152122142Y-67476666D01*
X152169761Y-67381428D01*
X152217380Y-67333809D01*
X152312619Y-67286190D01*
X152503095Y-67238571D01*
X152598333Y-67190952D01*
X152645952Y-67143333D01*
X152693571Y-67048095D01*
X152693571Y-66952857D01*
X152645952Y-66857619D01*
X152598333Y-66810000D01*
X152503095Y-66762380D01*
X152265000Y-66762380D01*
X152122142Y-66810000D01*
X151931666Y-67857619D02*
X151169761Y-67857619D01*
X150360238Y-67762380D02*
X150693571Y-67286190D01*
X150931666Y-67762380D02*
X150931666Y-66762380D01*
X150550714Y-66762380D01*
X150455476Y-66810000D01*
X150407857Y-66857619D01*
X150360238Y-66952857D01*
X150360238Y-67095714D01*
X150407857Y-67190952D01*
X150455476Y-67238571D01*
X150550714Y-67286190D01*
X150931666Y-67286190D01*
X149931666Y-67238571D02*
X149598333Y-67238571D01*
X149455476Y-67762380D02*
X149931666Y-67762380D01*
X149931666Y-66762380D01*
X149455476Y-66762380D01*
X148455476Y-67667142D02*
X148503095Y-67714761D01*
X148645952Y-67762380D01*
X148741190Y-67762380D01*
X148884047Y-67714761D01*
X148979285Y-67619523D01*
X149026904Y-67524285D01*
X149074523Y-67333809D01*
X149074523Y-67190952D01*
X149026904Y-67000476D01*
X148979285Y-66905238D01*
X148884047Y-66810000D01*
X148741190Y-66762380D01*
X148645952Y-66762380D01*
X148503095Y-66810000D01*
X148455476Y-66857619D01*
X148026904Y-67238571D02*
X147693571Y-67238571D01*
X147550714Y-67762380D02*
X148026904Y-67762380D01*
X148026904Y-66762380D01*
X147550714Y-66762380D01*
X147122142Y-67762380D02*
X147122142Y-66762380D01*
X146788809Y-66762380D02*
X146455476Y-67762380D01*
X146122142Y-66762380D01*
X145788809Y-67238571D02*
X145455476Y-67238571D01*
X145312619Y-67762380D02*
X145788809Y-67762380D01*
X145788809Y-66762380D01*
X145312619Y-66762380D01*
X144312619Y-67762380D02*
X144645952Y-67286190D01*
X144884047Y-67762380D02*
X144884047Y-66762380D01*
X144503095Y-66762380D01*
X144407857Y-66810000D01*
X144360238Y-66857619D01*
X144312619Y-66952857D01*
X144312619Y-67095714D01*
X144360238Y-67190952D01*
X144407857Y-67238571D01*
X144503095Y-67286190D01*
X144884047Y-67286190D01*
%TO.C,SW1*%
X191071333Y-51204761D02*
X190928476Y-51252380D01*
X190690380Y-51252380D01*
X190595142Y-51204761D01*
X190547523Y-51157142D01*
X190499904Y-51061904D01*
X190499904Y-50966666D01*
X190547523Y-50871428D01*
X190595142Y-50823809D01*
X190690380Y-50776190D01*
X190880857Y-50728571D01*
X190976095Y-50680952D01*
X191023714Y-50633333D01*
X191071333Y-50538095D01*
X191071333Y-50442857D01*
X191023714Y-50347619D01*
X190976095Y-50300000D01*
X190880857Y-50252380D01*
X190642761Y-50252380D01*
X190499904Y-50300000D01*
X190166571Y-50252380D02*
X189928476Y-51252380D01*
X189738000Y-50538095D01*
X189547523Y-51252380D01*
X189309428Y-50252380D01*
X188404666Y-51252380D02*
X188976095Y-51252380D01*
X188690380Y-51252380D02*
X188690380Y-50252380D01*
X188785619Y-50395238D01*
X188880857Y-50490476D01*
X188976095Y-50538095D01*
%TO.C,J4*%
X183213333Y-41997380D02*
X183213333Y-42711666D01*
X183260952Y-42854523D01*
X183356190Y-42949761D01*
X183499047Y-42997380D01*
X183594285Y-42997380D01*
X182308571Y-42330714D02*
X182308571Y-42997380D01*
X182546666Y-41949761D02*
X182784761Y-42664047D01*
X182165714Y-42664047D01*
X180300000Y-48823571D02*
X180157142Y-48871190D01*
X180109523Y-48918809D01*
X180061904Y-49014047D01*
X180061904Y-49156904D01*
X180109523Y-49252142D01*
X180157142Y-49299761D01*
X180252380Y-49347380D01*
X180633333Y-49347380D01*
X180633333Y-48347380D01*
X180300000Y-48347380D01*
X180204761Y-48395000D01*
X180157142Y-48442619D01*
X180109523Y-48537857D01*
X180109523Y-48633095D01*
X180157142Y-48728333D01*
X180204761Y-48775952D01*
X180300000Y-48823571D01*
X180633333Y-48823571D01*
X179680952Y-49061666D02*
X179204761Y-49061666D01*
X179776190Y-49347380D02*
X179442857Y-48347380D01*
X179109523Y-49347380D01*
X178919047Y-48347380D02*
X178347619Y-48347380D01*
X178633333Y-49347380D02*
X178633333Y-48347380D01*
X178157142Y-48347380D02*
X177585714Y-48347380D01*
X177871428Y-49347380D02*
X177871428Y-48347380D01*
X177252380Y-48823571D02*
X176919047Y-48823571D01*
X176776190Y-49347380D02*
X177252380Y-49347380D01*
X177252380Y-48347380D01*
X176776190Y-48347380D01*
X175776190Y-49347380D02*
X176109523Y-48871190D01*
X176347619Y-49347380D02*
X176347619Y-48347380D01*
X175966666Y-48347380D01*
X175871428Y-48395000D01*
X175823809Y-48442619D01*
X175776190Y-48537857D01*
X175776190Y-48680714D01*
X175823809Y-48775952D01*
X175871428Y-48823571D01*
X175966666Y-48871190D01*
X176347619Y-48871190D01*
X175157142Y-48871190D02*
X175157142Y-49347380D01*
X175490476Y-48347380D02*
X175157142Y-48871190D01*
X174823809Y-48347380D01*
%TD*%
M02*
