%TF.GenerationSoftware,KiCad,Pcbnew,6.0.1+dfsg-1*%
%TF.CreationDate,2022-03-07T03:58:00+00:00*%
%TF.ProjectId,st_pat,73745f70-6174-42e6-9b69-6361645f7063,rev?*%
%TF.SameCoordinates,Original*%
%TF.FileFunction,Legend,Bot*%
%TF.FilePolarity,Positive*%
%FSLAX46Y46*%
G04 Gerber Fmt 4.6, Leading zero omitted, Abs format (unit mm)*
G04 Created by KiCad (PCBNEW 6.0.1+dfsg-1) date 2022-03-07 03:58:00*
%MOMM*%
%LPD*%
G01*
G04 APERTURE LIST*
G04 Aperture macros list*
%AMRoundRect*
0 Rectangle with rounded corners*
0 $1 Rounding radius*
0 $2 $3 $4 $5 $6 $7 $8 $9 X,Y pos of 4 corners*
0 Add a 4 corners polygon primitive as box body*
4,1,4,$2,$3,$4,$5,$6,$7,$8,$9,$2,$3,0*
0 Add four circle primitives for the rounded corners*
1,1,$1+$1,$2,$3*
1,1,$1+$1,$4,$5*
1,1,$1+$1,$6,$7*
1,1,$1+$1,$8,$9*
0 Add four rect primitives between the rounded corners*
20,1,$1+$1,$2,$3,$4,$5,0*
20,1,$1+$1,$4,$5,$6,$7,0*
20,1,$1+$1,$6,$7,$8,$9,0*
20,1,$1+$1,$8,$9,$2,$3,0*%
G04 Aperture macros list end*
%ADD10C,0.150000*%
%ADD11C,0.015000*%
%ADD12C,0.120000*%
%ADD13C,0.127000*%
%ADD14C,2.000000*%
%ADD15C,3.200000*%
%ADD16C,1.530000*%
%ADD17C,4.400000*%
%ADD18C,1.524000*%
%ADD19C,4.500000*%
%ADD20RoundRect,0.250000X0.350000X0.625000X-0.350000X0.625000X-0.350000X-0.625000X0.350000X-0.625000X0*%
%ADD21O,1.200000X1.750000*%
%ADD22R,1.530000X1.530000*%
G04 APERTURE END LIST*
D10*
X195851333Y-74004761D02*
X195708476Y-74052380D01*
X195470380Y-74052380D01*
X195375142Y-74004761D01*
X195327523Y-73957142D01*
X195279904Y-73861904D01*
X195279904Y-73766666D01*
X195327523Y-73671428D01*
X195375142Y-73623809D01*
X195470380Y-73576190D01*
X195660857Y-73528571D01*
X195756095Y-73480952D01*
X195803714Y-73433333D01*
X195851333Y-73338095D01*
X195851333Y-73242857D01*
X195803714Y-73147619D01*
X195756095Y-73100000D01*
X195660857Y-73052380D01*
X195422761Y-73052380D01*
X195279904Y-73100000D01*
X194946571Y-73052380D02*
X194708476Y-74052380D01*
X194518000Y-73338095D01*
X194327523Y-74052380D01*
X194089428Y-73052380D01*
X193184666Y-74052380D02*
X193756095Y-74052380D01*
X193470380Y-74052380D02*
X193470380Y-73052380D01*
X193565619Y-73195238D01*
X193660857Y-73290476D01*
X193756095Y-73338095D01*
X165141380Y-84141095D02*
X165950904Y-84141095D01*
X166046142Y-84188714D01*
X166093761Y-84236333D01*
X166141380Y-84331571D01*
X166141380Y-84522047D01*
X166093761Y-84617285D01*
X166046142Y-84664904D01*
X165950904Y-84712523D01*
X165141380Y-84712523D01*
X165141380Y-85664904D02*
X165141380Y-85188714D01*
X165617571Y-85141095D01*
X165569952Y-85188714D01*
X165522333Y-85283952D01*
X165522333Y-85522047D01*
X165569952Y-85617285D01*
X165617571Y-85664904D01*
X165712809Y-85712523D01*
X165950904Y-85712523D01*
X166046142Y-85664904D01*
X166093761Y-85617285D01*
X166141380Y-85522047D01*
X166141380Y-85283952D01*
X166093761Y-85188714D01*
X166046142Y-85141095D01*
X156267142Y-78196666D02*
X156314761Y-78149047D01*
X156362380Y-78006190D01*
X156362380Y-77910952D01*
X156314761Y-77768095D01*
X156219523Y-77672857D01*
X156124285Y-77625238D01*
X155933809Y-77577619D01*
X155790952Y-77577619D01*
X155600476Y-77625238D01*
X155505238Y-77672857D01*
X155410000Y-77768095D01*
X155362380Y-77910952D01*
X155362380Y-78006190D01*
X155410000Y-78149047D01*
X155457619Y-78196666D01*
X155362380Y-78815714D02*
X155362380Y-79006190D01*
X155410000Y-79101428D01*
X155505238Y-79196666D01*
X155695714Y-79244285D01*
X156029047Y-79244285D01*
X156219523Y-79196666D01*
X156314761Y-79101428D01*
X156362380Y-79006190D01*
X156362380Y-78815714D01*
X156314761Y-78720476D01*
X156219523Y-78625238D01*
X156029047Y-78577619D01*
X155695714Y-78577619D01*
X155505238Y-78625238D01*
X155410000Y-78720476D01*
X155362380Y-78815714D01*
X155362380Y-79530000D02*
X155362380Y-80101428D01*
X156362380Y-79815714D02*
X155362380Y-79815714D01*
X156314761Y-80387142D02*
X156362380Y-80530000D01*
X156362380Y-80768095D01*
X156314761Y-80863333D01*
X156267142Y-80910952D01*
X156171904Y-80958571D01*
X156076666Y-80958571D01*
X155981428Y-80910952D01*
X155933809Y-80863333D01*
X155886190Y-80768095D01*
X155838571Y-80577619D01*
X155790952Y-80482380D01*
X155743333Y-80434761D01*
X155648095Y-80387142D01*
X155552857Y-80387142D01*
X155457619Y-80434761D01*
X155410000Y-80482380D01*
X155362380Y-80577619D01*
X155362380Y-80815714D01*
X155410000Y-80958571D01*
X156457619Y-81149047D02*
X156457619Y-81910952D01*
X155410000Y-82672857D02*
X155362380Y-82577619D01*
X155362380Y-82434761D01*
X155410000Y-82291904D01*
X155505238Y-82196666D01*
X155600476Y-82149047D01*
X155790952Y-82101428D01*
X155933809Y-82101428D01*
X156124285Y-82149047D01*
X156219523Y-82196666D01*
X156314761Y-82291904D01*
X156362380Y-82434761D01*
X156362380Y-82530000D01*
X156314761Y-82672857D01*
X156267142Y-82720476D01*
X155933809Y-82720476D01*
X155933809Y-82530000D01*
X156362380Y-83149047D02*
X155362380Y-83149047D01*
X155362380Y-83530000D01*
X155410000Y-83625238D01*
X155457619Y-83672857D01*
X155552857Y-83720476D01*
X155695714Y-83720476D01*
X155790952Y-83672857D01*
X155838571Y-83625238D01*
X155886190Y-83530000D01*
X155886190Y-83149047D01*
X156314761Y-84101428D02*
X156362380Y-84244285D01*
X156362380Y-84482380D01*
X156314761Y-84577619D01*
X156267142Y-84625238D01*
X156171904Y-84672857D01*
X156076666Y-84672857D01*
X155981428Y-84625238D01*
X155933809Y-84577619D01*
X155886190Y-84482380D01*
X155838571Y-84291904D01*
X155790952Y-84196666D01*
X155743333Y-84149047D01*
X155648095Y-84101428D01*
X155552857Y-84101428D01*
X155457619Y-84149047D01*
X155410000Y-84196666D01*
X155362380Y-84291904D01*
X155362380Y-84530000D01*
X155410000Y-84672857D01*
X156457619Y-84863333D02*
X156457619Y-85625238D01*
X156362380Y-86434761D02*
X155886190Y-86101428D01*
X156362380Y-85863333D02*
X155362380Y-85863333D01*
X155362380Y-86244285D01*
X155410000Y-86339523D01*
X155457619Y-86387142D01*
X155552857Y-86434761D01*
X155695714Y-86434761D01*
X155790952Y-86387142D01*
X155838571Y-86339523D01*
X155886190Y-86244285D01*
X155886190Y-85863333D01*
X155838571Y-86863333D02*
X155838571Y-87196666D01*
X156362380Y-87339523D02*
X156362380Y-86863333D01*
X155362380Y-86863333D01*
X155362380Y-87339523D01*
X156267142Y-88339523D02*
X156314761Y-88291904D01*
X156362380Y-88149047D01*
X156362380Y-88053809D01*
X156314761Y-87910952D01*
X156219523Y-87815714D01*
X156124285Y-87768095D01*
X155933809Y-87720476D01*
X155790952Y-87720476D01*
X155600476Y-87768095D01*
X155505238Y-87815714D01*
X155410000Y-87910952D01*
X155362380Y-88053809D01*
X155362380Y-88149047D01*
X155410000Y-88291904D01*
X155457619Y-88339523D01*
X155838571Y-88768095D02*
X155838571Y-89101428D01*
X156362380Y-89244285D02*
X156362380Y-88768095D01*
X155362380Y-88768095D01*
X155362380Y-89244285D01*
X156362380Y-89672857D02*
X155362380Y-89672857D01*
X155362380Y-90006190D02*
X156362380Y-90339523D01*
X155362380Y-90672857D01*
X155838571Y-91006190D02*
X155838571Y-91339523D01*
X156362380Y-91482380D02*
X156362380Y-91006190D01*
X155362380Y-91006190D01*
X155362380Y-91482380D01*
X156362380Y-92482380D02*
X155886190Y-92149047D01*
X156362380Y-91910952D02*
X155362380Y-91910952D01*
X155362380Y-92291904D01*
X155410000Y-92387142D01*
X155457619Y-92434761D01*
X155552857Y-92482380D01*
X155695714Y-92482380D01*
X155790952Y-92434761D01*
X155838571Y-92387142D01*
X155886190Y-92291904D01*
X155886190Y-91910952D01*
X192168333Y-64252380D02*
X192168333Y-64966666D01*
X192215952Y-65109523D01*
X192311190Y-65204761D01*
X192454047Y-65252380D01*
X192549285Y-65252380D01*
X191263571Y-64585714D02*
X191263571Y-65252380D01*
X191501666Y-64204761D02*
X191739761Y-64919047D01*
X191120714Y-64919047D01*
X189255000Y-71078571D02*
X189112142Y-71126190D01*
X189064523Y-71173809D01*
X189016904Y-71269047D01*
X189016904Y-71411904D01*
X189064523Y-71507142D01*
X189112142Y-71554761D01*
X189207380Y-71602380D01*
X189588333Y-71602380D01*
X189588333Y-70602380D01*
X189255000Y-70602380D01*
X189159761Y-70650000D01*
X189112142Y-70697619D01*
X189064523Y-70792857D01*
X189064523Y-70888095D01*
X189112142Y-70983333D01*
X189159761Y-71030952D01*
X189255000Y-71078571D01*
X189588333Y-71078571D01*
X188635952Y-71316666D02*
X188159761Y-71316666D01*
X188731190Y-71602380D02*
X188397857Y-70602380D01*
X188064523Y-71602380D01*
X187874047Y-70602380D02*
X187302619Y-70602380D01*
X187588333Y-71602380D02*
X187588333Y-70602380D01*
X187112142Y-70602380D02*
X186540714Y-70602380D01*
X186826428Y-71602380D02*
X186826428Y-70602380D01*
X186207380Y-71078571D02*
X185874047Y-71078571D01*
X185731190Y-71602380D02*
X186207380Y-71602380D01*
X186207380Y-70602380D01*
X185731190Y-70602380D01*
X184731190Y-71602380D02*
X185064523Y-71126190D01*
X185302619Y-71602380D02*
X185302619Y-70602380D01*
X184921666Y-70602380D01*
X184826428Y-70650000D01*
X184778809Y-70697619D01*
X184731190Y-70792857D01*
X184731190Y-70935714D01*
X184778809Y-71030952D01*
X184826428Y-71078571D01*
X184921666Y-71126190D01*
X185302619Y-71126190D01*
X184112142Y-71126190D02*
X184112142Y-71602380D01*
X184445476Y-70602380D02*
X184112142Y-71126190D01*
X183778809Y-70602380D01*
D11*
X193462380Y-96968095D02*
X194271904Y-96968095D01*
X194367142Y-97015714D01*
X194414761Y-97063333D01*
X194462380Y-97158571D01*
X194462380Y-97349047D01*
X194414761Y-97444285D01*
X194367142Y-97491904D01*
X194271904Y-97539523D01*
X193462380Y-97539523D01*
X193557619Y-97968095D02*
X193510000Y-98015714D01*
X193462380Y-98110952D01*
X193462380Y-98349047D01*
X193510000Y-98444285D01*
X193557619Y-98491904D01*
X193652857Y-98539523D01*
X193748095Y-98539523D01*
X193890952Y-98491904D01*
X194462380Y-97920476D01*
X194462380Y-98539523D01*
D10*
X99616904Y-114962380D02*
X99616904Y-115771904D01*
X99569285Y-115867142D01*
X99521666Y-115914761D01*
X99426428Y-115962380D01*
X99235952Y-115962380D01*
X99140714Y-115914761D01*
X99093095Y-115867142D01*
X99045476Y-115771904D01*
X99045476Y-114962380D01*
X98664523Y-114962380D02*
X98045476Y-114962380D01*
X98378809Y-115343333D01*
X98235952Y-115343333D01*
X98140714Y-115390952D01*
X98093095Y-115438571D01*
X98045476Y-115533809D01*
X98045476Y-115771904D01*
X98093095Y-115867142D01*
X98140714Y-115914761D01*
X98235952Y-115962380D01*
X98521666Y-115962380D01*
X98616904Y-115914761D01*
X98664523Y-115867142D01*
X105275666Y-113422380D02*
X105751857Y-113422380D01*
X105751857Y-112422380D01*
X104942333Y-113422380D02*
X104942333Y-112422380D01*
X104513761Y-113374761D02*
X104370904Y-113422380D01*
X104132809Y-113422380D01*
X104037571Y-113374761D01*
X103989952Y-113327142D01*
X103942333Y-113231904D01*
X103942333Y-113136666D01*
X103989952Y-113041428D01*
X104037571Y-112993809D01*
X104132809Y-112946190D01*
X104323285Y-112898571D01*
X104418523Y-112850952D01*
X104466142Y-112803333D01*
X104513761Y-112708095D01*
X104513761Y-112612857D01*
X104466142Y-112517619D01*
X104418523Y-112470000D01*
X104323285Y-112422380D01*
X104085190Y-112422380D01*
X103942333Y-112470000D01*
X103561380Y-112517619D02*
X103513761Y-112470000D01*
X103418523Y-112422380D01*
X103180428Y-112422380D01*
X103085190Y-112470000D01*
X103037571Y-112517619D01*
X102989952Y-112612857D01*
X102989952Y-112708095D01*
X103037571Y-112850952D01*
X103609000Y-113422380D01*
X102989952Y-113422380D01*
X102561380Y-113422380D02*
X102561380Y-112422380D01*
X102228047Y-113136666D01*
X101894714Y-112422380D01*
X101894714Y-113422380D01*
X101418523Y-113422380D02*
X101418523Y-112422380D01*
X101180428Y-112422380D01*
X101037571Y-112470000D01*
X100942333Y-112565238D01*
X100894714Y-112660476D01*
X100847095Y-112850952D01*
X100847095Y-112993809D01*
X100894714Y-113184285D01*
X100942333Y-113279523D01*
X101037571Y-113374761D01*
X101180428Y-113422380D01*
X101418523Y-113422380D01*
X99942333Y-113422380D02*
X100418523Y-113422380D01*
X100418523Y-112422380D01*
X99847095Y-113517619D02*
X99085190Y-113517619D01*
X98894714Y-113136666D02*
X98418523Y-113136666D01*
X98989952Y-113422380D02*
X98656619Y-112422380D01*
X98323285Y-113422380D01*
X97989952Y-113422380D02*
X97989952Y-112422380D01*
X97751857Y-112422380D01*
X97609000Y-112470000D01*
X97513761Y-112565238D01*
X97466142Y-112660476D01*
X97418523Y-112850952D01*
X97418523Y-112993809D01*
X97466142Y-113184285D01*
X97513761Y-113279523D01*
X97609000Y-113374761D01*
X97751857Y-113422380D01*
X97989952Y-113422380D01*
X97037571Y-113136666D02*
X96561380Y-113136666D01*
X97132809Y-113422380D02*
X96799476Y-112422380D01*
X96466142Y-113422380D01*
X95799476Y-112898571D02*
X96132809Y-112898571D01*
X96132809Y-113422380D02*
X96132809Y-112422380D01*
X95656619Y-112422380D01*
X94704238Y-113422380D02*
X95037571Y-112946190D01*
X95275666Y-113422380D02*
X95275666Y-112422380D01*
X94894714Y-112422380D01*
X94799476Y-112470000D01*
X94751857Y-112517619D01*
X94704238Y-112612857D01*
X94704238Y-112755714D01*
X94751857Y-112850952D01*
X94799476Y-112898571D01*
X94894714Y-112946190D01*
X95275666Y-112946190D01*
X94275666Y-112422380D02*
X94275666Y-113231904D01*
X94228047Y-113327142D01*
X94180428Y-113374761D01*
X94085190Y-113422380D01*
X93894714Y-113422380D01*
X93799476Y-113374761D01*
X93751857Y-113327142D01*
X93704238Y-113231904D01*
X93704238Y-112422380D01*
X93228047Y-113422380D02*
X93228047Y-112422380D01*
X92894714Y-112422380D02*
X92323285Y-112422380D01*
X92609000Y-113422380D02*
X92609000Y-112422380D01*
D12*
X196570000Y-78310000D02*
X196570000Y-68560000D01*
X206710000Y-68560000D02*
X196570000Y-68560000D01*
X196570000Y-78310000D02*
X206710000Y-78310000D01*
X206710000Y-78310000D02*
X206710000Y-68560000D01*
X158922000Y-143161000D02*
X127299000Y-143161000D01*
X127299000Y-143161000D02*
X127299000Y-105569000D01*
X127299000Y-105569000D02*
X158922000Y-105569000D01*
X158922000Y-105569000D02*
X158922000Y-143161000D01*
X161374000Y-103357000D02*
X130124000Y-103357000D01*
X130124000Y-103357000D02*
X130124000Y-60357000D01*
X130124000Y-60357000D02*
X161374000Y-60357000D01*
X161374000Y-60357000D02*
X161374000Y-103357000D01*
X184250000Y-63670000D02*
X184530000Y-63670000D01*
X183330000Y-69890000D02*
X183330000Y-62070000D01*
X189450000Y-63670000D02*
X188530000Y-63670000D01*
X186890000Y-65530000D02*
X185890000Y-65530000D01*
X189450000Y-69890000D02*
X183330000Y-69890000D01*
X187690000Y-67630000D02*
X187690000Y-69890000D01*
X183330000Y-62070000D02*
X184250000Y-62070000D01*
X188690000Y-66030000D02*
X188690000Y-67630000D01*
X185890000Y-65530000D02*
X185890000Y-69890000D01*
X184250000Y-62070000D02*
X184250000Y-63670000D01*
X187690000Y-67630000D02*
X187690000Y-66030000D01*
X188250000Y-63670000D02*
X188250000Y-62455000D01*
X188530000Y-62070000D02*
X189450000Y-62070000D01*
X185090000Y-67630000D02*
X185090000Y-66030000D01*
X188530000Y-63670000D02*
X188530000Y-62070000D01*
X188250000Y-63670000D02*
X188530000Y-63670000D01*
X186890000Y-69890000D02*
X186890000Y-65530000D01*
X189450000Y-62070000D02*
X189450000Y-69890000D01*
X188190000Y-67630000D02*
X188190000Y-69890000D01*
X184090000Y-67630000D02*
X185090000Y-67630000D01*
X188690000Y-67630000D02*
X187690000Y-67630000D01*
X183330000Y-63670000D02*
X184250000Y-63670000D01*
X184090000Y-66030000D02*
X184090000Y-67630000D01*
X185090000Y-66030000D02*
X184090000Y-66030000D01*
X187690000Y-66030000D02*
X188690000Y-66030000D01*
D13*
X182580000Y-97730000D02*
X182580000Y-143450000D01*
X185120000Y-145990000D02*
X202900000Y-145990000D01*
X205440000Y-143450000D02*
X205440000Y-97730000D01*
X202900000Y-95190000D02*
X185120000Y-95190000D01*
X202900000Y-145990000D02*
G75*
G03*
X205440000Y-143450000I-1J2540001D01*
G01*
X185120000Y-95190000D02*
G75*
G03*
X182580000Y-97730000I1J-2540001D01*
G01*
X205440000Y-97730000D02*
G75*
G03*
X202900000Y-95190000I-2540001J-1D01*
G01*
X182580000Y-143450000D02*
G75*
G03*
X185120000Y-145990000I2540001J1D01*
G01*
D12*
X107745000Y-114240000D02*
X89965000Y-114240000D01*
X89965000Y-139640000D02*
X107745000Y-139640000D01*
X107745000Y-139640000D02*
X107745000Y-114240000D01*
X89965000Y-114240000D02*
X89965000Y-139640000D01*
%LPC*%
D14*
X143464000Y-131362000D03*
X143464000Y-137862000D03*
X147964000Y-131362000D03*
X147964000Y-137862000D03*
X111714000Y-137862000D03*
X111714000Y-131362000D03*
X116214000Y-137862000D03*
X116214000Y-131362000D03*
D15*
X174960000Y-115510000D03*
X116540000Y-115510000D03*
X174960000Y-64710000D03*
X116540000Y-64710000D03*
D16*
X155910000Y-115510000D03*
X153370000Y-115510000D03*
X150830000Y-115510000D03*
X148290000Y-115510000D03*
X145750000Y-115510000D03*
X143210000Y-115510000D03*
X140670000Y-115510000D03*
X138130000Y-115510000D03*
X135590000Y-115510000D03*
D14*
X189744000Y-85066000D03*
X196244000Y-85066000D03*
X196244000Y-89566000D03*
X189744000Y-89566000D03*
D16*
X88600000Y-69949000D03*
X91140000Y-69949000D03*
X93680000Y-69949000D03*
X96220000Y-69949000D03*
X98760000Y-69949000D03*
X101300000Y-69949000D03*
X103840000Y-69949000D03*
X106380000Y-69949000D03*
X108920000Y-69949000D03*
D14*
X175214000Y-137862000D03*
X175214000Y-131362000D03*
X179714000Y-131362000D03*
X179714000Y-137862000D03*
D17*
X202900000Y-63440000D03*
X88600000Y-143450000D03*
X88600000Y-63440000D03*
D18*
X205440000Y-71060000D03*
X205440000Y-76140000D03*
X197820000Y-71060000D03*
X197820000Y-73600000D03*
X197820000Y-76140000D03*
X200360000Y-71060000D03*
X200360000Y-73600000D03*
X200360000Y-76140000D03*
D19*
X145750000Y-63440000D03*
X155874000Y-123857000D03*
X130220000Y-108490000D03*
X130220000Y-140240000D03*
X158250000Y-100240000D03*
X133250000Y-100240000D03*
D18*
X150370000Y-141145000D03*
X147830000Y-141145000D03*
X145290000Y-141145000D03*
X142750000Y-141145000D03*
X140210000Y-141145000D03*
X137670000Y-141145000D03*
D20*
X187390000Y-63530000D03*
D21*
X185390000Y-63530000D03*
D15*
X185120000Y-97730000D03*
X202900000Y-97730000D03*
X202900000Y-143450000D03*
X185120000Y-143450000D03*
D22*
X204170000Y-139640000D03*
D16*
X204170000Y-137100000D03*
X204170000Y-134560000D03*
X204170000Y-132020000D03*
X204170000Y-129480000D03*
X204170000Y-126940000D03*
X204170000Y-124400000D03*
X204170000Y-121860000D03*
X204170000Y-119320000D03*
X204170000Y-116780000D03*
X204170000Y-114240000D03*
X204170000Y-111700000D03*
X204170000Y-109160000D03*
X204170000Y-106620000D03*
X204170000Y-104080000D03*
X204170000Y-101540000D03*
D22*
X183850000Y-111700000D03*
D16*
X183850000Y-114240000D03*
X183850000Y-116780000D03*
X183850000Y-119320000D03*
X183850000Y-121860000D03*
X183850000Y-124400000D03*
X183850000Y-126940000D03*
X183850000Y-129480000D03*
X183850000Y-132020000D03*
X183850000Y-134560000D03*
X183850000Y-137100000D03*
X183850000Y-139640000D03*
X105205000Y-119320000D03*
X105205000Y-121860000D03*
X105205000Y-124400000D03*
X105205000Y-126940000D03*
X105205000Y-129480000D03*
X105205000Y-132020000D03*
X105205000Y-134560000D03*
M02*
