%TF.GenerationSoftware,KiCad,Pcbnew,(6.0.2)*%
%TF.CreationDate,2022-03-08T23:09:40-05:00*%
%TF.ProjectId,st_pat,73745f70-6174-42e6-9b69-6361645f7063,rev?*%
%TF.SameCoordinates,Original*%
%TF.FileFunction,Legend,Top*%
%TF.FilePolarity,Positive*%
%FSLAX46Y46*%
G04 Gerber Fmt 4.6, Leading zero omitted, Abs format (unit mm)*
G04 Created by KiCad (PCBNEW (6.0.2)) date 2022-03-08 23:09:40*
%MOMM*%
%LPD*%
G01*
G04 APERTURE LIST*
G04 Aperture macros list*
%AMRoundRect*
0 Rectangle with rounded corners*
0 $1 Rounding radius*
0 $2 $3 $4 $5 $6 $7 $8 $9 X,Y pos of 4 corners*
0 Add a 4 corners polygon primitive as box body*
4,1,4,$2,$3,$4,$5,$6,$7,$8,$9,$2,$3,0*
0 Add four circle primitives for the rounded corners*
1,1,$1+$1,$2,$3*
1,1,$1+$1,$4,$5*
1,1,$1+$1,$6,$7*
1,1,$1+$1,$8,$9*
0 Add four rect primitives between the rounded corners*
20,1,$1+$1,$2,$3,$4,$5,0*
20,1,$1+$1,$4,$5,$6,$7,0*
20,1,$1+$1,$6,$7,$8,$9,0*
20,1,$1+$1,$8,$9,$2,$3,0*%
G04 Aperture macros list end*
%ADD10C,0.150000*%
%ADD11C,0.120000*%
%ADD12C,0.010000*%
%ADD13RoundRect,0.250000X0.450000X-0.350000X0.450000X0.350000X-0.450000X0.350000X-0.450000X-0.350000X0*%
%ADD14RoundRect,0.250001X0.624999X-0.462499X0.624999X0.462499X-0.624999X0.462499X-0.624999X-0.462499X0*%
%ADD15C,2.000000*%
%ADD16C,3.200000*%
%ADD17C,1.530000*%
%ADD18C,4.400000*%
%ADD19C,1.524000*%
%ADD20C,4.500000*%
%ADD21RoundRect,0.250000X0.350000X0.625000X-0.350000X0.625000X-0.350000X-0.625000X0.350000X-0.625000X0*%
%ADD22O,1.200000X1.750000*%
%ADD23R,1.530000X1.530000*%
G04 APERTURE END LIST*
D10*
X88982976Y-131279761D02*
X89125833Y-131327380D01*
X89363928Y-131327380D01*
X89459166Y-131279761D01*
X89506785Y-131232142D01*
X89554404Y-131136904D01*
X89554404Y-131041666D01*
X89506785Y-130946428D01*
X89459166Y-130898809D01*
X89363928Y-130851190D01*
X89173452Y-130803571D01*
X89078214Y-130755952D01*
X89030595Y-130708333D01*
X88982976Y-130613095D01*
X88982976Y-130517857D01*
X89030595Y-130422619D01*
X89078214Y-130375000D01*
X89173452Y-130327380D01*
X89411547Y-130327380D01*
X89554404Y-130375000D01*
X89840119Y-130327380D02*
X90411547Y-130327380D01*
X90125833Y-131327380D02*
X90125833Y-130327380D01*
X91506785Y-131327380D02*
X91506785Y-130327380D01*
X91887738Y-130327380D01*
X91982976Y-130375000D01*
X92030595Y-130422619D01*
X92078214Y-130517857D01*
X92078214Y-130660714D01*
X92030595Y-130755952D01*
X91982976Y-130803571D01*
X91887738Y-130851190D01*
X91506785Y-130851190D01*
X92459166Y-131041666D02*
X92935357Y-131041666D01*
X92363928Y-131327380D02*
X92697261Y-130327380D01*
X93030595Y-131327380D01*
X93221071Y-130327380D02*
X93792500Y-130327380D01*
X93506785Y-131327380D02*
X93506785Y-130327380D01*
X94078214Y-131279761D02*
X94221071Y-131327380D01*
X94459166Y-131327380D01*
X94554404Y-131279761D01*
X94602023Y-131232142D01*
X94649642Y-131136904D01*
X94649642Y-131041666D01*
X94602023Y-130946428D01*
X94554404Y-130898809D01*
X94459166Y-130851190D01*
X94268690Y-130803571D01*
X94173452Y-130755952D01*
X94125833Y-130708333D01*
X94078214Y-130613095D01*
X94078214Y-130517857D01*
X94125833Y-130422619D01*
X94173452Y-130375000D01*
X94268690Y-130327380D01*
X94506785Y-130327380D01*
X94649642Y-130375000D01*
X95744880Y-130660714D02*
X95982976Y-131327380D01*
X96221071Y-130660714D01*
X96554404Y-130422619D02*
X96602023Y-130375000D01*
X96697261Y-130327380D01*
X96935357Y-130327380D01*
X97030595Y-130375000D01*
X97078214Y-130422619D01*
X97125833Y-130517857D01*
X97125833Y-130613095D01*
X97078214Y-130755952D01*
X96506785Y-131327380D01*
X97125833Y-131327380D01*
X97554404Y-131232142D02*
X97602023Y-131279761D01*
X97554404Y-131327380D01*
X97506785Y-131279761D01*
X97554404Y-131232142D01*
X97554404Y-131327380D01*
X98554404Y-131327380D02*
X97982976Y-131327380D01*
X98268690Y-131327380D02*
X98268690Y-130327380D01*
X98173452Y-130470238D01*
X98078214Y-130565476D01*
X97982976Y-130613095D01*
X89602023Y-132937380D02*
X89268690Y-132461190D01*
X89030595Y-132937380D02*
X89030595Y-131937380D01*
X89411547Y-131937380D01*
X89506785Y-131985000D01*
X89554404Y-132032619D01*
X89602023Y-132127857D01*
X89602023Y-132270714D01*
X89554404Y-132365952D01*
X89506785Y-132413571D01*
X89411547Y-132461190D01*
X89030595Y-132461190D01*
X90030595Y-132937380D02*
X90030595Y-132270714D01*
X90030595Y-131937380D02*
X89982976Y-131985000D01*
X90030595Y-132032619D01*
X90078214Y-131985000D01*
X90030595Y-131937380D01*
X90030595Y-132032619D01*
X90649642Y-132937380D02*
X90554404Y-132889761D01*
X90506785Y-132842142D01*
X90459166Y-132746904D01*
X90459166Y-132461190D01*
X90506785Y-132365952D01*
X90554404Y-132318333D01*
X90649642Y-132270714D01*
X90792500Y-132270714D01*
X90887738Y-132318333D01*
X90935357Y-132365952D01*
X90982976Y-132461190D01*
X90982976Y-132746904D01*
X90935357Y-132842142D01*
X90887738Y-132889761D01*
X90792500Y-132937380D01*
X90649642Y-132937380D01*
X92649642Y-132937380D02*
X92173452Y-132937380D01*
X92173452Y-131937380D01*
X92982976Y-132937380D02*
X92982976Y-132270714D01*
X92982976Y-131937380D02*
X92935357Y-131985000D01*
X92982976Y-132032619D01*
X93030595Y-131985000D01*
X92982976Y-131937380D01*
X92982976Y-132032619D01*
X93887738Y-132270714D02*
X93887738Y-132937380D01*
X93459166Y-132270714D02*
X93459166Y-132794523D01*
X93506785Y-132889761D01*
X93602023Y-132937380D01*
X93744880Y-132937380D01*
X93840119Y-132889761D01*
X93887738Y-132842142D01*
X88935357Y-133547380D02*
X89173452Y-134547380D01*
X89363928Y-133833095D01*
X89554404Y-134547380D01*
X89792500Y-133547380D01*
X90602023Y-134547380D02*
X90602023Y-134023571D01*
X90554404Y-133928333D01*
X90459166Y-133880714D01*
X90268690Y-133880714D01*
X90173452Y-133928333D01*
X90602023Y-134499761D02*
X90506785Y-134547380D01*
X90268690Y-134547380D01*
X90173452Y-134499761D01*
X90125833Y-134404523D01*
X90125833Y-134309285D01*
X90173452Y-134214047D01*
X90268690Y-134166428D01*
X90506785Y-134166428D01*
X90602023Y-134118809D01*
X90935357Y-133880714D02*
X91316309Y-133880714D01*
X91078214Y-133547380D02*
X91078214Y-134404523D01*
X91125833Y-134499761D01*
X91221071Y-134547380D01*
X91316309Y-134547380D01*
X92030595Y-134499761D02*
X91935357Y-134547380D01*
X91744880Y-134547380D01*
X91649642Y-134499761D01*
X91602023Y-134404523D01*
X91602023Y-134023571D01*
X91649642Y-133928333D01*
X91744880Y-133880714D01*
X91935357Y-133880714D01*
X92030595Y-133928333D01*
X92078214Y-134023571D01*
X92078214Y-134118809D01*
X91602023Y-134214047D01*
X92506785Y-134547380D02*
X92506785Y-133880714D01*
X92506785Y-134071190D02*
X92554404Y-133975952D01*
X92602023Y-133928333D01*
X92697261Y-133880714D01*
X92792500Y-133880714D01*
X93268690Y-134547380D02*
X93173452Y-134499761D01*
X93125833Y-134404523D01*
X93125833Y-133547380D01*
X93792500Y-134547380D02*
X93697261Y-134499761D01*
X93649642Y-134452142D01*
X93602023Y-134356904D01*
X93602023Y-134071190D01*
X93649642Y-133975952D01*
X93697261Y-133928333D01*
X93792500Y-133880714D01*
X93935357Y-133880714D01*
X94030595Y-133928333D01*
X94078214Y-133975952D01*
X94125833Y-134071190D01*
X94125833Y-134356904D01*
X94078214Y-134452142D01*
X94030595Y-134499761D01*
X93935357Y-134547380D01*
X93792500Y-134547380D01*
X94697261Y-134547380D02*
X94602023Y-134499761D01*
X94554404Y-134452142D01*
X94506785Y-134356904D01*
X94506785Y-134071190D01*
X94554404Y-133975952D01*
X94602023Y-133928333D01*
X94697261Y-133880714D01*
X94840119Y-133880714D01*
X94935357Y-133928333D01*
X94982976Y-133975952D01*
X95030595Y-134071190D01*
X95030595Y-134356904D01*
X94982976Y-134452142D01*
X94935357Y-134499761D01*
X94840119Y-134547380D01*
X94697261Y-134547380D01*
X96792500Y-134547380D02*
X96459166Y-134071190D01*
X96221071Y-134547380D02*
X96221071Y-133547380D01*
X96602023Y-133547380D01*
X96697261Y-133595000D01*
X96744880Y-133642619D01*
X96792500Y-133737857D01*
X96792500Y-133880714D01*
X96744880Y-133975952D01*
X96697261Y-134023571D01*
X96602023Y-134071190D01*
X96221071Y-134071190D01*
X97363928Y-134547380D02*
X97268690Y-134499761D01*
X97221071Y-134452142D01*
X97173452Y-134356904D01*
X97173452Y-134071190D01*
X97221071Y-133975952D01*
X97268690Y-133928333D01*
X97363928Y-133880714D01*
X97506785Y-133880714D01*
X97602023Y-133928333D01*
X97649642Y-133975952D01*
X97697261Y-134071190D01*
X97697261Y-134356904D01*
X97649642Y-134452142D01*
X97602023Y-134499761D01*
X97506785Y-134547380D01*
X97363928Y-134547380D01*
X98554404Y-134499761D02*
X98459166Y-134547380D01*
X98268690Y-134547380D01*
X98173452Y-134499761D01*
X98125833Y-134452142D01*
X98078214Y-134356904D01*
X98078214Y-134071190D01*
X98125833Y-133975952D01*
X98173452Y-133928333D01*
X98268690Y-133880714D01*
X98459166Y-133880714D01*
X98554404Y-133928333D01*
X98982976Y-134547380D02*
X98982976Y-133547380D01*
X99078214Y-134166428D02*
X99363928Y-134547380D01*
X99363928Y-133880714D02*
X98982976Y-134261666D01*
X100173452Y-134499761D02*
X100078214Y-134547380D01*
X99887738Y-134547380D01*
X99792500Y-134499761D01*
X99744880Y-134404523D01*
X99744880Y-134023571D01*
X99792500Y-133928333D01*
X99887738Y-133880714D01*
X100078214Y-133880714D01*
X100173452Y-133928333D01*
X100221071Y-134023571D01*
X100221071Y-134118809D01*
X99744880Y-134214047D01*
X100506785Y-133880714D02*
X100887738Y-133880714D01*
X100649642Y-133547380D02*
X100649642Y-134404523D01*
X100697261Y-134499761D01*
X100792500Y-134547380D01*
X100887738Y-134547380D01*
X101221071Y-134547380D02*
X101221071Y-133880714D01*
X101221071Y-134071190D02*
X101268690Y-133975952D01*
X101316309Y-133928333D01*
X101411547Y-133880714D01*
X101506785Y-133880714D01*
X101744880Y-133880714D02*
X101982976Y-134547380D01*
X102221071Y-133880714D02*
X101982976Y-134547380D01*
X101887738Y-134785476D01*
X101840119Y-134833095D01*
X101744880Y-134880714D01*
X88982976Y-135252619D02*
X89030595Y-135205000D01*
X89125833Y-135157380D01*
X89363928Y-135157380D01*
X89459166Y-135205000D01*
X89506785Y-135252619D01*
X89554404Y-135347857D01*
X89554404Y-135443095D01*
X89506785Y-135585952D01*
X88935357Y-136157380D01*
X89554404Y-136157380D01*
X90173452Y-135157380D02*
X90268690Y-135157380D01*
X90363928Y-135205000D01*
X90411547Y-135252619D01*
X90459166Y-135347857D01*
X90506785Y-135538333D01*
X90506785Y-135776428D01*
X90459166Y-135966904D01*
X90411547Y-136062142D01*
X90363928Y-136109761D01*
X90268690Y-136157380D01*
X90173452Y-136157380D01*
X90078214Y-136109761D01*
X90030595Y-136062142D01*
X89982976Y-135966904D01*
X89935357Y-135776428D01*
X89935357Y-135538333D01*
X89982976Y-135347857D01*
X90030595Y-135252619D01*
X90078214Y-135205000D01*
X90173452Y-135157380D01*
X90887738Y-135252619D02*
X90935357Y-135205000D01*
X91030595Y-135157380D01*
X91268690Y-135157380D01*
X91363928Y-135205000D01*
X91411547Y-135252619D01*
X91459166Y-135347857D01*
X91459166Y-135443095D01*
X91411547Y-135585952D01*
X90840119Y-136157380D01*
X91459166Y-136157380D01*
X91840119Y-135252619D02*
X91887738Y-135205000D01*
X91982976Y-135157380D01*
X92221071Y-135157380D01*
X92316309Y-135205000D01*
X92363928Y-135252619D01*
X92411547Y-135347857D01*
X92411547Y-135443095D01*
X92363928Y-135585952D01*
X91792500Y-136157380D01*
X92411547Y-136157380D01*
X92840119Y-135776428D02*
X93602023Y-135776428D01*
X94268690Y-135157380D02*
X94363928Y-135157380D01*
X94459166Y-135205000D01*
X94506785Y-135252619D01*
X94554404Y-135347857D01*
X94602023Y-135538333D01*
X94602023Y-135776428D01*
X94554404Y-135966904D01*
X94506785Y-136062142D01*
X94459166Y-136109761D01*
X94363928Y-136157380D01*
X94268690Y-136157380D01*
X94173452Y-136109761D01*
X94125833Y-136062142D01*
X94078214Y-135966904D01*
X94030595Y-135776428D01*
X94030595Y-135538333D01*
X94078214Y-135347857D01*
X94125833Y-135252619D01*
X94173452Y-135205000D01*
X94268690Y-135157380D01*
X94935357Y-135157380D02*
X95554404Y-135157380D01*
X95221071Y-135538333D01*
X95363928Y-135538333D01*
X95459166Y-135585952D01*
X95506785Y-135633571D01*
X95554404Y-135728809D01*
X95554404Y-135966904D01*
X95506785Y-136062142D01*
X95459166Y-136109761D01*
X95363928Y-136157380D01*
X95078214Y-136157380D01*
X94982976Y-136109761D01*
X94935357Y-136062142D01*
X95982976Y-135776428D02*
X96744880Y-135776428D01*
X97411547Y-135157380D02*
X97506785Y-135157380D01*
X97602023Y-135205000D01*
X97649642Y-135252619D01*
X97697261Y-135347857D01*
X97744880Y-135538333D01*
X97744880Y-135776428D01*
X97697261Y-135966904D01*
X97649642Y-136062142D01*
X97602023Y-136109761D01*
X97506785Y-136157380D01*
X97411547Y-136157380D01*
X97316309Y-136109761D01*
X97268690Y-136062142D01*
X97221071Y-135966904D01*
X97173452Y-135776428D01*
X97173452Y-135538333D01*
X97221071Y-135347857D01*
X97268690Y-135252619D01*
X97316309Y-135205000D01*
X97411547Y-135157380D01*
X98649642Y-135157380D02*
X98173452Y-135157380D01*
X98125833Y-135633571D01*
X98173452Y-135585952D01*
X98268690Y-135538333D01*
X98506785Y-135538333D01*
X98602023Y-135585952D01*
X98649642Y-135633571D01*
X98697261Y-135728809D01*
X98697261Y-135966904D01*
X98649642Y-136062142D01*
X98602023Y-136109761D01*
X98506785Y-136157380D01*
X98268690Y-136157380D01*
X98173452Y-136109761D01*
X98125833Y-136062142D01*
X123993333Y-129932380D02*
X123660000Y-129456190D01*
X123421904Y-129932380D02*
X123421904Y-128932380D01*
X123802857Y-128932380D01*
X123898095Y-128980000D01*
X123945714Y-129027619D01*
X123993333Y-129122857D01*
X123993333Y-129265714D01*
X123945714Y-129360952D01*
X123898095Y-129408571D01*
X123802857Y-129456190D01*
X123421904Y-129456190D01*
X124374285Y-129027619D02*
X124421904Y-128980000D01*
X124517142Y-128932380D01*
X124755238Y-128932380D01*
X124850476Y-128980000D01*
X124898095Y-129027619D01*
X124945714Y-129122857D01*
X124945714Y-129218095D01*
X124898095Y-129360952D01*
X124326666Y-129932380D01*
X124945714Y-129932380D01*
X128501904Y-128879880D02*
X128501904Y-127879880D01*
X128740000Y-127879880D01*
X128882857Y-127927500D01*
X128978095Y-128022738D01*
X129025714Y-128117976D01*
X129073333Y-128308452D01*
X129073333Y-128451309D01*
X129025714Y-128641785D01*
X128978095Y-128737023D01*
X128882857Y-128832261D01*
X128740000Y-128879880D01*
X128501904Y-128879880D01*
X129454285Y-127975119D02*
X129501904Y-127927500D01*
X129597142Y-127879880D01*
X129835238Y-127879880D01*
X129930476Y-127927500D01*
X129978095Y-127975119D01*
X130025714Y-128070357D01*
X130025714Y-128165595D01*
X129978095Y-128308452D01*
X129406666Y-128879880D01*
X130025714Y-128879880D01*
X144380666Y-128614761D02*
X144523523Y-128662380D01*
X144761619Y-128662380D01*
X144856857Y-128614761D01*
X144904476Y-128567142D01*
X144952095Y-128471904D01*
X144952095Y-128376666D01*
X144904476Y-128281428D01*
X144856857Y-128233809D01*
X144761619Y-128186190D01*
X144571142Y-128138571D01*
X144475904Y-128090952D01*
X144428285Y-128043333D01*
X144380666Y-127948095D01*
X144380666Y-127852857D01*
X144428285Y-127757619D01*
X144475904Y-127710000D01*
X144571142Y-127662380D01*
X144809238Y-127662380D01*
X144952095Y-127710000D01*
X145285428Y-127662380D02*
X145523523Y-128662380D01*
X145714000Y-127948095D01*
X145904476Y-128662380D01*
X146142571Y-127662380D01*
X146952095Y-127995714D02*
X146952095Y-128662380D01*
X146714000Y-127614761D02*
X146475904Y-128329047D01*
X147094952Y-128329047D01*
X161521904Y-128698880D02*
X161521904Y-127698880D01*
X161760000Y-127698880D01*
X161902857Y-127746500D01*
X161998095Y-127841738D01*
X162045714Y-127936976D01*
X162093333Y-128127452D01*
X162093333Y-128270309D01*
X162045714Y-128460785D01*
X161998095Y-128556023D01*
X161902857Y-128651261D01*
X161760000Y-128698880D01*
X161521904Y-128698880D01*
X162426666Y-127698880D02*
X163045714Y-127698880D01*
X162712380Y-128079833D01*
X162855238Y-128079833D01*
X162950476Y-128127452D01*
X162998095Y-128175071D01*
X163045714Y-128270309D01*
X163045714Y-128508404D01*
X162998095Y-128603642D01*
X162950476Y-128651261D01*
X162855238Y-128698880D01*
X162569523Y-128698880D01*
X162474285Y-128651261D01*
X162426666Y-128603642D01*
X112920666Y-128614761D02*
X113063523Y-128662380D01*
X113301619Y-128662380D01*
X113396857Y-128614761D01*
X113444476Y-128567142D01*
X113492095Y-128471904D01*
X113492095Y-128376666D01*
X113444476Y-128281428D01*
X113396857Y-128233809D01*
X113301619Y-128186190D01*
X113111142Y-128138571D01*
X113015904Y-128090952D01*
X112968285Y-128043333D01*
X112920666Y-127948095D01*
X112920666Y-127852857D01*
X112968285Y-127757619D01*
X113015904Y-127710000D01*
X113111142Y-127662380D01*
X113349238Y-127662380D01*
X113492095Y-127710000D01*
X113825428Y-127662380D02*
X114063523Y-128662380D01*
X114254000Y-127948095D01*
X114444476Y-128662380D01*
X114682571Y-127662380D01*
X115539714Y-127662380D02*
X115063523Y-127662380D01*
X115015904Y-128138571D01*
X115063523Y-128090952D01*
X115158761Y-128043333D01*
X115396857Y-128043333D01*
X115492095Y-128090952D01*
X115539714Y-128138571D01*
X115587333Y-128233809D01*
X115587333Y-128471904D01*
X115539714Y-128567142D01*
X115492095Y-128614761D01*
X115396857Y-128662380D01*
X115158761Y-128662380D01*
X115063523Y-128614761D01*
X115015904Y-128567142D01*
X157013333Y-129932380D02*
X156680000Y-129456190D01*
X156441904Y-129932380D02*
X156441904Y-128932380D01*
X156822857Y-128932380D01*
X156918095Y-128980000D01*
X156965714Y-129027619D01*
X157013333Y-129122857D01*
X157013333Y-129265714D01*
X156965714Y-129360952D01*
X156918095Y-129408571D01*
X156822857Y-129456190D01*
X156441904Y-129456190D01*
X157346666Y-128932380D02*
X157965714Y-128932380D01*
X157632380Y-129313333D01*
X157775238Y-129313333D01*
X157870476Y-129360952D01*
X157918095Y-129408571D01*
X157965714Y-129503809D01*
X157965714Y-129741904D01*
X157918095Y-129837142D01*
X157870476Y-129884761D01*
X157775238Y-129932380D01*
X157489523Y-129932380D01*
X157394285Y-129884761D01*
X157346666Y-129837142D01*
X144988095Y-109374380D02*
X144988095Y-110183904D01*
X145035714Y-110279142D01*
X145083333Y-110326761D01*
X145178571Y-110374380D01*
X145369047Y-110374380D01*
X145464285Y-110326761D01*
X145511904Y-110279142D01*
X145559523Y-110183904D01*
X145559523Y-109374380D01*
X146464285Y-109707714D02*
X146464285Y-110374380D01*
X146226190Y-109326761D02*
X145988095Y-110041047D01*
X146607142Y-110041047D01*
X191660666Y-83470761D02*
X191803523Y-83518380D01*
X192041619Y-83518380D01*
X192136857Y-83470761D01*
X192184476Y-83423142D01*
X192232095Y-83327904D01*
X192232095Y-83232666D01*
X192184476Y-83137428D01*
X192136857Y-83089809D01*
X192041619Y-83042190D01*
X191851142Y-82994571D01*
X191755904Y-82946952D01*
X191708285Y-82899333D01*
X191660666Y-82804095D01*
X191660666Y-82708857D01*
X191708285Y-82613619D01*
X191755904Y-82566000D01*
X191851142Y-82518380D01*
X192089238Y-82518380D01*
X192232095Y-82566000D01*
X192565428Y-82518380D02*
X192803523Y-83518380D01*
X192994000Y-82804095D01*
X193184476Y-83518380D01*
X193422571Y-82518380D01*
X193755904Y-82613619D02*
X193803523Y-82566000D01*
X193898761Y-82518380D01*
X194136857Y-82518380D01*
X194232095Y-82566000D01*
X194279714Y-82613619D01*
X194327333Y-82708857D01*
X194327333Y-82804095D01*
X194279714Y-82946952D01*
X193708285Y-83518380D01*
X194327333Y-83518380D01*
X98506095Y-97341380D02*
X98506095Y-98150904D01*
X98553714Y-98246142D01*
X98601333Y-98293761D01*
X98696571Y-98341380D01*
X98887047Y-98341380D01*
X98982285Y-98293761D01*
X99029904Y-98246142D01*
X99077523Y-98150904D01*
X99077523Y-97341380D01*
X100077523Y-98341380D02*
X99506095Y-98341380D01*
X99791809Y-98341380D02*
X99791809Y-97341380D01*
X99696571Y-97484238D01*
X99601333Y-97579476D01*
X99506095Y-97627095D01*
X176166666Y-128614761D02*
X176309523Y-128662380D01*
X176547619Y-128662380D01*
X176642857Y-128614761D01*
X176690476Y-128567142D01*
X176738095Y-128471904D01*
X176738095Y-128376666D01*
X176690476Y-128281428D01*
X176642857Y-128233809D01*
X176547619Y-128186190D01*
X176357142Y-128138571D01*
X176261904Y-128090952D01*
X176214285Y-128043333D01*
X176166666Y-127948095D01*
X176166666Y-127852857D01*
X176214285Y-127757619D01*
X176261904Y-127710000D01*
X176357142Y-127662380D01*
X176595238Y-127662380D01*
X176738095Y-127710000D01*
X177071428Y-127662380D02*
X177309523Y-128662380D01*
X177500000Y-127948095D01*
X177690476Y-128662380D01*
X177928571Y-127662380D01*
X178214285Y-127662380D02*
X178833333Y-127662380D01*
X178500000Y-128043333D01*
X178642857Y-128043333D01*
X178738095Y-128090952D01*
X178785714Y-128138571D01*
X178833333Y-128233809D01*
X178833333Y-128471904D01*
X178785714Y-128567142D01*
X178738095Y-128614761D01*
X178642857Y-128662380D01*
X178357142Y-128662380D01*
X178261904Y-128614761D01*
X178214285Y-128567142D01*
D11*
X124895000Y-132517064D02*
X124895000Y-132062936D01*
X123425000Y-132517064D02*
X123425000Y-132062936D01*
X128105000Y-134480000D02*
X130375000Y-134480000D01*
X130375000Y-134480000D02*
X130375000Y-130420000D01*
X128105000Y-130420000D02*
X128105000Y-134480000D01*
X142464000Y-132362000D02*
X142464000Y-136862000D01*
X144964000Y-138112000D02*
X146464000Y-138112000D01*
X146464000Y-131112000D02*
X144964000Y-131112000D01*
X148964000Y-136862000D02*
X148964000Y-132362000D01*
X163395000Y-134262500D02*
X163395000Y-130202500D01*
X161125000Y-130202500D02*
X161125000Y-134262500D01*
X161125000Y-134262500D02*
X163395000Y-134262500D01*
X113214000Y-138112000D02*
X114714000Y-138112000D01*
X114714000Y-131112000D02*
X113214000Y-131112000D01*
X110714000Y-132362000D02*
X110714000Y-136862000D01*
X117214000Y-136862000D02*
X117214000Y-132362000D01*
X157915000Y-132517064D02*
X157915000Y-132062936D01*
X156445000Y-132517064D02*
X156445000Y-132062936D01*
X114000000Y-62170000D02*
X177500000Y-62170000D01*
X177500000Y-118050000D02*
X114000000Y-118050000D01*
X114000000Y-118050000D02*
X114000000Y-62170000D01*
X177500000Y-62170000D02*
X177500000Y-118050000D01*
X190744000Y-90566000D02*
X195244000Y-90566000D01*
X196494000Y-88066000D02*
X196494000Y-86566000D01*
X189494000Y-86566000D02*
X189494000Y-88066000D01*
X195244000Y-84066000D02*
X190744000Y-84066000D01*
X111460000Y-101953000D02*
X86060000Y-101953000D01*
X111460000Y-67917000D02*
X111460000Y-101953000D01*
X86060000Y-101953000D02*
X86060000Y-67917000D01*
X86060000Y-67917000D02*
X111460000Y-67917000D01*
X174214000Y-132362000D02*
X174214000Y-136862000D01*
X176714000Y-138112000D02*
X178214000Y-138112000D01*
X178214000Y-131112000D02*
X176714000Y-131112000D01*
X180714000Y-136862000D02*
X180714000Y-132362000D01*
D12*
X93790828Y-118925810D02*
X93812031Y-118960138D01*
X93812031Y-118960138D02*
X93844466Y-119014988D01*
X93844466Y-119014988D02*
X93887034Y-119088430D01*
X93887034Y-119088430D02*
X93938634Y-119178537D01*
X93938634Y-119178537D02*
X93998166Y-119283380D01*
X93998166Y-119283380D02*
X94064530Y-119401029D01*
X94064530Y-119401029D02*
X94136626Y-119529556D01*
X94136626Y-119529556D02*
X94213352Y-119667033D01*
X94213352Y-119667033D02*
X94279894Y-119786787D01*
X94279894Y-119786787D02*
X94359738Y-119930733D01*
X94359738Y-119930733D02*
X94435795Y-120067789D01*
X94435795Y-120067789D02*
X94506965Y-120195976D01*
X94506965Y-120195976D02*
X94572147Y-120313311D01*
X94572147Y-120313311D02*
X94630238Y-120417816D01*
X94630238Y-120417816D02*
X94680138Y-120507509D01*
X94680138Y-120507509D02*
X94720745Y-120580410D01*
X94720745Y-120580410D02*
X94750959Y-120634539D01*
X94750959Y-120634539D02*
X94769678Y-120667916D01*
X94769678Y-120667916D02*
X94775667Y-120678394D01*
X94775667Y-120678394D02*
X94784114Y-120681201D01*
X94784114Y-120681201D02*
X94803819Y-120677900D01*
X94803819Y-120677900D02*
X94836826Y-120667702D01*
X94836826Y-120667702D02*
X94885180Y-120649817D01*
X94885180Y-120649817D02*
X94950923Y-120623456D01*
X94950923Y-120623456D02*
X95036102Y-120587831D01*
X95036102Y-120587831D02*
X95142760Y-120542152D01*
X95142760Y-120542152D02*
X95256565Y-120492770D01*
X95256565Y-120492770D02*
X95363458Y-120446519D01*
X95363458Y-120446519D02*
X95462265Y-120404396D01*
X95462265Y-120404396D02*
X95550109Y-120367580D01*
X95550109Y-120367580D02*
X95624113Y-120337250D01*
X95624113Y-120337250D02*
X95681398Y-120314585D01*
X95681398Y-120314585D02*
X95719086Y-120300763D01*
X95719086Y-120300763D02*
X95734301Y-120296964D01*
X95734301Y-120296964D02*
X95734399Y-120297034D01*
X95734399Y-120297034D02*
X95734360Y-120311846D01*
X95734360Y-120311846D02*
X95731790Y-120352416D01*
X95731790Y-120352416D02*
X95726859Y-120416798D01*
X95726859Y-120416798D02*
X95719742Y-120503044D01*
X95719742Y-120503044D02*
X95710610Y-120609209D01*
X95710610Y-120609209D02*
X95699635Y-120733346D01*
X95699635Y-120733346D02*
X95686990Y-120873509D01*
X95686990Y-120873509D02*
X95672848Y-121027751D01*
X95672848Y-121027751D02*
X95657380Y-121194127D01*
X95657380Y-121194127D02*
X95640760Y-121370690D01*
X95640760Y-121370690D02*
X95623159Y-121555493D01*
X95623159Y-121555493D02*
X95620212Y-121586226D01*
X95620212Y-121586226D02*
X95602441Y-121772115D01*
X95602441Y-121772115D02*
X95585564Y-121950027D01*
X95585564Y-121950027D02*
X95569758Y-122118020D01*
X95569758Y-122118020D02*
X95555198Y-122274154D01*
X95555198Y-122274154D02*
X95542063Y-122416488D01*
X95542063Y-122416488D02*
X95530528Y-122543082D01*
X95530528Y-122543082D02*
X95520769Y-122651995D01*
X95520769Y-122651995D02*
X95512965Y-122741285D01*
X95512965Y-122741285D02*
X95507291Y-122809013D01*
X95507291Y-122809013D02*
X95503923Y-122853238D01*
X95503923Y-122853238D02*
X95503040Y-122872019D01*
X95503040Y-122872019D02*
X95503145Y-122872538D01*
X95503145Y-122872538D02*
X95514303Y-122864621D01*
X95514303Y-122864621D02*
X95544375Y-122839773D01*
X95544375Y-122839773D02*
X95591513Y-122799605D01*
X95591513Y-122799605D02*
X95653867Y-122745726D01*
X95653867Y-122745726D02*
X95729591Y-122679745D01*
X95729591Y-122679745D02*
X95816835Y-122603272D01*
X95816835Y-122603272D02*
X95913751Y-122517918D01*
X95913751Y-122517918D02*
X96018490Y-122425291D01*
X96018490Y-122425291D02*
X96111122Y-122343079D01*
X96111122Y-122343079D02*
X96221216Y-122245387D01*
X96221216Y-122245387D02*
X96325199Y-122153446D01*
X96325199Y-122153446D02*
X96421200Y-122068890D01*
X96421200Y-122068890D02*
X96507348Y-121993352D01*
X96507348Y-121993352D02*
X96581769Y-121928465D01*
X96581769Y-121928465D02*
X96642594Y-121875861D01*
X96642594Y-121875861D02*
X96687949Y-121837174D01*
X96687949Y-121837174D02*
X96715964Y-121814035D01*
X96715964Y-121814035D02*
X96724706Y-121807809D01*
X96724706Y-121807809D02*
X96728955Y-121810925D01*
X96728955Y-121810925D02*
X96735484Y-121821816D01*
X96735484Y-121821816D02*
X96745198Y-121842795D01*
X96745198Y-121842795D02*
X96759002Y-121876177D01*
X96759002Y-121876177D02*
X96777801Y-121924276D01*
X96777801Y-121924276D02*
X96802501Y-121989404D01*
X96802501Y-121989404D02*
X96834006Y-122073877D01*
X96834006Y-122073877D02*
X96873222Y-122180007D01*
X96873222Y-122180007D02*
X96918506Y-122303166D01*
X96918506Y-122303166D02*
X96959853Y-122415784D01*
X96959853Y-122415784D02*
X96841252Y-122552604D01*
X96841252Y-122552604D02*
X96688232Y-122733611D01*
X96688232Y-122733611D02*
X96527733Y-122931790D01*
X96527733Y-122931790D02*
X96362007Y-123143920D01*
X96362007Y-123143920D02*
X96193306Y-123366782D01*
X96193306Y-123366782D02*
X96023879Y-123597156D01*
X96023879Y-123597156D02*
X95855979Y-123831821D01*
X95855979Y-123831821D02*
X95691857Y-124067558D01*
X95691857Y-124067558D02*
X95533764Y-124301146D01*
X95533764Y-124301146D02*
X95383952Y-124529366D01*
X95383952Y-124529366D02*
X95244672Y-124748997D01*
X95244672Y-124748997D02*
X95118174Y-124956819D01*
X95118174Y-124956819D02*
X95006711Y-125149613D01*
X95006711Y-125149613D02*
X94939384Y-125272873D01*
X94939384Y-125272873D02*
X94863801Y-125415245D01*
X94863801Y-125415245D02*
X94817889Y-125348515D01*
X94817889Y-125348515D02*
X94730367Y-125211790D01*
X94730367Y-125211790D02*
X94639677Y-125052444D01*
X94639677Y-125052444D02*
X94547999Y-124875174D01*
X94547999Y-124875174D02*
X94457514Y-124684674D01*
X94457514Y-124684674D02*
X94370404Y-124485642D01*
X94370404Y-124485642D02*
X94288849Y-124282774D01*
X94288849Y-124282774D02*
X94215031Y-124080765D01*
X94215031Y-124080765D02*
X94178615Y-123972028D01*
X94178615Y-123972028D02*
X94112949Y-123757960D01*
X94112949Y-123757960D02*
X94047222Y-123522794D01*
X94047222Y-123522794D02*
X93983089Y-123273211D01*
X93983089Y-123273211D02*
X93922209Y-123015896D01*
X93922209Y-123015896D02*
X93866237Y-122757531D01*
X93866237Y-122757531D02*
X93822692Y-122536394D01*
X93822692Y-122536394D02*
X93783258Y-122325527D01*
X93783258Y-122325527D02*
X93711607Y-122682531D01*
X93711607Y-122682531D02*
X93632426Y-123054304D01*
X93632426Y-123054304D02*
X93549014Y-123400580D01*
X93549014Y-123400580D02*
X93460620Y-123723476D01*
X93460620Y-123723476D02*
X93366494Y-124025112D01*
X93366494Y-124025112D02*
X93265885Y-124307606D01*
X93265885Y-124307606D02*
X93158043Y-124573077D01*
X93158043Y-124573077D02*
X93042218Y-124823644D01*
X93042218Y-124823644D02*
X92917660Y-125061427D01*
X92917660Y-125061427D02*
X92795537Y-125269377D01*
X92795537Y-125269377D02*
X92762287Y-125322208D01*
X92762287Y-125322208D02*
X92733863Y-125365711D01*
X92733863Y-125365711D02*
X92713714Y-125394711D01*
X92713714Y-125394711D02*
X92705892Y-125403978D01*
X92705892Y-125403978D02*
X92695561Y-125395278D01*
X92695561Y-125395278D02*
X92676331Y-125366679D01*
X92676331Y-125366679D02*
X92651473Y-125323318D01*
X92651473Y-125323318D02*
X92636925Y-125295697D01*
X92636925Y-125295697D02*
X92556030Y-125144968D01*
X92556030Y-125144968D02*
X92458782Y-124976122D01*
X92458782Y-124976122D02*
X92347158Y-124791990D01*
X92347158Y-124791990D02*
X92223132Y-124595403D01*
X92223132Y-124595403D02*
X92088681Y-124389194D01*
X92088681Y-124389194D02*
X91945781Y-124176193D01*
X91945781Y-124176193D02*
X91796408Y-123959232D01*
X91796408Y-123959232D02*
X91642538Y-123741144D01*
X91642538Y-123741144D02*
X91486147Y-123524758D01*
X91486147Y-123524758D02*
X91329211Y-123312908D01*
X91329211Y-123312908D02*
X91173706Y-123108425D01*
X91173706Y-123108425D02*
X91021608Y-122914139D01*
X91021608Y-122914139D02*
X90874893Y-122732884D01*
X90874893Y-122732884D02*
X90735537Y-122567489D01*
X90735537Y-122567489D02*
X90722666Y-122552604D01*
X90722666Y-122552604D02*
X90604065Y-122415784D01*
X90604065Y-122415784D02*
X90645412Y-122303166D01*
X90645412Y-122303166D02*
X90692808Y-122174271D01*
X90692808Y-122174271D02*
X90731631Y-122069236D01*
X90731631Y-122069236D02*
X90762783Y-121985748D01*
X90762783Y-121985748D02*
X90787169Y-121921495D01*
X90787169Y-121921495D02*
X90805693Y-121874164D01*
X90805693Y-121874164D02*
X90819259Y-121841443D01*
X90819259Y-121841443D02*
X90828771Y-121821020D01*
X90828771Y-121821020D02*
X90835133Y-121810582D01*
X90835133Y-121810582D02*
X90839064Y-121807809D01*
X90839064Y-121807809D02*
X90851244Y-121816801D01*
X90851244Y-121816801D02*
X90882327Y-121842689D01*
X90882327Y-121842689D02*
X90930439Y-121883841D01*
X90930439Y-121883841D02*
X90993710Y-121938626D01*
X90993710Y-121938626D02*
X91070267Y-122005411D01*
X91070267Y-122005411D02*
X91158239Y-122082565D01*
X91158239Y-122082565D02*
X91255755Y-122168455D01*
X91255755Y-122168455D02*
X91360942Y-122261451D01*
X91360942Y-122261451D02*
X91452802Y-122342924D01*
X91452802Y-122342924D02*
X91562727Y-122440381D01*
X91562727Y-122440381D02*
X91666373Y-122531924D01*
X91666373Y-122531924D02*
X91761892Y-122615945D01*
X91761892Y-122615945D02*
X91847436Y-122690835D01*
X91847436Y-122690835D02*
X91921156Y-122754983D01*
X91921156Y-122754983D02*
X91981204Y-122806780D01*
X91981204Y-122806780D02*
X92025732Y-122844618D01*
X92025732Y-122844618D02*
X92052890Y-122866887D01*
X92052890Y-122866887D02*
X92060928Y-122872383D01*
X92060928Y-122872383D02*
X92060449Y-122858018D01*
X92060449Y-122858018D02*
X92057459Y-122817887D01*
X92057459Y-122817887D02*
X92052133Y-122753932D01*
X92052133Y-122753932D02*
X92044650Y-122668093D01*
X92044650Y-122668093D02*
X92035186Y-122562309D01*
X92035186Y-122562309D02*
X92023917Y-122438522D01*
X92023917Y-122438522D02*
X92011021Y-122298672D01*
X92011021Y-122298672D02*
X91996675Y-122144699D01*
X91996675Y-122144699D02*
X91981054Y-121978543D01*
X91981054Y-121978543D02*
X91964337Y-121802146D01*
X91964337Y-121802146D02*
X91962177Y-121779517D01*
X91962177Y-121779517D02*
X93276239Y-121779517D01*
X93276239Y-121779517D02*
X93281325Y-121781002D01*
X93281325Y-121781002D02*
X93301776Y-121765940D01*
X93301776Y-121765940D02*
X93333335Y-121737527D01*
X93333335Y-121737527D02*
X93337419Y-121733611D01*
X93337419Y-121733611D02*
X93386655Y-121692626D01*
X93386655Y-121692626D02*
X93447836Y-121650615D01*
X93447836Y-121650615D02*
X93503603Y-121618857D01*
X93503603Y-121618857D02*
X93627824Y-121571687D01*
X93627824Y-121571687D02*
X93753922Y-121551548D01*
X93753922Y-121551548D02*
X93879146Y-121558020D01*
X93879146Y-121558020D02*
X94000743Y-121590685D01*
X94000743Y-121590685D02*
X94115961Y-121649125D01*
X94115961Y-121649125D02*
X94215904Y-121727106D01*
X94215904Y-121727106D02*
X94251523Y-121758838D01*
X94251523Y-121758838D02*
X94276807Y-121778248D01*
X94276807Y-121778248D02*
X94287583Y-121782247D01*
X94287583Y-121782247D02*
X94287361Y-121779973D01*
X94287361Y-121779973D02*
X94281993Y-121763234D01*
X94281993Y-121763234D02*
X94269093Y-121722302D01*
X94269093Y-121722302D02*
X94249407Y-121659562D01*
X94249407Y-121659562D02*
X94223681Y-121577396D01*
X94223681Y-121577396D02*
X94192659Y-121478191D01*
X94192659Y-121478191D02*
X94157088Y-121364328D01*
X94157088Y-121364328D02*
X94117713Y-121238193D01*
X94117713Y-121238193D02*
X94075280Y-121102169D01*
X94075280Y-121102169D02*
X94032759Y-120965781D01*
X94032759Y-120965781D02*
X93988294Y-120823200D01*
X93988294Y-120823200D02*
X93946315Y-120688742D01*
X93946315Y-120688742D02*
X93907546Y-120564722D01*
X93907546Y-120564722D02*
X93872713Y-120453456D01*
X93872713Y-120453456D02*
X93842542Y-120357256D01*
X93842542Y-120357256D02*
X93817760Y-120278438D01*
X93817760Y-120278438D02*
X93799091Y-120219316D01*
X93799091Y-120219316D02*
X93787262Y-120182205D01*
X93787262Y-120182205D02*
X93783008Y-120169424D01*
X93783008Y-120169424D02*
X93778539Y-120181775D01*
X93778539Y-120181775D02*
X93766530Y-120218420D01*
X93766530Y-120218420D02*
X93747703Y-120277072D01*
X93747703Y-120277072D02*
X93722782Y-120355444D01*
X93722782Y-120355444D02*
X93692489Y-120451248D01*
X93692489Y-120451248D02*
X93657548Y-120562199D01*
X93657548Y-120562199D02*
X93618682Y-120686009D01*
X93618682Y-120686009D02*
X93576614Y-120820391D01*
X93576614Y-120820391D02*
X93532166Y-120962739D01*
X93532166Y-120962739D02*
X93487402Y-121106217D01*
X93487402Y-121106217D02*
X93444981Y-121242064D01*
X93444981Y-121242064D02*
X93405647Y-121367901D01*
X93405647Y-121367901D02*
X93370146Y-121481353D01*
X93370146Y-121481353D02*
X93339223Y-121580042D01*
X93339223Y-121580042D02*
X93313622Y-121661590D01*
X93313622Y-121661590D02*
X93294087Y-121723621D01*
X93294087Y-121723621D02*
X93281365Y-121763757D01*
X93281365Y-121763757D02*
X93276239Y-121779517D01*
X93276239Y-121779517D02*
X91962177Y-121779517D01*
X91962177Y-121779517D02*
X91946700Y-121617447D01*
X91946700Y-121617447D02*
X91943706Y-121586226D01*
X91943706Y-121586226D02*
X91925963Y-121400262D01*
X91925963Y-121400262D02*
X91909175Y-121222220D01*
X91909175Y-121222220D02*
X91893514Y-121054045D01*
X91893514Y-121054045D02*
X91879152Y-120897685D01*
X91879152Y-120897685D02*
X91866262Y-120755086D01*
X91866262Y-120755086D02*
X91855016Y-120628195D01*
X91855016Y-120628195D02*
X91845586Y-120518958D01*
X91845586Y-120518958D02*
X91838144Y-120429322D01*
X91838144Y-120429322D02*
X91832862Y-120361233D01*
X91832862Y-120361233D02*
X91829913Y-120316639D01*
X91829913Y-120316639D02*
X91829469Y-120297484D01*
X91829469Y-120297484D02*
X91829646Y-120296907D01*
X91829646Y-120296907D02*
X91843971Y-120300256D01*
X91843971Y-120300256D02*
X91880875Y-120313663D01*
X91880875Y-120313663D02*
X91937472Y-120335948D01*
X91937472Y-120335948D02*
X92010875Y-120365932D01*
X92010875Y-120365932D02*
X92098197Y-120402435D01*
X92098197Y-120402435D02*
X92196550Y-120444277D01*
X92196550Y-120444277D02*
X92303048Y-120490278D01*
X92303048Y-120490278D02*
X92305249Y-120491236D01*
X92305249Y-120491236D02*
X92411771Y-120537540D01*
X92411771Y-120537540D02*
X92510011Y-120580138D01*
X92510011Y-120580138D02*
X92597105Y-120617797D01*
X92597105Y-120617797D02*
X92670192Y-120649284D01*
X92670192Y-120649284D02*
X92726410Y-120673366D01*
X92726410Y-120673366D02*
X92762897Y-120688809D01*
X92762897Y-120688809D02*
X92776790Y-120694382D01*
X92776790Y-120694382D02*
X92776818Y-120694384D01*
X92776818Y-120694384D02*
X92784169Y-120682521D01*
X92784169Y-120682521D02*
X92803919Y-120648206D01*
X92803919Y-120648206D02*
X92835004Y-120593344D01*
X92835004Y-120593344D02*
X92876354Y-120519843D01*
X92876354Y-120519843D02*
X92926904Y-120429612D01*
X92926904Y-120429612D02*
X92985586Y-120324557D01*
X92985586Y-120324557D02*
X93051333Y-120206586D01*
X93051333Y-120206586D02*
X93123079Y-120077607D01*
X93123079Y-120077607D02*
X93199755Y-119939526D01*
X93199755Y-119939526D02*
X93274822Y-119804132D01*
X93274822Y-119804132D02*
X93355297Y-119659212D01*
X93355297Y-119659212D02*
X93432063Y-119521622D01*
X93432063Y-119521622D02*
X93504032Y-119393271D01*
X93504032Y-119393271D02*
X93570116Y-119276072D01*
X93570116Y-119276072D02*
X93629226Y-119171933D01*
X93629226Y-119171933D02*
X93680275Y-119082764D01*
X93680275Y-119082764D02*
X93722174Y-119010476D01*
X93722174Y-119010476D02*
X93753835Y-118956978D01*
X93753835Y-118956978D02*
X93774169Y-118924182D01*
X93774169Y-118924182D02*
X93781959Y-118913933D01*
X93781959Y-118913933D02*
X93790828Y-118925810D01*
X93790828Y-118925810D02*
X93790828Y-118925810D01*
G36*
X91943706Y-121586226D02*
G01*
X91925963Y-121400262D01*
X91909175Y-121222220D01*
X91893514Y-121054045D01*
X91879152Y-120897685D01*
X91866262Y-120755086D01*
X91855016Y-120628195D01*
X91845586Y-120518958D01*
X91838144Y-120429322D01*
X91832862Y-120361233D01*
X91829913Y-120316639D01*
X91829469Y-120297484D01*
X91829646Y-120296907D01*
X91843971Y-120300256D01*
X91880875Y-120313663D01*
X91937472Y-120335948D01*
X92010875Y-120365932D01*
X92098197Y-120402435D01*
X92196550Y-120444277D01*
X92303048Y-120490278D01*
X92305249Y-120491236D01*
X92411771Y-120537540D01*
X92510011Y-120580138D01*
X92597105Y-120617797D01*
X92670192Y-120649284D01*
X92726410Y-120673366D01*
X92762897Y-120688809D01*
X92776790Y-120694382D01*
X92776818Y-120694384D01*
X92784169Y-120682521D01*
X92803919Y-120648206D01*
X92835004Y-120593344D01*
X92876354Y-120519843D01*
X92926904Y-120429612D01*
X92985586Y-120324557D01*
X93051333Y-120206586D01*
X93123079Y-120077607D01*
X93199755Y-119939526D01*
X93274822Y-119804132D01*
X93355297Y-119659212D01*
X93432063Y-119521622D01*
X93504032Y-119393271D01*
X93570116Y-119276072D01*
X93629226Y-119171933D01*
X93680275Y-119082764D01*
X93722174Y-119010476D01*
X93753835Y-118956978D01*
X93774169Y-118924182D01*
X93781959Y-118913933D01*
X93790828Y-118925810D01*
X93812031Y-118960138D01*
X93844466Y-119014988D01*
X93887034Y-119088430D01*
X93938634Y-119178537D01*
X93998166Y-119283380D01*
X94064530Y-119401029D01*
X94136626Y-119529556D01*
X94213352Y-119667033D01*
X94279894Y-119786787D01*
X94359738Y-119930733D01*
X94435795Y-120067789D01*
X94506965Y-120195976D01*
X94572147Y-120313311D01*
X94630238Y-120417816D01*
X94680138Y-120507509D01*
X94720745Y-120580410D01*
X94750959Y-120634539D01*
X94769678Y-120667916D01*
X94775667Y-120678394D01*
X94784114Y-120681201D01*
X94803819Y-120677900D01*
X94836826Y-120667702D01*
X94885180Y-120649817D01*
X94950923Y-120623456D01*
X95036102Y-120587831D01*
X95142760Y-120542152D01*
X95256565Y-120492770D01*
X95363458Y-120446519D01*
X95462265Y-120404396D01*
X95550109Y-120367580D01*
X95624113Y-120337250D01*
X95681398Y-120314585D01*
X95719086Y-120300763D01*
X95734301Y-120296964D01*
X95734399Y-120297034D01*
X95734360Y-120311846D01*
X95731790Y-120352416D01*
X95726859Y-120416798D01*
X95719742Y-120503044D01*
X95710610Y-120609209D01*
X95699635Y-120733346D01*
X95686990Y-120873509D01*
X95672848Y-121027751D01*
X95657380Y-121194127D01*
X95640760Y-121370690D01*
X95623159Y-121555493D01*
X95620212Y-121586226D01*
X95602441Y-121772115D01*
X95585564Y-121950027D01*
X95569758Y-122118020D01*
X95555198Y-122274154D01*
X95542063Y-122416488D01*
X95530528Y-122543082D01*
X95520769Y-122651995D01*
X95512965Y-122741285D01*
X95507291Y-122809013D01*
X95503923Y-122853238D01*
X95503040Y-122872019D01*
X95503145Y-122872538D01*
X95514303Y-122864621D01*
X95544375Y-122839773D01*
X95591513Y-122799605D01*
X95653867Y-122745726D01*
X95729591Y-122679745D01*
X95816835Y-122603272D01*
X95913751Y-122517918D01*
X96018490Y-122425291D01*
X96111122Y-122343079D01*
X96221216Y-122245387D01*
X96325199Y-122153446D01*
X96421200Y-122068890D01*
X96507348Y-121993352D01*
X96581769Y-121928465D01*
X96642594Y-121875861D01*
X96687949Y-121837174D01*
X96715964Y-121814035D01*
X96724706Y-121807809D01*
X96728955Y-121810925D01*
X96735484Y-121821816D01*
X96745198Y-121842795D01*
X96759002Y-121876177D01*
X96777801Y-121924276D01*
X96802501Y-121989404D01*
X96834006Y-122073877D01*
X96873222Y-122180007D01*
X96918506Y-122303166D01*
X96959853Y-122415784D01*
X96841252Y-122552604D01*
X96688232Y-122733611D01*
X96527733Y-122931790D01*
X96362007Y-123143920D01*
X96193306Y-123366782D01*
X96023879Y-123597156D01*
X95855979Y-123831821D01*
X95691857Y-124067558D01*
X95533764Y-124301146D01*
X95383952Y-124529366D01*
X95244672Y-124748997D01*
X95118174Y-124956819D01*
X95006711Y-125149613D01*
X94939384Y-125272873D01*
X94863801Y-125415245D01*
X94817889Y-125348515D01*
X94730367Y-125211790D01*
X94639677Y-125052444D01*
X94547999Y-124875174D01*
X94457514Y-124684674D01*
X94370404Y-124485642D01*
X94288849Y-124282774D01*
X94215031Y-124080765D01*
X94178615Y-123972028D01*
X94112949Y-123757960D01*
X94047222Y-123522794D01*
X93983089Y-123273211D01*
X93922209Y-123015896D01*
X93866237Y-122757531D01*
X93822692Y-122536394D01*
X93783258Y-122325527D01*
X93711607Y-122682531D01*
X93632426Y-123054304D01*
X93549014Y-123400580D01*
X93460620Y-123723476D01*
X93366494Y-124025112D01*
X93265885Y-124307606D01*
X93158043Y-124573077D01*
X93042218Y-124823644D01*
X92917660Y-125061427D01*
X92795537Y-125269377D01*
X92762287Y-125322208D01*
X92733863Y-125365711D01*
X92713714Y-125394711D01*
X92705892Y-125403978D01*
X92695561Y-125395278D01*
X92676331Y-125366679D01*
X92651473Y-125323318D01*
X92636925Y-125295697D01*
X92556030Y-125144968D01*
X92458782Y-124976122D01*
X92347158Y-124791990D01*
X92223132Y-124595403D01*
X92088681Y-124389194D01*
X91945781Y-124176193D01*
X91796408Y-123959232D01*
X91642538Y-123741144D01*
X91486147Y-123524758D01*
X91329211Y-123312908D01*
X91173706Y-123108425D01*
X91021608Y-122914139D01*
X90874893Y-122732884D01*
X90735537Y-122567489D01*
X90722666Y-122552604D01*
X90604065Y-122415784D01*
X90645412Y-122303166D01*
X90692808Y-122174271D01*
X90731631Y-122069236D01*
X90762783Y-121985748D01*
X90787169Y-121921495D01*
X90805693Y-121874164D01*
X90819259Y-121841443D01*
X90828771Y-121821020D01*
X90835133Y-121810582D01*
X90839064Y-121807809D01*
X90851244Y-121816801D01*
X90882327Y-121842689D01*
X90930439Y-121883841D01*
X90993710Y-121938626D01*
X91070267Y-122005411D01*
X91158239Y-122082565D01*
X91255755Y-122168455D01*
X91360942Y-122261451D01*
X91452802Y-122342924D01*
X91562727Y-122440381D01*
X91666373Y-122531924D01*
X91761892Y-122615945D01*
X91847436Y-122690835D01*
X91921156Y-122754983D01*
X91981204Y-122806780D01*
X92025732Y-122844618D01*
X92052890Y-122866887D01*
X92060928Y-122872383D01*
X92060449Y-122858018D01*
X92057459Y-122817887D01*
X92052133Y-122753932D01*
X92044650Y-122668093D01*
X92035186Y-122562309D01*
X92023917Y-122438522D01*
X92011021Y-122298672D01*
X91996675Y-122144699D01*
X91981054Y-121978543D01*
X91964337Y-121802146D01*
X91962177Y-121779517D01*
X93276239Y-121779517D01*
X93281325Y-121781002D01*
X93301776Y-121765940D01*
X93333335Y-121737527D01*
X93337419Y-121733611D01*
X93386655Y-121692626D01*
X93447836Y-121650615D01*
X93503603Y-121618857D01*
X93627824Y-121571687D01*
X93753922Y-121551548D01*
X93879146Y-121558020D01*
X94000743Y-121590685D01*
X94115961Y-121649125D01*
X94215904Y-121727106D01*
X94251523Y-121758838D01*
X94276807Y-121778248D01*
X94287583Y-121782247D01*
X94287361Y-121779973D01*
X94281993Y-121763234D01*
X94269093Y-121722302D01*
X94249407Y-121659562D01*
X94223681Y-121577396D01*
X94192659Y-121478191D01*
X94157088Y-121364328D01*
X94117713Y-121238193D01*
X94075280Y-121102169D01*
X94032759Y-120965781D01*
X93988294Y-120823200D01*
X93946315Y-120688742D01*
X93907546Y-120564722D01*
X93872713Y-120453456D01*
X93842542Y-120357256D01*
X93817760Y-120278438D01*
X93799091Y-120219316D01*
X93787262Y-120182205D01*
X93783008Y-120169424D01*
X93778539Y-120181775D01*
X93766530Y-120218420D01*
X93747703Y-120277072D01*
X93722782Y-120355444D01*
X93692489Y-120451248D01*
X93657548Y-120562199D01*
X93618682Y-120686009D01*
X93576614Y-120820391D01*
X93532166Y-120962739D01*
X93487402Y-121106217D01*
X93444981Y-121242064D01*
X93405647Y-121367901D01*
X93370146Y-121481353D01*
X93339223Y-121580042D01*
X93313622Y-121661590D01*
X93294087Y-121723621D01*
X93281365Y-121763757D01*
X93276239Y-121779517D01*
X91962177Y-121779517D01*
X91946700Y-121617447D01*
X91943706Y-121586226D01*
G37*
X91943706Y-121586226D02*
X91925963Y-121400262D01*
X91909175Y-121222220D01*
X91893514Y-121054045D01*
X91879152Y-120897685D01*
X91866262Y-120755086D01*
X91855016Y-120628195D01*
X91845586Y-120518958D01*
X91838144Y-120429322D01*
X91832862Y-120361233D01*
X91829913Y-120316639D01*
X91829469Y-120297484D01*
X91829646Y-120296907D01*
X91843971Y-120300256D01*
X91880875Y-120313663D01*
X91937472Y-120335948D01*
X92010875Y-120365932D01*
X92098197Y-120402435D01*
X92196550Y-120444277D01*
X92303048Y-120490278D01*
X92305249Y-120491236D01*
X92411771Y-120537540D01*
X92510011Y-120580138D01*
X92597105Y-120617797D01*
X92670192Y-120649284D01*
X92726410Y-120673366D01*
X92762897Y-120688809D01*
X92776790Y-120694382D01*
X92776818Y-120694384D01*
X92784169Y-120682521D01*
X92803919Y-120648206D01*
X92835004Y-120593344D01*
X92876354Y-120519843D01*
X92926904Y-120429612D01*
X92985586Y-120324557D01*
X93051333Y-120206586D01*
X93123079Y-120077607D01*
X93199755Y-119939526D01*
X93274822Y-119804132D01*
X93355297Y-119659212D01*
X93432063Y-119521622D01*
X93504032Y-119393271D01*
X93570116Y-119276072D01*
X93629226Y-119171933D01*
X93680275Y-119082764D01*
X93722174Y-119010476D01*
X93753835Y-118956978D01*
X93774169Y-118924182D01*
X93781959Y-118913933D01*
X93790828Y-118925810D01*
X93812031Y-118960138D01*
X93844466Y-119014988D01*
X93887034Y-119088430D01*
X93938634Y-119178537D01*
X93998166Y-119283380D01*
X94064530Y-119401029D01*
X94136626Y-119529556D01*
X94213352Y-119667033D01*
X94279894Y-119786787D01*
X94359738Y-119930733D01*
X94435795Y-120067789D01*
X94506965Y-120195976D01*
X94572147Y-120313311D01*
X94630238Y-120417816D01*
X94680138Y-120507509D01*
X94720745Y-120580410D01*
X94750959Y-120634539D01*
X94769678Y-120667916D01*
X94775667Y-120678394D01*
X94784114Y-120681201D01*
X94803819Y-120677900D01*
X94836826Y-120667702D01*
X94885180Y-120649817D01*
X94950923Y-120623456D01*
X95036102Y-120587831D01*
X95142760Y-120542152D01*
X95256565Y-120492770D01*
X95363458Y-120446519D01*
X95462265Y-120404396D01*
X95550109Y-120367580D01*
X95624113Y-120337250D01*
X95681398Y-120314585D01*
X95719086Y-120300763D01*
X95734301Y-120296964D01*
X95734399Y-120297034D01*
X95734360Y-120311846D01*
X95731790Y-120352416D01*
X95726859Y-120416798D01*
X95719742Y-120503044D01*
X95710610Y-120609209D01*
X95699635Y-120733346D01*
X95686990Y-120873509D01*
X95672848Y-121027751D01*
X95657380Y-121194127D01*
X95640760Y-121370690D01*
X95623159Y-121555493D01*
X95620212Y-121586226D01*
X95602441Y-121772115D01*
X95585564Y-121950027D01*
X95569758Y-122118020D01*
X95555198Y-122274154D01*
X95542063Y-122416488D01*
X95530528Y-122543082D01*
X95520769Y-122651995D01*
X95512965Y-122741285D01*
X95507291Y-122809013D01*
X95503923Y-122853238D01*
X95503040Y-122872019D01*
X95503145Y-122872538D01*
X95514303Y-122864621D01*
X95544375Y-122839773D01*
X95591513Y-122799605D01*
X95653867Y-122745726D01*
X95729591Y-122679745D01*
X95816835Y-122603272D01*
X95913751Y-122517918D01*
X96018490Y-122425291D01*
X96111122Y-122343079D01*
X96221216Y-122245387D01*
X96325199Y-122153446D01*
X96421200Y-122068890D01*
X96507348Y-121993352D01*
X96581769Y-121928465D01*
X96642594Y-121875861D01*
X96687949Y-121837174D01*
X96715964Y-121814035D01*
X96724706Y-121807809D01*
X96728955Y-121810925D01*
X96735484Y-121821816D01*
X96745198Y-121842795D01*
X96759002Y-121876177D01*
X96777801Y-121924276D01*
X96802501Y-121989404D01*
X96834006Y-122073877D01*
X96873222Y-122180007D01*
X96918506Y-122303166D01*
X96959853Y-122415784D01*
X96841252Y-122552604D01*
X96688232Y-122733611D01*
X96527733Y-122931790D01*
X96362007Y-123143920D01*
X96193306Y-123366782D01*
X96023879Y-123597156D01*
X95855979Y-123831821D01*
X95691857Y-124067558D01*
X95533764Y-124301146D01*
X95383952Y-124529366D01*
X95244672Y-124748997D01*
X95118174Y-124956819D01*
X95006711Y-125149613D01*
X94939384Y-125272873D01*
X94863801Y-125415245D01*
X94817889Y-125348515D01*
X94730367Y-125211790D01*
X94639677Y-125052444D01*
X94547999Y-124875174D01*
X94457514Y-124684674D01*
X94370404Y-124485642D01*
X94288849Y-124282774D01*
X94215031Y-124080765D01*
X94178615Y-123972028D01*
X94112949Y-123757960D01*
X94047222Y-123522794D01*
X93983089Y-123273211D01*
X93922209Y-123015896D01*
X93866237Y-122757531D01*
X93822692Y-122536394D01*
X93783258Y-122325527D01*
X93711607Y-122682531D01*
X93632426Y-123054304D01*
X93549014Y-123400580D01*
X93460620Y-123723476D01*
X93366494Y-124025112D01*
X93265885Y-124307606D01*
X93158043Y-124573077D01*
X93042218Y-124823644D01*
X92917660Y-125061427D01*
X92795537Y-125269377D01*
X92762287Y-125322208D01*
X92733863Y-125365711D01*
X92713714Y-125394711D01*
X92705892Y-125403978D01*
X92695561Y-125395278D01*
X92676331Y-125366679D01*
X92651473Y-125323318D01*
X92636925Y-125295697D01*
X92556030Y-125144968D01*
X92458782Y-124976122D01*
X92347158Y-124791990D01*
X92223132Y-124595403D01*
X92088681Y-124389194D01*
X91945781Y-124176193D01*
X91796408Y-123959232D01*
X91642538Y-123741144D01*
X91486147Y-123524758D01*
X91329211Y-123312908D01*
X91173706Y-123108425D01*
X91021608Y-122914139D01*
X90874893Y-122732884D01*
X90735537Y-122567489D01*
X90722666Y-122552604D01*
X90604065Y-122415784D01*
X90645412Y-122303166D01*
X90692808Y-122174271D01*
X90731631Y-122069236D01*
X90762783Y-121985748D01*
X90787169Y-121921495D01*
X90805693Y-121874164D01*
X90819259Y-121841443D01*
X90828771Y-121821020D01*
X90835133Y-121810582D01*
X90839064Y-121807809D01*
X90851244Y-121816801D01*
X90882327Y-121842689D01*
X90930439Y-121883841D01*
X90993710Y-121938626D01*
X91070267Y-122005411D01*
X91158239Y-122082565D01*
X91255755Y-122168455D01*
X91360942Y-122261451D01*
X91452802Y-122342924D01*
X91562727Y-122440381D01*
X91666373Y-122531924D01*
X91761892Y-122615945D01*
X91847436Y-122690835D01*
X91921156Y-122754983D01*
X91981204Y-122806780D01*
X92025732Y-122844618D01*
X92052890Y-122866887D01*
X92060928Y-122872383D01*
X92060449Y-122858018D01*
X92057459Y-122817887D01*
X92052133Y-122753932D01*
X92044650Y-122668093D01*
X92035186Y-122562309D01*
X92023917Y-122438522D01*
X92011021Y-122298672D01*
X91996675Y-122144699D01*
X91981054Y-121978543D01*
X91964337Y-121802146D01*
X91962177Y-121779517D01*
X93276239Y-121779517D01*
X93281325Y-121781002D01*
X93301776Y-121765940D01*
X93333335Y-121737527D01*
X93337419Y-121733611D01*
X93386655Y-121692626D01*
X93447836Y-121650615D01*
X93503603Y-121618857D01*
X93627824Y-121571687D01*
X93753922Y-121551548D01*
X93879146Y-121558020D01*
X94000743Y-121590685D01*
X94115961Y-121649125D01*
X94215904Y-121727106D01*
X94251523Y-121758838D01*
X94276807Y-121778248D01*
X94287583Y-121782247D01*
X94287361Y-121779973D01*
X94281993Y-121763234D01*
X94269093Y-121722302D01*
X94249407Y-121659562D01*
X94223681Y-121577396D01*
X94192659Y-121478191D01*
X94157088Y-121364328D01*
X94117713Y-121238193D01*
X94075280Y-121102169D01*
X94032759Y-120965781D01*
X93988294Y-120823200D01*
X93946315Y-120688742D01*
X93907546Y-120564722D01*
X93872713Y-120453456D01*
X93842542Y-120357256D01*
X93817760Y-120278438D01*
X93799091Y-120219316D01*
X93787262Y-120182205D01*
X93783008Y-120169424D01*
X93778539Y-120181775D01*
X93766530Y-120218420D01*
X93747703Y-120277072D01*
X93722782Y-120355444D01*
X93692489Y-120451248D01*
X93657548Y-120562199D01*
X93618682Y-120686009D01*
X93576614Y-120820391D01*
X93532166Y-120962739D01*
X93487402Y-121106217D01*
X93444981Y-121242064D01*
X93405647Y-121367901D01*
X93370146Y-121481353D01*
X93339223Y-121580042D01*
X93313622Y-121661590D01*
X93294087Y-121723621D01*
X93281365Y-121763757D01*
X93276239Y-121779517D01*
X91962177Y-121779517D01*
X91946700Y-121617447D01*
X91943706Y-121586226D01*
X88976393Y-122317939D02*
X89015066Y-122324799D01*
X89015066Y-122324799D02*
X89075704Y-122336060D01*
X89075704Y-122336060D02*
X89155638Y-122351210D01*
X89155638Y-122351210D02*
X89252198Y-122369742D01*
X89252198Y-122369742D02*
X89362717Y-122391144D01*
X89362717Y-122391144D02*
X89484524Y-122414909D01*
X89484524Y-122414909D02*
X89614951Y-122440526D01*
X89614951Y-122440526D02*
X89617188Y-122440967D01*
X89617188Y-122440967D02*
X89778354Y-122472947D01*
X89778354Y-122472947D02*
X89913950Y-122500363D01*
X89913950Y-122500363D02*
X90025792Y-122523630D01*
X90025792Y-122523630D02*
X90115695Y-122543159D01*
X90115695Y-122543159D02*
X90185478Y-122559365D01*
X90185478Y-122559365D02*
X90236956Y-122572660D01*
X90236956Y-122572660D02*
X90271947Y-122583457D01*
X90271947Y-122583457D02*
X90292265Y-122592169D01*
X90292265Y-122592169D02*
X90297204Y-122595608D01*
X90297204Y-122595608D02*
X90322147Y-122622453D01*
X90322147Y-122622453D02*
X90360452Y-122669311D01*
X90360452Y-122669311D02*
X90409893Y-122733132D01*
X90409893Y-122733132D02*
X90468247Y-122810866D01*
X90468247Y-122810866D02*
X90533288Y-122899463D01*
X90533288Y-122899463D02*
X90602792Y-122995874D01*
X90602792Y-122995874D02*
X90674533Y-123097048D01*
X90674533Y-123097048D02*
X90746288Y-123199937D01*
X90746288Y-123199937D02*
X90815830Y-123301490D01*
X90815830Y-123301490D02*
X90859546Y-123366467D01*
X90859546Y-123366467D02*
X91066083Y-123684668D01*
X91066083Y-123684668D02*
X91268437Y-124013552D01*
X91268437Y-124013552D02*
X91464308Y-124348858D01*
X91464308Y-124348858D02*
X91651397Y-124686325D01*
X91651397Y-124686325D02*
X91827403Y-125021694D01*
X91827403Y-125021694D02*
X91990026Y-125350703D01*
X91990026Y-125350703D02*
X92136968Y-125669092D01*
X92136968Y-125669092D02*
X92264563Y-125969233D01*
X92264563Y-125969233D02*
X92296732Y-126051260D01*
X92296732Y-126051260D02*
X92331699Y-126144875D01*
X92331699Y-126144875D02*
X92367821Y-126245236D01*
X92367821Y-126245236D02*
X92403460Y-126347498D01*
X92403460Y-126347498D02*
X92436973Y-126446817D01*
X92436973Y-126446817D02*
X92466720Y-126538352D01*
X92466720Y-126538352D02*
X92491060Y-126617258D01*
X92491060Y-126617258D02*
X92508352Y-126678691D01*
X92508352Y-126678691D02*
X92515777Y-126710744D01*
X92515777Y-126710744D02*
X92524293Y-126744030D01*
X92524293Y-126744030D02*
X92533240Y-126761689D01*
X92533240Y-126761689D02*
X92535153Y-126762548D01*
X92535153Y-126762548D02*
X92548508Y-126752468D01*
X92548508Y-126752468D02*
X92577144Y-126724284D01*
X92577144Y-126724284D02*
X92618291Y-126681081D01*
X92618291Y-126681081D02*
X92669176Y-126625946D01*
X92669176Y-126625946D02*
X92727031Y-126561962D01*
X92727031Y-126561962D02*
X92789084Y-126492216D01*
X92789084Y-126492216D02*
X92852564Y-126419793D01*
X92852564Y-126419793D02*
X92914702Y-126347778D01*
X92914702Y-126347778D02*
X92972727Y-126279256D01*
X92972727Y-126279256D02*
X93015098Y-126228079D01*
X93015098Y-126228079D02*
X93144862Y-126064280D01*
X93144862Y-126064280D02*
X93264359Y-125902245D01*
X93264359Y-125902245D02*
X93377834Y-125735624D01*
X93377834Y-125735624D02*
X93489535Y-125558069D01*
X93489535Y-125558069D02*
X93603707Y-125363229D01*
X93603707Y-125363229D02*
X93656623Y-125268942D01*
X93656623Y-125268942D02*
X93696026Y-125199513D01*
X93696026Y-125199513D02*
X93731331Y-125140332D01*
X93731331Y-125140332D02*
X93760240Y-125095010D01*
X93760240Y-125095010D02*
X93780455Y-125067158D01*
X93780455Y-125067158D02*
X93789518Y-125060175D01*
X93789518Y-125060175D02*
X93800052Y-125076292D01*
X93800052Y-125076292D02*
X93820685Y-125111695D01*
X93820685Y-125111695D02*
X93848410Y-125161112D01*
X93848410Y-125161112D02*
X93879356Y-125217672D01*
X93879356Y-125217672D02*
X94033177Y-125489432D01*
X94033177Y-125489432D02*
X94189493Y-125739619D01*
X94189493Y-125739619D02*
X94352420Y-125974450D01*
X94352420Y-125974450D02*
X94526074Y-126200139D01*
X94526074Y-126200139D02*
X94547674Y-126226713D01*
X94547674Y-126226713D02*
X94600561Y-126290421D01*
X94600561Y-126290421D02*
X94659768Y-126360080D01*
X94659768Y-126360080D02*
X94722533Y-126432611D01*
X94722533Y-126432611D02*
X94786090Y-126504936D01*
X94786090Y-126504936D02*
X94847678Y-126573977D01*
X94847678Y-126573977D02*
X94904532Y-126636657D01*
X94904532Y-126636657D02*
X94953889Y-126689896D01*
X94953889Y-126689896D02*
X94992984Y-126730618D01*
X94992984Y-126730618D02*
X95019055Y-126755743D01*
X95019055Y-126755743D02*
X95028765Y-126762548D01*
X95028765Y-126762548D02*
X95037257Y-126750361D01*
X95037257Y-126750361D02*
X95046219Y-126720137D01*
X95046219Y-126720137D02*
X95048141Y-126710744D01*
X95048141Y-126710744D02*
X95058971Y-126665851D01*
X95058971Y-126665851D02*
X95078097Y-126599800D01*
X95078097Y-126599800D02*
X95103879Y-126517434D01*
X95103879Y-126517434D02*
X95134676Y-126423597D01*
X95134676Y-126423597D02*
X95168847Y-126323133D01*
X95168847Y-126323133D02*
X95204751Y-126220886D01*
X95204751Y-126220886D02*
X95240746Y-126121697D01*
X95240746Y-126121697D02*
X95275193Y-126030412D01*
X95275193Y-126030412D02*
X95299355Y-125969233D01*
X95299355Y-125969233D02*
X95425984Y-125671402D01*
X95425984Y-125671402D02*
X95570317Y-125358521D01*
X95570317Y-125358521D02*
X95730035Y-125034883D01*
X95730035Y-125034883D02*
X95902823Y-124704779D01*
X95902823Y-124704779D02*
X96086365Y-124372501D01*
X96086365Y-124372501D02*
X96278344Y-124042342D01*
X96278344Y-124042342D02*
X96476444Y-123718592D01*
X96476444Y-123718592D02*
X96678349Y-123405543D01*
X96678349Y-123405543D02*
X96702990Y-123368501D01*
X96702990Y-123368501D02*
X96769755Y-123269644D01*
X96769755Y-123269644D02*
X96840222Y-123167388D01*
X96840222Y-123167388D02*
X96912169Y-123064778D01*
X96912169Y-123064778D02*
X96983376Y-122964859D01*
X96983376Y-122964859D02*
X97051624Y-122870678D01*
X97051624Y-122870678D02*
X97114690Y-122785278D01*
X97114690Y-122785278D02*
X97170356Y-122711707D01*
X97170356Y-122711707D02*
X97216400Y-122653008D01*
X97216400Y-122653008D02*
X97250603Y-122612228D01*
X97250603Y-122612228D02*
X97266106Y-122596158D01*
X97266106Y-122596158D02*
X97280812Y-122588221D01*
X97280812Y-122588221D02*
X97310581Y-122578132D01*
X97310581Y-122578132D02*
X97357113Y-122565504D01*
X97357113Y-122565504D02*
X97422103Y-122549953D01*
X97422103Y-122549953D02*
X97507248Y-122531094D01*
X97507248Y-122531094D02*
X97614247Y-122508541D01*
X97614247Y-122508541D02*
X97744795Y-122481909D01*
X97744795Y-122481909D02*
X97900590Y-122450813D01*
X97900590Y-122450813D02*
X97946122Y-122441816D01*
X97946122Y-122441816D02*
X98076732Y-122416127D01*
X98076732Y-122416127D02*
X98198767Y-122392273D01*
X98198767Y-122392273D02*
X98309562Y-122370763D01*
X98309562Y-122370763D02*
X98406447Y-122352110D01*
X98406447Y-122352110D02*
X98486755Y-122336824D01*
X98486755Y-122336824D02*
X98547818Y-122325415D01*
X98547818Y-122325415D02*
X98586970Y-122318395D01*
X98586970Y-122318395D02*
X98601541Y-122316274D01*
X98601541Y-122316274D02*
X98601563Y-122316286D01*
X98601563Y-122316286D02*
X98598741Y-122329686D01*
X98598741Y-122329686D02*
X98589714Y-122367291D01*
X98589714Y-122367291D02*
X98575183Y-122426342D01*
X98575183Y-122426342D02*
X98555847Y-122504077D01*
X98555847Y-122504077D02*
X98532407Y-122597738D01*
X98532407Y-122597738D02*
X98505564Y-122704563D01*
X98505564Y-122704563D02*
X98476017Y-122821794D01*
X98476017Y-122821794D02*
X98444466Y-122946668D01*
X98444466Y-122946668D02*
X98411613Y-123076427D01*
X98411613Y-123076427D02*
X98378157Y-123208310D01*
X98378157Y-123208310D02*
X98344798Y-123339557D01*
X98344798Y-123339557D02*
X98312237Y-123467407D01*
X98312237Y-123467407D02*
X98281174Y-123589102D01*
X98281174Y-123589102D02*
X98252310Y-123701880D01*
X98252310Y-123701880D02*
X98226344Y-123802981D01*
X98226344Y-123802981D02*
X98203976Y-123889645D01*
X98203976Y-123889645D02*
X98185908Y-123959113D01*
X98185908Y-123959113D02*
X98172839Y-124008623D01*
X98172839Y-124008623D02*
X98165469Y-124035416D01*
X98165469Y-124035416D02*
X98165151Y-124036481D01*
X98165151Y-124036481D02*
X98168530Y-124047082D01*
X98168530Y-124047082D02*
X98185135Y-124063195D01*
X98185135Y-124063195D02*
X98217117Y-124086232D01*
X98217117Y-124086232D02*
X98266630Y-124117607D01*
X98266630Y-124117607D02*
X98335826Y-124158732D01*
X98335826Y-124158732D02*
X98426858Y-124211021D01*
X98426858Y-124211021D02*
X98457930Y-124228633D01*
X98457930Y-124228633D02*
X98540389Y-124275680D01*
X98540389Y-124275680D02*
X98614168Y-124318570D01*
X98614168Y-124318570D02*
X98675988Y-124355331D01*
X98675988Y-124355331D02*
X98722572Y-124383994D01*
X98722572Y-124383994D02*
X98750641Y-124402588D01*
X98750641Y-124402588D02*
X98757575Y-124408799D01*
X98757575Y-124408799D02*
X98746149Y-124417622D01*
X98746149Y-124417622D02*
X98712818Y-124440694D01*
X98712818Y-124440694D02*
X98659005Y-124477075D01*
X98659005Y-124477075D02*
X98586133Y-124525826D01*
X98586133Y-124525826D02*
X98495623Y-124586007D01*
X98495623Y-124586007D02*
X98388899Y-124656680D01*
X98388899Y-124656680D02*
X98267383Y-124736904D01*
X98267383Y-124736904D02*
X98132497Y-124825740D01*
X98132497Y-124825740D02*
X97985663Y-124922249D01*
X97985663Y-124922249D02*
X97828305Y-125025492D01*
X97828305Y-125025492D02*
X97661845Y-125134528D01*
X97661845Y-125134528D02*
X97487704Y-125248419D01*
X97487704Y-125248419D02*
X97352038Y-125337030D01*
X97352038Y-125337030D02*
X97173018Y-125454004D01*
X97173018Y-125454004D02*
X97000600Y-125566882D01*
X97000600Y-125566882D02*
X96836210Y-125674720D01*
X96836210Y-125674720D02*
X96681271Y-125776575D01*
X96681271Y-125776575D02*
X96537205Y-125871504D01*
X96537205Y-125871504D02*
X96405436Y-125958564D01*
X96405436Y-125958564D02*
X96287387Y-126036813D01*
X96287387Y-126036813D02*
X96184481Y-126105307D01*
X96184481Y-126105307D02*
X96098143Y-126163102D01*
X96098143Y-126163102D02*
X96029795Y-126209257D01*
X96029795Y-126209257D02*
X95980860Y-126242828D01*
X95980860Y-126242828D02*
X95952762Y-126262872D01*
X95952762Y-126262872D02*
X95946218Y-126268466D01*
X95946218Y-126268466D02*
X95950233Y-126284370D01*
X95950233Y-126284370D02*
X95961810Y-126323896D01*
X95961810Y-126323896D02*
X95980054Y-126384145D01*
X95980054Y-126384145D02*
X96004073Y-126462218D01*
X96004073Y-126462218D02*
X96032973Y-126555218D01*
X96032973Y-126555218D02*
X96065860Y-126660245D01*
X96065860Y-126660245D02*
X96101841Y-126774400D01*
X96101841Y-126774400D02*
X96114797Y-126815334D01*
X96114797Y-126815334D02*
X96151373Y-126931683D01*
X96151373Y-126931683D02*
X96184781Y-127039715D01*
X96184781Y-127039715D02*
X96214176Y-127136568D01*
X96214176Y-127136568D02*
X96238716Y-127219382D01*
X96238716Y-127219382D02*
X96257557Y-127285297D01*
X96257557Y-127285297D02*
X96269856Y-127331452D01*
X96269856Y-127331452D02*
X96274770Y-127354987D01*
X96274770Y-127354987D02*
X96274579Y-127357362D01*
X96274579Y-127357362D02*
X96259731Y-127357074D01*
X96259731Y-127357074D02*
X96219222Y-127353633D01*
X96219222Y-127353633D02*
X96155023Y-127347262D01*
X96155023Y-127347262D02*
X96069104Y-127338180D01*
X96069104Y-127338180D02*
X95963433Y-127326609D01*
X95963433Y-127326609D02*
X95839982Y-127312769D01*
X95839982Y-127312769D02*
X95700721Y-127296882D01*
X95700721Y-127296882D02*
X95547618Y-127279167D01*
X95547618Y-127279167D02*
X95382645Y-127259847D01*
X95382645Y-127259847D02*
X95207771Y-127239142D01*
X95207771Y-127239142D02*
X95024966Y-127217273D01*
X95024966Y-127217273D02*
X95023729Y-127217124D01*
X95023729Y-127217124D02*
X93781959Y-127067808D01*
X93781959Y-127067808D02*
X92565636Y-127214411D01*
X92565636Y-127214411D02*
X92384041Y-127236254D01*
X92384041Y-127236254D02*
X92209917Y-127257114D01*
X92209917Y-127257114D02*
X92045308Y-127276748D01*
X92045308Y-127276748D02*
X91892255Y-127294919D01*
X91892255Y-127294919D02*
X91752803Y-127311387D01*
X91752803Y-127311387D02*
X91628994Y-127325911D01*
X91628994Y-127325911D02*
X91522870Y-127338251D01*
X91522870Y-127338251D02*
X91436476Y-127348169D01*
X91436476Y-127348169D02*
X91371854Y-127355423D01*
X91371854Y-127355423D02*
X91331047Y-127359775D01*
X91331047Y-127359775D02*
X91316512Y-127361014D01*
X91316512Y-127361014D02*
X91291314Y-127356837D01*
X91291314Y-127356837D02*
X91283712Y-127349463D01*
X91283712Y-127349463D02*
X91287788Y-127334076D01*
X91287788Y-127334076D02*
X91299416Y-127295068D01*
X91299416Y-127295068D02*
X91317696Y-127235338D01*
X91317696Y-127235338D02*
X91341727Y-127157788D01*
X91341727Y-127157788D02*
X91370611Y-127065316D01*
X91370611Y-127065316D02*
X91403446Y-126960824D01*
X91403446Y-126960824D02*
X91439334Y-126847210D01*
X91439334Y-126847210D02*
X91450726Y-126811261D01*
X91450726Y-126811261D02*
X91487385Y-126695287D01*
X91487385Y-126695287D02*
X91521257Y-126587408D01*
X91521257Y-126587408D02*
X91551441Y-126490546D01*
X91551441Y-126490546D02*
X91577035Y-126407627D01*
X91577035Y-126407627D02*
X91597139Y-126341575D01*
X91597139Y-126341575D02*
X91610851Y-126295316D01*
X91610851Y-126295316D02*
X91617270Y-126271773D01*
X91617270Y-126271773D02*
X91617639Y-126269579D01*
X91617639Y-126269579D02*
X91606197Y-126260202D01*
X91606197Y-126260202D02*
X91572846Y-126236590D01*
X91572846Y-126236590D02*
X91519007Y-126199688D01*
X91519007Y-126199688D02*
X91446106Y-126150439D01*
X91446106Y-126150439D02*
X91355565Y-126089787D01*
X91355565Y-126089787D02*
X91248806Y-126018679D01*
X91248806Y-126018679D02*
X91127253Y-125938056D01*
X91127253Y-125938056D02*
X90992329Y-125848865D01*
X90992329Y-125848865D02*
X90845457Y-125752049D01*
X90845457Y-125752049D02*
X90688060Y-125648552D01*
X90688060Y-125648552D02*
X90521562Y-125539319D01*
X90521562Y-125539319D02*
X90347384Y-125425295D01*
X90347384Y-125425295D02*
X90211941Y-125336790D01*
X90211941Y-125336790D02*
X90032949Y-125219835D01*
X90032949Y-125219835D02*
X89860562Y-125107031D01*
X89860562Y-125107031D02*
X89696203Y-124999315D01*
X89696203Y-124999315D02*
X89541295Y-124897627D01*
X89541295Y-124897627D02*
X89397259Y-124802907D01*
X89397259Y-124802907D02*
X89265517Y-124716094D01*
X89265517Y-124716094D02*
X89147492Y-124638127D01*
X89147492Y-124638127D02*
X89044606Y-124569944D01*
X89044606Y-124569944D02*
X88958282Y-124512487D01*
X88958282Y-124512487D02*
X88889941Y-124466692D01*
X88889941Y-124466692D02*
X88841006Y-124433501D01*
X88841006Y-124433501D02*
X88812899Y-124413852D01*
X88812899Y-124413852D02*
X88806343Y-124408559D01*
X88806343Y-124408559D02*
X88817951Y-124399112D01*
X88817951Y-124399112D02*
X88850593Y-124378074D01*
X88850593Y-124378074D02*
X88900989Y-124347414D01*
X88900989Y-124347414D02*
X88965863Y-124309099D01*
X88965863Y-124309099D02*
X89041936Y-124265097D01*
X89041936Y-124265097D02*
X89105988Y-124228633D01*
X89105988Y-124228633D02*
X89203815Y-124172812D01*
X89203815Y-124172812D02*
X89279177Y-124128567D01*
X89279177Y-124128567D02*
X89334226Y-124094486D01*
X89334226Y-124094486D02*
X89371114Y-124069155D01*
X89371114Y-124069155D02*
X89391994Y-124051163D01*
X89391994Y-124051163D02*
X89399020Y-124039095D01*
X89399020Y-124039095D02*
X89398767Y-124036481D01*
X89398767Y-124036481D02*
X89391832Y-124011447D01*
X89391832Y-124011447D02*
X89379147Y-123963491D01*
X89379147Y-123963491D02*
X89361413Y-123895374D01*
X89361413Y-123895374D02*
X89339330Y-123809855D01*
X89339330Y-123809855D02*
X89313598Y-123709697D01*
X89313598Y-123709697D02*
X89284918Y-123597658D01*
X89284918Y-123597658D02*
X89253989Y-123476500D01*
X89253989Y-123476500D02*
X89221512Y-123348983D01*
X89221512Y-123348983D02*
X89188186Y-123217868D01*
X89188186Y-123217868D02*
X89154713Y-123085914D01*
X89154713Y-123085914D02*
X89121792Y-122955882D01*
X89121792Y-122955882D02*
X89090124Y-122830534D01*
X89090124Y-122830534D02*
X89060409Y-122712628D01*
X89060409Y-122712628D02*
X89033346Y-122604926D01*
X89033346Y-122604926D02*
X89009637Y-122510188D01*
X89009637Y-122510188D02*
X88989981Y-122431175D01*
X88989981Y-122431175D02*
X88975079Y-122370647D01*
X88975079Y-122370647D02*
X88965630Y-122331364D01*
X88965630Y-122331364D02*
X88962335Y-122316087D01*
X88962335Y-122316087D02*
X88962354Y-122315987D01*
X88962354Y-122315987D02*
X88976393Y-122317939D01*
X88976393Y-122317939D02*
X88976393Y-122317939D01*
G36*
X88976393Y-122317939D02*
G01*
X89015066Y-122324799D01*
X89075704Y-122336060D01*
X89155638Y-122351210D01*
X89252198Y-122369742D01*
X89362717Y-122391144D01*
X89484524Y-122414909D01*
X89614951Y-122440526D01*
X89617188Y-122440967D01*
X89778354Y-122472947D01*
X89913950Y-122500363D01*
X90025792Y-122523630D01*
X90115695Y-122543159D01*
X90185478Y-122559365D01*
X90236956Y-122572660D01*
X90271947Y-122583457D01*
X90292265Y-122592169D01*
X90297204Y-122595608D01*
X90322147Y-122622453D01*
X90360452Y-122669311D01*
X90409893Y-122733132D01*
X90468247Y-122810866D01*
X90533288Y-122899463D01*
X90602792Y-122995874D01*
X90674533Y-123097048D01*
X90746288Y-123199937D01*
X90815830Y-123301490D01*
X90859546Y-123366467D01*
X91066083Y-123684668D01*
X91268437Y-124013552D01*
X91464308Y-124348858D01*
X91651397Y-124686325D01*
X91827403Y-125021694D01*
X91990026Y-125350703D01*
X92136968Y-125669092D01*
X92264563Y-125969233D01*
X92296732Y-126051260D01*
X92331699Y-126144875D01*
X92367821Y-126245236D01*
X92403460Y-126347498D01*
X92436973Y-126446817D01*
X92466720Y-126538352D01*
X92491060Y-126617258D01*
X92508352Y-126678691D01*
X92515777Y-126710744D01*
X92524293Y-126744030D01*
X92533240Y-126761689D01*
X92535153Y-126762548D01*
X92548508Y-126752468D01*
X92577144Y-126724284D01*
X92618291Y-126681081D01*
X92669176Y-126625946D01*
X92727031Y-126561962D01*
X92789084Y-126492216D01*
X92852564Y-126419793D01*
X92914702Y-126347778D01*
X92972727Y-126279256D01*
X93015098Y-126228079D01*
X93144862Y-126064280D01*
X93264359Y-125902245D01*
X93377834Y-125735624D01*
X93489535Y-125558069D01*
X93603707Y-125363229D01*
X93656623Y-125268942D01*
X93696026Y-125199513D01*
X93731331Y-125140332D01*
X93760240Y-125095010D01*
X93780455Y-125067158D01*
X93789518Y-125060175D01*
X93800052Y-125076292D01*
X93820685Y-125111695D01*
X93848410Y-125161112D01*
X93879356Y-125217672D01*
X94033177Y-125489432D01*
X94189493Y-125739619D01*
X94352420Y-125974450D01*
X94526074Y-126200139D01*
X94547674Y-126226713D01*
X94600561Y-126290421D01*
X94659768Y-126360080D01*
X94722533Y-126432611D01*
X94786090Y-126504936D01*
X94847678Y-126573977D01*
X94904532Y-126636657D01*
X94953889Y-126689896D01*
X94992984Y-126730618D01*
X95019055Y-126755743D01*
X95028765Y-126762548D01*
X95037257Y-126750361D01*
X95046219Y-126720137D01*
X95048141Y-126710744D01*
X95058971Y-126665851D01*
X95078097Y-126599800D01*
X95103879Y-126517434D01*
X95134676Y-126423597D01*
X95168847Y-126323133D01*
X95204751Y-126220886D01*
X95240746Y-126121697D01*
X95275193Y-126030412D01*
X95299355Y-125969233D01*
X95425984Y-125671402D01*
X95570317Y-125358521D01*
X95730035Y-125034883D01*
X95902823Y-124704779D01*
X96086365Y-124372501D01*
X96278344Y-124042342D01*
X96476444Y-123718592D01*
X96678349Y-123405543D01*
X96702990Y-123368501D01*
X96769755Y-123269644D01*
X96840222Y-123167388D01*
X96912169Y-123064778D01*
X96983376Y-122964859D01*
X97051624Y-122870678D01*
X97114690Y-122785278D01*
X97170356Y-122711707D01*
X97216400Y-122653008D01*
X97250603Y-122612228D01*
X97266106Y-122596158D01*
X97280812Y-122588221D01*
X97310581Y-122578132D01*
X97357113Y-122565504D01*
X97422103Y-122549953D01*
X97507248Y-122531094D01*
X97614247Y-122508541D01*
X97744795Y-122481909D01*
X97900590Y-122450813D01*
X97946122Y-122441816D01*
X98076732Y-122416127D01*
X98198767Y-122392273D01*
X98309562Y-122370763D01*
X98406447Y-122352110D01*
X98486755Y-122336824D01*
X98547818Y-122325415D01*
X98586970Y-122318395D01*
X98601541Y-122316274D01*
X98601563Y-122316286D01*
X98598741Y-122329686D01*
X98589714Y-122367291D01*
X98575183Y-122426342D01*
X98555847Y-122504077D01*
X98532407Y-122597738D01*
X98505564Y-122704563D01*
X98476017Y-122821794D01*
X98444466Y-122946668D01*
X98411613Y-123076427D01*
X98378157Y-123208310D01*
X98344798Y-123339557D01*
X98312237Y-123467407D01*
X98281174Y-123589102D01*
X98252310Y-123701880D01*
X98226344Y-123802981D01*
X98203976Y-123889645D01*
X98185908Y-123959113D01*
X98172839Y-124008623D01*
X98165469Y-124035416D01*
X98165151Y-124036481D01*
X98168530Y-124047082D01*
X98185135Y-124063195D01*
X98217117Y-124086232D01*
X98266630Y-124117607D01*
X98335826Y-124158732D01*
X98426858Y-124211021D01*
X98457930Y-124228633D01*
X98540389Y-124275680D01*
X98614168Y-124318570D01*
X98675988Y-124355331D01*
X98722572Y-124383994D01*
X98750641Y-124402588D01*
X98757575Y-124408799D01*
X98746149Y-124417622D01*
X98712818Y-124440694D01*
X98659005Y-124477075D01*
X98586133Y-124525826D01*
X98495623Y-124586007D01*
X98388899Y-124656680D01*
X98267383Y-124736904D01*
X98132497Y-124825740D01*
X97985663Y-124922249D01*
X97828305Y-125025492D01*
X97661845Y-125134528D01*
X97487704Y-125248419D01*
X97352038Y-125337030D01*
X97173018Y-125454004D01*
X97000600Y-125566882D01*
X96836210Y-125674720D01*
X96681271Y-125776575D01*
X96537205Y-125871504D01*
X96405436Y-125958564D01*
X96287387Y-126036813D01*
X96184481Y-126105307D01*
X96098143Y-126163102D01*
X96029795Y-126209257D01*
X95980860Y-126242828D01*
X95952762Y-126262872D01*
X95946218Y-126268466D01*
X95950233Y-126284370D01*
X95961810Y-126323896D01*
X95980054Y-126384145D01*
X96004073Y-126462218D01*
X96032973Y-126555218D01*
X96065860Y-126660245D01*
X96101841Y-126774400D01*
X96114797Y-126815334D01*
X96151373Y-126931683D01*
X96184781Y-127039715D01*
X96214176Y-127136568D01*
X96238716Y-127219382D01*
X96257557Y-127285297D01*
X96269856Y-127331452D01*
X96274770Y-127354987D01*
X96274579Y-127357362D01*
X96259731Y-127357074D01*
X96219222Y-127353633D01*
X96155023Y-127347262D01*
X96069104Y-127338180D01*
X95963433Y-127326609D01*
X95839982Y-127312769D01*
X95700721Y-127296882D01*
X95547618Y-127279167D01*
X95382645Y-127259847D01*
X95207771Y-127239142D01*
X95024966Y-127217273D01*
X95023729Y-127217124D01*
X93781959Y-127067808D01*
X92565636Y-127214411D01*
X92384041Y-127236254D01*
X92209917Y-127257114D01*
X92045308Y-127276748D01*
X91892255Y-127294919D01*
X91752803Y-127311387D01*
X91628994Y-127325911D01*
X91522870Y-127338251D01*
X91436476Y-127348169D01*
X91371854Y-127355423D01*
X91331047Y-127359775D01*
X91316512Y-127361014D01*
X91291314Y-127356837D01*
X91283712Y-127349463D01*
X91287788Y-127334076D01*
X91299416Y-127295068D01*
X91317696Y-127235338D01*
X91341727Y-127157788D01*
X91370611Y-127065316D01*
X91403446Y-126960824D01*
X91439334Y-126847210D01*
X91450726Y-126811261D01*
X91487385Y-126695287D01*
X91521257Y-126587408D01*
X91551441Y-126490546D01*
X91577035Y-126407627D01*
X91597139Y-126341575D01*
X91610851Y-126295316D01*
X91617270Y-126271773D01*
X91617639Y-126269579D01*
X91606197Y-126260202D01*
X91572846Y-126236590D01*
X91519007Y-126199688D01*
X91446106Y-126150439D01*
X91355565Y-126089787D01*
X91248806Y-126018679D01*
X91127253Y-125938056D01*
X90992329Y-125848865D01*
X90845457Y-125752049D01*
X90688060Y-125648552D01*
X90521562Y-125539319D01*
X90347384Y-125425295D01*
X90211941Y-125336790D01*
X90032949Y-125219835D01*
X89860562Y-125107031D01*
X89696203Y-124999315D01*
X89541295Y-124897627D01*
X89397259Y-124802907D01*
X89265517Y-124716094D01*
X89147492Y-124638127D01*
X89044606Y-124569944D01*
X88958282Y-124512487D01*
X88889941Y-124466692D01*
X88841006Y-124433501D01*
X88812899Y-124413852D01*
X88806343Y-124408559D01*
X88817951Y-124399112D01*
X88850593Y-124378074D01*
X88900989Y-124347414D01*
X88965863Y-124309099D01*
X89041936Y-124265097D01*
X89105988Y-124228633D01*
X89203815Y-124172812D01*
X89279177Y-124128567D01*
X89334226Y-124094486D01*
X89371114Y-124069155D01*
X89391994Y-124051163D01*
X89399020Y-124039095D01*
X89398767Y-124036481D01*
X89391832Y-124011447D01*
X89379147Y-123963491D01*
X89361413Y-123895374D01*
X89339330Y-123809855D01*
X89313598Y-123709697D01*
X89284918Y-123597658D01*
X89253989Y-123476500D01*
X89221512Y-123348983D01*
X89188186Y-123217868D01*
X89154713Y-123085914D01*
X89121792Y-122955882D01*
X89090124Y-122830534D01*
X89060409Y-122712628D01*
X89033346Y-122604926D01*
X89009637Y-122510188D01*
X88989981Y-122431175D01*
X88975079Y-122370647D01*
X88965630Y-122331364D01*
X88962335Y-122316087D01*
X88962354Y-122315987D01*
X88976393Y-122317939D01*
G37*
X88976393Y-122317939D02*
X89015066Y-122324799D01*
X89075704Y-122336060D01*
X89155638Y-122351210D01*
X89252198Y-122369742D01*
X89362717Y-122391144D01*
X89484524Y-122414909D01*
X89614951Y-122440526D01*
X89617188Y-122440967D01*
X89778354Y-122472947D01*
X89913950Y-122500363D01*
X90025792Y-122523630D01*
X90115695Y-122543159D01*
X90185478Y-122559365D01*
X90236956Y-122572660D01*
X90271947Y-122583457D01*
X90292265Y-122592169D01*
X90297204Y-122595608D01*
X90322147Y-122622453D01*
X90360452Y-122669311D01*
X90409893Y-122733132D01*
X90468247Y-122810866D01*
X90533288Y-122899463D01*
X90602792Y-122995874D01*
X90674533Y-123097048D01*
X90746288Y-123199937D01*
X90815830Y-123301490D01*
X90859546Y-123366467D01*
X91066083Y-123684668D01*
X91268437Y-124013552D01*
X91464308Y-124348858D01*
X91651397Y-124686325D01*
X91827403Y-125021694D01*
X91990026Y-125350703D01*
X92136968Y-125669092D01*
X92264563Y-125969233D01*
X92296732Y-126051260D01*
X92331699Y-126144875D01*
X92367821Y-126245236D01*
X92403460Y-126347498D01*
X92436973Y-126446817D01*
X92466720Y-126538352D01*
X92491060Y-126617258D01*
X92508352Y-126678691D01*
X92515777Y-126710744D01*
X92524293Y-126744030D01*
X92533240Y-126761689D01*
X92535153Y-126762548D01*
X92548508Y-126752468D01*
X92577144Y-126724284D01*
X92618291Y-126681081D01*
X92669176Y-126625946D01*
X92727031Y-126561962D01*
X92789084Y-126492216D01*
X92852564Y-126419793D01*
X92914702Y-126347778D01*
X92972727Y-126279256D01*
X93015098Y-126228079D01*
X93144862Y-126064280D01*
X93264359Y-125902245D01*
X93377834Y-125735624D01*
X93489535Y-125558069D01*
X93603707Y-125363229D01*
X93656623Y-125268942D01*
X93696026Y-125199513D01*
X93731331Y-125140332D01*
X93760240Y-125095010D01*
X93780455Y-125067158D01*
X93789518Y-125060175D01*
X93800052Y-125076292D01*
X93820685Y-125111695D01*
X93848410Y-125161112D01*
X93879356Y-125217672D01*
X94033177Y-125489432D01*
X94189493Y-125739619D01*
X94352420Y-125974450D01*
X94526074Y-126200139D01*
X94547674Y-126226713D01*
X94600561Y-126290421D01*
X94659768Y-126360080D01*
X94722533Y-126432611D01*
X94786090Y-126504936D01*
X94847678Y-126573977D01*
X94904532Y-126636657D01*
X94953889Y-126689896D01*
X94992984Y-126730618D01*
X95019055Y-126755743D01*
X95028765Y-126762548D01*
X95037257Y-126750361D01*
X95046219Y-126720137D01*
X95048141Y-126710744D01*
X95058971Y-126665851D01*
X95078097Y-126599800D01*
X95103879Y-126517434D01*
X95134676Y-126423597D01*
X95168847Y-126323133D01*
X95204751Y-126220886D01*
X95240746Y-126121697D01*
X95275193Y-126030412D01*
X95299355Y-125969233D01*
X95425984Y-125671402D01*
X95570317Y-125358521D01*
X95730035Y-125034883D01*
X95902823Y-124704779D01*
X96086365Y-124372501D01*
X96278344Y-124042342D01*
X96476444Y-123718592D01*
X96678349Y-123405543D01*
X96702990Y-123368501D01*
X96769755Y-123269644D01*
X96840222Y-123167388D01*
X96912169Y-123064778D01*
X96983376Y-122964859D01*
X97051624Y-122870678D01*
X97114690Y-122785278D01*
X97170356Y-122711707D01*
X97216400Y-122653008D01*
X97250603Y-122612228D01*
X97266106Y-122596158D01*
X97280812Y-122588221D01*
X97310581Y-122578132D01*
X97357113Y-122565504D01*
X97422103Y-122549953D01*
X97507248Y-122531094D01*
X97614247Y-122508541D01*
X97744795Y-122481909D01*
X97900590Y-122450813D01*
X97946122Y-122441816D01*
X98076732Y-122416127D01*
X98198767Y-122392273D01*
X98309562Y-122370763D01*
X98406447Y-122352110D01*
X98486755Y-122336824D01*
X98547818Y-122325415D01*
X98586970Y-122318395D01*
X98601541Y-122316274D01*
X98601563Y-122316286D01*
X98598741Y-122329686D01*
X98589714Y-122367291D01*
X98575183Y-122426342D01*
X98555847Y-122504077D01*
X98532407Y-122597738D01*
X98505564Y-122704563D01*
X98476017Y-122821794D01*
X98444466Y-122946668D01*
X98411613Y-123076427D01*
X98378157Y-123208310D01*
X98344798Y-123339557D01*
X98312237Y-123467407D01*
X98281174Y-123589102D01*
X98252310Y-123701880D01*
X98226344Y-123802981D01*
X98203976Y-123889645D01*
X98185908Y-123959113D01*
X98172839Y-124008623D01*
X98165469Y-124035416D01*
X98165151Y-124036481D01*
X98168530Y-124047082D01*
X98185135Y-124063195D01*
X98217117Y-124086232D01*
X98266630Y-124117607D01*
X98335826Y-124158732D01*
X98426858Y-124211021D01*
X98457930Y-124228633D01*
X98540389Y-124275680D01*
X98614168Y-124318570D01*
X98675988Y-124355331D01*
X98722572Y-124383994D01*
X98750641Y-124402588D01*
X98757575Y-124408799D01*
X98746149Y-124417622D01*
X98712818Y-124440694D01*
X98659005Y-124477075D01*
X98586133Y-124525826D01*
X98495623Y-124586007D01*
X98388899Y-124656680D01*
X98267383Y-124736904D01*
X98132497Y-124825740D01*
X97985663Y-124922249D01*
X97828305Y-125025492D01*
X97661845Y-125134528D01*
X97487704Y-125248419D01*
X97352038Y-125337030D01*
X97173018Y-125454004D01*
X97000600Y-125566882D01*
X96836210Y-125674720D01*
X96681271Y-125776575D01*
X96537205Y-125871504D01*
X96405436Y-125958564D01*
X96287387Y-126036813D01*
X96184481Y-126105307D01*
X96098143Y-126163102D01*
X96029795Y-126209257D01*
X95980860Y-126242828D01*
X95952762Y-126262872D01*
X95946218Y-126268466D01*
X95950233Y-126284370D01*
X95961810Y-126323896D01*
X95980054Y-126384145D01*
X96004073Y-126462218D01*
X96032973Y-126555218D01*
X96065860Y-126660245D01*
X96101841Y-126774400D01*
X96114797Y-126815334D01*
X96151373Y-126931683D01*
X96184781Y-127039715D01*
X96214176Y-127136568D01*
X96238716Y-127219382D01*
X96257557Y-127285297D01*
X96269856Y-127331452D01*
X96274770Y-127354987D01*
X96274579Y-127357362D01*
X96259731Y-127357074D01*
X96219222Y-127353633D01*
X96155023Y-127347262D01*
X96069104Y-127338180D01*
X95963433Y-127326609D01*
X95839982Y-127312769D01*
X95700721Y-127296882D01*
X95547618Y-127279167D01*
X95382645Y-127259847D01*
X95207771Y-127239142D01*
X95024966Y-127217273D01*
X95023729Y-127217124D01*
X93781959Y-127067808D01*
X92565636Y-127214411D01*
X92384041Y-127236254D01*
X92209917Y-127257114D01*
X92045308Y-127276748D01*
X91892255Y-127294919D01*
X91752803Y-127311387D01*
X91628994Y-127325911D01*
X91522870Y-127338251D01*
X91436476Y-127348169D01*
X91371854Y-127355423D01*
X91331047Y-127359775D01*
X91316512Y-127361014D01*
X91291314Y-127356837D01*
X91283712Y-127349463D01*
X91287788Y-127334076D01*
X91299416Y-127295068D01*
X91317696Y-127235338D01*
X91341727Y-127157788D01*
X91370611Y-127065316D01*
X91403446Y-126960824D01*
X91439334Y-126847210D01*
X91450726Y-126811261D01*
X91487385Y-126695287D01*
X91521257Y-126587408D01*
X91551441Y-126490546D01*
X91577035Y-126407627D01*
X91597139Y-126341575D01*
X91610851Y-126295316D01*
X91617270Y-126271773D01*
X91617639Y-126269579D01*
X91606197Y-126260202D01*
X91572846Y-126236590D01*
X91519007Y-126199688D01*
X91446106Y-126150439D01*
X91355565Y-126089787D01*
X91248806Y-126018679D01*
X91127253Y-125938056D01*
X90992329Y-125848865D01*
X90845457Y-125752049D01*
X90688060Y-125648552D01*
X90521562Y-125539319D01*
X90347384Y-125425295D01*
X90211941Y-125336790D01*
X90032949Y-125219835D01*
X89860562Y-125107031D01*
X89696203Y-124999315D01*
X89541295Y-124897627D01*
X89397259Y-124802907D01*
X89265517Y-124716094D01*
X89147492Y-124638127D01*
X89044606Y-124569944D01*
X88958282Y-124512487D01*
X88889941Y-124466692D01*
X88841006Y-124433501D01*
X88812899Y-124413852D01*
X88806343Y-124408559D01*
X88817951Y-124399112D01*
X88850593Y-124378074D01*
X88900989Y-124347414D01*
X88965863Y-124309099D01*
X89041936Y-124265097D01*
X89105988Y-124228633D01*
X89203815Y-124172812D01*
X89279177Y-124128567D01*
X89334226Y-124094486D01*
X89371114Y-124069155D01*
X89391994Y-124051163D01*
X89399020Y-124039095D01*
X89398767Y-124036481D01*
X89391832Y-124011447D01*
X89379147Y-123963491D01*
X89361413Y-123895374D01*
X89339330Y-123809855D01*
X89313598Y-123709697D01*
X89284918Y-123597658D01*
X89253989Y-123476500D01*
X89221512Y-123348983D01*
X89188186Y-123217868D01*
X89154713Y-123085914D01*
X89121792Y-122955882D01*
X89090124Y-122830534D01*
X89060409Y-122712628D01*
X89033346Y-122604926D01*
X89009637Y-122510188D01*
X88989981Y-122431175D01*
X88975079Y-122370647D01*
X88965630Y-122331364D01*
X88962335Y-122316087D01*
X88962354Y-122315987D01*
X88976393Y-122317939D01*
%LPC*%
D13*
X124160000Y-133290000D03*
X124160000Y-131290000D03*
D14*
X129240000Y-133507500D03*
X129240000Y-130532500D03*
D15*
X143464000Y-131362000D03*
X143464000Y-137862000D03*
X147964000Y-131362000D03*
X147964000Y-137862000D03*
D14*
X162260000Y-133290000D03*
X162260000Y-130315000D03*
D15*
X111714000Y-137862000D03*
X111714000Y-131362000D03*
X116214000Y-137862000D03*
X116214000Y-131362000D03*
D13*
X157180000Y-133290000D03*
X157180000Y-131290000D03*
D16*
X174960000Y-115510000D03*
X116540000Y-115510000D03*
X174960000Y-64710000D03*
X116540000Y-64710000D03*
D17*
X155910000Y-115510000D03*
X153370000Y-115510000D03*
X150830000Y-115510000D03*
X148290000Y-115510000D03*
X145750000Y-115510000D03*
X143210000Y-115510000D03*
X140670000Y-115510000D03*
X138130000Y-115510000D03*
X135590000Y-115510000D03*
D15*
X189744000Y-85066000D03*
X196244000Y-85066000D03*
X196244000Y-89566000D03*
X189744000Y-89566000D03*
D17*
X88600000Y-69949000D03*
X91140000Y-69949000D03*
X93680000Y-69949000D03*
X96220000Y-69949000D03*
X98760000Y-69949000D03*
X101300000Y-69949000D03*
X103840000Y-69949000D03*
X106380000Y-69949000D03*
X108920000Y-69949000D03*
D15*
X175214000Y-137862000D03*
X175214000Y-131362000D03*
X179714000Y-131362000D03*
X179714000Y-137862000D03*
D18*
X202900000Y-63440000D03*
X88600000Y-143450000D03*
X88600000Y-63440000D03*
D19*
X205440000Y-71060000D03*
X205440000Y-76140000D03*
X197820000Y-71060000D03*
X197820000Y-73600000D03*
X197820000Y-76140000D03*
X200360000Y-71060000D03*
X200360000Y-73600000D03*
X200360000Y-76140000D03*
D20*
X145750000Y-63440000D03*
X155874000Y-123857000D03*
X130220000Y-108490000D03*
X130220000Y-140240000D03*
X158250000Y-100240000D03*
X133250000Y-100240000D03*
D19*
X150370000Y-141145000D03*
X147830000Y-141145000D03*
X145290000Y-141145000D03*
X142750000Y-141145000D03*
X140210000Y-141145000D03*
X137670000Y-141145000D03*
D21*
X187390000Y-63530000D03*
D22*
X185390000Y-63530000D03*
D16*
X185120000Y-97730000D03*
X202900000Y-97730000D03*
X202900000Y-143450000D03*
X185120000Y-143450000D03*
D23*
X204170000Y-139640000D03*
D17*
X204170000Y-137100000D03*
X204170000Y-134560000D03*
X204170000Y-132020000D03*
X204170000Y-129480000D03*
X204170000Y-126940000D03*
X204170000Y-124400000D03*
X204170000Y-121860000D03*
X204170000Y-119320000D03*
X204170000Y-116780000D03*
X204170000Y-114240000D03*
X204170000Y-111700000D03*
X204170000Y-109160000D03*
X204170000Y-106620000D03*
X204170000Y-104080000D03*
X204170000Y-101540000D03*
D23*
X183850000Y-111700000D03*
D17*
X183850000Y-114240000D03*
X183850000Y-116780000D03*
X183850000Y-119320000D03*
X183850000Y-121860000D03*
X183850000Y-124400000D03*
X183850000Y-126940000D03*
X183850000Y-129480000D03*
X183850000Y-132020000D03*
X183850000Y-134560000D03*
X183850000Y-137100000D03*
X183850000Y-139640000D03*
X105205000Y-119320000D03*
X105205000Y-121860000D03*
X105205000Y-124400000D03*
X105205000Y-126940000D03*
X105205000Y-129480000D03*
X105205000Y-132020000D03*
X105205000Y-134560000D03*
M02*
